<svg width="31" height="23" viewBox="0 0 31 23" fill="none" xmlns="http://www.w3.org/2000/svg">
<rect x="2.14648" y="0.446289" width="29" height="19" rx="9" transform="rotate(6.38609 2.14648 0.446289)" fill="#FA9DCD"/>
<path d="M7.53017 15.1363L6.13488 14.9801L7.09188 6.42951L8.46332 6.58301L9.8918 11.6212L10.0818 12.6205L10.1278 11.4544L10.6457 6.82726L12.041 6.98343L11.084 15.534L9.74832 15.3845L8.27614 10.3053L8.09279 9.24632L8.04538 10.533L7.53017 15.1363ZM16.1265 16.0984L12.0599 15.6433L13.0169 7.09266L17.012 7.53979L16.8558 8.93508L14.3872 8.65879L14.1496 10.7815L16.3201 11.0245L16.1626 12.4317L13.9921 12.1887L13.7479 14.3711L16.288 14.6554L16.1265 16.0984ZM19.3103 16.4547L17.8911 16.2959L17.5006 7.59447L18.9793 7.75998L19.1027 12.5917L18.9874 14.1606L19.3186 12.7124L20.8278 7.96686L21.8534 8.08165L22.2165 13.0368L22.1834 14.627L22.4776 12.9694L23.7495 8.29387L25.2164 8.45804L22.7568 16.8405L21.3495 16.683L20.9877 11.8246L21.0431 10.4663L20.7969 11.8032L19.3103 16.4547Z" fill="black"/>
</svg>
