<svg width="30" height="30" viewBox="0 0 30 30" fill="none" xmlns="http://www.w3.org/2000/svg">
<mask id="path-1-inside-1_789_685" fill="white">
<path fill-rule="evenodd" clip-rule="evenodd" d="M15.0032 29.912C15.0168 29.9121 15.0304 29.9121 15.0439 29.9121C23.3039 29.9121 30 23.216 30 14.956C30 6.69605 23.3039 0 15.0439 0C15.0304 0 15.0168 1.80698e-05 15.0032 5.41866e-05V29.912Z"/>
</mask>
<path fill-rule="evenodd" clip-rule="evenodd" d="M15.0032 29.912C15.0168 29.9121 15.0304 29.9121 15.0439 29.9121C23.3039 29.9121 30 23.216 30 14.956C30 6.69605 23.3039 0 15.0439 0C15.0304 0 15.0168 1.80698e-05 15.0032 5.41866e-05V29.912Z" fill="#FA9DCD"/>
<path d="M15.0032 29.912H14.0032V30.9094L15.0006 30.912L15.0032 29.912ZM15.0032 5.41866e-05L15.0006 -0.999942L14.0032 -0.997286V5.41866e-05H15.0032ZM15.0439 28.9121C15.0312 28.9121 15.0185 28.9121 15.0059 28.9121L15.0006 30.912C15.0151 30.9121 15.0295 30.9121 15.0439 30.9121V28.9121ZM29 14.956C29 22.6638 22.7516 28.9121 15.0439 28.9121V30.9121C23.8562 30.9121 31 23.7683 31 14.956H29ZM15.0439 1C22.7516 1 29 7.24834 29 14.956H31C31 6.14377 23.8562 -1 15.0439 -1V1ZM15.0059 1.00005C15.0186 1.00002 15.0312 1 15.0439 1V-1C15.0295 -1 15.015 -0.999981 15.0006 -0.999942L15.0059 1.00005ZM14.0032 5.41866e-05V29.912H16.0032V5.41866e-05H14.0032Z" fill="black" mask="url(#path-1-inside-1_789_685)"/>
<mask id="path-3-inside-2_789_685" fill="white">
<path fill-rule="evenodd" clip-rule="evenodd" d="M0.000305176 29.912C0.0138657 29.9121 0.0274304 29.9121 0.0409994 29.9121C8.301 29.9121 14.997 23.216 14.997 14.956C14.997 6.69605 8.301 0 0.0409994 0C0.0274304 0 0.0138657 1.80698e-05 0.000305176 5.41866e-05V29.912Z"/>
</mask>
<path d="M0.000305176 29.912H-0.999695V30.9094L-0.00236725 30.912L0.000305176 29.912ZM0.000305176 5.41866e-05L-0.0023582 -0.999942L-0.999695 -0.997286V5.41866e-05H0.000305176ZM0.0409994 28.9121C0.0282732 28.9121 0.0156005 28.9121 0.0029776 28.9121L-0.00236725 30.912C0.0121309 30.9121 0.0265877 30.9121 0.0409994 30.9121V28.9121ZM13.997 14.956C13.997 22.6638 7.74871 28.9121 0.0409994 28.9121V30.9121C8.85328 30.9121 15.997 23.7683 15.997 14.956H13.997ZM0.0409994 1C7.74871 1 13.997 7.24834 13.997 14.956H15.997C15.997 6.14377 8.85328 -1 0.0409994 -1V1ZM0.00296855 1.00005C0.0156413 1.00002 0.0283182 1 0.0409994 1V-1C0.0265426 -1 0.0120901 -0.999981 -0.0023582 -0.999942L0.00296855 1.00005ZM-0.999695 5.41866e-05V29.912H1.00031V5.41866e-05H-0.999695Z" fill="black" mask="url(#path-3-inside-2_789_685)"/>
</svg>
