<svg width="1440" height="1045" viewBox="0 0 1440 1045" fill="none" xmlns="http://www.w3.org/2000/svg">
<mask id="mask0_831_414" style="mask-type:alpha" maskUnits="userSpaceOnUse" x="0" y="0" width="1440" height="1045">
<rect width="1440" height="1045" fill="#D9D9D9"/>
</mask>
<g mask="url(#mask0_831_414)">
<path d="M1195.67 2.45312V1061" stroke="black" stroke-opacity="0.11" stroke-width="1.68472"/>
<path d="M530.86 2.45312V1061" stroke="black" stroke-opacity="0.11" stroke-width="1.68472"/>
<path d="M1291.35 2.45312V1061" stroke="black" stroke-opacity="0.11" stroke-width="1.68472"/>
<path d="M625.308 2.45312V1061" stroke="black" stroke-opacity="0.11" stroke-width="1.68472"/>
<path d="M54.9434 2.45312V1061" stroke="black" stroke-opacity="0.11" stroke-width="1.68472"/>
<path d="M1385.79 2.45312V1061" stroke="black" stroke-opacity="0.11" stroke-width="1.68472"/>
<path d="M720.981 2.45312V1061" stroke="black" stroke-opacity="0.11" stroke-width="1.68472"/>
<path d="M150.617 2.45312V1061" stroke="black" stroke-opacity="0.11" stroke-width="1.68472"/>
<path d="M815.429 2.45312V1061" stroke="black" stroke-opacity="0.11" stroke-width="1.68472"/>
<path d="M245.064 2.45312V1061" stroke="black" stroke-opacity="0.11" stroke-width="1.68472"/>
<path d="M911.103 2.45312V1061" stroke="black" stroke-opacity="0.11" stroke-width="1.68472"/>
<path d="M340.738 2.45312V1061" stroke="black" stroke-opacity="0.11" stroke-width="1.68472"/>
<path d="M1005.55 2.45312V1061" stroke="black" stroke-opacity="0.11" stroke-width="1.68472"/>
<path d="M435.186 2.45312V1061" stroke="black" stroke-opacity="0.11" stroke-width="1.68472"/>
<path d="M1101.22 2.45312V1061" stroke="black" stroke-opacity="0.11" stroke-width="1.68472"/>
<path d="M1561.2 570.364L-210 570.364" stroke="black" stroke-opacity="0.11" stroke-width="1.68472"/>
<path d="M1561.2 664.812L-210 664.812" stroke="black" stroke-opacity="0.11" stroke-width="1.68472"/>
<path d="M1561.2 0.00012207L-210 1.42055e-05" stroke="black" stroke-opacity="0.11" stroke-width="1.68472"/>
<path d="M1561.2 760.486L-210 760.486" stroke="black" stroke-opacity="0.11" stroke-width="1.68472"/>
<path d="M1561.2 94.4478L-210 94.4476" stroke="black" stroke-opacity="0.11" stroke-width="1.68472"/>
<path d="M1561.2 854.933L-210 854.933" stroke="black" stroke-opacity="0.11" stroke-width="1.68472"/>
<path d="M1561.2 190.121L-210 190.121" stroke="black" stroke-opacity="0.11" stroke-width="1.68472"/>
<path d="M1561.2 950.607L-210 950.607" stroke="black" stroke-opacity="0.11" stroke-width="1.68472"/>
<path d="M1561.2 284.569L-210 284.569" stroke="black" stroke-opacity="0.11" stroke-width="1.68472"/>
<path d="M1561.2 1045.05L-210 1045.05" stroke="black" stroke-opacity="0.11" stroke-width="1.68472"/>
<path d="M1561.2 380.243L-210 380.243" stroke="black" stroke-opacity="0.11" stroke-width="1.68472"/>
<path d="M1561.2 474.69L-210 474.69" stroke="black" stroke-opacity="0.11" stroke-width="1.68472"/>
<rect width="1440" height="277" fill="url(#paint0_linear_831_414)"/>
</g>
<defs>
<linearGradient id="paint0_linear_831_414" x1="720" y1="0" x2="720" y2="277" gradientUnits="userSpaceOnUse">
<stop stop-color="#EEEEEC"/>
<stop offset="1" stop-color="#EEEEEC" stop-opacity="0"/>
</linearGradient>
</defs>
</svg>
