<svg width="38" height="38" viewBox="0 0 38 38" fill="none" xmlns="http://www.w3.org/2000/svg">
<path d="M27.782 30.3377L28.0625 31.0446L28.6003 30.5068L36.3536 22.7536L36.6009 22.5062L36.4534 22.1891C35.2264 19.5511 34.658 15.8867 34.7204 11.9897C34.7834 10.0423 34.9716 8.2386 35.4047 6.50631L35.4734 6.23167L35.2732 6.03149L32.0956 2.85392L31.9024 2.66073L31.6355 2.71897C28.2086 3.46664 24.142 3.53126 20.4465 2.96813C18.6264 2.65403 17.0347 2.22035 15.7685 1.55708L15.4414 1.38578L15.1814 1.6479L7.49172 9.40118L6.95856 9.93875L7.66231 10.218C11.2648 11.6476 15.124 12.2709 18.6648 12.0822L1.64645 29.1007L1.29118 29.4559L1.64816 29.8095L8.25751 36.3553L8.61105 36.7054L8.9629 36.3536L25.9166 19.3998C25.7315 22.892 26.3556 26.7431 27.782 30.3377Z" stroke="white"/>
</svg>
