<svg width="72" height="38" viewBox="0 0 72 38" fill="none" xmlns="http://www.w3.org/2000/svg">
<path d="M15.4063 15.0955C12.1951 14.3489 11.5844 14.0001 11.7262 13.1935C11.8516 12.496 12.4459 11.9238 13.8198 11.9238C15.8861 11.9238 16.1533 12.9701 16.1805 13.6949H23.0393C23.35 10.7957 21.5454 7.35703 14.8284 7.35703C8.11145 7.35703 5.08009 10.8775 4.55124 13.8856C4.066 16.6486 4.59486 18.8993 10.5213 20.4851L21.6163 18.2889C20.733 16.9647 18.8739 15.9074 15.4063 15.1009V15.0955Z" fill="black"/>
<path d="M26.5937 0L23.4315 17.9237L31.3589 16.3542L34.2485 0H26.5937Z" fill="black"/>
<path d="M44.0624 7.3572C36.7511 7.32995 34.1178 10.7032 33.24 14.1419H40.3059C40.7203 12.8122 41.3145 12.022 43.0483 12.022C44.5694 12.022 45.0383 12.6815 45.0274 13.6515L52.3277 12.2073C51.9515 9.03567 49.4272 7.38444 44.0624 7.36265V7.3572Z" fill="black"/>
<path d="M8.98913 22.3541C11.5898 22.9644 12.4294 23.3296 12.2549 24.3432C12.0859 25.2914 11.3553 25.7546 9.83965 25.7546C8.16586 25.7546 7.20629 25.0244 7.11361 23.7165H0.0149933C-0.208542 27.3568 2.03772 30.5666 8.75469 30.5666C15.4717 30.5666 19.0373 27.3895 19.6807 23.7219C19.9369 22.2669 19.866 21.008 19.1464 19.9236L8.05137 22.1197C8.35123 22.2015 8.662 22.2778 8.98913 22.3541Z" fill="black"/>
<path d="M19.1082 30.0602H26.7629L28.8892 17.9893L20.9619 19.5588L19.1082 30.0602Z" fill="black"/>
<path d="M42.4868 15.9402L42.2851 17.0791H39.7608C33.4745 17.0791 29.2273 19.1663 28.3768 24.0056C27.7335 27.6677 29.7126 30.5669 34.3305 30.5669C37.6454 30.5669 39.3573 29.4443 40.5622 28.1691C40.5023 28.6759 40.4586 29.6459 40.5459 30.071H47.6063C47.5954 29.3789 48.0261 26.289 48.435 23.9674L49.7381 16.5832C49.918 15.5696 49.9562 14.6595 49.858 13.8421L42.5577 15.2862C42.5577 15.4933 42.5304 15.7113 42.4923 15.9402H42.4868ZM41.4945 21.5696C41.102 23.7821 40.4259 25.5587 37.8307 25.5587C36.3042 25.5587 35.7644 24.5887 35.977 23.3789C36.2442 21.8639 37.2746 20.9375 39.9134 20.9375H41.609L41.4945 21.5696Z" fill="black"/>
<path d="M63.5646 11.1226C61.1003 17.0845 59.6282 21.0027 58.805 23.4768H58.6687C58.7559 21.6185 58.5378 16.7684 58.2161 12.1853L50.4415 13.7275L53.3365 30.3815C52.5242 31.9128 51.4719 32.4033 49.6891 32.4033C49.1875 32.4033 48.5278 32.3488 48.2606 32.327L47.2902 37.8147C48.4024 37.9346 49.9235 38 50.4197 38C56.9185 38 58.9958 35.4932 62.2507 28.8719L71.7864 9.49862L63.5646 11.128V11.1226Z" fill="black"/>
<path d="M60.4785 7.85844H52.1696L52.9056 12.0873L60.6803 10.5451C60.6148 9.62956 60.5494 8.72493 60.4785 7.85844Z" fill="black"/>
</svg>
