<svg width="1440" height="854" viewBox="0 0 1440 854" fill="none" xmlns="http://www.w3.org/2000/svg">
<rect y="1" width="1440" height="853" fill="#4D17F5"/>
<mask id="mask0_1018_427" style="mask-type:alpha" maskUnits="userSpaceOnUse" x="0" y="1" width="1440" height="853">
<rect y="1" width="1440" height="853" fill="#1F8D42"/>
</mask>
<g mask="url(#mask0_1018_427)">
<path d="M1334.51 588.869L1334.24 588.971L1227.31 733.099L1013.72 805.078L1013.45 805.18L906.519 949.308L692.928 1021.29L692.657 1021.39L585.727 1165.52L442.102 1213.9H446.405L586.845 1166.57L587.116 1166.47L694.08 1022.34L907.671 950.359L907.942 950.257L1014.91 806.129L1228.5 734.15L1228.77 734.048L1335.7 589.92L1549.29 517.941L1549.56 517.84L1619.93 423.009V420.093L1548.14 516.856L1334.55 588.836L1334.51 588.869ZM1307.78 570.866L1307.51 570.968L1200.58 715.096L986.988 787.075L986.717 787.177L879.786 931.305L666.196 1003.28L665.925 1003.39L558.994 1147.51L361.904 1213.93H366.207L560.112 1148.6L560.383 1148.5L667.314 1004.37L880.904 932.39L881.175 932.288L988.106 788.16L1201.7 716.181L1201.97 716.079L1308.9 571.951L1522.49 499.972L1522.76 499.87L1619.86 368.999V366.083L1521.34 498.887L1307.75 570.866H1307.78ZM1414.44 210.631L1307.51 354.759L1093.92 426.738L1093.65 426.84L986.717 570.968L773.093 642.947L772.822 643.049L665.891 787.177L452.267 859.156L451.996 859.258L345.065 1003.39L131.475 1075.36L131.204 1075.47L28.4742 1213.93H30.6426L132.66 1076.42L346.251 1004.44L346.522 1004.33L453.453 860.207L667.077 788.228L667.348 788.126L774.278 643.998L987.903 572.019L988.174 571.917L1095.1 427.789L1308.69 355.81L1308.97 355.708L1415.9 211.581L1619.97 142.822V141.364L1414.78 210.496L1414.51 210.597L1414.44 210.631ZM1441.17 228.635L1334.24 372.762L1120.65 444.742L1120.38 444.843L1013.45 588.971L799.825 660.95L799.554 661.052L692.624 805.18L478.999 877.159L478.728 877.261L371.798 1021.39L158.173 1093.37L157.902 1093.47L68.5224 1213.93H70.6908L159.359 1094.45L372.95 1022.47L373.221 1022.37L480.151 878.244L693.775 806.265L694.047 806.163L800.977 662.035L1014.57 590.056L1014.84 589.954L1121.8 445.827L1335.39 373.847L1335.66 373.746L1442.63 229.618L1619.93 169.878V168.42L1441.48 228.567L1441.21 228.668L1441.17 228.635ZM1574.84 751.136L1467.9 895.264L1254.31 967.243L1254.04 967.345L1147.11 1111.47L933.522 1183.45L933.251 1183.55L910.72 1213.93H912.889L934.708 1184.54L1148.3 1112.56L1148.57 1112.46L1255.5 968.328L1469.09 896.349L1469.36 896.247L1576.29 752.119L1619.93 737.405V735.947L1575.14 751.034L1574.87 751.136H1574.84ZM1601.57 769.139L1494.64 913.267L1281.05 985.247L1280.78 985.348L1173.85 1129.48L960.255 1201.46L959.984 1201.56L950.802 1213.9H952.971L961.407 1202.51L1175 1130.53L1175.27 1130.43L1282.2 986.298L1495.82 914.318L1496.09 914.217L1603.03 770.089L1619.93 764.393V762.935L1601.87 769.004L1601.6 769.106L1601.57 769.139ZM1387.98 624.91L1387.71 625.012L1280.78 769.139L1067.19 841.119L1066.91 841.22L959.984 985.348L746.394 1057.33L746.123 1057.43L639.192 1201.56L602.532 1213.9H606.835L640.344 1202.61L640.615 1202.51L747.546 1058.38L961.136 986.399L961.407 986.298L1068.34 842.17L1281.93 770.19L1282.2 770.089L1389.13 625.961L1602.72 553.982L1602.99 553.88L1619.9 531.096V528.18L1601.57 552.897L1387.98 624.876V624.91ZM1361.25 606.907L1360.97 607.008L1254.04 751.136L1040.45 823.115L1040.18 823.217L933.251 967.345L719.661 1039.32L719.39 1039.43L612.459 1183.55L522.334 1213.93H526.637L613.611 1184.64L613.882 1184.54L720.813 1040.41L934.403 968.43L934.674 968.328L1041.61 824.2L1255.2 752.221L1255.47 752.119L1362.4 607.992L1575.99 536.012L1576.26 535.911L1619.9 477.086V474.171L1574.84 534.927L1361.25 606.907ZM1548.1 300.715L1441.17 444.843L1227.58 516.823L1227.31 516.924L1120.38 661.052L906.79 733.031L906.519 733.133L799.588 877.261L585.998 949.24L585.727 949.342L478.796 1093.47L265.206 1165.45L264.935 1165.55L229.02 1213.93H231.188L266.358 1166.5L479.948 1094.52L480.219 1094.42L587.15 950.291L800.74 878.312L801.011 878.21L907.942 734.082L1121.53 662.103L1121.8 662.001L1228.73 517.874L1442.32 445.894L1442.6 445.793L1549.53 301.665L1619.9 277.966V276.508L1548.37 300.614L1548.1 300.715ZM1601.57 336.756L1494.64 480.884L1281.05 552.863L1280.78 552.965L1173.85 697.092L960.255 769.072L959.984 769.173L853.02 913.301L639.429 985.28L639.158 985.382L532.228 1129.51L318.637 1201.49L318.366 1201.59L309.184 1213.93H311.353L319.789 1202.54L533.38 1130.56L533.651 1130.46L640.581 986.331L854.172 914.352L854.443 914.251L961.407 770.123L1175 698.144L1175.27 698.042L1282.2 553.914L1495.82 481.935L1496.09 481.833L1603.03 337.705L1619.93 332.009V330.551L1601.87 336.62L1601.6 336.722L1601.57 336.756ZM1574.84 318.753L1467.9 462.88L1254.31 534.86L1254.04 534.961L1147.11 679.089L933.522 751.068L933.251 751.17L826.321 895.298L612.73 967.277L612.459 967.379L505.529 1111.51L291.938 1183.49L291.667 1183.59L269.136 1213.97H271.304L293.124 1184.57L506.715 1112.59L506.986 1112.49L613.916 968.362L827.507 896.383L827.778 896.281L934.708 752.153L1148.3 680.174L1148.57 680.072L1255.5 535.945L1469.09 463.965L1469.36 463.864L1576.29 319.736L1619.93 305.021V303.563L1575.14 318.651L1574.87 318.753H1574.84ZM1467.9 246.672L1360.94 390.8L1147.35 462.779L1147.08 462.88L1040.15 607.008L826.558 678.988L826.287 679.089L719.356 823.217L505.766 895.196L505.495 895.298L398.564 1039.43L184.974 1111.41L184.703 1111.51L108.706 1213.93H110.875L186.16 1112.46L399.75 1040.48L400.021 1040.38L506.952 896.247L720.542 824.268L720.813 824.166L827.744 680.039L1041.33 608.059L1041.61 607.958L1148.54 463.83L1362.16 391.851L1362.43 391.749L1469.36 247.621L1619.93 196.9V195.442L1468.21 246.57L1467.94 246.672H1467.9ZM1387.98 192.526L1387.71 192.628L1280.78 336.756L1067.19 408.735L1066.91 408.837L959.984 552.965L746.394 624.944L746.123 625.046L639.192 769.173L425.602 841.153L425.331 841.254L318.4 985.382L104.81 1057.36L104.539 1057.46L-2.39204 1201.59L-39.0521 1213.93H-34.7491L-1.24007 1202.64L-0.969025 1202.54L105.962 1058.41L319.552 986.433L319.823 986.331L426.754 842.204L640.378 770.224L640.649 770.123L747.58 625.995L961.17 554.016L961.441 553.914L1068.37 409.786L1281.96 337.807L1282.23 337.705L1389.16 193.577L1602.75 121.598L1603.03 121.496L1619.93 98.7127V95.7969L1601.6 120.513L1388.01 192.492L1387.98 192.526ZM1494.64 264.709L1387.71 408.837L1174.08 480.816L1173.81 480.918L1066.88 625.046L853.291 697.025L853.02 697.126L746.089 841.254L532.499 913.233L532.228 913.335L425.297 1057.46L211.706 1129.44L211.435 1129.54L148.788 1213.97H150.957L212.858 1130.53L426.449 1058.55L426.72 1058.45L533.651 914.318L747.241 842.339L747.512 842.237L854.443 698.11L1068.03 626.13L1068.3 626.029L1175.23 481.901L1388.86 409.922L1389.13 409.82L1496.06 265.692L1619.9 223.956V222.498L1494.91 264.607L1494.64 264.709ZM1548.1 733.167L1441.17 877.295L1227.58 949.274L1227.31 949.376L1120.38 1093.5L906.756 1165.48L906.485 1165.58L870.57 1213.97H872.739L907.908 1166.53L1121.5 1094.55L1121.77 1094.45L1228.7 950.325L1442.29 878.346L1442.56 878.244L1549.49 734.116L1619.86 710.417V708.959L1548.34 733.065L1548.07 733.167H1548.1ZM1574.84 102.578L1361.25 174.557L1360.97 174.659L1254.04 318.787L1040.45 390.766L1040.18 390.867L933.251 534.995L719.661 606.974L719.39 607.076L612.459 751.204L398.869 823.183L398.598 823.285L291.667 967.413L78.077 1039.39L77.8059 1039.49L-29.1247 1183.62L-119.25 1214H-114.947L-27.9727 1184.71L-27.7017 1184.6L79.229 1040.48L292.819 968.498L293.09 968.396L400.021 824.268L613.645 752.289L613.916 752.187L720.847 608.059L934.437 536.08L934.708 535.978L1041.64 391.851L1255.23 319.871L1255.5 319.77L1362.43 175.642L1576.02 103.663L1576.29 103.561L1619.93 44.7707V41.8549L1574.87 102.612L1574.84 102.578ZM1521.37 282.746L1414.44 426.874L1200.82 498.853L1200.54 498.955L1093.61 643.083L880.023 715.062L879.752 715.164L772.822 859.291L559.231 931.271L558.96 931.372L452.03 1075.5L238.439 1147.48L238.168 1147.58L188.904 1214H191.073L239.625 1148.56L453.215 1076.59L453.486 1076.48L560.451 932.356L774.041 860.376L774.312 860.275L881.277 716.147L1094.87 644.168L1095.14 644.066L1202.07 499.938L1415.69 427.959L1415.96 427.857L1522.89 283.729L1620 251.012V249.554L1521.74 282.644L1521.47 282.746H1521.37ZM1467.9 1111.54L1391.91 1213.97H1394.08L1469.36 1112.49L1619.93 1061.77V1060.31L1468.21 1111.44L1467.94 1111.54H1467.9ZM1494.64 1129.54L1431.99 1213.97H1434.16L1496.09 1130.53L1619.93 1088.79V1087.33L1494.94 1129.44L1494.67 1129.54H1494.64ZM1414.44 1075.5L1311.71 1213.97H1313.88L1415.9 1076.45L1619.97 1007.69V1006.23L1414.78 1075.36L1414.51 1075.47L1414.44 1075.5ZM1521.37 1147.58L1472.11 1214H1474.27L1522.83 1148.56L1619.93 1115.85V1114.39L1521.68 1147.48L1521.4 1147.58H1521.37ZM1387.98 1057.4L1387.71 1057.5L1280.78 1201.62L1244.12 1213.97H1248.42L1281.93 1202.68L1282.2 1202.57L1389.13 1058.45L1602.72 986.467L1602.99 986.365L1619.9 963.582V960.666L1601.57 985.382L1387.98 1057.36V1057.4ZM1601.57 1201.62L1592.39 1213.97H1594.55L1602.99 1202.57L1619.9 1196.88V1195.42L1601.84 1201.49L1601.57 1201.59V1201.62ZM1574.84 1183.62L1552.3 1214H1554.47L1576.29 1184.6L1619.93 1169.89V1168.43L1575.14 1183.52L1574.87 1183.62H1574.84ZM1521.37 715.164L1414.44 859.291L1200.82 931.271L1200.54 931.372L1093.61 1075.5L880.023 1147.48L879.752 1147.58L830.488 1214H832.657L881.209 1148.56L1094.8 1076.59L1095.07 1076.48L1202 932.356L1415.63 860.376L1415.9 860.275L1522.83 716.147L1619.93 683.429V681.971L1521.68 715.062L1521.4 715.164H1521.37ZM1548.1 1165.58L1512.19 1213.97H1514.36L1549.53 1166.53L1619.9 1142.83V1141.38L1548.37 1165.48L1548.1 1165.58ZM1361.25 1039.36L1360.97 1039.46L1254.04 1183.59L1163.92 1213.97H1168.22L1255.2 1184.67L1255.47 1184.57L1362.4 1040.44L1575.99 968.464L1576.26 968.362L1619.9 909.538V906.622L1574.84 967.379L1361.25 1039.36ZM1441.17 661.086L1334.24 805.214L1120.65 877.193L1120.38 877.295L1013.45 1021.42L799.825 1093.4L799.554 1093.5L710.174 1213.97H712.343L801.011 1094.49L1014.6 1022.51L1014.87 1022.41L1121.8 878.278L1335.39 806.299L1335.66 806.197L1442.6 662.069L1619.9 602.33V600.872L1441.44 661.018L1441.17 661.12V661.086ZM1494.64 697.126L1387.71 841.254L1174.08 913.233L1173.81 913.335L1066.88 1057.46L853.291 1129.44L853.02 1129.54L790.372 1213.97H792.541L854.443 1130.53L1068.03 1058.55L1068.3 1058.45L1175.23 914.318L1388.86 842.339L1389.13 842.237L1496.06 698.11L1619.9 656.373V654.915L1494.91 697.025L1494.64 697.126ZM1467.9 679.123L1360.97 823.251L1147.38 895.23L1147.11 895.332L1040.18 1039.46L826.558 1111.44L826.287 1111.54L750.29 1213.97H752.459L827.744 1112.49L1041.33 1040.51L1041.61 1040.41L1148.54 896.281L1362.16 824.302L1362.43 824.2L1469.36 680.072L1619.93 629.351V627.893L1468.21 679.021L1467.94 679.123H1467.9ZM1414.44 643.083L1307.51 787.211L1093.92 859.19L1093.65 859.291L986.717 1003.42L773.093 1075.4L772.822 1075.5L670.092 1213.97H672.261L774.278 1076.45L987.903 1004.47L988.174 1004.37L1095.1 860.241L1308.69 788.262L1308.97 788.16L1415.9 644.032L1619.97 575.274V573.816L1414.78 642.947L1414.51 643.049L1414.44 643.083ZM1334.51 1021.35L1334.24 1021.46L1227.31 1165.58L1083.72 1213.97H1088.02L1228.46 1166.64L1228.73 1166.53L1335.66 1022.41L1549.25 950.427L1549.53 950.325L1619.9 855.494V852.578L1548.1 949.342L1334.51 1021.32V1021.35ZM1307.78 1003.35L1307.51 1003.45L1200.58 1147.58L1003.49 1214H1007.79L1201.7 1148.67L1201.97 1148.56L1308.9 1004.44L1522.49 932.457L1522.76 932.356L1619.86 801.484V798.569L1521.34 931.372L1307.75 1003.35H1307.78ZM1441.17 1093.54L1351.79 1214H1353.96L1442.63 1094.52L1619.93 1034.78V1033.32L1441.48 1093.47L1441.21 1093.57L1441.17 1093.54ZM-54.6377 517.874L158.953 445.894L159.224 445.793L266.154 301.665L479.745 229.686L480.016 229.584L586.98 85.456L800.571 13.4768L800.842 13.3751L810.024 1H807.855L799.419 12.3919L585.828 84.3711L585.557 84.4728L478.627 228.601L265.036 300.58L264.765 300.682L157.835 444.809L-55.7557 516.789L-56.0268 516.89L-162.957 661.018L-179.864 666.714V668.172L-161.534 662.001L-54.6038 517.874H-54.6377ZM-108.103 698.042L-1.17232 553.914L212.418 481.935L212.689 481.833L319.62 337.705L533.21 265.726L533.481 265.624L640.412 121.496L854.002 49.5173L854.273 49.4156L890.188 1.0339H888.019L852.816 48.4662L639.226 120.445L638.955 120.547L532.024 264.675L318.434 336.654L318.163 336.756L211.232 480.884L-2.35817 552.863L-2.62921 552.965L-109.56 697.092L-179.932 720.792V722.25L-108.408 698.144L-108.137 698.042H-108.103ZM78.7546 824.268L79.0257 824.166L185.956 680.039L399.547 608.059L399.818 607.958L506.748 463.83L720.339 391.851L720.61 391.749L827.541 247.621L1041.13 175.642L1041.4 175.54L1148.33 31.4123L1238.49 1.0339H1234.19L1147.18 30.3613L1146.91 30.463L1039.98 174.591L826.355 246.57L826.084 246.672L719.153 390.8L505.563 462.779L505.292 462.88L398.361 607.008L184.771 678.988L184.499 679.089L77.5688 823.217L-136.022 895.196L-136.293 895.298L-179.932 954.122V957.038L-134.87 896.281L78.7207 824.302L78.7546 824.268ZM52.022 806.265L52.293 806.163L159.224 662.035L372.814 590.056L373.085 589.954L480.016 445.827L693.64 373.847L693.911 373.746L800.842 229.618L1014.43 157.639L1014.7 157.537L1121.63 13.409L1158.33 1.0339H1154.02L1120.52 12.3241L1120.24 12.4258L1013.28 156.554L799.69 228.533L799.419 228.635L692.488 372.762L478.864 444.742L478.593 444.843L371.662 588.971L158.038 660.95L157.767 661.052L50.8361 805.18L-162.754 877.159L-163.025 877.261L-179.932 900.045V902.96L-161.602 878.244L51.9881 806.265H52.022ZM-124.908 1.0339H-129.211L-162.754 12.3241L-163.025 12.4258L-179.932 35.2096V38.1254L-161.602 13.409L-124.908 1.0339ZM-27.905 752.086L79.0257 607.958L292.616 535.978L292.887 535.877L399.818 391.749L613.442 319.77L613.713 319.668L720.678 175.54L934.268 103.561L934.539 103.459L1010.6 1.0339H1008.43L933.15 102.51L719.56 174.489L719.288 174.591L612.324 318.719L398.734 390.698L398.463 390.8L291.532 534.927L77.9076 606.907L77.6365 607.008L-29.2941 751.136L-179.932 801.857V803.315L-28.2099 752.187L-27.9389 752.086H-27.905ZM-54.6377 734.082L52.293 589.954L265.917 517.975L266.188 517.874L373.119 373.746L586.709 301.766L586.98 301.665L693.911 157.537L907.501 85.5577L907.772 85.456L970.521 1.0339H968.353L906.417 84.5067L692.827 156.486L692.556 156.588L585.625 300.715L372.035 372.695L371.764 372.796L264.833 516.924L51.2088 588.903L50.9377 589.005L-55.9929 733.133L-179.932 774.835V776.293L-54.9426 734.184L-54.6715 734.082H-54.6377ZM-81.3703 716.079L25.5604 571.951L239.185 499.972L239.456 499.87L346.386 355.742L559.977 283.763L560.248 283.661L667.178 139.534L880.769 67.5545L881.04 67.4527L930.304 1.0339H928.135L879.583 66.4695L665.993 138.449L665.721 138.55L558.791 282.678L345.201 354.657L344.929 354.759L237.999 498.887L24.3745 570.866L24.1035 570.968L-82.8272 715.096L-179.932 747.814V749.271L-81.6753 716.181L-81.4042 716.079H-81.3703ZM-108.103 1130.46L-1.13843 986.331L212.452 914.352L212.723 914.251L319.654 770.123L533.244 698.144L533.515 698.042L640.446 553.914L854.036 481.935L854.307 481.833L961.238 337.705L1174.83 265.726L1175.1 265.624L1282.03 121.496L1495.65 49.5173L1495.93 49.4156L1531.84 1.0339H1529.67L1494.5 48.4662L1280.91 120.445L1280.64 120.547L1173.71 264.675L960.12 336.654L959.849 336.756L852.918 480.884L639.328 552.863L639.057 552.965L532.126 697.092L318.536 769.072L318.264 769.173L211.334 913.301L-2.25653 985.28L-2.52757 985.382L-109.458 1129.51L-179.831 1153.21V1154.67L-108.306 1130.56L-108.035 1130.46H-108.103ZM-134.836 1112.46L-27.905 968.328L185.685 896.349L185.956 896.247L292.887 752.119L506.477 680.14L506.748 680.039L613.679 535.911L827.269 463.931L827.541 463.83L934.471 319.702L1148.06 247.723L1148.33 247.621L1255.26 103.493L1468.85 31.514L1469.12 31.4123L1491.66 1.0339H1489.49L1467.67 30.4291L1254.08 102.408L1253.81 102.51L1146.88 246.638L933.285 318.617L933.014 318.719L826.084 462.847L612.493 534.826L612.222 534.927L505.292 679.055L291.701 751.034L291.43 751.136L184.499 895.264L-29.0908 967.243L-29.3619 967.345L-136.293 1111.47L-179.932 1126.19V1127.65L-135.141 1112.56L-134.87 1112.46H-134.836ZM-54.6377 950.291L158.953 878.312L159.224 878.21L266.154 734.082L479.745 662.103L480.016 662.001L586.946 517.874L800.537 445.894L800.808 445.793L907.739 301.665L1121.33 229.686L1121.6 229.584L1228.53 85.456L1442.12 13.4768L1442.39 13.3751L1451.57 1H1449.41L1440.97 12.3919L1227.38 84.3711L1227.11 84.4728L1120.18 228.601L906.553 300.58L906.282 300.682L799.317 444.809L585.727 516.789L585.456 516.89L478.525 661.018L264.935 732.997L264.664 733.099L157.733 877.227L-55.8574 949.206L-56.1284 949.308L-163.093 1093.44L-180 1099.13V1100.59L-161.67 1094.42L-54.7393 950.291H-54.6377ZM105.487 842.271L105.758 842.17L212.689 698.042L426.279 626.063L426.55 625.961L533.481 481.833L747.071 409.854L747.342 409.752L854.273 265.624L1067.86 193.645L1068.13 193.543L1175.07 49.4156L1318.86 1.0339H1314.56L1174.08 48.3645L1173.81 48.4662L1066.88 192.594L853.291 264.573L853.02 264.675L746.089 408.803L532.499 480.782L532.228 480.884L425.297 625.012L211.706 696.991L211.435 697.092L104.505 841.22L-109.086 913.2L-109.357 913.301L-179.932 1008.13V1011.05L-108.137 914.251L105.453 842.271H105.487ZM-54.6377 1166.47L52.293 1022.34L265.917 950.359L266.188 950.257L373.119 806.129L586.709 734.15L586.98 734.048L693.945 589.92L907.535 517.941L907.806 517.84L1014.74 373.712L1228.33 301.733L1228.6 301.631L1335.53 157.503L1549.12 85.5238L1549.39 85.4221L1612.04 1H1609.87L1547.93 84.4728L1334.34 156.452L1334.07 156.554L1227.14 300.682L1013.55 372.661L1013.28 372.762L906.349 516.89L692.759 588.869L692.488 588.971L585.523 733.099L371.933 805.078L371.662 805.18L264.731 949.308L51.1072 1021.29L50.8361 1021.39L-56.0946 1165.52L-179.932 1207.25V1208.71L-54.9426 1166.6L-54.6715 1166.5L-54.6377 1166.47ZM132.22 860.275L132.491 860.173L239.422 716.045L453.012 644.066L453.283 643.964L560.214 499.836L773.804 427.857L774.075 427.755L881.006 283.628L1094.6 211.648L1094.87 211.547L1201.8 67.4188L1399.06 1.0339H1394.75L1200.82 66.3678L1200.54 66.4695L1093.61 210.597L880.023 282.577L879.752 282.678L772.822 426.806L559.231 498.785L558.96 498.887L452.03 643.015L238.439 714.994L238.168 715.096L131.237 859.224L-82.3529 931.203L-82.624 931.305L-179.932 1062.18V1065.09L-81.4042 932.288L132.186 860.309L132.22 860.275ZM-1.17232 770.089L105.758 625.961L319.349 553.982L319.62 553.88L426.55 409.752L640.175 337.773L640.446 337.671L747.376 193.543L960.967 121.564L961.238 121.463L1050.72 1.0339H1048.55L959.882 120.513L746.292 192.492L746.021 192.594L639.09 336.722L425.5 408.701L425.229 408.803L318.298 552.931L104.708 624.91L104.437 625.012L-2.4937 769.139L-179.932 828.879V830.337L-1.47725 770.19L-1.20619 770.089H-1.17232ZM-81.3703 1148.46L25.5604 1004.33L239.185 932.356L239.456 932.254L346.386 788.126L559.977 716.147L560.248 716.045L667.178 571.917L880.769 499.938L881.04 499.836L987.97 355.708L1201.56 283.729L1201.83 283.628L1308.76 139.5L1522.35 67.5206L1522.62 67.4188L1571.89 1H1569.72L1521.17 66.4356L1307.58 138.415L1307.31 138.516L1200.37 282.644L986.785 354.624L986.513 354.725L879.583 498.853L665.993 570.832L665.721 570.934L558.791 715.062L345.201 787.041L344.929 787.143L237.999 931.271L24.3745 1003.25L24.1035 1003.35L-82.8272 1147.48L-179.932 1180.2V1181.66L-81.6753 1148.56L-81.4042 1148.46H-81.3703ZM-134.836 680.005L-27.905 535.877L185.685 463.898L185.956 463.796L292.887 319.668L506.477 247.689L506.748 247.587L613.679 103.459L827.269 31.4801L827.541 31.3784L850.072 1H847.903L826.084 30.3952L612.493 102.374L612.222 102.476L505.292 246.604L291.701 318.583L291.43 318.685L184.499 462.813L-29.0908 534.792L-29.3619 534.894L-136.293 679.021L-179.932 693.736V695.194L-135.141 680.106L-134.87 680.005H-134.836ZM-81.3703 283.628L25.5604 139.5L239.185 67.5206L239.456 67.4188L288.72 1.0339H286.551L237.999 66.4695L24.3745 138.449L24.1035 138.55L-82.8272 282.678L-179.932 315.396V316.854L-81.6753 283.763L-81.4042 283.661L-81.3703 283.628ZM-27.905 319.668L79.0257 175.54L292.616 103.561L292.887 103.459L368.918 1.0339H366.749L291.464 102.51L77.8398 174.489L77.5688 174.591L-29.3619 318.719L-179.932 369.44V370.898L-28.2099 319.77L-27.9389 319.668H-27.905ZM-1.17232 337.671L105.758 193.543L319.349 121.564L319.62 121.463L409.034 1.0339H406.865L318.197 120.513L104.606 192.492L104.335 192.594L-2.59534 336.722L-179.932 396.496V397.953L-1.47725 337.807L-1.20619 337.705L-1.17232 337.671ZM-54.6377 301.631L52.293 157.503L265.917 85.5238L266.188 85.4221L328.836 1.0339H326.667L264.731 84.5067L51.1072 156.486L50.8361 156.588L-56.0946 300.715L-179.932 342.418V343.876L-54.9426 301.766L-54.6715 301.665L-54.6377 301.631ZM25.5604 355.675L132.491 211.547L346.081 139.568L346.352 139.466L449.15 1.0339H446.981L344.963 138.55L131.373 210.53L131.102 210.631L24.1712 354.759L-179.932 423.517V424.975L25.2554 355.844L25.5265 355.742L25.5604 355.675ZM-44.7103 1.0339H-49.0133L-136.022 30.3613L-136.293 30.463L-179.932 89.2533V92.1691L-134.87 31.4123L-44.7103 1.0339ZM115.72 1.0339H111.417L-82.5223 66.3678L-82.7934 66.4695L-179.932 197.375V200.29L-81.4042 67.4527L115.72 1.0339ZM35.5216 1.0339H31.2186L-109.289 48.3645L-109.56 48.4662L-179.932 143.297V146.213L-108.137 49.4156L35.4877 1.0339H35.5216ZM52.022 373.847L52.293 373.746L159.224 229.618L372.814 157.639L373.085 157.537L480.084 13.409L516.777 1.0339H512.474L478.965 12.3241L478.694 12.4258L371.764 156.554L158.139 228.533L157.868 228.635L50.9377 372.762L-162.653 444.742L-162.924 444.843L-179.831 467.627V470.543L-161.501 445.827L52.0897 373.847H52.022ZM-108.103 265.658L-1.17232 121.53L212.418 49.5512L212.689 49.4495L248.638 1.0339H246.469L211.266 48.4662L-2.3243 120.445L-2.59534 120.547L-109.526 264.675L-179.932 288.374V289.832L-108.408 265.726L-108.137 265.624L-108.103 265.658ZM132.254 427.925L132.525 427.823L239.456 283.695L453.046 211.716L453.317 211.615L560.248 67.4866L757.372 1.0339H753.068L559.13 66.3678L558.859 66.4695L451.928 210.597L238.337 282.577L238.066 282.678L131.136 426.806L-82.4545 498.785L-82.7256 498.887L-179.932 629.758V632.674L-81.4042 499.87L132.186 427.891L132.254 427.925ZM78.7885 391.885L79.0596 391.783L185.99 247.655L399.581 175.676L399.852 175.574L506.782 31.4462L596.976 1.0339H592.672L505.664 30.3613L505.393 30.463L398.463 174.591L184.872 246.57L184.601 246.672L77.6704 390.8L-135.92 462.779L-136.191 462.88L-179.932 521.671V524.587L-134.87 463.83L78.7207 391.851L78.7885 391.885ZM105.521 409.888L105.792 409.786L212.757 265.658L426.347 193.679L426.618 193.577L533.549 49.4495L677.174 1.0339H672.871L532.397 48.3645L532.126 48.4662L425.195 192.594L211.605 264.573L211.334 264.675L104.403 408.803L-109.187 480.782L-109.458 480.884L-179.932 575.715V578.63L-108.137 481.867L105.453 409.888H105.521ZM-134.87 247.621L-27.9389 103.493L185.651 31.514L185.923 31.4123L208.454 1.0339H206.285L184.466 30.4291L-29.1247 102.408L-29.3958 102.51L-136.326 246.638L-179.966 261.352V262.81L-135.174 247.723L-134.903 247.621H-134.87ZM-54.6715 85.456L158.953 13.4768L159.224 13.3751L168.406 1H166.237L157.801 12.3919L-55.7896 84.3711L-56.0607 84.4728L-163.025 228.635L-179.932 234.331V235.788L-161.602 229.618L-54.6715 85.4899V85.456ZM25.5265 788.126L132.457 643.998L346.048 572.019L346.319 571.917L453.249 427.789L666.873 355.81L667.144 355.708L774.075 211.581L987.699 139.601L987.97 139.5L1090.8 1.0339H1088.63L986.615 138.55L772.991 210.53L772.72 210.631L665.789 354.759L452.165 426.738L451.894 426.84L344.963 570.968L131.373 642.947L131.102 643.049L24.1712 787.177L-179.932 855.901V857.359L25.2554 788.228L25.5265 788.126Z" fill="white" fill-opacity="0.51"/>
</g>
<rect y="1" width="1440" height="853" fill="#4D17F5"/>
<mask id="mask1_1018_427" style="mask-type:alpha" maskUnits="userSpaceOnUse" x="0" y="1" width="1440" height="853">
<rect y="1" width="1440" height="853" fill="#1F8D42"/>
</mask>
<g mask="url(#mask1_1018_427)">
<path d="M1334.51 588.869L1334.24 588.971L1227.31 733.099L1013.72 805.078L1013.45 805.18L906.519 949.308L692.928 1021.29L692.657 1021.39L585.727 1165.52L442.102 1213.9H446.405L586.845 1166.57L587.116 1166.47L694.08 1022.34L907.671 950.359L907.942 950.257L1014.91 806.129L1228.5 734.15L1228.77 734.048L1335.7 589.92L1549.29 517.941L1549.56 517.84L1619.93 423.009V420.093L1548.14 516.856L1334.55 588.836L1334.51 588.869ZM1307.78 570.866L1307.51 570.968L1200.58 715.096L986.988 787.075L986.717 787.177L879.786 931.305L666.196 1003.28L665.925 1003.39L558.994 1147.51L361.904 1213.93H366.207L560.112 1148.6L560.383 1148.5L667.314 1004.37L880.904 932.39L881.175 932.288L988.106 788.16L1201.7 716.181L1201.97 716.079L1308.9 571.951L1522.49 499.972L1522.76 499.87L1619.86 368.999V366.083L1521.34 498.887L1307.75 570.866H1307.78ZM1414.44 210.631L1307.51 354.759L1093.92 426.738L1093.65 426.84L986.717 570.968L773.093 642.947L772.822 643.049L665.891 787.177L452.267 859.156L451.996 859.258L345.065 1003.39L131.475 1075.36L131.204 1075.47L28.4742 1213.93H30.6426L132.66 1076.42L346.251 1004.44L346.522 1004.33L453.453 860.207L667.077 788.228L667.348 788.126L774.278 643.998L987.903 572.019L988.174 571.917L1095.1 427.789L1308.69 355.81L1308.97 355.708L1415.9 211.581L1619.97 142.822V141.364L1414.78 210.496L1414.51 210.597L1414.44 210.631ZM1441.17 228.635L1334.24 372.762L1120.65 444.742L1120.38 444.843L1013.45 588.971L799.825 660.95L799.554 661.052L692.624 805.18L478.999 877.159L478.728 877.261L371.798 1021.39L158.173 1093.37L157.902 1093.47L68.5224 1213.93H70.6908L159.359 1094.45L372.95 1022.47L373.221 1022.37L480.151 878.244L693.775 806.265L694.047 806.163L800.977 662.035L1014.57 590.056L1014.84 589.954L1121.8 445.827L1335.39 373.847L1335.66 373.746L1442.63 229.618L1619.93 169.878V168.42L1441.48 228.567L1441.21 228.668L1441.17 228.635ZM1574.84 751.136L1467.9 895.264L1254.31 967.243L1254.04 967.345L1147.11 1111.47L933.522 1183.45L933.251 1183.55L910.72 1213.93H912.889L934.708 1184.54L1148.3 1112.56L1148.57 1112.46L1255.5 968.328L1469.09 896.349L1469.36 896.247L1576.29 752.119L1619.93 737.405V735.947L1575.14 751.034L1574.87 751.136H1574.84ZM1601.57 769.139L1494.64 913.267L1281.05 985.247L1280.78 985.348L1173.85 1129.48L960.255 1201.46L959.984 1201.56L950.802 1213.9H952.971L961.407 1202.51L1175 1130.53L1175.27 1130.43L1282.2 986.298L1495.82 914.318L1496.09 914.217L1603.03 770.089L1619.93 764.393V762.935L1601.87 769.004L1601.6 769.106L1601.57 769.139ZM1387.98 624.91L1387.71 625.012L1280.78 769.139L1067.19 841.119L1066.91 841.22L959.984 985.348L746.394 1057.33L746.123 1057.43L639.192 1201.56L602.532 1213.9H606.835L640.344 1202.61L640.615 1202.51L747.546 1058.38L961.136 986.399L961.407 986.298L1068.34 842.17L1281.93 770.19L1282.2 770.089L1389.13 625.961L1602.72 553.982L1602.99 553.88L1619.9 531.096V528.18L1601.57 552.897L1387.98 624.876V624.91ZM1361.25 606.907L1360.97 607.008L1254.04 751.136L1040.45 823.115L1040.18 823.217L933.251 967.345L719.661 1039.32L719.39 1039.43L612.459 1183.55L522.334 1213.93H526.637L613.611 1184.64L613.882 1184.54L720.813 1040.41L934.403 968.43L934.674 968.328L1041.61 824.2L1255.2 752.221L1255.47 752.119L1362.4 607.992L1575.99 536.012L1576.26 535.911L1619.9 477.086V474.171L1574.84 534.927L1361.25 606.907ZM1548.1 300.715L1441.17 444.843L1227.58 516.823L1227.31 516.924L1120.38 661.052L906.79 733.031L906.519 733.133L799.588 877.261L585.998 949.24L585.727 949.342L478.796 1093.47L265.206 1165.45L264.935 1165.55L229.02 1213.93H231.188L266.358 1166.5L479.948 1094.52L480.219 1094.42L587.15 950.291L800.74 878.312L801.011 878.21L907.942 734.082L1121.53 662.103L1121.8 662.001L1228.73 517.874L1442.32 445.894L1442.6 445.793L1549.53 301.665L1619.9 277.966V276.508L1548.37 300.614L1548.1 300.715ZM1601.57 336.756L1494.64 480.884L1281.05 552.863L1280.78 552.965L1173.85 697.092L960.255 769.072L959.984 769.173L853.02 913.301L639.429 985.28L639.158 985.382L532.228 1129.51L318.637 1201.49L318.366 1201.59L309.184 1213.93H311.353L319.789 1202.54L533.38 1130.56L533.651 1130.46L640.581 986.331L854.172 914.352L854.443 914.251L961.407 770.123L1175 698.144L1175.27 698.042L1282.2 553.914L1495.82 481.935L1496.09 481.833L1603.03 337.705L1619.93 332.009V330.551L1601.87 336.62L1601.6 336.722L1601.57 336.756ZM1574.84 318.753L1467.9 462.88L1254.31 534.86L1254.04 534.961L1147.11 679.089L933.522 751.068L933.251 751.17L826.321 895.298L612.73 967.277L612.459 967.379L505.529 1111.51L291.938 1183.49L291.667 1183.59L269.136 1213.97H271.304L293.124 1184.57L506.715 1112.59L506.986 1112.49L613.916 968.362L827.507 896.383L827.778 896.281L934.708 752.153L1148.3 680.174L1148.57 680.072L1255.5 535.945L1469.09 463.965L1469.36 463.864L1576.29 319.736L1619.93 305.021V303.563L1575.14 318.651L1574.87 318.753H1574.84ZM1467.9 246.672L1360.94 390.8L1147.35 462.779L1147.08 462.88L1040.15 607.008L826.558 678.988L826.287 679.089L719.356 823.217L505.766 895.196L505.495 895.298L398.564 1039.43L184.974 1111.41L184.703 1111.51L108.706 1213.93H110.875L186.16 1112.46L399.75 1040.48L400.021 1040.38L506.952 896.247L720.542 824.268L720.813 824.166L827.744 680.039L1041.33 608.059L1041.61 607.958L1148.54 463.83L1362.16 391.851L1362.43 391.749L1469.36 247.621L1619.93 196.9V195.442L1468.21 246.57L1467.94 246.672H1467.9ZM1387.98 192.526L1387.71 192.628L1280.78 336.756L1067.19 408.735L1066.91 408.837L959.984 552.965L746.394 624.944L746.123 625.046L639.192 769.173L425.602 841.153L425.331 841.254L318.4 985.382L104.81 1057.36L104.539 1057.46L-2.39204 1201.59L-39.0521 1213.93H-34.7491L-1.24007 1202.64L-0.969025 1202.54L105.962 1058.41L319.552 986.433L319.823 986.331L426.754 842.204L640.378 770.224L640.649 770.123L747.58 625.995L961.17 554.016L961.441 553.914L1068.37 409.786L1281.96 337.807L1282.23 337.705L1389.16 193.577L1602.75 121.598L1603.03 121.496L1619.93 98.7127V95.7969L1601.6 120.513L1388.01 192.492L1387.98 192.526ZM1494.64 264.709L1387.71 408.837L1174.08 480.816L1173.81 480.918L1066.88 625.046L853.291 697.025L853.02 697.126L746.089 841.254L532.499 913.233L532.228 913.335L425.297 1057.46L211.706 1129.44L211.435 1129.54L148.788 1213.97H150.957L212.858 1130.53L426.449 1058.55L426.72 1058.45L533.651 914.318L747.241 842.339L747.512 842.237L854.443 698.11L1068.03 626.13L1068.3 626.029L1175.23 481.901L1388.86 409.922L1389.13 409.82L1496.06 265.692L1619.9 223.956V222.498L1494.91 264.607L1494.64 264.709ZM1548.1 733.167L1441.17 877.295L1227.58 949.274L1227.31 949.376L1120.38 1093.5L906.756 1165.48L906.485 1165.58L870.57 1213.97H872.739L907.908 1166.53L1121.5 1094.55L1121.77 1094.45L1228.7 950.325L1442.29 878.346L1442.56 878.244L1549.49 734.116L1619.86 710.417V708.959L1548.34 733.065L1548.07 733.167H1548.1ZM1574.84 102.578L1361.25 174.557L1360.97 174.659L1254.04 318.787L1040.45 390.766L1040.18 390.867L933.251 534.995L719.661 606.974L719.39 607.076L612.459 751.204L398.869 823.183L398.598 823.285L291.667 967.413L78.077 1039.39L77.8059 1039.49L-29.1247 1183.62L-119.25 1214H-114.947L-27.9727 1184.71L-27.7017 1184.6L79.229 1040.48L292.819 968.498L293.09 968.396L400.021 824.268L613.645 752.289L613.916 752.187L720.847 608.059L934.437 536.08L934.708 535.978L1041.64 391.851L1255.23 319.871L1255.5 319.77L1362.43 175.642L1576.02 103.663L1576.29 103.561L1619.93 44.7707V41.8549L1574.87 102.612L1574.84 102.578ZM1521.37 282.746L1414.44 426.874L1200.82 498.853L1200.54 498.955L1093.61 643.083L880.023 715.062L879.752 715.164L772.822 859.291L559.231 931.271L558.96 931.372L452.03 1075.5L238.439 1147.48L238.168 1147.58L188.904 1214H191.073L239.625 1148.56L453.215 1076.59L453.486 1076.48L560.451 932.356L774.041 860.376L774.312 860.275L881.277 716.147L1094.87 644.168L1095.14 644.066L1202.07 499.938L1415.69 427.959L1415.96 427.857L1522.89 283.729L1620 251.012V249.554L1521.74 282.644L1521.47 282.746H1521.37ZM1467.9 1111.54L1391.91 1213.97H1394.08L1469.36 1112.49L1619.93 1061.77V1060.31L1468.21 1111.44L1467.94 1111.54H1467.9ZM1494.64 1129.54L1431.99 1213.97H1434.16L1496.09 1130.53L1619.93 1088.79V1087.33L1494.94 1129.44L1494.67 1129.54H1494.64ZM1414.44 1075.5L1311.71 1213.97H1313.88L1415.9 1076.45L1619.97 1007.69V1006.23L1414.78 1075.36L1414.51 1075.47L1414.44 1075.5ZM1521.37 1147.58L1472.11 1214H1474.27L1522.83 1148.56L1619.93 1115.85V1114.39L1521.68 1147.48L1521.4 1147.58H1521.37ZM1387.98 1057.4L1387.71 1057.5L1280.78 1201.62L1244.12 1213.97H1248.42L1281.93 1202.68L1282.2 1202.57L1389.13 1058.45L1602.72 986.467L1602.99 986.365L1619.9 963.582V960.666L1601.57 985.382L1387.98 1057.36V1057.4ZM1601.57 1201.62L1592.39 1213.97H1594.55L1602.99 1202.57L1619.9 1196.88V1195.42L1601.84 1201.49L1601.57 1201.59V1201.62ZM1574.84 1183.62L1552.3 1214H1554.47L1576.29 1184.6L1619.93 1169.89V1168.43L1575.14 1183.52L1574.87 1183.62H1574.84ZM1521.37 715.164L1414.44 859.291L1200.82 931.271L1200.54 931.372L1093.61 1075.5L880.023 1147.48L879.752 1147.58L830.488 1214H832.657L881.209 1148.56L1094.8 1076.59L1095.07 1076.48L1202 932.356L1415.63 860.376L1415.9 860.275L1522.83 716.147L1619.93 683.429V681.971L1521.68 715.062L1521.4 715.164H1521.37ZM1548.1 1165.58L1512.19 1213.97H1514.36L1549.53 1166.53L1619.9 1142.83V1141.38L1548.37 1165.48L1548.1 1165.58ZM1361.25 1039.36L1360.97 1039.46L1254.04 1183.59L1163.92 1213.97H1168.22L1255.2 1184.67L1255.47 1184.57L1362.4 1040.44L1575.99 968.464L1576.26 968.362L1619.9 909.538V906.622L1574.84 967.379L1361.25 1039.36ZM1441.17 661.086L1334.24 805.214L1120.65 877.193L1120.38 877.295L1013.45 1021.42L799.825 1093.4L799.554 1093.5L710.174 1213.97H712.343L801.011 1094.49L1014.6 1022.51L1014.87 1022.41L1121.8 878.278L1335.39 806.299L1335.66 806.197L1442.6 662.069L1619.9 602.33V600.872L1441.44 661.018L1441.17 661.12V661.086ZM1494.64 697.126L1387.71 841.254L1174.08 913.233L1173.81 913.335L1066.88 1057.46L853.291 1129.44L853.02 1129.54L790.372 1213.97H792.541L854.443 1130.53L1068.03 1058.55L1068.3 1058.45L1175.23 914.318L1388.86 842.339L1389.13 842.237L1496.06 698.11L1619.9 656.373V654.915L1494.91 697.025L1494.64 697.126ZM1467.9 679.123L1360.97 823.251L1147.38 895.23L1147.11 895.332L1040.18 1039.46L826.558 1111.44L826.287 1111.54L750.29 1213.97H752.459L827.744 1112.49L1041.33 1040.51L1041.61 1040.41L1148.54 896.281L1362.16 824.302L1362.43 824.2L1469.36 680.072L1619.93 629.351V627.893L1468.21 679.021L1467.94 679.123H1467.9ZM1414.44 643.083L1307.51 787.211L1093.92 859.19L1093.65 859.291L986.717 1003.42L773.093 1075.4L772.822 1075.5L670.092 1213.97H672.261L774.278 1076.45L987.903 1004.47L988.174 1004.37L1095.1 860.241L1308.69 788.262L1308.97 788.16L1415.9 644.032L1619.97 575.274V573.816L1414.78 642.947L1414.51 643.049L1414.44 643.083ZM1334.51 1021.35L1334.24 1021.46L1227.31 1165.58L1083.72 1213.97H1088.02L1228.46 1166.64L1228.73 1166.53L1335.66 1022.41L1549.25 950.427L1549.53 950.325L1619.9 855.494V852.578L1548.1 949.342L1334.51 1021.32V1021.35ZM1307.78 1003.35L1307.51 1003.45L1200.58 1147.58L1003.49 1214H1007.79L1201.7 1148.67L1201.97 1148.56L1308.9 1004.44L1522.49 932.457L1522.76 932.356L1619.86 801.484V798.569L1521.34 931.372L1307.75 1003.35H1307.78ZM1441.17 1093.54L1351.79 1214H1353.96L1442.63 1094.52L1619.93 1034.78V1033.32L1441.48 1093.47L1441.21 1093.57L1441.17 1093.54ZM-54.6377 517.874L158.953 445.894L159.224 445.793L266.154 301.665L479.745 229.686L480.016 229.584L586.98 85.456L800.571 13.4768L800.842 13.3751L810.024 1H807.855L799.419 12.3919L585.828 84.3711L585.557 84.4728L478.627 228.601L265.036 300.58L264.765 300.682L157.835 444.809L-55.7557 516.789L-56.0268 516.89L-162.957 661.018L-179.864 666.714V668.172L-161.534 662.001L-54.6038 517.874H-54.6377ZM-108.103 698.042L-1.17232 553.914L212.418 481.935L212.689 481.833L319.62 337.705L533.21 265.726L533.481 265.624L640.412 121.496L854.002 49.5173L854.273 49.4156L890.188 1.0339H888.019L852.816 48.4662L639.226 120.445L638.955 120.547L532.024 264.675L318.434 336.654L318.163 336.756L211.232 480.884L-2.35817 552.863L-2.62921 552.965L-109.56 697.092L-179.932 720.792V722.25L-108.408 698.144L-108.137 698.042H-108.103ZM78.7546 824.268L79.0257 824.166L185.956 680.039L399.547 608.059L399.818 607.958L506.748 463.83L720.339 391.851L720.61 391.749L827.541 247.621L1041.13 175.642L1041.4 175.54L1148.33 31.4123L1238.49 1.0339H1234.19L1147.18 30.3613L1146.91 30.463L1039.98 174.591L826.355 246.57L826.084 246.672L719.153 390.8L505.563 462.779L505.292 462.88L398.361 607.008L184.771 678.988L184.499 679.089L77.5688 823.217L-136.022 895.196L-136.293 895.298L-179.932 954.122V957.038L-134.87 896.281L78.7207 824.302L78.7546 824.268ZM52.022 806.265L52.293 806.163L159.224 662.035L372.814 590.056L373.085 589.954L480.016 445.827L693.64 373.847L693.911 373.746L800.842 229.618L1014.43 157.639L1014.7 157.537L1121.63 13.409L1158.33 1.0339H1154.02L1120.52 12.3241L1120.24 12.4258L1013.28 156.554L799.69 228.533L799.419 228.635L692.488 372.762L478.864 444.742L478.593 444.843L371.662 588.971L158.038 660.95L157.767 661.052L50.8361 805.18L-162.754 877.159L-163.025 877.261L-179.932 900.045V902.96L-161.602 878.244L51.9881 806.265H52.022ZM-124.908 1.0339H-129.211L-162.754 12.3241L-163.025 12.4258L-179.932 35.2096V38.1254L-161.602 13.409L-124.908 1.0339ZM-27.905 752.086L79.0257 607.958L292.616 535.978L292.887 535.877L399.818 391.749L613.442 319.77L613.713 319.668L720.678 175.54L934.268 103.561L934.539 103.459L1010.6 1.0339H1008.43L933.15 102.51L719.56 174.489L719.288 174.591L612.324 318.719L398.734 390.698L398.463 390.8L291.532 534.927L77.9076 606.907L77.6365 607.008L-29.2941 751.136L-179.932 801.857V803.315L-28.2099 752.187L-27.9389 752.086H-27.905ZM-54.6377 734.082L52.293 589.954L265.917 517.975L266.188 517.874L373.119 373.746L586.709 301.766L586.98 301.665L693.911 157.537L907.501 85.5577L907.772 85.456L970.521 1.0339H968.353L906.417 84.5067L692.827 156.486L692.556 156.588L585.625 300.715L372.035 372.695L371.764 372.796L264.833 516.924L51.2088 588.903L50.9377 589.005L-55.9929 733.133L-179.932 774.835V776.293L-54.9426 734.184L-54.6715 734.082H-54.6377ZM-81.3703 716.079L25.5604 571.951L239.185 499.972L239.456 499.87L346.386 355.742L559.977 283.763L560.248 283.661L667.178 139.534L880.769 67.5545L881.04 67.4527L930.304 1.0339H928.135L879.583 66.4695L665.993 138.449L665.721 138.55L558.791 282.678L345.201 354.657L344.929 354.759L237.999 498.887L24.3745 570.866L24.1035 570.968L-82.8272 715.096L-179.932 747.814V749.271L-81.6753 716.181L-81.4042 716.079H-81.3703ZM-108.103 1130.46L-1.13843 986.331L212.452 914.352L212.723 914.251L319.654 770.123L533.244 698.144L533.515 698.042L640.446 553.914L854.036 481.935L854.307 481.833L961.238 337.705L1174.83 265.726L1175.1 265.624L1282.03 121.496L1495.65 49.5173L1495.93 49.4156L1531.84 1.0339H1529.67L1494.5 48.4662L1280.91 120.445L1280.64 120.547L1173.71 264.675L960.12 336.654L959.849 336.756L852.918 480.884L639.328 552.863L639.057 552.965L532.126 697.092L318.536 769.072L318.264 769.173L211.334 913.301L-2.25653 985.28L-2.52757 985.382L-109.458 1129.51L-179.831 1153.21V1154.67L-108.306 1130.56L-108.035 1130.46H-108.103ZM-134.836 1112.46L-27.905 968.328L185.685 896.349L185.956 896.247L292.887 752.119L506.477 680.14L506.748 680.039L613.679 535.911L827.269 463.931L827.541 463.83L934.471 319.702L1148.06 247.723L1148.33 247.621L1255.26 103.493L1468.85 31.514L1469.12 31.4123L1491.66 1.0339H1489.49L1467.67 30.4291L1254.08 102.408L1253.81 102.51L1146.88 246.638L933.285 318.617L933.014 318.719L826.084 462.847L612.493 534.826L612.222 534.927L505.292 679.055L291.701 751.034L291.43 751.136L184.499 895.264L-29.0908 967.243L-29.3619 967.345L-136.293 1111.47L-179.932 1126.19V1127.65L-135.141 1112.56L-134.87 1112.46H-134.836ZM-54.6377 950.291L158.953 878.312L159.224 878.21L266.154 734.082L479.745 662.103L480.016 662.001L586.946 517.874L800.537 445.894L800.808 445.793L907.739 301.665L1121.33 229.686L1121.6 229.584L1228.53 85.456L1442.12 13.4768L1442.39 13.3751L1451.57 1H1449.41L1440.97 12.3919L1227.38 84.3711L1227.11 84.4728L1120.18 228.601L906.553 300.58L906.282 300.682L799.317 444.809L585.727 516.789L585.456 516.89L478.525 661.018L264.935 732.997L264.664 733.099L157.733 877.227L-55.8574 949.206L-56.1284 949.308L-163.093 1093.44L-180 1099.13V1100.59L-161.67 1094.42L-54.7393 950.291H-54.6377ZM105.487 842.271L105.758 842.17L212.689 698.042L426.279 626.063L426.55 625.961L533.481 481.833L747.071 409.854L747.342 409.752L854.273 265.624L1067.86 193.645L1068.13 193.543L1175.07 49.4156L1318.86 1.0339H1314.56L1174.08 48.3645L1173.81 48.4662L1066.88 192.594L853.291 264.573L853.02 264.675L746.089 408.803L532.499 480.782L532.228 480.884L425.297 625.012L211.706 696.991L211.435 697.092L104.505 841.22L-109.086 913.2L-109.357 913.301L-179.932 1008.13V1011.05L-108.137 914.251L105.453 842.271H105.487ZM-54.6377 1166.47L52.293 1022.34L265.917 950.359L266.188 950.257L373.119 806.129L586.709 734.15L586.98 734.048L693.945 589.92L907.535 517.941L907.806 517.84L1014.74 373.712L1228.33 301.733L1228.6 301.631L1335.53 157.503L1549.12 85.5238L1549.39 85.4221L1612.04 1H1609.87L1547.93 84.4728L1334.34 156.452L1334.07 156.554L1227.14 300.682L1013.55 372.661L1013.28 372.762L906.349 516.89L692.759 588.869L692.488 588.971L585.523 733.099L371.933 805.078L371.662 805.18L264.731 949.308L51.1072 1021.29L50.8361 1021.39L-56.0946 1165.52L-179.932 1207.25V1208.71L-54.9426 1166.6L-54.6715 1166.5L-54.6377 1166.47ZM132.22 860.275L132.491 860.173L239.422 716.045L453.012 644.066L453.283 643.964L560.214 499.836L773.804 427.857L774.075 427.755L881.006 283.628L1094.6 211.648L1094.87 211.547L1201.8 67.4188L1399.06 1.0339H1394.75L1200.82 66.3678L1200.54 66.4695L1093.61 210.597L880.023 282.577L879.752 282.678L772.822 426.806L559.231 498.785L558.96 498.887L452.03 643.015L238.439 714.994L238.168 715.096L131.237 859.224L-82.3529 931.203L-82.624 931.305L-179.932 1062.18V1065.09L-81.4042 932.288L132.186 860.309L132.22 860.275ZM-1.17232 770.089L105.758 625.961L319.349 553.982L319.62 553.88L426.55 409.752L640.175 337.773L640.446 337.671L747.376 193.543L960.967 121.564L961.238 121.463L1050.72 1.0339H1048.55L959.882 120.513L746.292 192.492L746.021 192.594L639.09 336.722L425.5 408.701L425.229 408.803L318.298 552.931L104.708 624.91L104.437 625.012L-2.4937 769.139L-179.932 828.879V830.337L-1.47725 770.19L-1.20619 770.089H-1.17232ZM-81.3703 1148.46L25.5604 1004.33L239.185 932.356L239.456 932.254L346.386 788.126L559.977 716.147L560.248 716.045L667.178 571.917L880.769 499.938L881.04 499.836L987.97 355.708L1201.56 283.729L1201.83 283.628L1308.76 139.5L1522.35 67.5206L1522.62 67.4188L1571.89 1H1569.72L1521.17 66.4356L1307.58 138.415L1307.31 138.516L1200.37 282.644L986.785 354.624L986.513 354.725L879.583 498.853L665.993 570.832L665.721 570.934L558.791 715.062L345.201 787.041L344.929 787.143L237.999 931.271L24.3745 1003.25L24.1035 1003.35L-82.8272 1147.48L-179.932 1180.2V1181.66L-81.6753 1148.56L-81.4042 1148.46H-81.3703ZM-134.836 680.005L-27.905 535.877L185.685 463.898L185.956 463.796L292.887 319.668L506.477 247.689L506.748 247.587L613.679 103.459L827.269 31.4801L827.541 31.3784L850.072 1H847.903L826.084 30.3952L612.493 102.374L612.222 102.476L505.292 246.604L291.701 318.583L291.43 318.685L184.499 462.813L-29.0908 534.792L-29.3619 534.894L-136.293 679.021L-179.932 693.736V695.194L-135.141 680.106L-134.87 680.005H-134.836ZM-81.3703 283.628L25.5604 139.5L239.185 67.5206L239.456 67.4188L288.72 1.0339H286.551L237.999 66.4695L24.3745 138.449L24.1035 138.55L-82.8272 282.678L-179.932 315.396V316.854L-81.6753 283.763L-81.4042 283.661L-81.3703 283.628ZM-27.905 319.668L79.0257 175.54L292.616 103.561L292.887 103.459L368.918 1.0339H366.749L291.464 102.51L77.8398 174.489L77.5688 174.591L-29.3619 318.719L-179.932 369.44V370.898L-28.2099 319.77L-27.9389 319.668H-27.905ZM-1.17232 337.671L105.758 193.543L319.349 121.564L319.62 121.463L409.034 1.0339H406.865L318.197 120.513L104.606 192.492L104.335 192.594L-2.59534 336.722L-179.932 396.496V397.953L-1.47725 337.807L-1.20619 337.705L-1.17232 337.671ZM-54.6377 301.631L52.293 157.503L265.917 85.5238L266.188 85.4221L328.836 1.0339H326.667L264.731 84.5067L51.1072 156.486L50.8361 156.588L-56.0946 300.715L-179.932 342.418V343.876L-54.9426 301.766L-54.6715 301.665L-54.6377 301.631ZM25.5604 355.675L132.491 211.547L346.081 139.568L346.352 139.466L449.15 1.0339H446.981L344.963 138.55L131.373 210.53L131.102 210.631L24.1712 354.759L-179.932 423.517V424.975L25.2554 355.844L25.5265 355.742L25.5604 355.675ZM-44.7103 1.0339H-49.0133L-136.022 30.3613L-136.293 30.463L-179.932 89.2533V92.1691L-134.87 31.4123L-44.7103 1.0339ZM115.72 1.0339H111.417L-82.5223 66.3678L-82.7934 66.4695L-179.932 197.375V200.29L-81.4042 67.4527L115.72 1.0339ZM35.5216 1.0339H31.2186L-109.289 48.3645L-109.56 48.4662L-179.932 143.297V146.213L-108.137 49.4156L35.4877 1.0339H35.5216ZM52.022 373.847L52.293 373.746L159.224 229.618L372.814 157.639L373.085 157.537L480.084 13.409L516.777 1.0339H512.474L478.965 12.3241L478.694 12.4258L371.764 156.554L158.139 228.533L157.868 228.635L50.9377 372.762L-162.653 444.742L-162.924 444.843L-179.831 467.627V470.543L-161.501 445.827L52.0897 373.847H52.022ZM-108.103 265.658L-1.17232 121.53L212.418 49.5512L212.689 49.4495L248.638 1.0339H246.469L211.266 48.4662L-2.3243 120.445L-2.59534 120.547L-109.526 264.675L-179.932 288.374V289.832L-108.408 265.726L-108.137 265.624L-108.103 265.658ZM132.254 427.925L132.525 427.823L239.456 283.695L453.046 211.716L453.317 211.615L560.248 67.4866L757.372 1.0339H753.068L559.13 66.3678L558.859 66.4695L451.928 210.597L238.337 282.577L238.066 282.678L131.136 426.806L-82.4545 498.785L-82.7256 498.887L-179.932 629.758V632.674L-81.4042 499.87L132.186 427.891L132.254 427.925ZM78.7885 391.885L79.0596 391.783L185.99 247.655L399.581 175.676L399.852 175.574L506.782 31.4462L596.976 1.0339H592.672L505.664 30.3613L505.393 30.463L398.463 174.591L184.872 246.57L184.601 246.672L77.6704 390.8L-135.92 462.779L-136.191 462.88L-179.932 521.671V524.587L-134.87 463.83L78.7207 391.851L78.7885 391.885ZM105.521 409.888L105.792 409.786L212.757 265.658L426.347 193.679L426.618 193.577L533.549 49.4495L677.174 1.0339H672.871L532.397 48.3645L532.126 48.4662L425.195 192.594L211.605 264.573L211.334 264.675L104.403 408.803L-109.187 480.782L-109.458 480.884L-179.932 575.715V578.63L-108.137 481.867L105.453 409.888H105.521ZM-134.87 247.621L-27.9389 103.493L185.651 31.514L185.923 31.4123L208.454 1.0339H206.285L184.466 30.4291L-29.1247 102.408L-29.3958 102.51L-136.326 246.638L-179.966 261.352V262.81L-135.174 247.723L-134.903 247.621H-134.87ZM-54.6715 85.456L158.953 13.4768L159.224 13.3751L168.406 1H166.237L157.801 12.3919L-55.7896 84.3711L-56.0607 84.4728L-163.025 228.635L-179.932 234.331V235.788L-161.602 229.618L-54.6715 85.4899V85.456ZM25.5265 788.126L132.457 643.998L346.048 572.019L346.319 571.917L453.249 427.789L666.873 355.81L667.144 355.708L774.075 211.581L987.699 139.601L987.97 139.5L1090.8 1.0339H1088.63L986.615 138.55L772.991 210.53L772.72 210.631L665.789 354.759L452.165 426.738L451.894 426.84L344.963 570.968L131.373 642.947L131.102 643.049L24.1712 787.177L-179.932 855.901V857.359L25.2554 788.228L25.5265 788.126Z" fill="white" fill-opacity="0.51"/>
</g>
<rect width="1440" height="515" fill="url(#paint0_linear_1018_427)"/>
<defs>
<linearGradient id="paint0_linear_1018_427" x1="720" y1="0" x2="720" y2="515" gradientUnits="userSpaceOnUse">
<stop stop-color="#4D17F5"/>
<stop offset="1" stop-color="#4D17F5" stop-opacity="0"/>
</linearGradient>
</defs>
</svg>
