<svg width="32" height="32" viewBox="0 0 32 32" fill="none" xmlns="http://www.w3.org/2000/svg">
<rect width="32" height="32" rx="8.74317" fill="#EBD22F"/>
<path d="M21.1472 18.8205C22.8564 18.2171 24.0721 16.669 24.0721 14.8535C24.0721 14.0879 23.8867 13.35 23.4778 12.7502C22.5374 11.3701 21.3604 9.83594 21.3604 9.83594L10.29 10.6162L8.16309 25.2174L10.29 27.5655H19.5C21.9898 27.5655 24.0546 25.5732 24.0721 23.082C24.086 21.1328 22.8659 19.4678 21.1472 18.8205Z" fill="black"/>
<path d="M19.2451 16.4054C20.9543 15.802 22.17 14.2539 22.17 12.4384C22.17 10.349 20.5586 8.61311 18.439 8.26462C18.8647 7.04822 18.9289 6.36878 18.9289 6.36878C18.9545 6.10139 18.7413 5.88514 18.4098 6.14888C18.4098 6.14888 17.3942 6.90649 16.4603 8.20106H16.3128C15.985 5.94432 15.4571 4.82873 15.4571 4.82873C15.3184 4.53358 14.9592 4.4218 14.7744 4.87914C14.7744 4.87914 14.1545 6.27819 13.9895 8.20106H13.8515C12.9184 6.90649 11.9021 6.14888 11.9021 6.14888C11.5706 5.88514 11.3574 6.10139 11.3829 6.36878C11.3829 6.36878 11.4465 7.04018 11.8663 8.2449C9.80437 8.54005 8.21777 10.3146 8.21777 12.461V25.1497H17.5979C20.0877 25.1497 22.1525 23.1574 22.17 20.6661C22.1839 18.7169 20.9638 17.052 19.2451 16.4047V16.4054Z" fill="#FF5129" stroke="black" stroke-width="0.604497" stroke-linecap="round" stroke-linejoin="round"/>
<path d="M15.1486 14.8443C16.4188 14.8443 17.4485 13.814 17.4485 12.543C17.4485 11.272 16.4188 10.2417 15.1486 10.2417C13.8784 10.2417 12.8486 11.272 12.8486 12.543C12.8486 13.814 13.8784 14.8443 15.1486 14.8443Z" fill="white" stroke="black" stroke-width="0.604497" stroke-linecap="round" stroke-linejoin="round"/>
<path d="M15.1488 13.535C15.6964 13.535 16.1403 13.0908 16.1403 12.5429C16.1403 11.995 15.6964 11.5508 15.1488 11.5508C14.6012 11.5508 14.1572 11.995 14.1572 12.5429C14.1572 13.0908 14.6012 13.535 15.1488 13.535Z" fill="black"/>
<path d="M12.8877 12.1258C13.0834 11.0534 14.0223 10.241 15.1504 10.241C16.2785 10.241 17.1897 11.0767 17.4036 12.1258H12.8877Z" fill="#FF5129" stroke="black" stroke-width="0.604497" stroke-linecap="round" stroke-linejoin="round"/>
<path d="M16.8784 22.804H13.4401C12.0507 22.804 10.9248 21.7527 10.9248 20.456C10.9248 19.1592 12.0507 18.1079 13.4401 18.1079H16.8784C18.2678 18.1079 19.3937 19.1592 19.3937 20.456C19.3937 21.7527 18.2678 22.804 16.8784 22.804Z" fill="black"/>
<path d="M14.6268 22.804H13.3994V22.0859C13.3994 21.8046 13.6272 21.5759 13.9091 21.5759H14.1179C14.399 21.5759 14.6275 21.8039 14.6275 22.0859V22.804H14.6268Z" fill="#FEFDE9"/>
<path d="M16.9197 22.804H15.6924V22.0859C15.6924 21.8046 15.9202 21.5759 16.202 21.5759H16.4108C16.6919 21.5759 16.9205 21.8039 16.9205 22.0859V22.804H16.9197Z" fill="#FEFDE9"/>
<path d="M15.3328 18.1079H16.5601V18.8261C16.5601 19.1073 16.3323 19.336 16.0505 19.336H15.8417C15.5606 19.336 15.332 19.1081 15.332 18.8261V18.1079H15.3328Z" fill="#FEFDE9"/>
<path d="M13.7585 18.1079H14.9859V18.8261C14.9859 19.1073 14.7581 19.336 14.4763 19.336H14.2675C13.9863 19.336 13.7578 19.1081 13.7578 18.8261V18.1079H13.7585Z" fill="#FEFDE9"/>
</svg>
