<svg width="150" height="194" viewBox="0 0 150 194" fill="none" xmlns="http://www.w3.org/2000/svg">
<g clip-path="url(#clip0_1216_905)">
<path d="M116.001 111.045C127.959 104.343 135.021 91.2396 132.679 77.7115C131.692 72.0063 129.358 66.7472 125.537 62.8052C116.75 53.7348 106 43.8209 106 43.8209L24.5153 63.9152L27.5015 175.46L46.3791 190.214L115.008 178.333C133.56 175.121 146.377 157.612 143.293 139.026C140.883 124.484 129.643 113.651 116.001 111.045Z" fill="black"/>
<path d="M98.713 95.5011C110.671 88.7995 117.733 75.6958 115.391 62.1677C112.696 46.5982 98.4491 35.7421 82.2053 35.8796C83.8081 26.2664 83.4104 21.1207 83.4104 21.1207C83.2559 19.0952 81.3883 17.7589 79.2585 20.1517C79.2585 20.1517 72.6678 27.1071 67.3791 37.9583L66.2801 38.1486C60.9261 21.7553 55.5535 14.1234 55.5535 14.1234C54.139 12.103 51.318 11.7335 50.5315 15.3797C50.5315 15.3797 47.7171 26.6044 48.9679 41.1455L47.9396 41.3236C39.3165 32.8806 30.7658 28.5464 30.7658 28.5464C27.9556 27.0087 26.6458 28.8951 27.1812 30.8546C27.1812 30.8546 28.5206 35.7756 33.203 44.2111C18.2193 49.0702 8.68583 64.34 11.4546 80.3342L27.8223 174.884L97.7185 162.784C116.271 159.572 129.087 142.063 126.004 123.477C123.593 108.935 112.354 98.1018 98.7121 95.4956L98.713 95.5011Z" fill="#FFD629" stroke="black" stroke-width="4" stroke-linecap="round" stroke-linejoin="round"/>
<path d="M66.1719 89.152C75.637 87.5135 81.9809 78.5076 80.3414 69.0369C78.7019 59.5662 69.6999 53.2169 60.2348 54.8555C50.7697 56.494 44.4258 65.4998 46.0653 74.9705C47.7047 84.4413 56.7068 90.7905 66.1719 89.152Z" fill="white" stroke="black" stroke-width="4" stroke-linecap="round" stroke-linejoin="round"/>
<path d="M64.4831 79.3967C68.5637 78.6903 71.2986 74.8078 70.5918 70.7249C69.885 66.642 66.0041 63.9047 61.9236 64.6111C57.8431 65.3175 55.1081 69.2 55.8149 73.2829C56.5217 77.3659 60.4026 80.1031 64.4831 79.3967Z" fill="black"/>
<path d="M45.8201 71.8114C45.8947 63.5673 51.8435 56.3025 60.2493 54.8473C68.6551 53.3922 76.5232 58.4446 79.4706 65.986L45.8201 71.8114Z" fill="#FFD629" stroke="black" stroke-width="4" stroke-linecap="round" stroke-linejoin="round"/>
<path d="M89.3282 146.232L63.7081 150.667C53.3545 152.459 43.6089 146.078 41.9361 136.415C40.2633 126.752 47.2967 117.466 57.6503 115.674L83.2704 111.239C93.624 109.446 103.37 115.828 105.042 125.491C106.715 135.154 99.6818 144.44 89.3282 146.232Z" fill="black"/>
<path d="M72.5493 149.137L63.4035 150.72L62.4771 145.369C62.1143 143.273 63.5168 141.275 65.6169 140.911L67.173 140.642C69.2676 140.279 71.2646 141.683 71.6283 143.785L72.5547 149.136L72.5493 149.137Z" fill="#FEFDE9"/>
<path d="M89.638 146.178L80.4923 147.762L79.5659 142.41C79.2031 140.314 80.6056 138.316 82.7057 137.953L84.2617 137.684C86.3563 137.321 88.3533 138.725 88.7171 140.826L89.6435 146.177L89.638 146.178Z" fill="#FEFDE9"/>
<path d="M71.7574 113.232L80.9031 111.648L81.8295 117C82.1924 119.096 80.7898 121.094 78.6897 121.457L77.1337 121.726C75.0391 122.089 73.0421 120.685 72.6783 118.584L71.752 113.233L71.7574 113.232Z" fill="#FEFDE9"/>
<path d="M60.0222 115.263L69.1679 113.68L70.0943 119.031C70.4571 121.127 69.0546 123.125 66.9545 123.489L65.3985 123.758C63.3038 124.121 61.3069 122.717 60.9431 120.616L60.0167 115.264L60.0222 115.263Z" fill="#FEFDE9"/>
</g>
<defs>
<clipPath id="clip0_1216_905">
<rect width="121" height="175" fill="white" transform="translate(0 20.6396) rotate(-9.82126)"/>
</clipPath>
</defs>
</svg>
