<svg width="248" height="498" viewBox="0 0 248 498" fill="none" xmlns="http://www.w3.org/2000/svg">
<mask id="mask0_1343_2357" style="mask-type:alpha" maskUnits="userSpaceOnUse" x="0" y="0" width="248" height="498">
<rect width="248" height="498" rx="23" fill="#C5C3C4"/>
</mask>
<g mask="url(#mask0_1343_2357)">
<path d="M133.411 -26.7734V502.5" stroke="black"/>
<path d="M89 -26.7734V502.5" stroke="black"/>
<path d="M181 -27V566" stroke="black"/>
<path d="M228.5 -27V566" stroke="black"/>
<path d="M982 257L89 257" stroke="black"/>
<path d="M982 304L89 304" stroke="black"/>
<path d="M982 352L89 352" stroke="black"/>
<path d="M982 19L89 18.9999" stroke="black"/>
<path d="M982 399L89 399" stroke="black"/>
<path d="M982 67L89 66.9999" stroke="black"/>
<path d="M982 447L89 447" stroke="black"/>
<path d="M982 114L89 114" stroke="black"/>
<path d="M982 495L89 495" stroke="black"/>
<path d="M982 162L89 162" stroke="black"/>
<path d="M982 209L89 209" stroke="black"/>
<path d="M57.2203 282.913C63.1504 284.802 69.6389 283.062 73.8314 278.462L73.8315 278.462C79.5548 272.179 89.4425 272.179 95.1685 278.462C99.3612 283.064 105.85 284.801 111.78 282.913C119.879 280.334 128.441 285.277 130.259 293.581C131.589 299.663 136.337 304.411 142.419 305.741C150.723 307.559 155.666 316.121 153.087 324.22C151.199 330.15 152.938 336.639 157.538 340.831L157.538 340.832C163.821 346.555 163.821 356.442 157.538 362.168C152.936 366.361 151.199 372.85 153.087 378.78C155.666 386.879 150.723 395.441 142.419 397.259C136.337 398.589 131.589 403.337 130.259 409.419C128.441 417.723 119.879 422.666 111.78 420.087C105.85 418.199 99.3611 419.938 95.1686 424.538L95.1685 424.538C89.4452 430.821 79.5576 430.821 73.8316 424.538C69.6388 419.936 63.1502 418.199 57.2203 420.087C49.1207 422.666 40.5585 417.723 38.7415 409.419C37.4113 403.337 32.6626 398.589 26.5811 397.259C18.2767 395.441 13.3341 386.879 15.9126 378.78C17.8015 372.849 16.0615 366.361 11.462 362.169L11.4618 362.168C5.1795 356.445 5.17928 346.558 11.4618 340.832C16.0642 336.639 17.8015 330.15 15.9126 324.22M57.2203 282.913L57.4477 282.199L57.2203 282.913ZM57.2203 282.913C49.1207 280.334 40.5585 285.277 38.7415 293.581C37.4113 299.663 32.6626 304.411 26.5812 305.741C18.2767 307.559 13.3341 316.121 15.9126 324.22M15.9126 324.22L15.1989 324.448L15.9126 324.22Z" fill="#FFCC00" stroke="black" stroke-width="1.5"/>
<path d="M84.5003 404.884C114.684 404.884 139.152 380.416 139.152 350.232C139.152 320.049 114.684 295.581 84.5003 295.581C54.317 295.581 29.8486 320.049 29.8486 350.232C29.8486 380.416 54.317 404.884 84.5003 404.884Z" stroke="black" stroke-width="1.51421" stroke-miterlimit="10"/>
<path d="M21.6113 324.76V349.335L42.3637 352.197L128.679 350.233L148.526 346.28L147.383 316.095L95.0177 290.485L38.9945 305.12L21.6113 324.76Z" fill="#FFCC00"/>
<path d="M136.443 395.421L119.678 379.977L108.083 388.753L63.564 389.767L48.6399 372.917L31.4316 393.215L80.9244 420.584L109.819 413.034L136.443 395.421Z" fill="#FFCC00"/>
<path d="M40.7873 343.664L40.2778 346.516L24.1748 343.633L24.9353 339.39C25.4931 336.269 26.9482 335.138 29.8002 335.648L32.5406 336.137C35.1898 336.611 36.5512 338.198 35.9934 341.321L35.7374 342.759L40.7898 343.664H40.7873ZM33.1972 342.305L33.4254 341.025C33.6307 339.879 33.1212 339.232 31.9525 339.022L29.3692 338.561C28.1346 338.34 27.5921 338.776 27.3842 339.945L27.1561 341.225L33.1972 342.305Z" fill="black"/>
<path d="M40.5821 334.528L42.6583 335.851L41.5631 338.584L27.7266 329.13L28.8217 326.397L45.3911 329.031L44.296 331.764L41.8724 331.31L40.5821 334.53V334.528ZM39.2917 330.816L33.8311 329.784L31.6458 329.105L33.6967 330.124L38.3765 333.105L39.2942 330.819L39.2917 330.816Z" fill="black"/>
<path d="M45.924 328.164L31.1748 320.63L32.8378 318.341L40.94 322.678L43.4244 324.344L41.3431 322.435L34.9191 315.481L36.0726 313.894L44.6032 317.95L47.1992 319.499L44.7351 317.456L38.2021 310.958L39.8525 308.689L51.3948 320.632L49.8129 322.81L41.442 318.843L39.2491 317.474L41.2265 319.137L47.5161 325.966L45.9189 328.162L45.924 328.164Z" fill="black"/>
<path d="M50.5956 315.684L49.214 313.986L51.5868 312.056L52.9406 313.719C53.6022 314.533 54.274 314.782 55.1943 314.034C56.0258 313.357 55.8914 312.614 55.3159 311.904L54.7836 311.25C54.4946 310.895 54.1777 310.685 53.767 310.579C53.0065 310.404 52.0634 310.581 51.0671 310.804C50.4866 310.923 49.8934 311.025 49.29 311.042C48.0656 311.126 46.8639 310.809 45.7992 309.499L45.3682 308.969C43.7711 307.004 43.8852 304.94 46.1693 303.082C48.4534 301.224 50.3877 301.505 51.8986 303.364L53.0217 304.745L50.773 306.573L49.7641 305.333C49.0872 304.502 48.4838 304.375 47.7056 305.009C46.945 305.627 47.0465 306.368 47.665 307.128L47.954 307.483C48.2278 307.82 48.532 308.013 48.8996 308.066C49.6323 308.206 50.5424 308.026 51.5209 307.818C52.1014 307.699 52.6921 307.63 53.3158 307.564C54.5402 307.481 55.7723 307.8 56.8522 309.128L57.6432 310.102C59.2834 312.12 59.1135 314.259 56.8294 316.118C54.1929 318.262 52.3524 317.847 50.5981 315.687L50.5956 315.684Z" fill="black"/>
<path d="M58.496 308.543L55.4336 302.395C53.9379 299.394 54.8708 297.12 57.4439 295.837C60.017 294.554 62.3924 295.18 63.8881 298.182L66.9505 304.329C68.4767 307.392 67.5133 309.605 64.9402 310.888C62.3062 312.201 60.0323 311.625 58.496 308.543ZM64.1112 305.49L61.2111 299.67C60.448 298.139 59.6723 297.657 58.6126 298.187C57.5098 298.737 57.4769 299.645 58.2298 301.155L61.13 306.976C61.8829 308.487 62.6181 308.989 63.7183 308.439C64.7805 307.909 64.8642 307.001 64.1112 305.49Z" fill="black"/>
<path d="M69.9337 308.157L66.5215 292.156L69.0439 291.618L73.3079 297.941L74.6237 290.43L77.1461 289.892L80.5583 305.894L77.8813 306.464L75.9647 297.47L75.767 294.572L75.62 296.4L74.6008 302.124L73.9088 302.271L70.5269 297.462L69.7613 295.946L70.7221 298.704L72.6159 307.587L69.9388 308.157H69.9337Z" fill="black"/>
<path d="M81.8037 305.987L82.151 289.631L89.7918 289.793L89.736 292.463L85.0131 292.361L84.927 296.422L89.0795 296.511L89.0237 299.203L84.8712 299.115L84.7825 303.29L89.6422 303.394L89.5839 306.155L81.8062 305.99L81.8037 305.987Z" fill="black"/>
<path d="M103.965 292.896C104.87 293.208 105.595 293.626 106.196 294.194C107.369 295.274 107.78 296.886 107.022 299.087L104.862 305.366C104.484 306.466 103.993 307.263 103.354 307.79C102.109 308.882 100.436 308.981 98.6233 308.358L94.6533 306.991L99.972 291.52L103.965 292.891V292.896ZM98.2836 305.49L99.3635 305.861C100.55 306.269 101.485 305.795 102.063 304.111L104.066 298.286C104.652 296.582 104.178 295.647 102.991 295.239L101.934 294.876L98.2836 305.493V305.49Z" fill="black"/>
<path d="M104.22 310.52L112.69 296.524L119.228 300.481L117.846 302.765L113.806 300.319L111.704 303.795L115.256 305.944L113.861 308.249L110.31 306.099L108.147 309.671L112.305 312.188L110.875 314.551L104.218 310.523L104.22 310.52Z" fill="black"/>
<path d="M113.965 311.825L115.456 310.221L117.697 312.302L116.237 313.874C115.522 314.642 115.37 315.342 116.239 316.15C117.025 316.88 117.743 316.645 118.364 315.975L118.939 315.357C119.249 315.022 119.413 314.677 119.464 314.257C119.533 313.478 119.223 312.571 118.866 311.615C118.668 311.057 118.486 310.482 118.382 309.889C118.128 308.687 118.275 307.455 119.424 306.218L119.89 305.716C121.614 303.86 123.672 303.688 125.83 305.691C127.987 307.693 127.977 309.648 126.347 311.402L125.135 312.705L123.011 310.733L124.098 309.562C124.828 308.776 124.869 308.16 124.134 307.478C123.414 306.811 122.696 307.014 122.03 307.734L121.72 308.068C121.426 308.385 121.277 308.715 121.274 309.085C121.236 309.828 121.543 310.705 121.885 311.646C122.083 312.203 122.235 312.779 122.385 313.387C122.638 314.589 122.491 315.854 121.327 317.106L120.473 318.026C118.704 319.933 116.561 320.059 114.404 318.057C111.912 315.745 112.069 313.866 113.963 311.825H113.965Z" fill="black"/>
<path d="M120.288 319.641L121.428 321.183L130.139 314.733L128.998 313.192L131.199 311.562L135.151 316.898L132.95 318.528L131.837 317.025L123.129 323.474L124.242 324.978L122.006 326.633L118.057 321.297L120.293 319.641H120.288Z" fill="black"/>
<path d="M123.724 330.4C122.656 328.154 123.549 326.417 126.619 324.957L132.883 321.978C135.953 320.518 138.159 321.542 139.431 324.222C140.714 326.922 140.09 329.011 137.494 330.245L135.826 331.039L134.503 328.258L136.026 327.533C137.16 326.995 137.53 326.339 137.041 325.307C136.541 324.255 135.545 324.072 134.019 324.797L128.168 327.578C126.601 328.324 126.137 329.1 126.667 330.212C127.176 331.285 128.196 331.356 129.514 330.73L130.812 330.114L129.998 328.402L132.285 327.315L134.381 331.723L126.426 335.503L125.486 333.526L127.638 332.099C125.8 332.593 124.497 332.025 123.721 330.398L123.724 330.4Z" fill="black"/>
<path d="M126.791 336.561L142.808 333.229L143.343 335.798L135.083 341.36L133.39 342.295L135.524 341.689L144.192 339.887L144.734 342.5L128.718 345.831L128.198 343.329L136.506 337.663L138.311 336.705L135.958 337.382L127.336 339.174L126.794 336.561H126.791Z" fill="black"/>
<path d="M37.8268 390.259L50.3324 379.713L55.2581 385.556L53.2173 387.278L50.1727 383.668L47.0672 386.286L49.7443 389.46L47.6858 391.197L45.0087 388.023L41.817 390.715L44.9504 394.429L42.8386 396.209L37.8242 390.261L37.8268 390.259Z" fill="black"/>
<path d="M55.0215 385.475L57.3792 387.349L52.8236 396.201L51.4597 398.176L53.0746 396.399L60.6317 389.932L62.9716 391.79L50.0097 402.384L47.6875 400.539L55.0241 385.473L55.0215 385.475Z" fill="black"/>
<path d="M55.6402 406.263L63.0833 391.696L69.89 395.174L68.6757 397.552L64.47 395.403L62.6219 399.02L66.3181 400.909L65.0936 403.307L61.3974 401.418L59.4961 405.137L63.8235 407.348L62.5661 409.807L55.6377 406.266L55.6402 406.263Z" fill="black"/>
<path d="M68.7119 411.911L65.9639 411.146L70.3597 395.39L74.601 396.574C77.567 397.4 78.4797 398.889 77.7495 401.502L77.2222 403.393C76.7938 404.932 75.9953 405.586 74.7809 405.695C75.8203 406.387 75.9648 407.305 75.5313 408.864L74.5376 412.423C74.4083 412.885 74.4717 413.258 74.6669 413.572L71.678 412.738C71.5233 412.53 71.5462 412.109 71.6856 411.605L72.6363 408.197C72.9481 407.077 72.763 406.552 71.5766 406.22L70.3902 405.888L68.7094 411.909L68.7119 411.911ZM71.0898 403.386L72.4309 403.761C73.5514 404.073 74.132 403.69 74.426 402.635L74.9178 400.876C75.2068 399.844 74.895 399.259 73.7517 398.939L72.4334 398.572L71.0898 403.383V403.386Z" fill="black"/>
<path d="M80.7766 408.38L78.2061 397.674L81.2558 397.892L82.4701 403.925L82.5537 405.327L82.8351 403.953L84.9672 398.158L87.9941 398.376L83.8061 408.598L83.3853 414.446L80.3584 414.228L80.7766 408.38Z" fill="black"/>
<path d="M95.0974 413.881L92.1769 414.236L90.5316 400.671L87.8596 400.995L87.5352 398.323L95.8249 397.319L96.1494 399.991L93.4546 400.318L95.0999 413.884L95.0974 413.881Z" fill="black"/>
<path d="M99.8499 410.21L101.683 409.652L98.5342 399.281L96.7013 399.839L95.9053 397.218L102.258 395.289L103.054 397.907L101.264 398.45L104.413 408.821L106.203 408.278L107.012 410.943L100.659 412.872L99.8499 410.208V410.21Z" fill="black"/>
<path d="M110.604 409.668L102.707 395.34L104.966 394.095L110.878 398.914L109.962 391.342L112.221 390.097L120.118 404.426L117.72 405.746L113.281 397.692L112.254 394.977L112.642 396.77L113.324 402.542L112.705 402.884L108.076 399.262L106.905 398.032L108.624 400.395L113.007 408.347L110.609 409.668H110.604Z" fill="black"/>
<path d="M123.556 401.753L112.703 389.514L118.422 384.443L120.194 386.441L116.66 389.574L119.355 392.614L122.461 389.858L124.248 391.874L121.14 394.629L123.911 397.753L127.546 394.528L129.376 396.594L123.556 401.756V401.753Z" fill="black"/>
<path d="M84.4999 384.063C103.184 384.063 118.331 368.917 118.331 350.232C118.331 331.548 103.184 316.401 84.4999 316.401C65.8156 316.401 50.6689 331.548 50.6689 350.232C50.6689 368.917 65.8156 384.063 84.4999 384.063Z" stroke="black" stroke-width="1.51421" stroke-miterlimit="10"/>
<path d="M79 371.583C79.4132 371.646 79.9076 371.367 80.2219 371.862C79.8036 371.816 79.3118 372.092 79 371.583Z" fill="#CC9AA5"/>
<path d="M104.269 349.018C103.785 348.691 104.033 348.21 104.005 347.784C104.479 348.113 104.241 348.592 104.269 349.018Z" fill="#C598A4"/>
<path d="M85.3037 372.146C85.6409 371.644 86.1327 371.958 86.5535 371.91C86.2113 372.389 85.7321 372.128 85.3037 372.146Z" fill="#B8979F"/>
<path d="M103.972 347.21C103.521 347 103.734 346.604 103.711 346.275C104.142 346.49 103.957 346.878 103.972 347.21Z" fill="#CA90A0"/>
<path d="M64.881 353.81C65.35 354.015 65.0965 354.421 65.1421 354.745C64.6858 354.537 64.9114 354.137 64.881 353.81Z" fill="#C4959F"/>
<path d="M104.008 358.056C104.036 357.726 103.81 357.328 104.271 357.123C104.241 357.45 104.464 357.848 104.008 358.056Z" fill="#C48C98"/>
<path d="M89.2227 371.558C89.4179 371.089 89.8311 371.345 90.1505 371.282C89.9604 371.771 89.5497 371.522 89.2227 371.558Z" fill="#D4A4AE"/>
<path d="M65.5013 350.788C65.4911 349.408 65.4278 348.029 65.481 346.653C65.552 344.83 66.1883 343.203 67.3392 341.773C68.1783 340.731 69.1417 339.968 70.5664 339.955C71.1698 339.95 71.223 339.473 71.1951 338.984C71.0861 336.918 71.8897 335.187 73.355 333.825C74.7316 332.55 76.4174 331.866 78.3492 332.188C78.9069 332.281 79.4595 332.517 79.9437 332.877C80.6612 333.412 80.7676 333.354 81.1707 332.583C82.1087 330.791 83.5892 329.886 85.6173 329.711C87.8355 329.518 89.6811 330.134 91.1489 331.83C91.7066 332.474 92.2009 333.161 92.5381 333.942C92.7485 334.431 93.0147 334.664 93.5978 334.606C96.2343 334.337 98.0748 335.64 99.5198 337.684C100.716 339.375 101.414 341.261 101.941 343.256C102.438 345.127 102.785 347.01 103.13 348.912C103.576 351.378 103.53 353.85 103.31 356.296C103.097 358.631 102.207 360.814 100.932 362.812C98.9342 365.942 96.0442 367.996 92.6852 369.367C91.0956 370.016 89.4047 370.45 87.6733 370.739C85.6046 371.086 83.5487 371.035 81.4876 370.939C79.9742 370.868 78.5393 370.361 77.1044 369.854C74.5161 368.936 72.4905 367.286 70.754 365.243C69.4586 363.717 68.5459 361.965 67.8057 360.094C67.2758 358.758 66.8373 357.389 66.4646 356.017C66.1148 354.727 65.7497 353.404 65.7446 352.035C65.4759 351.657 65.7573 351.17 65.4987 350.788H65.5013Z" fill="#FFA410" stroke="black" stroke-width="1.51421" stroke-linecap="round" stroke-linejoin="round"/>
<path d="M65.5024 350.788C65.9917 351.122 65.7027 351.612 65.7483 352.035C65.2311 351.705 65.5556 351.211 65.5024 350.788Z" fill="#AC727C"/>
<path d="M96.765 339.978C96.2554 339.968 95.7459 339.961 95.2363 339.951C95.6825 339.55 96.3442 339.56 96.765 339.978Z" fill="#B77A88"/>
<path d="M70.5693 353.84C71.0814 353.84 71.5935 353.84 72.1031 353.842C71.6721 354.24 71.018 354.238 70.5693 353.84Z" fill="#AF7884"/>
<path d="M97.9974 357.452C98.0151 358.979 96.1113 360.449 94.8995 360.421C94.0401 360.401 93.5584 360.718 93.0742 361.435C92.4049 362.431 91.2718 362.923 90.1994 363.425C88.0192 364.447 85.7047 364.536 83.3673 364.328C82.5231 364.254 81.6764 363.93 81.0274 363.4C80.3075 362.812 79.7624 363.367 79.1996 363.524C76.553 364.262 75.3564 363.552 74.5097 361.422C73.5235 358.943 74.5274 356.651 77.0549 355.708C77.0777 355.701 77.1056 355.685 77.1259 355.688C78.652 355.985 78.4847 354.75 78.6622 353.919C79.0272 352.22 79.9931 350.963 81.3291 349.921C82.5105 348.998 83.92 348.587 85.3346 348.509C86.6275 348.438 87.9584 348.694 89.1778 349.297C90.3515 349.878 91.3199 350.671 91.9537 351.827C92.045 351.994 92.2833 352.07 92.2554 352.306C92.5494 352.567 92.8587 352.499 93.1705 352.342C93.7638 352.385 94.2911 352.098 94.9502 352.228C96.4662 352.524 97.1126 353.591 97.6425 354.803C97.7895 355.143 98.0557 355.49 97.9796 355.914C98.185 356.426 98.1647 356.938 97.9948 357.452H97.9974Z" fill="#FEC7D6" stroke="black" stroke-width="1.51421" stroke-miterlimit="10"/>
<path d="M97.9976 357.452C97.9926 356.94 97.9875 356.426 97.9824 355.914C98.3627 356.339 98.3703 357.026 97.9976 357.452Z" fill="#BA6A7F"/>
<path d="M93.172 352.342C92.8526 352.74 92.5433 352.823 92.2568 352.306C92.561 352.319 92.8653 352.329 93.172 352.342Z" fill="#BC6F83"/>
<path d="M90.149 340.419C90.2808 341.803 89.3581 342.708 88.4175 342.972C87.0739 343.347 85.9712 342.797 85.3425 341.629C84.554 340.163 84.4881 338.599 84.7543 337.025C84.9495 335.871 86.2348 334.923 87.7559 335.897C88.8612 336.606 89.4062 337.699 89.8144 338.863C89.9969 339.382 90.291 339.91 90.149 340.417V340.419Z" fill="#FEC7D6" stroke="black" stroke-width="1.51421" stroke-miterlimit="10"/>
<path d="M69.0687 349.097C68.9774 348.321 69.1701 347.426 69.6898 346.607C70.2501 345.722 71.3554 345.314 72.23 346.219C73.3632 347.391 74.0603 350.359 73.2668 351.769C72.8891 352.44 72.3821 352.96 71.5024 352.97C70.6405 352.98 70.0675 352.689 69.596 351.911C69.0839 351.061 69.0611 350.194 69.0687 349.099V349.097Z" fill="#FEC7D6" stroke="black" stroke-width="1.51421" stroke-miterlimit="10"/>
<path d="M80.8191 341.821C80.9129 343.175 80.4566 344.217 79.1181 344.858C77.7009 345.54 76.2711 344.772 75.7692 343.459C75.1202 341.76 75.4016 340.097 76.2813 338.513C76.9429 337.319 78.9609 337.126 79.7493 338.383C80.4211 339.456 80.8571 340.526 80.8191 341.821Z" fill="#FEC7D6" stroke="black" stroke-width="1.51421" stroke-miterlimit="10"/>
<path d="M98.912 345.378C99.054 347.034 97.8777 347.989 96.5138 347.817C95.7862 347.723 95.3172 347.246 94.975 346.727C93.9457 345.16 93.7379 343.429 94.435 341.69C94.8305 340.701 95.9789 340.513 96.8256 341.167C98.1946 342.222 98.8106 343.685 98.9145 345.381L98.912 345.378Z" fill="#FEC7D6" stroke="black" stroke-width="1.51421" stroke-miterlimit="10"/>
<path d="M80.206 354.05C79.8891 352.296 82.2214 350.243 83.8185 349.898C85.1418 349.612 85.6311 350.375 86.3181 351.008C86.7313 351.389 86.5969 353.097 86.1989 353.726C85.2077 355.283 83.7982 356.02 81.9501 355.937C81.438 355.914 80.9842 355.688 80.5609 355.485C79.9753 355.204 80.2769 354.55 80.206 354.053V354.05Z" fill="#FEE3EB"/>
</g>
</svg>
