<svg width="156" height="39" viewBox="0 0 156 39" fill="none" xmlns="http://www.w3.org/2000/svg">
<path d="M46.8867 11.6943V28.1647H51.0185V11.6943H46.8867Z" fill="black"/>
<path d="M64.8324 16.5168C63.9229 15.5224 62.6949 15.0234 61.1464 15.0234C60.1152 15.0234 59.2201 15.2479 58.4522 15.702C57.6895 16.1508 57.1149 16.7637 56.7265 17.5389V15.1651H52.5947V28.1652H56.7265V21.268C56.7265 20.3219 56.9735 19.5899 57.4622 19.0789C57.9545 18.5645 58.6168 18.3089 59.4582 18.3089C60.2477 18.3089 60.8778 18.5558 61.354 19.0444C61.8285 19.5329 62.0665 20.2115 62.0665 21.0833V28.1652H66.1982V20.6172C66.1982 18.8769 65.7418 17.513 64.8324 16.5168Z" fill="black"/>
<path d="M77.4754 11.6943V17.516C77.1371 16.7407 76.5982 16.1296 75.8588 15.6756C75.1142 15.2267 74.2281 15.0022 73.2005 15.0022C72.087 15.0022 71.0952 15.2716 70.2145 15.8033C69.3373 16.3403 68.6481 17.112 68.136 18.1116C67.6295 19.1163 67.3789 20.3007 67.3789 21.6664C67.3789 23.0181 67.6295 24.199 68.136 25.2073C68.6481 26.2156 69.3373 26.9907 70.2145 27.5242C71.0952 28.0611 72.087 28.3304 73.2005 28.3304C74.2281 28.3304 75.1142 28.106 75.8588 27.652C76.5982 27.203 77.1371 26.5901 77.4754 25.815V28.1664H81.6072V11.6943H77.4754ZM76.6662 23.9729C76.1095 24.546 75.3971 24.831 74.5288 24.831C73.6606 24.831 72.9302 24.5529 72.3877 23.9936C71.8489 23.4342 71.5804 22.659 71.5804 21.6646C71.5804 20.6702 71.8489 19.895 72.3877 19.3356C72.932 18.7763 73.6427 18.4949 74.5288 18.4949C75.415 18.4949 76.1095 18.7815 76.6662 19.3495C77.2229 19.914 77.4969 20.6875 77.4969 21.6664C77.4969 22.6453 77.2229 23.3962 76.6662 23.9746V23.9729Z" fill="black"/>
<path d="M87.3163 15.1648H83.1846V28.1649H87.3163V15.1648Z" fill="black"/>
<path d="M102.196 21.318C102.196 20.0715 101.917 18.9751 101.36 18.0188C100.807 17.0623 100.023 16.3234 99.0039 15.795C97.9907 15.2668 96.8163 15.0027 95.4791 15.0027C94.1418 15.0027 92.9818 15.272 91.9542 15.8037C90.9232 16.3406 90.1194 17.1123 89.5483 18.1119C88.9773 19.1168 88.6943 20.3011 88.6943 21.6667C88.6943 23.0185 88.9826 24.1995 89.5626 25.2076C90.1426 26.2159 90.9411 26.9911 91.965 27.5245C92.9872 28.0615 94.1615 28.3309 95.4809 28.3309C96.6087 28.3309 97.6309 28.1237 98.5493 27.7144C99.4676 27.3001 100.225 26.7373 100.819 26.0139C101.417 25.2923 101.8 24.4722 101.979 23.552H97.6094C97.477 24.0181 97.212 24.4014 96.811 24.6967C96.41 24.9919 95.9016 25.1369 95.2912 25.1369C94.5644 25.1369 93.9717 24.9263 93.501 24.4981C93.0355 24.0717 92.7795 23.3655 92.7294 22.3884H102.078C102.16 22.0017 102.201 21.6443 102.201 21.318H102.196ZM92.7473 20.7102C92.8118 19.873 93.0946 19.2341 93.5922 18.7991C94.0954 18.3675 94.7201 18.1465 95.4774 18.1465C96.2042 18.1465 96.811 18.3623 97.2997 18.7887C97.792 19.2152 98.0301 19.854 98.0158 20.7086H92.7455L92.7473 20.7102Z" fill="black"/>
<path d="M114.734 14.8607V11.6943H103.598V28.1647H107.729V21.5023H113.141V18.4724H107.729V14.8607H114.734Z" fill="black"/>
<path d="M127.554 18.124C126.951 17.1159 126.12 16.3406 125.067 15.8037C124.012 15.2702 122.815 15.0027 121.482 15.0027C120.15 15.0027 118.944 15.272 117.879 15.8037C116.819 16.3406 115.983 17.1159 115.382 18.124C114.778 19.1323 114.478 20.3132 114.478 21.6649C114.478 23.0168 114.778 24.1977 115.382 25.206C115.985 26.2141 116.821 26.9894 117.879 27.5229C118.942 28.0598 120.143 28.3291 121.482 28.3291C122.822 28.3291 124.012 28.0598 125.067 27.5229C126.12 26.9894 126.951 26.2141 127.554 25.206C128.158 24.1977 128.465 23.0168 128.465 21.6649C128.465 20.3132 128.158 19.1323 127.554 18.124ZM123.463 24.0389C122.928 24.5844 122.267 24.8572 121.481 24.8572C120.694 24.8572 120.023 24.5844 119.484 24.0389C118.946 23.4967 118.676 22.7043 118.676 21.6649C118.676 20.6257 118.946 19.828 119.484 19.2773C120.023 18.7266 120.69 18.4487 121.481 18.4487C122.267 18.4487 122.928 18.7266 123.463 19.2773C123.993 19.828 124.257 20.6257 124.257 21.6649C124.257 22.7043 123.993 23.4967 123.463 24.0389Z" fill="black"/>
<path d="M129.867 11.6943V28.1647H134.001V11.6943H129.867Z" fill="black"/>
<path d="M135.577 15.1648V28.1649H139.71V15.1648H135.577Z" fill="black"/>
<path d="M154.196 18.124C153.589 17.1159 152.763 16.3406 151.708 15.8037C150.653 15.2702 149.456 15.0027 148.119 15.0027C146.781 15.0027 145.584 15.272 144.521 15.8037C143.457 16.3406 142.621 17.1159 142.017 18.124C141.414 19.1323 141.114 20.3132 141.114 21.6649C141.114 23.0168 141.414 24.1977 142.017 25.206C142.621 26.2141 143.457 26.9894 144.521 27.5229C145.584 28.0598 146.781 28.3291 148.119 28.3291C149.456 28.3291 150.653 28.0598 151.708 27.5229C152.763 26.9894 153.589 26.2141 154.196 25.206C154.799 24.1977 155.1 23.0168 155.1 21.6649C155.1 20.3132 154.799 19.1323 154.196 18.124ZM150.101 24.0389C149.567 24.5844 148.908 24.8572 148.119 24.8572C147.33 24.8572 146.667 24.5844 146.128 24.0389C145.584 23.4967 145.315 22.7043 145.315 21.6649C145.315 20.6257 145.586 19.828 146.128 19.2773C146.667 18.7266 147.33 18.4487 148.119 18.4487C148.908 18.4487 149.567 18.7266 150.101 19.2773C150.631 19.828 150.895 20.6257 150.895 21.6649C150.895 22.7043 150.631 23.4967 150.101 24.0389Z" fill="black"/>
<path d="M85.2525 13.628C86.4637 13.628 87.4456 12.6812 87.4456 11.5131C87.4456 10.3451 86.4637 9.39819 85.2525 9.39819C84.0414 9.39819 83.0596 10.3451 83.0596 11.5131C83.0596 12.6812 84.0414 13.628 85.2525 13.628Z" fill="black"/>
<path d="M137.644 14.3133C138.855 14.3133 139.838 13.3664 139.838 12.1984C139.838 11.0304 138.855 10.0835 137.644 10.0835C136.434 10.0835 135.451 11.0304 135.451 12.1984C135.451 13.3664 136.434 14.3133 137.644 14.3133Z" fill="black"/>
<path d="M47.0527 11.6943V28.1647H51.1845V11.6943H47.0527Z" fill="black"/>
<path d="M64.9994 16.5168C64.0899 15.5224 62.8619 15.0234 61.3134 15.0234C60.2822 15.0234 59.3872 15.2479 58.6192 15.702C57.8566 16.1508 57.2819 16.7637 56.8935 17.5389V15.1651H52.7617V28.1652H56.8935V21.268C56.8935 20.3219 57.1405 19.5899 57.6293 19.0789C58.1215 18.5645 58.7839 18.3089 59.6252 18.3089C60.4147 18.3089 61.0449 18.5558 61.521 19.0444C61.9955 19.5329 62.2336 20.2115 62.2336 21.0833V28.1652H66.3652V20.6172C66.3652 18.8769 65.9088 17.513 64.9994 16.5168Z" fill="black"/>
<path d="M77.6414 11.6943V17.516C77.3031 16.7407 76.7642 16.1296 76.025 15.6756C75.2802 15.2267 74.3941 15.0022 73.3665 15.0022C72.2531 15.0022 71.2613 15.2716 70.3805 15.8033C69.5033 16.3403 68.8141 17.112 68.3022 18.1116C67.7955 19.1163 67.5449 20.3007 67.5449 21.6664C67.5449 23.0181 67.7955 24.199 68.3022 25.2073C68.8141 26.2156 69.5033 26.9907 70.3805 27.5242C71.2613 28.0611 72.2531 28.3304 73.3665 28.3304C74.3941 28.3304 75.2802 28.106 76.025 27.652C76.7642 27.203 77.3031 26.5901 77.6414 25.815V28.1664H81.7732V11.6943H77.6414ZM76.8322 23.9729C76.2755 24.546 75.5631 24.831 74.6948 24.831C73.8266 24.831 73.0962 24.5529 72.5538 23.9936C72.0149 23.4342 71.7464 22.659 71.7464 21.6646C71.7464 20.6702 72.0149 19.895 72.5538 19.3356C73.098 18.7763 73.8087 18.4949 74.6948 18.4949C75.581 18.4949 76.2755 18.7815 76.8322 19.3495C77.3891 19.914 77.663 20.6875 77.663 21.6664C77.663 22.6453 77.3891 23.3962 76.8322 23.9746V23.9729Z" fill="black"/>
<path d="M87.4833 15.1648H83.3516V28.1649H87.4833V15.1648Z" fill="black"/>
<path d="M102.363 21.318C102.363 20.0715 102.083 18.9751 101.527 18.0188C100.974 17.0623 100.19 16.3234 99.1709 15.795C98.1577 15.2668 96.9833 15.0027 95.646 15.0027C94.3088 15.0027 93.1487 15.272 92.1212 15.8037C91.0901 16.3406 90.2862 17.1123 89.7152 18.1119C89.1441 19.1168 88.8613 20.3011 88.8613 21.6667C88.8613 23.0324 89.1495 24.1995 89.7295 25.2076C90.3096 26.2159 91.108 26.9911 92.1319 27.5245C93.1542 28.0615 94.3285 28.3309 95.6478 28.3309C96.7757 28.3309 97.7978 28.1237 98.7161 27.7144C99.6345 27.3001 100.392 26.7373 100.986 26.0139C101.584 25.2923 101.967 24.4722 102.146 23.552H97.7764C97.6439 24.0181 97.379 24.4014 96.9779 24.6967C96.5769 24.9919 96.0685 25.1369 95.458 25.1369C94.7312 25.1369 94.1387 24.9263 93.6678 24.4981C93.2024 24.0717 92.9464 23.3655 92.8964 22.3884H102.245C102.327 22.0017 102.368 21.6443 102.368 21.318H102.363ZM92.9143 20.7102C92.9786 19.873 93.2615 19.2341 93.7592 18.7991C94.2622 18.3675 94.887 18.1465 95.6442 18.1465C96.371 18.1465 96.9779 18.3623 97.4667 18.7887C97.9589 19.2152 98.197 19.854 98.1827 20.7086H92.9125L92.9143 20.7102Z" fill="black"/>
<path d="M114.901 14.8607V11.6943H103.765V28.1647H107.896V21.5023H113.308V18.4724H107.896V14.8607H114.901Z" fill="black"/>
<path d="M127.722 18.124C127.119 17.1159 126.288 16.3406 125.233 15.8037C124.179 15.2702 122.981 15.0027 121.65 15.0027C120.318 15.0027 119.111 15.272 118.046 15.8037C116.986 16.3406 116.15 17.1159 115.549 18.124C114.945 19.1323 114.645 20.3132 114.645 21.6649C114.645 23.0168 114.945 24.1977 115.549 25.206C116.152 26.2141 116.988 26.9894 118.046 27.5229C119.109 28.0598 120.31 28.3291 121.65 28.3291C122.988 28.3291 124.179 28.0598 125.233 27.5229C126.288 26.9894 127.119 26.2141 127.722 25.206C128.325 24.1977 128.631 23.0168 128.631 21.6649C128.631 20.3132 128.325 19.1323 127.722 18.124ZM123.629 24.0389C123.096 24.5844 122.433 24.8572 121.647 24.8572C120.862 24.8572 120.191 24.5844 119.651 24.0389C119.112 23.4967 118.842 22.7043 118.842 21.6649C118.842 20.6257 119.112 19.828 119.651 19.2773C120.191 18.7266 120.857 18.4487 121.647 18.4487C122.433 18.4487 123.096 18.7266 123.629 19.2773C124.159 19.828 124.424 20.6257 124.424 21.6649C124.424 22.7043 124.159 23.4967 123.629 24.0389Z" fill="black"/>
<path d="M130.034 11.6943V28.1647H134.167V11.6943H130.034Z" fill="black"/>
<path d="M135.742 15.1648V28.1649H139.876V15.1648H135.742Z" fill="black"/>
<path d="M154.362 18.124C153.755 17.1159 152.928 16.3406 151.874 15.8037C150.819 15.2702 149.622 15.0027 148.284 15.0027C146.947 15.0027 145.75 15.272 144.686 15.8037C143.623 16.3406 142.787 17.1159 142.184 18.124C141.58 19.1323 141.279 20.3132 141.279 21.6649C141.279 23.0168 141.58 24.1977 142.184 25.206C142.787 26.2141 143.623 26.9894 144.686 27.5229C145.75 28.0598 146.947 28.3291 148.284 28.3291C149.622 28.3291 150.819 28.0598 151.874 27.5229C152.928 26.9894 153.755 26.2141 154.362 25.206C154.965 24.1977 155.266 23.0168 155.266 21.6649C155.266 20.3132 154.965 19.1323 154.362 18.124ZM150.266 24.0389C149.732 24.5844 149.073 24.8572 148.284 24.8572C147.495 24.8572 146.832 24.5844 146.294 24.0389C145.75 23.4967 145.481 22.7043 145.481 21.6649C145.481 20.6257 145.751 19.828 146.294 19.2773C146.832 18.7266 147.495 18.4487 148.284 18.4487C149.073 18.4487 149.732 18.7266 150.266 19.2773C150.796 19.828 151.061 20.6257 151.061 21.6649C151.061 22.7043 150.796 23.4967 150.266 24.0389Z" fill="black"/>
<path d="M85.4195 13.628C86.6306 13.628 87.6124 12.6812 87.6124 11.5131C87.6124 10.3451 86.6306 9.39819 85.4195 9.39819C84.2083 9.39819 83.2266 10.3451 83.2266 11.5131C83.2266 12.6812 84.2083 13.628 85.4195 13.628Z" fill="black"/>
<path d="M137.81 14.3133C139.021 14.3133 140.003 13.3664 140.003 12.1984C140.003 11.0304 139.021 10.0835 137.81 10.0835C136.599 10.0835 135.617 11.0304 135.617 12.1984C135.617 13.3664 136.599 14.3133 137.81 14.3133Z" fill="black"/>
<path d="M30.1728 37.4272C23.2932 38.4303 16.2954 38.4303 9.41584 37.4272C4.95474 36.7764 1.45317 33.4012 0.780066 29.0988C-0.260022 22.4641 -0.260022 15.7154 0.780066 9.08068C1.45317 4.77838 4.95474 1.40144 9.41584 0.752295C16.2954 -0.250765 23.2932 -0.250765 30.1728 0.752295C34.634 1.40317 38.1355 4.77838 38.8086 9.08068C39.8487 15.7154 39.8487 22.4641 38.8086 29.0988C38.1338 33.4012 34.634 36.778 30.1728 37.4272Z" fill="black"/>
<path d="M30.9306 14.2774L26.8007 11.9795C25.6012 11.3096 24.11 11.3096 22.9088 11.9795L21.7774 12.6097V11.3476C21.7774 10.6691 21.414 10.0614 20.8036 9.72132C20.1949 9.38293 19.4663 9.38293 18.8577 9.72132L8.6555 15.4031C8.054 15.7362 7.68164 16.3596 7.68164 17.0277V24.9175C7.68164 25.596 8.04684 26.2037 8.6555 26.5438C8.95982 26.713 9.29458 26.7976 9.62934 26.7976C9.96411 26.7976 10.2989 26.7112 10.6032 26.5438L11.7346 25.9137V26.8339C11.7346 27.5123 12.098 28.12 12.7084 28.4602C13.0128 28.6293 13.3475 28.7139 13.6823 28.7139C14.017 28.7139 14.35 28.6293 14.6561 28.4602L17.8373 26.6888C18.4334 26.3694 19.1656 26.3746 19.7581 26.7027L22.9142 28.4602C23.5228 28.7986 24.2515 28.7986 24.8601 28.4602C25.4687 28.1218 25.8339 27.5141 25.8339 26.8339V23.3205L28.9936 25.0677C29.6023 25.406 30.3291 25.4044 30.9377 25.0642C31.5446 24.7242 31.908 24.1182 31.908 23.4396V15.9037C31.908 15.2356 31.5356 14.6124 30.9341 14.2774H30.9306ZM29.9568 22.8993C29.9568 23.1393 29.6864 23.2894 29.4715 23.1703L26.797 21.6908C26.559 21.5596 26.3084 21.4525 26.0523 21.3731C25.9181 21.3317 25.8286 21.2125 25.8286 21.0761V19.2824C25.8286 18.6142 25.4563 17.991 24.8548 17.6561L21.2136 15.6292C20.9969 15.5083 20.9969 15.208 21.2136 15.0871L23.8791 13.6023C24.1799 13.4349 24.5164 13.352 24.853 13.352C25.1895 13.352 25.5261 13.4349 25.8268 13.6023L29.6864 15.7518C29.8529 15.845 29.9568 16.0176 29.9568 16.2042V22.8993ZM23.8826 23.3223V26.2918C23.8826 26.5318 23.6124 26.6836 23.3957 26.5628L20.7284 25.0781H20.7266C20.3561 24.8709 19.9587 24.7293 19.5505 24.6499C18.675 24.4807 17.7532 24.6033 16.9475 25.0176C16.9387 25.0211 16.9314 25.0263 16.9225 25.0315C16.8921 25.0453 16.8634 25.0626 16.8329 25.0781L14.1639 26.5645C13.9472 26.6854 13.6769 26.5352 13.6769 26.2934V19.5863C13.6769 19.3998 13.7807 19.2271 13.9472 19.1339L17.8051 16.9845C17.8176 16.9775 17.8301 16.9707 17.8444 16.9638C18.0503 16.855 18.2741 16.7842 18.5014 16.7532C18.9275 16.6944 19.3678 16.7704 19.751 16.9845L23.6106 19.1339C23.777 19.2271 23.8809 19.3998 23.8809 19.5863V23.3257L23.8826 23.3223ZM9.89966 16.8757L19.0223 11.7965C19.3822 11.5962 19.8333 11.8466 19.8333 12.2488V13.39C19.8333 13.5765 19.7294 13.7491 19.563 13.8423L16.9082 15.3202C16.8831 15.3323 16.8581 15.3444 16.8348 15.3581L12.7066 17.6578C12.1069 17.991 11.7328 18.6142 11.7328 19.2841V23.4466C11.7328 23.633 11.629 23.8057 11.4625 23.8989L10.1145 24.6482C9.89787 24.769 9.62755 24.6188 9.62755 24.3771V17.3298C9.62755 17.1434 9.73139 16.9707 9.89787 16.8774L9.89966 16.8757Z" fill="white"/>
</svg>
