<svg width="203" height="498" viewBox="0 0 203 498" fill="none" xmlns="http://www.w3.org/2000/svg">
<mask id="mask0_1350_295" style="mask-type:alpha" maskUnits="userSpaceOnUse" x="0" y="0" width="203" height="498">
<rect width="203" height="498" rx="23" fill="#C5C3C4"/>
</mask>
<g mask="url(#mask0_1350_295)">
<mask id="mask1_1350_295" style="mask-type:alpha" maskUnits="userSpaceOnUse" x="0" y="0" width="203" height="498">
<rect width="203" height="498" rx="23" fill="#C5C3C4"/>
</mask>
<g mask="url(#mask1_1350_295)">
<path d="M193.777 497.796C195.494 497.796 196.885 499.075 196.885 500.653C196.885 502.231 195.494 503.51 193.777 503.51C192.061 503.51 190.669 502.231 190.669 500.653C190.669 499.075 192.061 497.796 193.777 497.796Z" fill="black"/>
<path d="M53.6313 482.733C53.6313 482.733 55.6092 483.512 55.6092 484.551C55.6092 485.59 54.7615 486.369 53.6313 486.369C52.501 486.369 51.6533 485.59 51.6533 484.551C51.6533 483.512 52.501 482.733 53.6313 482.733Z" fill="black"/>
<path d="M36.2621 482.733C36.2621 482.733 38.2401 483.512 38.2401 484.551C38.2401 485.59 37.3924 486.369 36.2621 486.369C35.1319 486.369 34.2842 485.59 34.2842 484.551C34.2842 483.512 35.1319 482.733 36.2621 482.733Z" fill="black"/>
<path d="M36.5 467C36.5 467 38 467.643 38 468.5C38 469.357 37.3571 470 36.5 470C35.6428 470 35 469.357 35 468.5C35 467.643 35.6428 467 36.5 467Z" fill="black"/>
<path d="M36 451C36 451 37 451.429 37 452C37 452.571 36.5714 453 36 453C35.4286 453 35 452.571 35 452C35 451.429 35.4286 451 36 451Z" fill="black"/>
<path d="M71.1501 482.472C72.3986 482.472 73.4106 483.402 73.4106 484.55C73.4106 485.697 72.3986 486.628 71.1501 486.628C69.9017 486.628 68.8896 485.697 68.8896 484.55C68.8896 483.402 69.9017 482.472 71.1501 482.472Z" fill="black"/>
<path d="M88.6649 482.472C89.9133 482.472 90.9253 483.402 90.9253 484.55C90.9253 485.697 89.9133 486.628 88.6649 486.628C87.4164 486.628 86.4043 485.697 86.4043 484.55C86.4043 483.402 87.4164 482.472 88.6649 482.472Z" fill="black"/>
<path d="M106.188 482.473C106.188 482.473 108.449 483.512 108.449 484.551C108.449 485.589 107.318 486.628 106.188 486.628C105.058 486.628 103.928 485.589 103.928 484.551C103.928 483.512 105.058 482.473 106.188 482.473Z" fill="black"/>
<path d="M123.699 482.213C125.104 482.213 126.242 483.259 126.242 484.55C126.242 485.841 125.104 486.888 123.699 486.888C122.295 486.888 121.156 485.841 121.156 484.55C121.156 483.259 122.295 482.213 123.699 482.213Z" fill="black"/>
<path d="M141.222 482.213C142.626 482.213 143.765 483.259 143.765 484.55C143.765 485.841 142.626 486.888 141.222 486.888C139.817 486.888 138.679 485.841 138.679 484.55C138.679 483.259 139.817 482.213 141.222 482.213Z" fill="black"/>
<path d="M158.743 482.214C160.155 482.214 161.568 483.253 161.568 484.811C161.568 486.369 160.438 487.408 158.743 487.408C157.047 487.408 155.917 486.369 155.917 484.811C155.917 483.253 157.047 482.214 158.743 482.214Z" fill="black"/>
<path d="M176.257 481.953C177.953 481.953 179.083 483.252 179.083 484.55C179.083 485.849 177.67 487.147 176.257 487.147C174.844 487.147 173.432 485.849 173.432 484.55C173.432 483.252 174.844 481.953 176.257 481.953Z" fill="black"/>
<path d="M193.777 481.693C195.494 481.693 196.885 482.972 196.885 484.55C196.885 486.128 195.494 487.407 193.777 487.407C192.061 487.407 190.669 486.128 190.669 484.55C190.669 482.972 192.061 481.693 193.777 481.693Z" fill="black"/>
<path d="M53.6313 466.89C53.6313 466.89 55.6092 467.67 55.6092 468.708C55.6092 469.747 54.7615 470.526 53.6313 470.526C52.501 470.526 51.6533 469.747 51.6533 468.708C51.6533 467.67 52.501 466.89 53.6313 466.89Z" fill="black"/>
<path d="M71.1449 466.63C72.2373 466.63 73.1229 467.444 73.1229 468.448C73.1229 469.452 72.2373 470.266 71.1449 470.266C70.0525 470.266 69.167 469.452 69.167 468.448C69.167 467.444 70.0525 466.63 71.1449 466.63Z" fill="black"/>
<path d="M88.6665 466.63C88.6665 466.63 90.6444 467.409 90.6444 468.448C90.6444 469.487 89.7967 470.266 88.6665 470.266C87.5362 470.266 86.6885 469.487 86.6885 468.448C86.6885 467.409 87.5362 466.63 88.6665 466.63Z" fill="black"/>
<path d="M106.188 466.371C107.437 466.371 108.449 467.301 108.449 468.449C108.449 469.596 107.437 470.526 106.188 470.526C104.94 470.526 103.928 469.596 103.928 468.449C103.928 467.301 104.94 466.371 106.188 466.371Z" fill="black"/>
<path d="M123.701 466.371C123.701 466.371 125.961 467.41 125.961 468.449C125.961 469.488 124.831 470.526 123.701 470.526C122.571 470.526 121.44 469.488 121.44 468.449C121.44 467.41 122.571 466.371 123.701 466.371Z" fill="black"/>
<path d="M141.223 466.111C142.627 466.111 143.766 467.158 143.766 468.449C143.766 469.739 142.627 470.786 141.223 470.786C139.818 470.786 138.68 469.739 138.68 468.449C138.68 467.158 139.818 466.111 141.223 466.111Z" fill="black"/>
<path d="M158.745 466.111C158.745 466.111 161.288 467.15 161.288 468.449C161.288 469.747 160.158 470.786 158.745 470.786C157.332 470.786 156.202 469.747 156.202 468.449C156.202 467.15 157.332 466.111 158.745 466.111Z" fill="black"/>
<path d="M176.257 466.111C177.67 466.111 179.083 467.15 179.083 468.708C179.083 470.266 177.953 471.305 176.257 471.305C174.562 471.305 173.432 470.266 173.432 468.708C173.432 467.15 174.562 466.111 176.257 466.111Z" fill="black"/>
<path d="M193.779 465.851C195.474 465.851 196.604 467.15 196.604 468.448C196.604 469.747 195.192 471.045 193.779 471.045C192.366 471.045 190.953 469.747 190.953 468.448C190.953 467.15 192.366 465.851 193.779 465.851Z" fill="black"/>
<path d="M53.6309 450.79C53.6309 450.79 55.3263 451.569 55.3263 452.348C55.3263 453.127 54.4786 453.907 53.6309 453.907C52.7832 453.907 51.9355 453.127 51.9355 452.348C51.9355 451.569 52.7832 450.79 53.6309 450.79Z" fill="black"/>
<path d="M71.1456 450.79C71.1456 450.79 72.8409 451.569 72.8409 452.348C72.8409 453.127 71.9932 453.907 71.1456 453.907C70.2979 453.907 69.4502 453.127 69.4502 452.348C69.4502 451.569 70.2979 450.79 71.1456 450.79Z" fill="black"/>
<path d="M88.6674 450.789C88.6674 450.789 90.6454 451.568 90.6454 452.607C90.6454 453.645 89.7977 454.425 88.6674 454.425C87.5372 454.425 86.6895 453.645 86.6895 452.607C86.6895 451.568 87.5372 450.789 88.6674 450.789Z" fill="black"/>
<path d="M106.181 450.529C106.181 450.529 108.159 451.308 108.159 452.347C108.159 453.386 107.311 454.165 106.181 454.165C105.051 454.165 104.203 453.386 104.203 452.347C104.203 451.308 105.051 450.529 106.181 450.529Z" fill="black"/>
<path d="M123.704 450.528C123.704 450.528 125.682 451.307 125.682 452.346C125.682 453.385 124.834 454.164 123.704 454.164C122.573 454.164 121.726 453.385 121.726 452.346C121.726 451.307 122.573 450.528 123.704 450.528Z" fill="black"/>
<path d="M141.223 450.268C141.223 450.268 143.484 451.047 143.484 452.346C143.484 453.644 142.636 454.423 141.223 454.423C139.811 454.423 138.963 453.644 138.963 452.346C138.963 451.047 139.811 450.268 141.223 450.268Z" fill="black"/>
<path d="M158.737 450.269C158.737 450.269 160.998 451.308 160.998 452.347C160.998 453.386 159.867 454.425 158.737 454.425C157.607 454.425 156.477 453.386 156.477 452.347C156.477 451.308 157.607 450.269 158.737 450.269Z" fill="black"/>
<path d="M176.259 450.009C176.259 450.009 178.802 451.048 178.802 452.347C178.802 453.645 177.672 454.684 176.259 454.684C174.846 454.684 173.716 453.645 173.716 452.347C173.716 451.048 174.846 450.009 176.259 450.009Z" fill="black"/>
<path d="M193.78 450.008C195.193 450.008 196.323 451.047 196.323 452.346C196.323 453.644 195.193 454.683 193.78 454.683C192.368 454.683 191.237 453.644 191.237 452.346C191.237 451.047 192.368 450.008 193.78 450.008Z" fill="black"/>
<path d="M53.6247 434.946C53.6247 434.946 55.0376 435.466 55.0376 436.245C55.0376 437.024 54.4724 437.544 53.6247 437.544C52.777 437.544 52.2119 437.024 52.2119 436.245C52.2119 435.466 52.777 434.946 53.6247 434.946Z" fill="black"/>
<path d="M71.1481 434.946C71.1481 434.946 72.5609 435.466 72.5609 436.504C72.5609 437.543 71.9958 438.063 71.1481 438.063C70.3005 438.063 69.7354 437.543 69.7354 436.504C69.7354 435.466 70.3005 434.946 71.1481 434.946Z" fill="black"/>
<path d="M88.669 434.687C89.6054 434.687 90.3644 435.385 90.3644 436.245C90.3644 437.106 89.6054 437.804 88.669 437.804C87.7327 437.804 86.9736 437.106 86.9736 436.245C86.9736 435.385 87.7327 434.687 88.669 434.687Z" fill="black"/>
<path d="M106.182 434.687C107.118 434.687 107.877 435.385 107.877 436.245C107.877 437.106 107.118 437.804 106.182 437.804C105.245 437.804 104.486 437.106 104.486 436.245C104.486 435.385 105.245 434.687 106.182 434.687Z" fill="black"/>
<path d="M123.703 434.687C123.703 434.687 125.681 435.466 125.681 436.505C125.681 437.544 124.833 438.323 123.703 438.323C122.572 438.323 121.725 437.544 121.725 436.505C121.725 435.466 122.572 434.687 123.703 434.687Z" fill="black"/>
<path d="M141.225 434.427C141.225 434.427 143.203 435.206 143.203 436.245C143.203 437.284 142.355 438.063 141.225 438.063C140.095 438.063 139.247 437.284 139.247 436.245C139.247 435.206 140.095 434.427 141.225 434.427Z" fill="black"/>
<path d="M158.738 434.427C158.738 434.427 160.999 435.206 160.999 436.505C160.999 437.803 160.151 438.582 158.738 438.582C157.325 438.582 156.478 437.803 156.478 436.505C156.478 435.206 157.325 434.427 158.738 434.427Z" fill="black"/>
<path d="M176.26 434.167C176.26 434.167 178.52 435.206 178.52 436.245C178.52 437.284 177.39 438.323 176.26 438.323C175.129 438.323 173.999 437.284 173.999 436.245C173.999 435.206 175.129 434.167 176.26 434.167Z" fill="black"/>
<path d="M193.78 434.167C193.78 434.167 196.323 435.206 196.323 436.504C196.323 437.803 195.193 438.842 193.78 438.842C192.368 438.842 191.237 437.803 191.237 436.504C191.237 435.206 192.368 434.167 193.78 434.167Z" fill="black"/>
<path d="M53.6247 418.844C53.6247 418.844 55.0376 419.363 55.0376 420.143C55.0376 420.922 54.4724 421.441 53.6247 421.441C52.777 421.441 52.2119 420.922 52.2119 420.143C52.2119 419.363 52.777 418.844 53.6247 418.844Z" fill="black"/>
<path d="M71.1472 418.844C71.1472 418.844 72.56 419.363 72.56 420.143C72.56 420.922 71.9949 421.441 71.1472 421.441C70.2995 421.441 69.7344 420.922 69.7344 420.143C69.7344 419.363 70.2995 418.844 71.1472 418.844Z" fill="black"/>
<path d="M88.6619 418.844C88.6619 418.844 90.0747 419.363 90.0747 420.143C90.0747 420.922 89.5096 421.441 88.6619 421.441C87.8142 421.441 87.249 420.922 87.249 420.143C87.249 419.363 87.8142 418.844 88.6619 418.844Z" fill="black"/>
<path d="M106.183 418.844C106.183 418.844 107.596 419.363 107.596 420.143C107.596 420.922 107.031 421.441 106.183 421.441C105.336 421.441 104.771 420.922 104.771 420.143C104.771 419.363 105.336 418.844 106.183 418.844Z" fill="black"/>
<path d="M123.704 418.584C123.704 418.584 125.4 419.363 125.4 420.142C125.4 420.922 124.552 421.701 123.704 421.701C122.857 421.701 122.009 420.922 122.009 420.142C122.009 419.363 122.857 418.584 123.704 418.584Z" fill="black"/>
<path d="M141.219 418.584C141.219 418.584 142.914 419.363 142.914 420.142C142.914 420.922 142.066 421.701 141.219 421.701C140.371 421.701 139.523 420.922 139.523 420.142C139.523 419.363 140.371 418.584 141.219 418.584Z" fill="black"/>
<path d="M158.74 418.325C159.832 418.325 160.718 419.139 160.718 420.143C160.718 421.147 159.832 421.961 158.74 421.961C157.647 421.961 156.762 421.147 156.762 420.143C156.762 419.139 157.647 418.325 158.74 418.325Z" fill="black"/>
<path d="M176.26 418.065C176.26 418.065 178.52 418.844 178.52 420.142C178.52 421.441 177.672 422.22 176.26 422.22C174.847 422.22 173.999 421.441 173.999 420.142C173.999 418.844 174.847 418.065 176.26 418.065Z" fill="black"/>
<path d="M193.782 418.065C193.782 418.065 196.042 419.103 196.042 420.142C196.042 421.181 194.912 422.22 193.782 422.22C192.652 422.22 191.521 421.181 191.521 420.142C191.521 419.103 192.652 418.065 193.782 418.065Z" fill="black"/>
<path d="M53.6289 403.262C53.6289 403.262 54.4766 403.781 54.4766 404.041C54.4766 404.301 53.9115 404.82 53.6289 404.82C53.3463 404.82 52.7812 404.301 52.7812 404.041C52.7812 403.781 53.3463 403.262 53.6289 403.262Z" fill="black"/>
<path d="M71.1498 403.002C71.1498 403.002 72.28 403.521 72.28 404.04C72.28 404.56 71.7149 405.079 71.1498 405.079C70.5847 405.079 70.0195 404.56 70.0195 404.04C70.0195 403.521 70.5847 403.002 71.1498 403.002Z" fill="black"/>
<path d="M88.6625 403.002C89.2867 403.002 89.7927 403.467 89.7927 404.04C89.7927 404.614 89.2867 405.079 88.6625 405.079C88.0383 405.079 87.5322 404.614 87.5322 404.04C87.5322 403.467 88.0383 403.002 88.6625 403.002Z" fill="black"/>
<path d="M106.185 403.002C106.185 403.002 107.315 403.521 107.315 404.04C107.315 404.56 106.75 405.079 106.185 405.079C105.62 405.079 105.055 404.56 105.055 404.04C105.055 403.521 105.62 403.002 106.185 403.002Z" fill="black"/>
<path d="M123.707 402.742C123.707 402.742 125.12 403.262 125.12 404.041C125.12 404.82 124.554 405.339 123.707 405.339C122.859 405.339 122.294 404.82 122.294 404.041C122.294 403.262 122.859 402.742 123.707 402.742Z" fill="black"/>
<path d="M141.219 402.485C141.219 402.485 142.914 403.264 142.914 404.043C142.914 404.822 142.066 405.601 141.219 405.601C140.371 405.601 139.523 404.822 139.523 404.043C139.523 403.264 140.371 402.485 141.219 402.485Z" fill="black"/>
<path d="M158.74 402.485C158.74 402.485 160.436 403.264 160.436 404.043C160.436 404.822 159.588 405.601 158.74 405.601C157.893 405.601 157.045 404.822 157.045 404.043C157.045 403.264 157.893 402.485 158.74 402.485Z" fill="black"/>
<path d="M176.261 402.223C176.261 402.223 178.239 403.002 178.239 404.041C178.239 405.08 177.391 405.859 176.261 405.859C175.131 405.859 174.283 405.08 174.283 404.041C174.283 403.002 175.131 402.223 176.261 402.223Z" fill="black"/>
<path d="M193.782 401.964C193.782 401.964 196.042 402.743 196.042 404.041C196.042 405.34 195.195 406.119 193.782 406.119C192.369 406.119 191.521 405.34 191.521 404.041C191.521 402.743 192.369 401.964 193.782 401.964Z" fill="black"/>
<path d="M53.6279 387.16C53.6279 387.16 54.4756 387.42 54.4756 387.939C54.4756 388.459 54.1931 388.718 53.6279 388.718C53.0628 388.718 52.7803 388.459 52.7803 387.939C52.7803 387.42 53.0628 387.16 53.6279 387.16Z" fill="black"/>
<path d="M71.1504 387.16C71.1504 387.16 71.9981 387.42 71.9981 387.939C71.9981 388.459 71.7156 388.718 71.1504 388.718C70.5853 388.718 70.3027 388.459 70.3027 387.939C70.3027 387.42 70.5853 387.16 71.1504 387.16Z" fill="black"/>
<path d="M88.6641 387.16C88.6641 387.16 89.5118 387.42 89.5118 387.939C89.5118 388.459 89.2292 388.718 88.6641 388.718C88.099 388.718 87.8164 388.459 87.8164 387.939C87.8164 387.42 88.099 387.16 88.6641 387.16Z" fill="black"/>
<path d="M106.185 386.9C106.185 386.9 107.315 387.42 107.315 387.939C107.315 388.459 106.75 388.978 106.185 388.978C105.62 388.978 105.055 388.459 105.055 387.939C105.055 387.42 105.62 386.9 106.185 386.9Z" fill="black"/>
<path d="M123.7 386.9C123.7 386.9 124.83 387.42 124.83 387.939C124.83 388.459 124.265 388.978 123.7 388.978C123.134 388.978 122.569 388.459 122.569 387.939C122.569 387.42 123.134 386.9 123.7 386.9Z" fill="black"/>
<path d="M141.22 386.64C142.001 386.64 142.633 387.222 142.633 387.939C142.633 388.656 142.001 389.238 141.22 389.238C140.44 389.238 139.808 388.656 139.808 387.939C139.808 387.222 140.44 386.64 141.22 386.64Z" fill="black"/>
<path d="M158.742 386.64C158.742 386.64 160.155 387.16 160.155 388.198C160.155 389.237 159.59 389.757 158.742 389.757C157.894 389.757 157.329 389.237 157.329 388.198C157.329 387.16 157.894 386.64 158.742 386.64Z" fill="black"/>
<path d="M176.263 386.381C176.263 386.381 177.958 387.16 177.958 387.939C177.958 388.718 177.11 389.497 176.263 389.497C175.415 389.497 174.567 388.718 174.567 387.939C174.567 387.16 175.415 386.381 176.263 386.381Z" fill="black"/>
<path d="M193.776 386.121C193.776 386.121 195.754 386.9 195.754 387.939C195.754 388.978 194.906 389.757 193.776 389.757C192.646 389.757 191.798 388.978 191.798 387.939C191.798 386.9 192.646 386.121 193.776 386.121Z" fill="black"/>
<path d="M53.6305 371.318C53.6305 371.318 54.1957 371.577 54.1957 371.837C54.1957 372.097 53.9131 372.356 53.6305 372.356C53.348 372.356 53.0654 372.097 53.0654 371.837C53.0654 371.577 53.348 371.318 53.6305 371.318Z" fill="black"/>
<path d="M71.1504 371.057C71.1504 371.057 71.9981 371.317 71.9981 371.836C71.9981 372.356 71.7156 372.615 71.1504 372.615C70.5853 372.615 70.3027 372.356 70.3027 371.836C70.3027 371.317 70.5853 371.057 71.1504 371.057Z" fill="black"/>
<path d="M88.6641 371.057C88.6641 371.057 89.5118 371.317 89.5118 371.836C89.5118 372.356 89.2292 372.615 88.6641 372.615C88.099 372.615 87.8164 372.356 87.8164 371.836C87.8164 371.317 88.099 371.057 88.6641 371.057Z" fill="black"/>
<path d="M106.188 371.058C106.188 371.058 107.035 371.318 107.035 371.837C107.035 372.357 106.753 372.617 106.188 372.617C105.622 372.617 105.34 372.357 105.34 371.837C105.34 371.318 105.622 371.058 106.188 371.058Z" fill="black"/>
<path d="M123.7 370.8C123.7 370.8 124.83 371.319 124.83 371.838C124.83 372.358 124.265 372.877 123.7 372.877C123.134 372.877 122.569 372.358 122.569 371.838C122.569 371.319 123.134 370.8 123.7 370.8Z" fill="black"/>
<path d="M141.222 370.8C141.222 370.8 142.352 371.319 142.352 371.838C142.352 372.358 141.787 372.877 141.222 372.877C140.657 372.877 140.092 372.358 140.092 371.838C140.092 371.319 140.657 370.8 141.222 370.8Z" fill="black"/>
<path d="M158.742 370.539C158.742 370.539 160.155 371.058 160.155 371.837C160.155 372.616 159.59 373.136 158.742 373.136C157.894 373.136 157.329 372.616 157.329 371.837C157.329 371.058 157.894 370.539 158.742 370.539Z" fill="black"/>
<path d="M176.263 370.278C176.263 370.278 177.958 371.057 177.958 371.837C177.958 372.616 177.11 373.395 176.263 373.395C175.415 373.395 174.567 372.616 174.567 371.837C174.567 371.057 175.415 370.278 176.263 370.278Z" fill="black"/>
<path d="M193.776 370.019C193.776 370.019 195.754 370.798 195.754 371.837C195.754 372.876 194.906 373.655 193.776 373.655C192.646 373.655 191.798 372.876 191.798 371.837C191.798 370.798 192.646 370.019 193.776 370.019Z" fill="black"/>
<path d="M53.6305 355.215C53.6305 355.215 54.1957 355.475 54.1957 355.735C54.1957 355.994 53.9131 356.254 53.6305 356.254C53.348 356.254 53.0654 355.994 53.0654 355.735C53.0654 355.475 53.348 355.215 53.6305 355.215Z" fill="black"/>
<path d="M71.1442 355.215C71.4563 355.215 71.7094 355.448 71.7094 355.735C71.7094 356.022 71.4563 356.254 71.1442 356.254C70.8321 356.254 70.5791 356.022 70.5791 355.735C70.5791 355.448 70.8321 355.215 71.1442 355.215Z" fill="black"/>
<path d="M88.6641 354.957C88.6641 354.957 89.5118 355.216 89.5118 355.736C89.5118 356.255 89.2292 356.515 88.6641 356.515C88.099 356.515 87.8164 356.255 87.8164 355.736C87.8164 355.216 88.099 354.957 88.6641 354.957Z" fill="black"/>
<path d="M106.188 354.955C106.188 354.955 107.035 355.215 107.035 355.735C107.035 356.254 106.753 356.514 106.188 356.514C105.622 356.514 105.34 356.254 105.34 355.735C105.34 355.215 105.622 354.955 106.188 354.955Z" fill="black"/>
<path d="M123.701 354.955C123.701 354.955 124.549 355.475 124.549 355.735C124.549 355.994 123.984 356.514 123.701 356.514C123.419 356.514 122.854 355.994 122.854 355.735C122.854 355.475 123.419 354.955 123.701 354.955Z" fill="black"/>
<path d="M141.222 354.697C141.846 354.697 142.352 355.162 142.352 355.736C142.352 356.309 141.846 356.774 141.222 356.774C140.598 356.774 140.092 356.309 140.092 355.736C140.092 355.162 140.598 354.697 141.222 354.697Z" fill="black"/>
<path d="M158.742 354.437C158.742 354.437 160.155 354.956 160.155 355.735C160.155 356.515 159.59 357.034 158.742 357.034C157.894 357.034 157.329 356.515 157.329 355.735C157.329 354.956 157.894 354.437 158.742 354.437Z" fill="black"/>
<path d="M176.263 354.177C176.263 354.177 177.958 354.956 177.958 355.735C177.958 356.514 177.11 357.293 176.263 357.293C175.415 357.293 174.567 356.514 174.567 355.735C174.567 354.956 175.415 354.177 176.263 354.177Z" fill="black"/>
<path d="M193.775 353.917C193.775 353.917 195.753 354.696 195.753 355.735C195.753 356.774 194.905 357.553 193.775 357.553C192.645 357.553 191.797 356.774 191.797 355.735C191.797 354.696 192.645 353.917 193.775 353.917Z" fill="black"/>
<path d="M53.6305 339.114C53.6305 339.114 54.1957 339.114 54.1957 339.633C54.1957 340.153 54.1956 340.153 53.6305 340.153C53.0654 340.153 53.0654 340.153 53.0654 339.633C53.0654 339.114 53.0654 339.114 53.6305 339.114Z" fill="black"/>
<path d="M71.1442 339.114C71.4563 339.114 71.7094 339.347 71.7094 339.633C71.7094 339.92 71.4563 340.153 71.1442 340.153C70.8321 340.153 70.5791 339.92 70.5791 339.633C70.5791 339.347 70.8321 339.114 71.1442 339.114Z" fill="black"/>
<path d="M88.6641 338.854C88.6641 338.854 89.5118 339.113 89.5118 339.633C89.5118 340.152 89.2292 340.412 88.6641 340.412C88.099 340.412 87.8164 340.152 87.8164 339.633C87.8164 339.113 88.099 338.854 88.6641 338.854Z" fill="black"/>
<path d="M106.187 338.854C106.655 338.854 107.034 339.202 107.034 339.633C107.034 340.063 106.655 340.412 106.187 340.412C105.718 340.412 105.339 340.063 105.339 339.633C105.339 339.202 105.718 338.854 106.187 338.854Z" fill="black"/>
<path d="M123.701 338.854C123.701 338.854 124.549 339.113 124.549 339.633C124.549 340.152 124.266 340.412 123.701 340.412C123.136 340.412 122.854 340.152 122.854 339.633C122.854 339.113 123.136 338.854 123.701 338.854Z" fill="black"/>
<path d="M141.222 338.594C141.222 338.594 142.352 339.114 142.352 339.633C142.352 340.153 141.787 340.672 141.222 340.672C140.657 340.672 140.092 340.153 140.092 339.633C140.092 339.114 140.657 338.594 141.222 338.594Z" fill="black"/>
<path d="M158.742 338.335C158.742 338.335 160.155 338.854 160.155 339.634C160.155 340.413 159.59 340.932 158.742 340.932C157.894 340.932 157.329 340.413 157.329 339.634C157.329 338.854 157.894 338.335 158.742 338.335Z" fill="black"/>
<path d="M176.263 338.075C176.263 338.075 177.676 338.594 177.676 339.633C177.676 340.672 177.11 341.191 176.263 341.191C175.415 341.191 174.567 340.672 174.567 339.633C174.567 338.594 175.132 338.075 176.263 338.075Z" fill="black"/>
<path d="M193.777 338.075C193.777 338.075 195.473 338.854 195.473 339.633C195.473 340.412 194.625 341.191 193.777 341.191C192.93 341.191 192.082 340.412 192.082 339.633C192.082 338.854 192.93 338.075 193.777 338.075Z" fill="black"/>
<path d="M53.6305 323.012C53.6305 323.012 54.1957 323.012 54.1957 323.531C54.1957 324.051 54.1956 324.051 53.6305 324.051C53.0654 324.051 53.0654 324.051 53.0654 323.531C53.0654 323.012 53.0654 323.012 53.6305 323.012Z" fill="black"/>
<path d="M71.1442 323.012C71.1442 323.012 71.7094 323.271 71.7094 323.531C71.7094 323.791 71.7094 324.051 71.1442 324.051C70.5791 324.051 70.5791 323.791 70.5791 323.531C70.5791 323.271 70.5791 323.012 71.1442 323.012Z" fill="black"/>
<path d="M88.6657 323.012C88.6657 323.012 89.2308 323.271 89.2308 323.531C89.2308 323.791 89.2308 324.051 88.6657 324.051C88.1006 324.051 88.1006 323.791 88.1006 323.531C88.1006 323.271 88.1006 323.012 88.6657 323.012Z" fill="black"/>
<path d="M106.188 322.752C106.656 322.752 107.035 323.101 107.035 323.531C107.035 323.961 106.656 324.31 106.188 324.31C105.719 324.31 105.34 323.961 105.34 323.531C105.34 323.101 105.719 322.752 106.188 322.752Z" fill="black"/>
<path d="M123.701 322.752C123.701 322.752 124.549 323.012 124.549 323.531C124.549 324.05 124.266 324.31 123.701 324.31C123.136 324.31 122.854 324.05 122.854 323.531C122.854 323.012 123.136 322.752 123.701 322.752Z" fill="black"/>
<path d="M141.222 322.492C141.222 322.492 142.352 323.011 142.352 323.531C142.352 324.05 141.787 324.57 141.222 324.57C140.657 324.57 140.092 324.05 140.092 323.531C140.092 323.011 140.657 322.492 141.222 322.492Z" fill="black"/>
<path d="M158.742 322.232C158.742 322.232 160.155 322.752 160.155 323.531C160.155 324.31 159.59 324.829 158.742 324.829C157.894 324.829 157.329 324.31 157.329 323.531C157.329 322.752 157.894 322.232 158.742 322.232Z" fill="black"/>
<path d="M176.257 322.232C176.257 322.232 177.669 322.752 177.669 323.531C177.669 324.31 177.104 324.829 176.257 324.829C175.409 324.829 174.844 324.31 174.844 323.531C174.844 322.752 175.409 322.232 176.257 322.232Z" fill="black"/>
<path d="M193.777 321.973C193.777 321.973 195.473 322.752 195.473 323.531C195.473 324.31 194.625 325.089 193.777 325.089C192.93 325.089 192.082 324.31 192.082 323.531C192.082 322.752 192.93 321.973 193.777 321.973Z" fill="black"/>
<path d="M53.6295 306.91C53.6295 306.91 54.1947 307.17 54.1947 307.429C54.1947 307.689 54.1947 307.949 53.6295 307.949C53.0644 307.949 53.0645 307.949 53.0645 307.429C53.0645 306.91 53.0644 306.91 53.6295 306.91Z" fill="black"/>
<path d="M71.1442 306.65C71.1442 306.65 71.7094 306.91 71.7094 307.17C71.7094 307.429 71.4268 307.689 71.1442 307.689C70.8617 307.689 70.5791 307.429 70.5791 307.17C70.5791 306.91 70.8617 306.65 71.1442 306.65Z" fill="black"/>
<path d="M88.6657 306.91C88.6657 306.91 89.2308 307.17 89.2308 307.43C89.2308 307.69 89.2308 307.949 88.6657 307.949C88.1006 307.949 88.1006 307.949 88.1006 307.43C88.1006 306.91 88.1006 306.91 88.6657 306.91Z" fill="black"/>
<path d="M106.187 306.65C106.187 306.65 107.034 306.91 107.034 307.429C107.034 307.949 106.752 308.208 106.187 308.208C105.621 308.208 105.339 307.949 105.339 307.429C105.339 306.91 105.621 306.65 106.187 306.65Z" fill="black"/>
<path d="M123.701 306.65C123.701 306.65 124.549 306.91 124.549 307.429C124.549 307.949 124.266 308.208 123.701 308.208C123.136 308.208 122.854 307.949 122.854 307.429C122.854 306.91 123.136 306.65 123.701 306.65Z" fill="black"/>
<path d="M141.222 306.391C141.222 306.391 142.352 306.91 142.352 307.43C142.352 307.949 141.787 308.468 141.222 308.468C140.657 308.468 140.092 307.949 140.092 307.43C140.092 306.91 140.657 306.391 141.222 306.391Z" fill="black"/>
<path d="M158.744 306.131C158.744 306.131 159.874 306.65 159.874 307.169C159.874 307.689 159.309 308.208 158.744 308.208C158.178 308.208 157.613 307.689 157.613 307.169C157.613 306.65 158.178 306.131 158.744 306.131Z" fill="black"/>
<path d="M176.257 306.133C176.257 306.133 177.669 306.652 177.669 307.431C177.669 308.21 177.104 308.73 176.257 308.73C175.409 308.73 174.844 308.21 174.844 307.431C174.844 306.652 175.409 306.133 176.257 306.133Z" fill="black"/>
<path d="M193.777 305.871C193.777 305.871 195.473 306.65 195.473 307.429C195.473 308.208 194.625 308.988 193.777 308.988C192.93 308.988 192.082 308.208 192.082 307.429C192.082 306.65 192.93 305.871 193.777 305.871Z" fill="black"/>
<path d="M53.6279 290.548C53.6279 290.548 54.4756 290.807 54.4756 291.327C54.4756 291.846 54.1931 292.106 53.6279 292.106C53.0628 292.106 52.7803 291.846 52.7803 291.327C52.7803 290.807 53.0628 290.548 53.6279 290.548Z" fill="black"/>
<path d="M71.1514 290.548C71.6196 290.548 71.9991 290.897 71.9991 291.327C71.9991 291.758 71.6196 292.106 71.1514 292.106C70.6833 292.106 70.3037 291.758 70.3037 291.327C70.3037 290.897 70.6833 290.548 71.1514 290.548Z" fill="black"/>
<path d="M88.6641 290.548C88.6641 290.548 89.5118 290.807 89.5118 291.327C89.5118 291.846 89.2292 292.106 88.6641 292.106C88.099 292.106 87.8164 291.846 87.8164 291.327C87.8164 290.807 88.099 290.548 88.6641 290.548Z" fill="black"/>
<path d="M106.188 290.548C106.188 290.548 107.035 290.808 107.035 291.327C107.035 291.847 106.753 292.106 106.188 292.106C105.622 292.106 105.34 291.847 105.34 291.327C105.34 290.808 105.622 290.548 106.188 290.548Z" fill="black"/>
<path d="M123.701 290.29C123.701 290.29 124.549 290.809 124.549 291.069C124.549 291.329 123.984 291.848 123.701 291.848C123.419 291.848 122.854 291.329 122.854 291.069C122.854 290.809 123.419 290.29 123.701 290.29Z" fill="black"/>
<path d="M141.222 290.288C141.222 290.288 142.352 290.808 142.352 291.327C142.352 291.847 141.787 292.366 141.222 292.366C140.657 292.366 140.092 291.847 140.092 291.327C140.092 290.808 140.657 290.288 141.222 290.288Z" fill="black"/>
<path d="M158.744 290.028C158.744 290.028 159.874 290.548 159.874 291.067C159.874 291.586 159.309 292.106 158.744 292.106C158.178 292.106 157.613 291.586 157.613 291.067C157.613 290.548 158.178 290.028 158.744 290.028Z" fill="black"/>
<path d="M176.257 290.029C176.257 290.029 177.669 290.548 177.669 291.327C177.669 292.106 177.104 292.626 176.257 292.626C175.409 292.626 174.844 292.106 174.844 291.327C174.844 290.548 175.409 290.029 176.257 290.029Z" fill="black"/>
<path d="M193.777 289.769C194.714 289.769 195.473 290.466 195.473 291.327C195.473 292.188 194.714 292.885 193.777 292.885C192.841 292.885 192.082 292.188 192.082 291.327C192.082 290.466 192.841 289.769 193.777 289.769Z" fill="black"/>
<path d="M53.6279 274.446C53.6279 274.446 54.4756 274.706 54.4756 275.226C54.4756 275.745 54.1931 276.005 53.6279 276.005C53.0628 276.005 52.7803 275.745 52.7803 275.226C52.7803 274.706 53.0628 274.446 53.6279 274.446Z" fill="black"/>
<path d="M71.1514 274.446C71.1514 274.446 71.9991 274.706 71.9991 275.225C71.9991 275.744 71.7165 276.004 71.1514 276.004C70.5863 276.004 70.3037 275.744 70.3037 275.225C70.3037 274.706 70.5863 274.446 71.1514 274.446Z" fill="black"/>
<path d="M88.6641 274.446C88.6641 274.446 89.5118 274.706 89.5118 275.226C89.5118 275.745 89.2292 276.005 88.6641 276.005C88.099 276.005 87.8164 275.745 87.8164 275.226C87.8164 274.706 88.099 274.446 88.6641 274.446Z" fill="black"/>
<path d="M106.187 274.187C106.187 274.187 107.034 274.706 107.034 274.966C107.034 275.226 106.469 275.745 106.187 275.745C105.904 275.745 105.339 275.226 105.339 274.966C105.339 274.706 105.904 274.187 106.187 274.187Z" fill="black"/>
<path d="M123.699 274.187C123.699 274.187 124.829 274.706 124.829 275.225C124.829 275.745 124.264 276.264 123.699 276.264C123.134 276.264 122.568 275.745 122.568 275.225C122.568 274.706 123.134 274.187 123.699 274.187Z" fill="black"/>
<path d="M141.222 274.187C141.846 274.187 142.352 274.652 142.352 275.226C142.352 275.8 141.846 276.265 141.222 276.265C140.598 276.265 140.092 275.8 140.092 275.226C140.092 274.652 140.598 274.187 141.222 274.187Z" fill="black"/>
<path d="M158.744 273.927C158.744 273.927 159.874 274.446 159.874 274.966C159.874 275.485 159.309 276.005 158.744 276.005C158.178 276.005 157.613 275.485 157.613 274.966C157.613 274.446 158.178 273.927 158.744 273.927Z" fill="black"/>
<path d="M176.256 273.927C176.256 273.927 177.668 274.446 177.668 275.225C177.668 276.004 177.103 276.524 176.256 276.524C175.408 276.524 174.843 276.004 174.843 275.225C174.843 274.446 175.408 273.927 176.256 273.927Z" fill="black"/>
<path d="M193.779 273.666C193.779 273.666 195.192 274.186 195.192 275.225C195.192 276.264 194.627 276.523 193.779 276.523C192.931 276.523 192.366 276.004 192.366 275.225C192.366 274.446 192.931 273.666 193.779 273.666Z" fill="black"/>
<path d="M53.6279 258.344C53.6279 258.344 54.4756 258.604 54.4756 259.123C54.4756 259.643 54.1931 259.902 53.6279 259.902C53.0628 259.902 52.7803 259.643 52.7803 259.123C52.7803 258.604 53.0628 258.344 53.6279 258.344Z" fill="black"/>
<path d="M71.1504 258.084C71.1504 258.084 71.9981 258.603 71.9981 258.863C71.9981 259.123 71.433 259.642 71.1504 259.642C70.8679 259.642 70.3027 259.123 70.3027 258.863C70.3027 258.603 70.8679 258.084 71.1504 258.084Z" fill="black"/>
<path d="M88.6641 258.084C88.6641 258.084 89.5118 258.603 89.5118 258.863C89.5118 259.123 88.9467 259.642 88.6641 259.642C88.3816 259.642 87.8164 259.123 87.8164 258.863C87.8164 258.603 88.3816 258.084 88.6641 258.084Z" fill="black"/>
<path d="M106.185 258.085C106.809 258.085 107.315 258.55 107.315 259.124C107.315 259.697 106.809 260.162 106.185 260.162C105.561 260.162 105.055 259.697 105.055 259.124C105.055 258.55 105.561 258.085 106.185 258.085Z" fill="black"/>
<path d="M123.7 258.085C123.7 258.085 124.83 258.604 124.83 259.124C124.83 259.643 124.265 260.162 123.7 260.162C123.134 260.162 122.569 259.643 122.569 259.124C122.569 258.604 123.134 258.085 123.7 258.085Z" fill="black"/>
<path d="M141.222 257.825C141.222 257.825 142.352 258.344 142.352 258.863C142.352 259.383 141.787 259.902 141.222 259.902C140.657 259.902 140.092 259.383 140.092 258.863C140.092 258.344 140.657 257.825 141.222 257.825Z" fill="black"/>
<path d="M158.744 257.825C158.744 257.825 159.874 258.344 159.874 258.863C159.874 259.383 159.309 259.902 158.744 259.902C158.178 259.902 157.613 259.383 157.613 258.863C157.613 258.344 158.178 257.825 158.744 257.825Z" fill="black"/>
<path d="M176.257 257.825C176.257 257.825 177.669 258.344 177.669 259.123C177.669 259.903 177.104 260.422 176.257 260.422C175.409 260.422 174.844 259.903 174.844 259.123C174.844 258.344 175.409 257.825 176.257 257.825Z" fill="black"/>
<path d="M193.779 257.565C193.779 257.565 195.192 258.085 195.192 258.864C195.192 259.643 194.627 260.162 193.779 260.162C192.931 260.162 192.366 259.643 192.366 258.864C192.366 258.085 192.931 257.565 193.779 257.565Z" fill="black"/>
<path d="M53.6279 241.983C53.6279 241.983 54.4756 242.503 54.4756 242.762C54.4756 243.022 53.9105 243.541 53.6279 243.541C53.3454 243.541 52.7803 243.022 52.7803 242.762C52.7803 242.503 53.3454 241.983 53.6279 241.983Z" fill="black"/>
<path d="M71.1514 241.982C71.1514 241.982 71.9991 242.502 71.9991 242.761C71.9991 243.021 71.434 243.54 71.1514 243.54C70.8689 243.54 70.3037 243.021 70.3037 242.761C70.3037 242.502 70.8689 241.982 71.1514 241.982Z" fill="black"/>
<path d="M88.6625 241.983C88.6625 241.983 89.7927 242.502 89.7927 243.022C89.7927 243.541 89.2276 244.061 88.6625 244.061C88.0974 244.061 87.5322 243.541 87.5322 243.022C87.5322 242.502 88.0974 241.983 88.6625 241.983Z" fill="black"/>
<path d="M106.185 241.982C106.185 241.982 107.315 242.501 107.315 243.021C107.315 243.54 106.75 244.059 106.185 244.059C105.62 244.059 105.055 243.54 105.055 243.021C105.055 242.501 105.62 241.982 106.185 241.982Z" fill="black"/>
<path d="M123.699 241.723C123.699 241.723 124.829 242.243 124.829 242.762C124.829 243.282 124.264 243.801 123.699 243.801C123.134 243.801 122.568 243.282 122.568 242.762C122.568 242.243 123.134 241.723 123.699 241.723Z" fill="black"/>
<path d="M141.222 241.723C141.222 241.723 142.352 242.243 142.352 242.762C142.352 243.282 141.787 243.801 141.222 243.801C140.657 243.801 140.092 243.282 140.092 242.762C140.092 242.243 140.657 241.723 141.222 241.723Z" fill="black"/>
<path d="M158.745 241.723C158.745 241.723 159.875 242.243 159.875 242.762C159.875 243.282 159.31 243.801 158.745 243.801C158.179 243.801 157.614 243.282 157.614 242.762C157.614 242.243 158.179 241.723 158.745 241.723Z" fill="black"/>
<path d="M176.257 241.723C176.257 241.723 177.669 242.242 177.669 243.021C177.669 243.8 177.104 244.32 176.257 244.32C175.409 244.32 174.844 243.8 174.844 243.021C174.844 242.242 175.409 241.723 176.257 241.723Z" fill="black"/>
<path d="M193.779 241.723C193.779 241.723 195.192 242.242 195.192 243.021C195.192 243.8 194.627 244.32 193.779 244.32C192.931 244.32 192.366 243.8 192.366 243.021C192.366 242.242 192.931 241.723 193.779 241.723Z" fill="black"/>
<path d="M53.6279 225.88C53.6279 225.88 54.4756 226.4 54.4756 226.659C54.4756 226.919 53.9105 227.439 53.6279 227.439C53.3454 227.439 52.7803 226.919 52.7803 226.659C52.7803 226.4 53.3454 225.88 53.6279 225.88Z" fill="black"/>
<path d="M71.1498 225.881C71.1498 225.881 72.28 226.401 72.28 226.92C72.28 227.439 71.7149 227.959 71.1498 227.959C70.5847 227.959 70.0195 227.439 70.0195 226.92C70.0195 226.401 70.5847 225.881 71.1498 225.881Z" fill="black"/>
<path d="M88.6625 225.881C88.6625 225.881 89.7927 226.401 89.7927 226.92C89.7927 227.439 89.2276 227.959 88.6625 227.959C88.0974 227.959 87.5322 227.439 87.5322 226.92C87.5322 226.401 88.0974 225.881 88.6625 225.881Z" fill="black"/>
<path d="M106.185 225.881C106.809 225.881 107.315 226.346 107.315 226.92C107.315 227.494 106.809 227.959 106.185 227.959C105.561 227.959 105.055 227.494 105.055 226.92C105.055 226.346 105.561 225.881 106.185 225.881Z" fill="black"/>
<path d="M123.7 225.623C123.7 225.623 124.83 226.142 124.83 226.662C124.83 227.181 124.265 227.7 123.7 227.7C123.134 227.7 122.569 227.181 122.569 226.662C122.569 226.142 123.134 225.623 123.7 225.623Z" fill="black"/>
<path d="M141.222 225.623C141.222 225.623 142.352 226.142 142.352 226.662C142.352 227.181 141.787 227.7 141.222 227.7C140.657 227.7 140.092 227.181 140.092 226.662C140.092 226.142 140.657 225.623 141.222 225.623Z" fill="black"/>
<path d="M158.742 225.621C158.742 225.621 160.155 226.141 160.155 226.92C160.155 227.699 159.59 228.218 158.742 228.218C157.894 228.218 157.329 227.699 157.329 226.92C157.329 226.141 157.894 225.621 158.742 225.621Z" fill="black"/>
<path d="M176.256 225.621C176.256 225.621 177.668 226.141 177.668 226.92C177.668 227.699 177.103 228.218 176.256 228.218C175.408 228.218 174.843 227.699 174.843 226.92C174.843 226.141 175.408 225.621 176.256 225.621Z" fill="black"/>
<path d="M193.779 225.622C194.559 225.622 195.192 226.203 195.192 226.92C195.192 227.638 194.559 228.219 193.779 228.219C192.999 228.219 192.366 227.638 192.366 226.92C192.366 226.203 192.999 225.622 193.779 225.622Z" fill="black"/>
<path d="M53.6289 209.779C53.6289 209.779 54.4766 210.298 54.4766 210.558C54.4766 210.817 53.9115 211.337 53.6289 211.337C53.3463 211.337 52.7812 210.817 52.7812 210.558C52.7812 210.298 53.3463 209.779 53.6289 209.779Z" fill="black"/>
<path d="M71.1498 209.778C71.1498 209.778 72.28 210.298 72.28 210.817C72.28 211.336 71.7149 211.856 71.1498 211.856C70.5847 211.856 70.0195 211.336 70.0195 210.817C70.0195 210.298 70.5847 209.778 71.1498 209.778Z" fill="black"/>
<path d="M88.6625 209.778C88.6625 209.778 89.7927 210.298 89.7927 210.817C89.7927 211.336 89.2276 211.856 88.6625 211.856C88.0974 211.856 87.5322 211.336 87.5322 210.817C87.5322 210.298 88.0974 209.778 88.6625 209.778Z" fill="black"/>
<path d="M106.185 209.778C106.809 209.778 107.315 210.243 107.315 210.817C107.315 211.391 106.809 211.856 106.185 211.856C105.561 211.856 105.055 211.391 105.055 210.817C105.055 210.243 105.561 209.778 106.185 209.778Z" fill="black"/>
<path d="M123.7 209.519C123.7 209.519 124.83 210.038 124.83 210.557C124.83 211.077 124.265 211.596 123.7 211.596C123.134 211.596 122.569 211.077 122.569 210.557C122.569 210.038 123.134 209.519 123.7 209.519Z" fill="black"/>
<path d="M141.222 209.519C141.222 209.519 142.352 210.038 142.352 210.557C142.352 211.077 141.787 211.596 141.222 211.596C140.657 211.596 140.092 211.077 140.092 210.557C140.092 210.038 140.657 209.519 141.222 209.519Z" fill="black"/>
<path d="M158.742 209.519C158.742 209.519 160.155 210.039 160.155 210.818C160.155 211.597 159.59 212.117 158.742 212.117C157.894 212.117 157.329 211.597 157.329 210.818C157.329 210.039 157.894 209.519 158.742 209.519Z" fill="black"/>
<path d="M176.257 209.519C176.257 209.519 177.669 210.039 177.669 210.818C177.669 211.597 177.104 212.117 176.257 212.117C175.409 212.117 174.844 211.597 174.844 210.818C174.844 210.039 175.409 209.519 176.257 209.519Z" fill="black"/>
<path d="M193.779 209.519C194.559 209.519 195.192 210.101 195.192 210.818C195.192 211.535 194.559 212.117 193.779 212.117C192.999 212.117 192.366 211.535 192.366 210.818C192.366 210.101 192.999 209.519 193.779 209.519Z" fill="black"/>
<path d="M53.6263 193.677C53.6263 193.677 54.7566 194.196 54.7566 194.716C54.7566 195.235 54.1914 195.755 53.6263 195.755C53.0612 195.755 52.4961 195.235 52.4961 194.716C52.4961 194.196 53.0612 193.677 53.6263 193.677Z" fill="black"/>
<path d="M71.1498 193.678C71.774 193.678 72.28 194.143 72.28 194.716C72.28 195.29 71.774 195.755 71.1498 195.755C70.5256 195.755 70.0195 195.29 70.0195 194.716C70.0195 194.143 70.5256 193.678 71.1498 193.678Z" fill="black"/>
<path d="M88.6625 193.418C88.6625 193.418 89.7927 193.937 89.7927 194.457C89.7927 194.976 89.2276 195.496 88.6625 195.496C88.0974 195.496 87.5322 194.976 87.5322 194.457C87.5322 193.937 88.0974 193.418 88.6625 193.418Z" fill="black"/>
<path d="M106.185 193.678C106.809 193.678 107.315 194.143 107.315 194.716C107.315 195.29 106.809 195.755 106.185 195.755C105.561 195.755 105.055 195.29 105.055 194.716C105.055 194.143 105.561 193.678 106.185 193.678Z" fill="black"/>
<path d="M123.7 193.418C123.7 193.418 124.83 193.937 124.83 194.457C124.83 194.976 124.265 195.496 123.7 195.496C123.134 195.496 122.569 194.976 122.569 194.457C122.569 193.937 123.134 193.418 123.7 193.418Z" fill="black"/>
<path d="M141.222 193.418C141.222 193.418 142.352 193.937 142.352 194.457C142.352 194.976 141.787 195.496 141.222 195.496C140.657 195.496 140.092 194.976 140.092 194.457C140.092 193.937 140.657 193.418 141.222 193.418Z" fill="black"/>
<path d="M158.742 193.418C158.742 193.418 160.155 193.937 160.155 194.716C160.155 195.495 159.59 196.015 158.742 196.015C157.894 196.015 157.329 195.495 157.329 194.716C157.329 193.937 157.894 193.418 158.742 193.418Z" fill="black"/>
<path d="M176.256 193.418C176.256 193.418 177.668 193.937 177.668 194.716C177.668 195.495 177.103 196.015 176.256 196.015C175.408 196.015 174.843 195.495 174.843 194.716C174.843 193.937 175.408 193.418 176.256 193.418Z" fill="black"/>
<path d="M193.778 193.418C194.558 193.418 195.191 193.999 195.191 194.716C195.191 195.433 194.558 196.015 193.778 196.015C192.998 196.015 192.365 195.433 192.365 194.716C192.365 193.999 192.998 193.418 193.778 193.418Z" fill="black"/>
<path d="M53.6279 177.575C53.6279 177.575 54.4756 177.835 54.4756 178.354C54.4756 178.873 54.1931 179.133 53.6279 179.133C53.0628 179.133 52.7803 178.873 52.7803 178.354C52.7803 177.835 53.0628 177.575 53.6279 177.575Z" fill="black"/>
<path d="M71.1498 177.575C71.1498 177.575 72.28 178.095 72.28 178.614C72.28 179.133 71.7149 179.653 71.1498 179.653C70.5847 179.653 70.0195 179.133 70.0195 178.614C70.0195 178.095 70.5847 177.575 71.1498 177.575Z" fill="black"/>
<path d="M88.6625 177.575C88.6625 177.575 89.7927 178.095 89.7927 178.614C89.7927 179.133 89.2276 179.653 88.6625 179.653C88.0974 179.653 87.5322 179.133 87.5322 178.614C87.5322 178.095 88.0974 177.575 88.6625 177.575Z" fill="black"/>
<path d="M106.185 177.317C106.185 177.317 107.315 177.836 107.315 178.356C107.315 178.875 106.75 179.394 106.185 179.394C105.62 179.394 105.055 178.875 105.055 178.356C105.055 177.836 105.62 177.317 106.185 177.317Z" fill="black"/>
<path d="M123.699 177.317C123.699 177.317 124.829 177.837 124.829 178.356C124.829 178.876 124.264 179.395 123.699 179.395C123.134 179.395 122.568 178.876 122.568 178.356C122.568 177.837 123.134 177.317 123.699 177.317Z" fill="black"/>
<path d="M141.222 177.317C141.222 177.317 142.352 177.836 142.352 178.356C142.352 178.875 141.787 179.394 141.222 179.394C140.657 179.394 140.092 178.875 140.092 178.356C140.092 177.836 140.657 177.317 141.222 177.317Z" fill="black"/>
<path d="M158.745 177.317C158.745 177.317 159.875 177.837 159.875 178.356C159.875 178.876 159.31 179.395 158.745 179.395C158.179 179.395 157.614 178.876 157.614 178.356C157.614 177.837 158.179 177.317 158.745 177.317Z" fill="black"/>
<path d="M176.258 177.317C176.258 177.317 177.388 177.837 177.388 178.356C177.388 178.876 176.823 179.395 176.258 179.395C175.693 179.395 175.128 178.876 175.128 178.356C175.128 177.837 175.693 177.317 176.258 177.317Z" fill="black"/>
<path d="M193.779 177.316C193.779 177.316 195.192 177.835 195.192 178.614C195.192 179.394 194.627 179.913 193.779 179.913C192.931 179.913 192.366 179.394 192.366 178.614C192.366 177.835 192.931 177.316 193.779 177.316Z" fill="black"/>
<path d="M53.6289 161.733C53.6289 161.733 54.4766 161.992 54.4766 162.512C54.4766 163.031 54.194 163.291 53.6289 163.291C53.0638 163.291 52.7812 163.031 52.7812 162.512C52.7812 161.992 53.0638 161.733 53.6289 161.733Z" fill="black"/>
<path d="M71.1514 161.473C71.1514 161.473 71.9991 161.992 71.9991 162.252C71.9991 162.512 71.434 163.031 71.1514 163.031C70.8689 163.031 70.3037 162.512 70.3037 162.252C70.3037 161.992 70.8689 161.473 71.1514 161.473Z" fill="black"/>
<path d="M88.6625 161.473C88.6625 161.473 89.7927 161.993 89.7927 162.512C89.7927 163.032 89.2276 163.551 88.6625 163.551C88.0974 163.551 87.5322 163.032 87.5322 162.512C87.5322 161.993 88.0974 161.473 88.6625 161.473Z" fill="black"/>
<path d="M106.185 161.473C106.185 161.473 107.315 161.992 107.315 162.512C107.315 163.031 106.75 163.55 106.185 163.55C105.62 163.55 105.055 163.031 105.055 162.512C105.055 161.992 105.62 161.473 106.185 161.473Z" fill="black"/>
<path d="M123.699 161.213C123.699 161.213 124.829 161.733 124.829 162.252C124.829 162.771 124.264 163.291 123.699 163.291C123.134 163.291 122.568 162.771 122.568 162.252C122.568 161.733 123.134 161.213 123.699 161.213Z" fill="black"/>
<path d="M141.222 161.214C141.222 161.214 142.352 161.734 142.352 162.253C142.352 162.773 141.787 163.292 141.222 163.292C140.657 163.292 140.092 162.773 140.092 162.253C140.092 161.734 140.657 161.214 141.222 161.214Z" fill="black"/>
<path d="M158.745 161.213C158.745 161.213 159.875 161.733 159.875 162.252C159.875 162.771 159.31 163.291 158.745 163.291C158.179 163.291 157.614 162.771 157.614 162.252C157.614 161.733 158.179 161.213 158.745 161.213Z" fill="black"/>
<path d="M176.258 161.213C176.258 161.213 177.388 161.733 177.388 162.252C177.388 162.771 176.823 163.291 176.258 163.291C175.693 163.291 175.128 162.771 175.128 162.252C175.128 161.733 175.693 161.213 176.258 161.213Z" fill="black"/>
<path d="M193.779 161.213C193.779 161.213 195.192 161.732 195.192 162.511C195.192 163.291 194.627 163.81 193.779 163.81C192.931 163.81 192.366 163.291 192.366 162.511C192.366 161.732 192.931 161.213 193.779 161.213Z" fill="black"/>
<path d="M53.6279 145.631C53.6279 145.631 54.4756 145.891 54.4756 146.41C54.4756 146.929 54.1931 147.189 53.6279 147.189C53.0628 147.189 52.7803 146.929 52.7803 146.41C52.7803 145.891 53.0628 145.631 53.6279 145.631Z" fill="black"/>
<path d="M71.1504 145.371C71.1504 145.371 71.9981 145.631 71.9981 146.15C71.9981 146.67 71.7156 146.93 71.1504 146.93C70.5853 146.93 70.3027 146.67 70.3027 146.15C70.3027 145.631 70.5853 145.371 71.1504 145.371Z" fill="black"/>
<path d="M88.6641 145.371C88.6641 145.371 89.5118 145.631 89.5118 146.15C89.5118 146.67 89.2292 146.93 88.6641 146.93C88.099 146.93 87.8164 146.67 87.8164 146.15C87.8164 145.631 88.099 145.371 88.6641 145.371Z" fill="black"/>
<path d="M106.187 145.371C106.187 145.371 107.034 145.891 107.034 146.15C107.034 146.41 106.469 146.93 106.187 146.93C105.904 146.93 105.339 146.41 105.339 146.15C105.339 145.891 105.904 145.371 106.187 145.371Z" fill="black"/>
<path d="M123.7 145.372C123.7 145.372 124.83 145.891 124.83 146.41C124.83 146.93 124.265 147.449 123.7 147.449C123.134 147.449 122.569 146.93 122.569 146.41C122.569 145.891 123.134 145.372 123.7 145.372Z" fill="black"/>
<path d="M141.222 145.372C141.222 145.372 142.352 145.891 142.352 146.41C142.352 146.93 141.787 147.449 141.222 147.449C140.657 147.449 140.092 146.93 140.092 146.41C140.092 145.891 140.657 145.372 141.222 145.372Z" fill="black"/>
<path d="M158.744 145.372C158.744 145.372 159.874 145.891 159.874 146.41C159.874 146.93 159.309 147.449 158.744 147.449C158.178 147.449 157.613 146.93 157.613 146.41C157.613 145.891 158.178 145.372 158.744 145.372Z" fill="black"/>
<path d="M176.258 145.111C176.258 145.111 177.388 145.631 177.388 146.15C177.388 146.67 176.823 147.189 176.258 147.189C175.693 147.189 175.128 146.67 175.128 146.15C175.128 145.631 175.693 145.111 176.258 145.111Z" fill="black"/>
<path d="M193.781 145.111C193.781 145.111 194.911 145.631 194.911 146.15C194.911 146.67 194.346 147.189 193.781 147.189C193.216 147.189 192.65 146.67 192.65 146.15C192.65 145.631 193.216 145.111 193.781 145.111Z" fill="black"/>
<path d="M53.6279 129.528C53.6279 129.528 54.4756 129.788 54.4756 130.308C54.4756 130.827 54.1931 131.087 53.6279 131.087C53.0628 131.087 52.7803 130.827 52.7803 130.308C52.7803 129.788 53.0628 129.528 53.6279 129.528Z" fill="black"/>
<path d="M71.1514 129.269C71.6196 129.269 71.9991 129.618 71.9991 130.049C71.9991 130.479 71.6196 130.828 71.1514 130.828C70.6833 130.828 70.3037 130.479 70.3037 130.049C70.3037 129.618 70.6833 129.269 71.1514 129.269Z" fill="black"/>
<path d="M88.6661 129.529C88.6661 129.529 89.5137 129.789 89.5137 130.308C89.5137 130.828 89.2312 131.087 88.6661 131.087C88.1009 131.087 87.8184 130.828 87.8184 130.308C87.8184 129.789 88.1009 129.529 88.6661 129.529Z" fill="black"/>
<path d="M106.188 129.269C106.656 129.269 107.035 129.618 107.035 130.049C107.035 130.479 106.656 130.828 106.188 130.828C105.719 130.828 105.34 130.479 105.34 130.049C105.34 129.618 105.719 129.269 106.188 129.269Z" fill="black"/>
<path d="M123.701 129.269C123.701 129.269 124.549 129.529 124.549 130.049C124.549 130.568 124.266 130.828 123.701 130.828C123.136 130.828 122.854 130.568 122.854 130.049C122.854 129.529 123.136 129.269 123.701 129.269Z" fill="black"/>
<path d="M141.223 129.269C141.223 129.269 142.07 129.789 142.07 130.049C142.07 130.308 141.505 130.828 141.223 130.828C140.94 130.828 140.375 130.308 140.375 130.049C140.375 129.789 140.94 129.269 141.223 129.269Z" fill="black"/>
<path d="M158.744 129.269C158.744 129.269 159.874 129.789 159.874 130.308C159.874 130.827 159.309 131.347 158.744 131.347C158.178 131.347 157.613 130.827 157.613 130.308C157.613 129.789 158.178 129.269 158.744 129.269Z" fill="black"/>
<path d="M176.258 129.269C176.258 129.269 177.388 129.789 177.388 130.308C177.388 130.827 176.823 131.347 176.258 131.347C175.693 131.347 175.128 130.827 175.128 130.308C175.128 129.789 175.693 129.269 176.258 129.269Z" fill="black"/>
<path d="M193.781 129.01C194.405 129.01 194.911 129.475 194.911 130.048C194.911 130.622 194.405 131.087 193.781 131.087C193.156 131.087 192.65 130.622 192.65 130.048C192.65 129.475 193.156 129.01 193.781 129.01Z" fill="black"/>
<path d="M53.6295 113.427C53.6295 113.427 54.1947 113.687 54.1947 113.946C54.1947 114.206 54.1947 114.466 53.6295 114.466C53.0644 114.466 53.0645 114.466 53.0645 113.946C53.0645 113.427 53.0644 113.427 53.6295 113.427Z" fill="black"/>
<path d="M71.1504 113.168C71.6186 113.168 71.9981 113.516 71.9981 113.947C71.9981 114.377 71.6186 114.726 71.1504 114.726C70.6823 114.726 70.3027 114.377 70.3027 113.947C70.3027 113.516 70.6823 113.168 71.1504 113.168Z" fill="black"/>
<path d="M88.6641 113.427C88.6641 113.427 89.5118 113.687 89.5118 114.206C89.5118 114.726 89.2292 114.985 88.6641 114.985C88.099 114.985 87.8164 114.726 87.8164 114.206C87.8164 113.687 88.099 113.427 88.6641 113.427Z" fill="black"/>
<path d="M106.188 113.427C106.188 113.427 107.035 113.686 107.035 114.206C107.035 114.725 106.753 114.985 106.188 114.985C105.622 114.985 105.34 114.725 105.34 114.206C105.34 113.686 105.622 113.427 106.188 113.427Z" fill="black"/>
<path d="M123.701 113.427C123.701 113.427 124.549 113.687 124.549 114.206C124.549 114.726 124.266 114.985 123.701 114.985C123.136 114.985 122.854 114.726 122.854 114.206C122.854 113.687 123.136 113.427 123.701 113.427Z" fill="black"/>
<path d="M141.223 113.168C141.691 113.168 142.07 113.516 142.07 113.947C142.07 114.377 141.691 114.726 141.223 114.726C140.754 114.726 140.375 114.377 140.375 113.947C140.375 113.516 140.754 113.168 141.223 113.168Z" fill="black"/>
<path d="M158.736 113.168C158.736 113.168 159.584 113.687 159.584 113.947C159.584 114.207 159.019 114.726 158.736 114.726C158.454 114.726 157.889 114.207 157.889 113.947C157.889 113.687 158.454 113.168 158.736 113.168Z" fill="black"/>
<path d="M176.258 113.168C176.258 113.168 177.388 113.687 177.388 114.207C177.388 114.726 176.823 115.246 176.258 115.246C175.693 115.246 175.128 114.726 175.128 114.207C175.128 113.687 175.693 113.168 176.258 113.168Z" fill="black"/>
<path d="M193.781 112.908C193.781 112.908 194.911 113.427 194.911 113.947C194.911 114.466 194.346 114.985 193.781 114.985C193.216 114.985 192.65 114.466 192.65 113.947C192.65 113.427 193.216 112.908 193.781 112.908Z" fill="black"/>
<path d="M53.6305 97.3251C53.6305 97.3251 54.1957 97.3251 54.1957 97.8446C54.1957 98.364 54.1956 98.364 53.6305 98.364C53.0654 98.364 53.0654 98.364 53.0654 97.8446C53.0654 97.3251 53.0654 97.3251 53.6305 97.3251Z" fill="black"/>
<path d="M71.1442 97.3251C71.1442 97.3251 71.7094 97.3251 71.7094 97.8446C71.7094 98.364 71.7094 98.364 71.1442 98.364C70.5791 98.364 70.5791 98.1043 70.5791 97.8446C70.5791 97.5848 70.5791 97.3251 71.1442 97.3251Z" fill="black"/>
<path d="M88.6657 97.3251C88.6657 97.3251 89.2308 97.3251 89.2308 97.8446C89.2308 98.364 89.2308 98.364 88.6657 98.364C88.1006 98.364 88.1006 98.1043 88.1006 97.8446C88.1006 97.5848 88.1006 97.3251 88.6657 97.3251Z" fill="black"/>
<path d="M106.18 97.3251C106.18 97.3251 106.746 97.5848 106.746 97.8446C106.746 98.1043 106.463 98.364 106.18 98.364C105.898 98.364 105.615 98.1043 105.615 97.8446C105.615 97.5848 105.898 97.3251 106.18 97.3251Z" fill="black"/>
<path d="M123.701 97.3248C123.701 97.3248 124.549 97.5846 124.549 98.104C124.549 98.6234 124.266 98.8831 123.701 98.8831C123.136 98.8831 122.854 98.6234 122.854 98.104C122.854 97.5846 123.136 97.3248 123.701 97.3248Z" fill="black"/>
<path d="M141.223 97.0659C141.223 97.0659 142.07 97.3256 142.07 97.845C142.07 98.3644 141.788 98.6241 141.223 98.6241C140.658 98.6241 140.375 98.3644 140.375 97.845C140.375 97.3256 140.658 97.0659 141.223 97.0659Z" fill="black"/>
<path d="M158.737 97.0659C158.737 97.0659 159.585 97.3256 159.585 97.845C159.585 98.3644 159.302 98.6241 158.737 98.6241C158.172 98.6241 157.89 98.3644 157.89 97.845C157.89 97.3256 158.172 97.0659 158.737 97.0659Z" fill="black"/>
<path d="M176.258 97.0656C176.258 97.0656 177.388 97.585 177.388 98.1044C177.388 98.6238 176.823 99.1432 176.258 99.1432C175.693 99.1432 175.128 98.6238 175.128 98.1044C175.128 97.585 175.693 97.0656 176.258 97.0656Z" fill="black"/>
<path d="M193.782 97.0659C193.782 97.0659 194.63 97.5853 194.63 97.845C194.63 98.1047 194.065 98.6241 193.782 98.6241C193.5 98.6241 192.935 98.1047 192.935 97.845C192.935 97.5853 193.5 97.0659 193.782 97.0659Z" fill="black"/>
<path d="M53.6305 81.2228C53.6305 81.2228 54.1957 81.2228 54.1957 81.7422C54.1957 82.2617 54.1956 82.2616 53.6305 82.2616C53.0654 82.2616 53.0654 82.2617 53.0654 81.7422C53.0654 81.2228 53.0654 81.2228 53.6305 81.2228Z" fill="black"/>
<path d="M71.1442 81.2234C71.4563 81.2234 71.7094 81.4559 71.7094 81.7428C71.7094 82.0297 71.4563 82.2622 71.1442 82.2622C70.8321 82.2622 70.5791 82.0297 70.5791 81.7428C70.5791 81.4559 70.8321 81.2234 71.1442 81.2234Z" fill="black"/>
<path d="M88.6657 81.2228C88.6657 81.2228 89.2308 81.2228 89.2308 81.7422C89.2308 82.2617 89.2308 82.2616 88.6657 82.2616C88.1006 82.2616 88.1006 82.2617 88.1006 81.7422C88.1006 81.2228 88.1006 81.2228 88.6657 81.2228Z" fill="black"/>
<path d="M106.18 81.2228C106.18 81.2228 106.746 81.4825 106.746 81.7422C106.746 82.002 106.463 82.2616 106.18 82.2616C105.898 82.2616 105.615 82.002 105.615 81.7422C105.615 81.4825 105.898 81.2228 106.18 81.2228Z" fill="black"/>
<path d="M123.701 81.2231C123.701 81.2231 124.549 81.4828 124.549 82.0022C124.549 82.5216 124.266 82.7813 123.701 82.7813C123.136 82.7813 122.854 82.5216 122.854 82.0022C122.854 81.4828 123.136 81.2231 123.701 81.2231Z" fill="black"/>
<path d="M141.223 80.963C141.691 80.963 142.07 81.3118 142.07 81.7421C142.07 82.1724 141.691 82.5212 141.223 82.5212C140.754 82.5212 140.375 82.1724 140.375 81.7421C140.375 81.3118 140.754 80.963 141.223 80.963Z" fill="black"/>
<path d="M158.737 80.963C158.737 80.963 159.585 81.2227 159.585 81.7421C159.585 82.2615 159.302 82.5212 158.737 82.5212C158.172 82.5212 157.89 82.2615 157.89 81.7421C157.89 81.2227 158.172 80.963 158.737 80.963Z" fill="black"/>
<path d="M176.258 80.9638C176.258 80.9638 177.388 81.4832 177.388 82.0026C177.388 82.522 176.823 83.0414 176.258 83.0414C175.693 83.0414 175.128 82.522 175.128 82.0026C175.128 81.4832 175.693 80.9638 176.258 80.9638Z" fill="black"/>
<path d="M193.782 80.963C194.25 80.963 194.63 81.3118 194.63 81.7421C194.63 82.1724 194.25 82.5212 193.782 82.5212C193.314 82.5212 192.935 82.1724 192.935 81.7421C192.935 81.3118 193.314 80.963 193.782 80.963Z" fill="black"/>
<path d="M53.629 65.3848C53.629 65.3848 53.9094 65.3848 53.9094 65.6425C53.9094 65.9002 53.9094 65.9003 53.629 65.9003C53.3486 65.9003 53.3486 65.9002 53.3486 65.6425C53.3486 65.3848 53.3486 65.3848 53.629 65.3848Z" fill="black"/>
<path d="M71.1442 65.1215C71.4563 65.1215 71.7094 65.3541 71.7094 65.641C71.7094 65.9278 71.4563 66.1604 71.1442 66.1604C70.8321 66.1604 70.5791 65.9278 70.5791 65.641C70.5791 65.3541 70.8321 65.1215 71.1442 65.1215Z" fill="black"/>
<path d="M88.6657 65.1215C88.6657 65.1215 89.2308 65.1215 89.2308 65.641C89.2308 66.1604 89.2308 66.1604 88.6657 66.1604C88.1006 66.1604 88.1006 66.1604 88.1006 65.641C88.1006 65.1215 88.1006 65.1215 88.6657 65.1215Z" fill="black"/>
<path d="M106.18 65.1215C106.18 65.1215 106.746 65.1215 106.746 65.641C106.746 66.1604 106.745 66.1604 106.18 66.1604C105.615 66.1604 105.615 66.1604 105.615 65.641C105.615 65.1215 105.615 65.1215 106.18 65.1215Z" fill="black"/>
<path d="M123.701 65.1212C123.701 65.1212 124.549 65.3809 124.549 65.9004C124.549 66.4198 124.266 66.6795 123.701 66.6795C123.136 66.6795 122.854 66.4198 122.854 65.9004C122.854 65.3809 123.136 65.1212 123.701 65.1212Z" fill="black"/>
<path d="M141.223 64.8611C141.691 64.8611 142.07 65.2099 142.07 65.6402C142.07 66.0705 141.691 66.4194 141.223 66.4194C140.754 66.4194 140.375 66.0705 140.375 65.6402C140.375 65.2099 140.754 64.8611 141.223 64.8611Z" fill="black"/>
<path d="M158.744 64.863C158.744 64.863 159.874 65.3825 159.874 65.9019C159.874 66.4213 159.309 66.9407 158.744 66.9407C158.178 66.9407 157.613 66.4213 157.613 65.9019C157.613 65.3825 158.178 64.863 158.744 64.863Z" fill="black"/>
<path d="M176.258 64.863C176.258 64.863 177.388 65.3825 177.388 65.9019C177.388 66.4213 176.823 66.9407 176.258 66.9407C175.693 66.9407 175.128 66.4213 175.128 65.9019C175.128 65.3825 175.693 64.863 176.258 64.863Z" fill="black"/>
<path d="M193.774 65.1215C193.774 65.1215 194.339 65.3812 194.339 65.641C194.339 65.9007 194.057 66.1604 193.774 66.1604C193.492 66.1604 193.209 65.9007 193.209 65.641C193.209 65.3812 193.492 65.1215 193.774 65.1215Z" fill="black"/>
<path d="M53.63 49.2831C53.63 49.2831 53.9104 49.2831 53.9104 49.5408C53.9104 49.7985 53.9104 49.7985 53.63 49.7985C53.3496 49.7985 53.3496 49.7985 53.3496 49.5408C53.3496 49.2831 53.3496 49.2831 53.63 49.2831Z" fill="black"/>
<path d="M71.1447 49.2831C71.1447 49.2831 71.4251 49.2831 71.4251 49.5408C71.4251 49.7985 71.4251 49.7985 71.1447 49.7985C70.8643 49.7985 70.8643 49.7985 70.8643 49.5408C70.8643 49.2831 70.8643 49.2831 71.1447 49.2831Z" fill="black"/>
<path d="M88.6657 49.0192C88.6657 49.0192 89.2308 49.0192 89.2308 49.5386C89.2308 50.0581 89.2308 50.058 88.6657 50.058C88.1006 50.058 88.1006 49.7983 88.1006 49.5386C88.1006 49.2789 88.1006 49.0192 88.6657 49.0192Z" fill="black"/>
<path d="M106.188 48.7593C106.656 48.7593 107.035 49.1082 107.035 49.5385C107.035 49.9688 106.656 50.3176 106.188 50.3176C105.719 50.3176 105.34 49.9688 105.34 49.5385C105.34 49.1082 105.719 48.7593 106.188 48.7593Z" fill="black"/>
<path d="M123.701 48.7593C123.701 48.7593 124.549 49.0191 124.549 49.5385C124.549 50.0579 124.266 50.3176 123.701 50.3176C123.136 50.3176 122.854 50.0579 122.854 49.5385C122.854 49.0191 123.136 48.7593 123.701 48.7593Z" fill="black"/>
<path d="M141.223 48.7593C141.691 48.7593 142.07 49.1082 142.07 49.5385C142.07 49.9688 141.691 50.3176 141.223 50.3176C140.754 50.3176 140.375 49.9688 140.375 49.5385C140.375 49.1082 140.754 48.7593 141.223 48.7593Z" fill="black"/>
<path d="M158.737 49.0195C158.737 49.0195 159.585 49.2791 159.585 49.7986C159.585 50.318 159.302 50.5777 158.737 50.5777C158.172 50.5777 157.89 50.318 157.89 49.7986C157.89 49.2791 158.172 49.0195 158.737 49.0195Z" fill="black"/>
<path d="M176.26 49.0192C176.26 49.0192 176.826 49.0192 176.826 49.5386C176.826 50.0581 176.826 50.058 176.26 50.058C175.695 50.058 175.695 50.0581 175.695 49.5386C175.695 49.0192 175.695 49.0192 176.26 49.0192Z" fill="black"/>
<path d="M193.774 49.0192C193.774 49.0192 194.339 49.0192 194.339 49.5386C194.339 50.0581 194.339 50.058 193.774 50.058C193.209 50.058 193.209 50.0581 193.209 49.5386C193.209 49.0192 193.209 49.0192 193.774 49.0192Z" fill="black"/>
<path d="M53.629 33.1812C53.629 33.1812 53.9094 33.1812 53.9094 33.4389C53.9094 33.6966 53.9094 33.6967 53.629 33.6967C53.3486 33.6967 53.3486 33.6966 53.3486 33.4389C53.3486 33.1812 53.3486 33.1812 53.629 33.1812Z" fill="black"/>
<path d="M71.1427 33.1812C71.1427 33.1812 71.4231 33.1812 71.4231 33.4389C71.4231 33.6966 71.4231 33.6967 71.1427 33.6967C70.8623 33.6967 70.8623 33.6966 70.8623 33.4389C70.8623 33.1812 70.8623 33.1812 71.1427 33.1812Z" fill="black"/>
<path d="M88.6652 33.1812C88.6652 33.1812 88.9455 33.1812 88.9455 33.4389C88.9455 33.6966 88.9456 33.6967 88.6652 33.6967C88.3848 33.6967 88.3848 33.6966 88.3848 33.4389C88.3848 33.1812 88.3848 33.1812 88.6652 33.1812Z" fill="black"/>
<path d="M106.18 33.1812C106.18 33.1812 106.46 33.1812 106.46 33.4389C106.46 33.6966 106.46 33.6967 106.18 33.6967C105.899 33.6967 105.899 33.6966 105.899 33.4389C105.899 33.1812 105.899 33.1812 106.18 33.1812Z" fill="black"/>
<path d="M123.703 33.1797C123.703 33.1797 124.268 33.1797 124.268 33.6991C124.268 34.2186 124.268 34.2186 123.703 34.2186C123.138 34.2186 123.138 34.2186 123.138 33.6991C123.138 33.1797 123.138 33.1797 123.703 33.1797Z" fill="black"/>
<path d="M141.224 33.1769C141.224 33.1769 141.789 33.1769 141.789 33.6963C141.789 34.2158 141.789 34.2158 141.224 34.2158C140.659 34.2158 140.659 34.2158 140.659 33.6963C140.659 33.1769 140.659 33.1769 141.224 33.1769Z" fill="black"/>
<path d="M158.739 33.1769C158.739 33.1769 159.304 33.1769 159.304 33.6963C159.304 34.2158 159.304 34.2158 158.739 34.2158C158.174 34.2158 158.174 34.2158 158.174 33.6963C158.174 33.1769 158.174 33.1769 158.739 33.1769Z" fill="black"/>
<path d="M176.261 32.9174C176.261 32.9174 176.827 32.9174 176.827 33.4368C176.827 33.9562 176.826 33.9562 176.261 33.9562C175.696 33.9562 175.696 33.9562 175.696 33.4368C175.696 32.9174 175.696 32.9174 176.261 32.9174Z" fill="black"/>
<path d="M193.775 32.9174C193.775 32.9174 194.34 32.9174 194.34 33.4368C194.34 33.9562 194.34 33.9562 193.775 33.9562C193.21 33.9562 193.21 33.9562 193.21 33.4368C193.21 32.9174 193.21 32.9174 193.775 32.9174Z" fill="black"/>
<path d="M53.629 17.0789C53.629 17.0789 53.9094 17.0788 53.9094 17.3366C53.9094 17.5943 53.9094 17.5943 53.629 17.5943C53.3486 17.5943 53.3486 17.5943 53.3486 17.3366C53.3486 17.0788 53.3486 17.0789 53.629 17.0789Z" fill="black"/>
<path d="M71.1427 17.0789C71.1427 17.0789 71.4231 17.0788 71.4231 17.3366C71.4231 17.5943 71.4231 17.5943 71.1427 17.5943C70.8623 17.5943 70.8623 17.5943 70.8623 17.3366C70.8623 17.0788 70.8623 17.0789 71.1427 17.0789Z" fill="black"/>
<path d="M88.6652 17.0789C88.6652 17.0789 88.9455 17.0788 88.9455 17.3366C88.9455 17.5943 88.9456 17.5943 88.6652 17.5943C88.3848 17.5943 88.3848 17.5943 88.3848 17.3366C88.3848 17.0788 88.3848 17.0789 88.6652 17.0789Z" fill="black"/>
<path d="M106.18 17.0789C106.18 17.0789 106.46 17.0788 106.46 17.3366C106.46 17.5943 106.46 17.5943 106.18 17.5943C105.899 17.5943 105.899 17.5943 105.899 17.3366C105.899 17.0788 105.899 17.0789 106.18 17.0789Z" fill="black"/>
<path d="M123.702 17.0795C123.702 17.0795 123.983 17.0794 123.983 17.3371C123.983 17.5948 123.983 17.5948 123.702 17.5948C123.422 17.5948 123.422 17.5948 123.422 17.3371C123.422 17.0794 123.422 17.0795 123.702 17.0795Z" fill="black"/>
<path d="M141.215 17.0789C141.215 17.0789 141.495 17.0788 141.495 17.3366C141.495 17.5943 141.495 17.5943 141.215 17.5943C140.935 17.5943 140.935 17.5943 140.935 17.3366C140.935 17.0788 140.935 17.0789 141.215 17.0789Z" fill="black"/>
<path d="M158.739 17.0752C158.739 17.0752 159.304 17.0751 159.304 17.5945C159.304 18.114 159.304 18.114 158.739 18.114C158.174 18.114 158.174 18.114 158.174 17.5945C158.174 17.0751 158.174 17.0752 158.739 17.0752Z" fill="black"/>
<path d="M176.26 16.8156C176.26 16.8156 176.826 16.8156 176.826 17.335C176.826 17.8544 176.826 17.8544 176.26 17.8544C175.695 17.8544 175.695 17.8544 175.695 17.335C175.695 16.8156 175.695 16.8156 176.26 16.8156Z" fill="black"/>
<path d="M193.774 16.8156C193.774 16.8156 194.339 16.8156 194.339 17.335C194.339 17.8544 194.339 17.8544 193.774 17.8544C193.209 17.8544 193.209 17.8544 193.209 17.335C193.209 16.8156 193.209 16.8156 193.774 16.8156Z" fill="black"/>
<path d="M53.629 0.979825C53.629 0.979825 53.9094 0.979831 53.9094 1.23755C53.9094 1.49526 53.9094 1.49527 53.629 1.49527C53.3486 1.49527 53.3486 1.49526 53.3486 1.23755C53.3486 0.979831 53.3486 0.979825 53.629 0.979825Z" fill="black"/>
<path d="M71.1427 0.979825C71.2976 0.979825 71.4231 1.09521 71.4231 1.23755C71.4231 1.37988 71.2976 1.49527 71.1427 1.49527C70.9878 1.49527 70.8623 1.37988 70.8623 1.23755C70.8623 1.09521 70.9878 0.979825 71.1427 0.979825Z" fill="black"/>
<path d="M88.6652 0.979825C88.6652 0.979825 88.9455 0.979831 88.9455 1.23755C88.9455 1.49526 88.9456 1.49527 88.6652 1.49527C88.3848 1.49527 88.3848 1.49526 88.3848 1.23755C88.3848 0.979831 88.3848 0.979825 88.6652 0.979825Z" fill="black"/>
<path d="M106.18 0.979825C106.335 0.979825 106.46 1.09521 106.46 1.23755C106.46 1.37988 106.335 1.49527 106.18 1.49527C106.025 1.49527 105.899 1.37988 105.899 1.23755C105.899 1.09521 106.025 0.979825 106.18 0.979825Z" fill="black"/>
<path d="M123.702 0.979825C123.702 0.979825 123.983 0.979831 123.983 1.23755C123.983 1.49526 123.983 1.49527 123.702 1.49527C123.422 1.49527 123.422 1.49526 123.422 1.23755C123.422 0.979831 123.422 0.979825 123.702 0.979825Z" fill="black"/>
<path d="M141.224 0.972755C141.224 0.972755 141.789 0.972767 141.789 1.49218C141.789 2.0116 141.789 2.01161 141.224 2.01161C140.659 2.01161 140.659 2.0116 140.659 1.49218C140.659 0.972767 140.659 0.972755 141.224 0.972755Z" fill="black"/>
<path d="M158.739 0.972755C158.739 0.972755 159.304 0.972767 159.304 1.49218C159.304 2.0116 159.304 2.01161 158.739 2.01161C158.174 2.01161 158.174 2.0116 158.174 1.49218C158.174 0.972767 158.174 0.972755 158.739 0.972755Z" fill="black"/>
<path d="M176.261 0.713737C176.261 0.713737 176.827 0.713749 176.827 1.23317C176.827 1.75258 176.826 1.75259 176.261 1.75259C175.696 1.75259 175.696 1.75258 175.696 1.23317C175.696 0.713749 175.696 0.713737 176.261 0.713737Z" fill="black"/>
<path d="M193.775 0.713737C194.087 0.713737 194.34 0.946299 194.34 1.23317C194.34 1.52003 194.087 1.75259 193.775 1.75259C193.463 1.75259 193.21 1.52003 193.21 1.23317C193.21 0.946299 193.463 0.713737 193.775 0.713737Z" fill="black"/>
<mask id="path-286-inside-1_1350_295" fill="white">
<path fill-rule="evenodd" clip-rule="evenodd" d="M60.1466 256.914C99.7039 246.932 139.849 270.278 150.94 309.249L150.967 309.243L154.877 324.739C155.372 326.702 154.884 328.683 153.723 330.161C155.892 331.286 156.39 334.236 156.9 337.261C156.923 337.397 156.946 337.533 156.969 337.669C157.165 338.823 157.435 339.964 157.775 341.084L159.256 345.959C160.251 348.83 160.205 351.213 158.434 352.444C157.763 353.211 155.489 353.83 154.374 353.94L150.465 354.108C148.183 354.207 145.956 354.847 143.97 355.977L143.773 356.088C142.208 356.978 140.466 357.516 138.672 357.665L138.632 357.669C138.19 357.705 137.746 357.701 137.304 357.656L135.066 357.429C134.054 357.325 133.036 357.587 132.198 358.167C131.672 358.533 131.547 358.633 131.267 358.858L131.258 358.866C130.939 359.12 130.346 359.367 129.547 359.453C129.303 359.48 129.055 359.471 128.811 359.442L128.124 359.356C127.145 358.945 126.128 359.039 125.44 359.682C125.381 359.737 125.326 359.79 125.274 359.841C125.13 359.981 125.009 360.1 124.898 360.153C123.674 360.745 122.323 361.031 120.964 360.983L120.419 360.965C119.52 361.191 118.642 361.493 117.791 361.864L114.412 363.342C113.25 363.851 111.992 364.101 110.725 364.078L106.905 364.004C104.932 363.965 102.986 364.453 101.266 365.416L98.3818 367.03C96.0924 368.313 93.4785 368.897 90.8604 368.715L84.0394 368.239C83.0333 368.169 82.0672 368.647 81.5159 369.491L80.1509 370.483C78.5528 372.925 77.1811 373.387 74.2625 373.346C71.3237 372.646 68.2323 373.562 66.1511 375.752C65.6067 376.327 65.0245 376.866 64.4127 377.369L61.1832 380.017C58.9009 381.888 55.7801 382.365 53.0445 381.258C52.9106 381.204 52.7772 381.15 52.6449 381.096C52.3605 380.981 52.0813 380.868 51.8141 380.76C50.4828 380.221 48.9662 380.845 48.393 382.179L48.3639 382.244C47.5807 384.064 46.043 385.453 44.1526 386.049L43.1769 386.357C42.1571 386.677 41.0715 386.734 40.0227 386.526C37.31 385.987 36.3534 384.851 35.5341 383.878C34.1299 382.211 33.1287 381.022 24.38 384.136L24.2845 384.166C21.4229 385.046 18.4781 383.06 18.2196 380.079C18.1993 379.832 18.1858 379.58 18.1786 379.321C18.1739 379.13 18.1694 378.942 18.1651 378.758C18.0806 375.172 18.022 372.684 16.1062 369.876L15.6824 369.094L15.6853 369.097C15.1008 368.361 14.5108 367.343 14.2263 366.258C11.7438 365.935 9.59003 364.135 8.9407 361.562L5.03056 346.065L5.0325 346.065L5.05892 346.058C-3.6689 306.492 20.5905 266.895 60.1466 256.914Z"/>
</mask>
<path fill-rule="evenodd" clip-rule="evenodd" d="M60.1466 256.914C99.7039 246.932 139.849 270.278 150.94 309.249L150.967 309.243L154.877 324.739C155.372 326.702 154.884 328.683 153.723 330.161C155.892 331.286 156.39 334.236 156.9 337.261C156.923 337.397 156.946 337.533 156.969 337.669C157.165 338.823 157.435 339.964 157.775 341.084L159.256 345.959C160.251 348.83 160.205 351.213 158.434 352.444C157.763 353.211 155.489 353.83 154.374 353.94L150.465 354.108C148.183 354.207 145.956 354.847 143.97 355.977L143.773 356.088C142.208 356.978 140.466 357.516 138.672 357.665L138.632 357.669C138.19 357.705 137.746 357.701 137.304 357.656L135.066 357.429C134.054 357.325 133.036 357.587 132.198 358.167C131.672 358.533 131.547 358.633 131.267 358.858L131.258 358.866C130.939 359.12 130.346 359.367 129.547 359.453C129.303 359.48 129.055 359.471 128.811 359.442L128.124 359.356C127.145 358.945 126.128 359.039 125.44 359.682C125.381 359.737 125.326 359.79 125.274 359.841C125.13 359.981 125.009 360.1 124.898 360.153C123.674 360.745 122.323 361.031 120.964 360.983L120.419 360.965C119.52 361.191 118.642 361.493 117.791 361.864L114.412 363.342C113.25 363.851 111.992 364.101 110.725 364.078L106.905 364.004C104.932 363.965 102.986 364.453 101.266 365.416L98.3818 367.03C96.0924 368.313 93.4785 368.897 90.8604 368.715L84.0394 368.239C83.0333 368.169 82.0672 368.647 81.5159 369.491L80.1509 370.483C78.5528 372.925 77.1811 373.387 74.2625 373.346C71.3237 372.646 68.2323 373.562 66.1511 375.752C65.6067 376.327 65.0245 376.866 64.4127 377.369L61.1832 380.017C58.9009 381.888 55.7801 382.365 53.0445 381.258C52.9106 381.204 52.7772 381.15 52.6449 381.096C52.3605 380.981 52.0813 380.868 51.8141 380.76C50.4828 380.221 48.9662 380.845 48.393 382.179L48.3639 382.244C47.5807 384.064 46.043 385.453 44.1526 386.049L43.1769 386.357C42.1571 386.677 41.0715 386.734 40.0227 386.526C37.31 385.987 36.3534 384.851 35.5341 383.878C34.1299 382.211 33.1287 381.022 24.38 384.136L24.2845 384.166C21.4229 385.046 18.4781 383.06 18.2196 380.079C18.1993 379.832 18.1858 379.58 18.1786 379.321C18.1739 379.13 18.1694 378.942 18.1651 378.758C18.0806 375.172 18.022 372.684 16.1062 369.876L15.6824 369.094L15.6853 369.097C15.1008 368.361 14.5108 367.343 14.2263 366.258C11.7438 365.935 9.59003 364.135 8.9407 361.562L5.03056 346.065L5.0325 346.065L5.05892 346.058C-3.6689 306.492 20.5905 266.895 60.1466 256.914Z" fill="#F9FBE3"/>
<path d="M150.94 309.249L149.978 309.523L150.243 310.456L151.184 310.219L150.94 309.249ZM60.1466 256.914L60.3912 257.883L60.1466 256.914ZM150.967 309.243L151.936 308.998L151.692 308.028L150.722 308.273L150.967 309.243ZM154.877 324.739L155.846 324.495L155.846 324.495L154.877 324.739ZM153.723 330.161L152.936 329.544L152.191 330.493L153.262 331.049L153.723 330.161ZM156.9 337.261L155.914 337.428L155.914 337.428L156.9 337.261ZM156.969 337.669L157.955 337.502L157.955 337.501L156.969 337.669ZM157.775 341.084L156.818 341.374L156.818 341.375L157.775 341.084ZM159.256 345.959L158.299 346.249L158.304 346.268L158.311 346.286L159.256 345.959ZM158.434 352.444L157.864 351.623L157.763 351.693L157.682 351.785L158.434 352.444ZM154.374 353.94L154.417 354.939L154.444 354.938L154.471 354.935L154.374 353.94ZM150.465 354.108L150.508 355.107L150.508 355.107L150.465 354.108ZM143.97 355.977L144.461 356.848L144.465 356.846L143.97 355.977ZM143.773 356.088L143.282 355.217L143.279 355.219L143.773 356.088ZM138.672 357.665L138.589 356.668L138.576 356.67L138.672 357.665ZM138.632 357.669L138.713 358.666L138.721 358.665L138.728 358.664L138.632 357.669ZM137.304 357.656L137.203 358.651L137.205 358.651L137.304 357.656ZM135.066 357.429L134.964 358.423L134.965 358.423L135.066 357.429ZM132.198 358.167L131.629 357.345L131.627 357.346L132.198 358.167ZM131.267 358.858L130.641 358.079L130.641 358.079L131.267 358.858ZM131.258 358.866L131.882 359.647L131.885 359.645L131.258 358.866ZM129.547 359.453L129.653 360.448L129.655 360.448L129.547 359.453ZM128.811 359.442L128.687 360.434L128.691 360.434L128.811 359.442ZM128.124 359.356L127.738 360.278L127.864 360.331L128 360.348L128.124 359.356ZM125.44 359.682L126.121 360.414L126.123 360.412L125.44 359.682ZM125.274 359.841L124.576 359.125L124.576 359.125L125.274 359.841ZM124.898 360.153L124.464 359.252L124.463 359.253L124.898 360.153ZM120.964 360.983L120.999 359.984L120.998 359.984L120.964 360.983ZM120.419 360.965L120.453 359.965L120.312 359.96L120.175 359.995L120.419 360.965ZM117.791 361.864L117.392 360.947L117.391 360.948L117.791 361.864ZM114.412 363.342L114.011 362.426L114.011 362.426L114.412 363.342ZM110.725 364.078L110.706 365.077L110.707 365.077L110.725 364.078ZM106.905 364.004L106.885 365.004L106.886 365.004L106.905 364.004ZM101.266 365.416L101.754 366.289L101.754 366.289L101.266 365.416ZM98.3818 367.03L97.8934 366.158L97.8931 366.158L98.3818 367.03ZM90.8604 368.715L90.7908 369.712L90.7909 369.712L90.8604 368.715ZM84.0394 368.239L84.109 367.242L84.1089 367.242L84.0394 368.239ZM81.5159 369.491L82.1037 370.3L82.2526 370.192L82.3532 370.038L81.5159 369.491ZM80.1509 370.483L79.5631 369.674L79.4146 369.782L79.3141 369.935L80.1509 370.483ZM74.2625 373.346L74.0309 374.319L74.1381 374.344L74.2483 374.346L74.2625 373.346ZM66.1511 375.752L65.4262 375.064L65.4251 375.065L66.1511 375.752ZM64.4127 377.369L65.0467 378.142L65.0477 378.141L64.4127 377.369ZM61.1832 380.017L60.5492 379.243L60.5491 379.243L61.1832 380.017ZM53.0445 381.258L52.6692 382.185L52.6695 382.185L53.0445 381.258ZM52.6449 381.096L53.0207 380.169L53.0206 380.169L52.6449 381.096ZM51.8141 380.76L51.4389 381.687L51.4407 381.688L51.8141 380.76ZM48.393 382.179L49.3056 382.588L49.3087 382.581L49.3117 382.574L48.393 382.179ZM48.3639 382.244L47.4513 381.835L47.4482 381.842L47.4453 381.849L48.3639 382.244ZM44.1526 386.049L43.8521 385.095L43.8521 385.095L44.1526 386.049ZM43.1769 386.357L43.4768 387.311L43.4775 387.31L43.1769 386.357ZM40.0227 386.526L39.8278 387.507L39.8285 387.507L40.0227 386.526ZM35.5341 383.878L36.2991 383.234L36.2991 383.234L35.5341 383.878ZM24.38 384.136L24.6799 385.09L24.6978 385.085L24.7154 385.078L24.38 384.136ZM24.2845 384.166L24.5783 385.122L24.5844 385.12L24.2845 384.166ZM18.2196 380.079L17.223 380.161L17.2233 380.165L18.2196 380.079ZM18.1786 379.321L17.1789 379.345L17.179 379.348L18.1786 379.321ZM18.1651 378.758L19.1648 378.734L19.1648 378.734L18.1651 378.758ZM16.1062 369.876L15.2271 370.352L15.2514 370.397L15.2801 370.439L16.1062 369.876ZM15.6824 369.094L16.4419 368.443L14.8032 369.57L15.6824 369.094ZM15.6853 369.097L14.9258 369.748L16.4685 368.475L15.6853 369.097ZM14.2263 366.258L15.1936 366.004L15.0228 365.353L14.3554 365.266L14.2263 366.258ZM8.9407 361.562L9.91031 361.317L8.9407 361.562ZM5.03056 346.065L4.78457 345.096L3.81663 345.342L4.06095 346.31L5.03056 346.065ZM5.0325 346.065L4.78777 345.095L4.78651 345.095L5.0325 346.065ZM5.05892 346.058L5.30364 347.028L6.24446 346.79L6.03544 345.843L5.05892 346.058ZM151.901 308.976C140.663 269.486 99.985 245.83 59.9019 255.944L60.3912 257.883C99.4228 248.035 139.035 271.07 149.978 309.523L151.901 308.976ZM150.722 308.273L150.695 308.28L151.184 310.219L151.211 310.212L150.722 308.273ZM155.846 324.495L151.936 308.998L149.997 309.487L153.907 324.984L155.846 324.495ZM154.509 330.779C155.853 329.068 156.421 326.77 155.846 324.495L153.907 324.984C154.323 326.633 153.914 328.298 152.936 329.544L154.509 330.779ZM157.886 337.095C157.635 335.606 157.37 334.015 156.872 332.655C156.371 331.283 155.581 329.999 154.183 329.274L153.262 331.049C154.033 331.449 154.577 332.202 154.994 333.342C155.416 334.495 155.655 335.891 155.914 337.428L157.886 337.095ZM157.955 337.501C157.932 337.366 157.909 337.231 157.886 337.095L155.914 337.428C155.937 337.563 155.96 337.7 155.983 337.837L157.955 337.501ZM158.732 340.794C158.404 339.714 158.143 338.613 157.955 337.502L155.983 337.836C156.186 339.033 156.466 340.215 156.818 341.374L158.732 340.794ZM160.212 345.668L158.732 340.794L156.818 341.375L158.299 346.249L160.212 345.668ZM159.005 353.265C160.173 352.453 160.746 351.259 160.877 349.914C161.006 348.604 160.722 347.136 160.2 345.631L158.311 346.286C158.785 347.654 158.976 348.812 158.887 349.719C158.802 350.591 158.466 351.204 157.864 351.623L159.005 353.265ZM154.471 354.935C155.117 354.871 156.039 354.67 156.887 354.387C157.315 354.244 157.748 354.072 158.132 353.874C158.5 353.685 158.897 353.433 159.187 353.102L157.682 351.785C157.636 351.838 157.497 351.951 157.215 352.097C156.949 352.234 156.618 352.368 156.254 352.49C155.519 352.735 154.745 352.898 154.276 352.944L154.471 354.935ZM150.508 355.107L154.417 354.939L154.33 352.941L150.422 353.109L150.508 355.107ZM144.465 356.846C146.312 355.795 148.385 355.199 150.508 355.107L150.422 353.109C147.981 353.214 145.599 353.899 143.476 355.108L144.465 356.846ZM144.265 356.959L144.461 356.848L143.479 355.106L143.282 355.217L144.265 356.959ZM138.755 358.662C140.693 358.5 142.575 357.919 144.267 356.958L143.279 355.219C141.84 356.036 140.238 356.531 138.589 356.668L138.755 358.662ZM138.728 358.664L138.768 358.66L138.576 356.67L138.536 356.673L138.728 358.664ZM137.205 358.651C137.706 358.702 138.21 358.707 138.713 358.666L138.55 356.672C138.169 356.703 137.786 356.7 137.404 356.661L137.205 358.651ZM134.965 358.423L137.203 358.651L137.406 356.662L135.167 356.434L134.965 358.423ZM132.767 358.99C133.41 358.545 134.19 358.344 134.964 358.423L135.168 356.434C133.918 356.306 132.662 356.63 131.629 357.345L132.767 358.99ZM131.894 359.638C132.157 359.427 132.263 359.34 132.769 358.988L131.627 357.346C131.081 357.726 130.938 357.84 130.641 358.079L131.894 359.638ZM131.885 359.645L131.894 359.638L130.641 358.079L130.632 358.086L131.885 359.645ZM129.655 360.448C130.578 360.348 131.371 360.055 131.882 359.647L130.635 358.084C130.507 358.186 130.113 358.387 129.44 358.459L129.655 360.448ZM128.691 360.434C128.991 360.471 129.317 360.484 129.653 360.448L129.441 358.459C129.288 358.475 129.119 358.472 128.932 358.449L128.691 360.434ZM128 360.348L128.687 360.434L128.935 358.449L128.249 358.363L128 360.348ZM126.123 360.412C126.452 360.105 127.022 359.978 127.738 360.278L128.511 358.433C127.267 357.913 125.803 357.973 124.757 358.952L126.123 360.412ZM125.972 360.557C126.026 360.505 126.073 360.459 126.121 360.414L124.758 358.95C124.69 359.014 124.627 359.075 124.576 359.125L125.972 360.557ZM125.332 361.054C125.506 360.97 125.643 360.86 125.728 360.786C125.817 360.709 125.906 360.621 125.972 360.557L124.576 359.125C124.539 359.161 124.509 359.19 124.482 359.216C124.454 359.242 124.434 359.261 124.419 359.274C124.404 359.287 124.4 359.29 124.403 359.287C124.407 359.284 124.428 359.27 124.464 359.252L125.332 361.054ZM120.928 361.983C122.451 362.036 123.964 361.716 125.334 361.053L124.463 359.253C123.385 359.774 122.195 360.026 120.999 359.984L120.928 361.983ZM120.385 361.964L120.93 361.983L120.998 359.984L120.453 359.965L120.385 361.964ZM118.191 362.781C118.993 362.431 119.819 362.147 120.664 361.934L120.175 359.995C119.222 360.235 118.291 360.555 117.392 360.947L118.191 362.781ZM114.813 364.258L118.192 362.78L117.391 360.948L114.011 362.426L114.813 364.258ZM110.707 365.077C112.117 365.104 113.518 364.825 114.813 364.258L114.011 362.426C112.981 362.877 111.866 363.099 110.744 363.078L110.707 365.077ZM106.886 365.004L110.706 365.077L110.745 363.078L106.924 363.004L106.886 365.004ZM101.754 366.289C103.32 365.412 105.09 364.968 106.885 365.004L106.924 363.004C104.774 362.962 102.653 363.494 100.777 364.544L101.754 366.289ZM98.8701 367.903L101.754 366.289L100.778 364.543L97.8934 366.158L98.8701 367.903ZM90.7909 369.712C93.6029 369.908 96.4109 369.28 98.8704 367.903L97.8931 366.158C95.7739 367.345 93.354 367.886 90.9299 367.717L90.7909 369.712ZM83.9698 369.237L90.7908 369.712L90.93 367.717L84.109 367.242L83.9698 369.237ZM82.3532 370.038C82.7054 369.499 83.3238 369.192 83.9699 369.237L84.1089 367.242C82.7427 367.146 81.429 367.796 80.6787 368.944L82.3532 370.038ZM80.7387 371.292L82.1037 370.3L80.9282 368.682L79.5631 369.674L80.7387 371.292ZM74.2483 374.346C75.7379 374.367 76.9987 374.268 78.1183 373.755C79.2637 373.23 80.1345 372.334 80.9877 371.031L79.3141 369.935C78.5692 371.074 77.9552 371.63 77.2855 371.937C76.5901 372.255 75.7057 372.366 74.2767 372.346L74.2483 374.346ZM66.876 376.441C68.7115 374.51 71.4384 373.701 74.0309 374.319L74.4941 372.373C71.209 371.591 67.7531 372.615 65.4262 375.064L66.876 376.441ZM65.0477 378.141C65.6897 377.614 66.3025 377.047 66.877 376.44L65.4251 375.065C64.9109 375.608 64.3593 376.118 63.7777 376.596L65.0477 378.141ZM61.8172 380.79L65.0467 378.142L63.7787 376.596L60.5492 379.243L61.8172 380.79ZM52.6695 382.185C55.7445 383.429 59.2524 382.893 61.8173 380.79L60.5491 379.243C58.5495 380.883 55.8156 381.301 53.4195 380.331L52.6695 382.185ZM52.2691 382.023C52.4014 382.077 52.535 382.131 52.6692 382.185L53.4198 380.331C53.2862 380.277 53.153 380.223 53.0207 380.169L52.2691 382.023ZM51.4407 381.688C51.7065 381.795 51.9845 381.907 52.2691 382.023L53.0206 380.169C52.7365 380.054 52.4561 379.941 52.1875 379.832L51.4407 381.688ZM49.3117 382.574C49.6716 381.736 50.6155 381.354 51.4389 381.687L52.1892 379.833C50.3502 379.089 48.2607 379.954 47.4742 381.784L49.3117 382.574ZM49.2765 382.653L49.3056 382.588L47.4804 381.77L47.4513 381.835L49.2765 382.653ZM44.4532 387.003C46.6208 386.32 48.3842 384.727 49.2825 382.639L47.4453 381.849C46.7771 383.402 45.4651 384.587 43.8521 385.095L44.4532 387.003ZM43.4775 387.31L44.4532 387.003L43.8521 385.095L42.8764 385.403L43.4775 387.31ZM39.8285 387.507C41.0401 387.747 42.2957 387.682 43.4768 387.311L42.8771 385.403C42.0186 385.673 41.1029 385.721 40.217 385.545L39.8285 387.507ZM34.7692 384.522C35.1777 385.008 35.6965 385.629 36.4977 386.186C37.3067 386.748 38.3562 387.215 39.8278 387.507L40.2177 385.546C38.9765 385.299 38.1914 384.928 37.6391 384.544C37.079 384.155 36.7098 383.722 36.2991 383.234L34.7692 384.522ZM24.7154 385.078C29.092 383.52 31.3488 383.112 32.6349 383.211C33.2333 383.257 33.5895 383.411 33.8587 383.598C34.1596 383.807 34.4035 384.088 34.7692 384.522L36.2991 383.234C35.9627 382.835 35.5548 382.341 34.9997 381.956C34.4127 381.548 33.7086 381.287 32.7876 381.217C31.0349 381.083 28.4167 381.638 24.0446 383.194L24.7154 385.078ZM24.5844 385.12L24.6799 385.09L24.0801 383.182L23.9846 383.212L24.5844 385.12ZM17.2233 380.165C17.5369 383.781 21.1078 386.189 24.5783 385.122L23.9908 383.21C21.738 383.903 19.4194 382.34 19.2159 379.992L17.2233 380.165ZM17.179 379.348C17.1866 379.625 17.2011 379.895 17.223 380.161L19.2162 379.997C19.1975 379.77 19.185 379.536 19.1782 379.293L17.179 379.348ZM17.1654 378.781C17.1697 378.966 17.1741 379.154 17.1789 379.345L19.1783 379.296C19.1736 379.106 19.1692 378.919 19.1648 378.734L17.1654 378.781ZM15.2801 370.439C17.0092 372.974 17.0804 375.175 17.1654 378.781L19.1648 378.734C19.0808 375.169 19.0348 372.394 16.9323 369.312L15.2801 370.439ZM14.8032 369.57L15.2271 370.352L16.9854 369.399L16.5615 368.617L14.8032 369.57ZM16.4448 368.447L16.4419 368.443L14.9229 369.744L14.9258 369.748L16.4448 368.447ZM13.259 366.512C13.5868 367.761 14.2534 368.902 14.902 369.719L16.4685 368.475C15.9482 367.82 15.4349 366.924 15.1936 366.004L13.259 366.512ZM7.97109 361.807C8.72426 364.792 11.222 366.875 14.0972 367.25L14.3554 365.266C12.2657 364.994 10.4558 363.479 9.91031 361.317L7.97109 361.807ZM4.06095 346.31L7.97109 361.807L9.91031 361.317L6.00017 345.821L4.06095 346.31ZM4.78651 345.095L4.78457 345.096L5.27654 347.034L5.27848 347.034L4.78651 345.095ZM4.81419 345.088L4.78777 345.095L5.27722 347.034L5.30364 347.028L4.81419 345.088ZM59.9019 255.944C19.82 266.058 -4.7615 306.181 4.08239 346.273L6.03544 345.843C-2.57629 306.803 21.361 267.732 60.3912 257.883L59.9019 255.944Z" fill="black" mask="url(#path-286-inside-1_1350_295)"/>
<path d="M21.2353 355.956L18.3519 344.53L23.6912 343.182L24.1611 345.048L20.8614 345.88L21.5776 348.716L24.4778 347.984L24.9514 349.865L22.0513 350.597L22.7877 353.514L26.1831 352.658L26.6708 354.587L21.2358 355.958L21.2353 355.956Z" fill="black"/>
<path d="M34.6061 352.582L32.5816 353.093L29.6982 341.667L32.7109 340.906C34.9268 340.347 36.0999 340.967 36.6096 342.992L37.1011 344.936C37.5765 346.816 36.937 348.181 34.7211 348.741L33.7006 348.995L34.6066 352.584L34.6061 352.582ZM33.2471 347.195L34.1569 346.968C34.9683 346.762 35.2432 346.235 35.0343 345.406L34.5724 343.572C34.3513 342.695 33.9044 342.47 33.0757 342.678L32.1659 342.906L33.249 347.195L33.2471 347.195Z" fill="black"/>
<path d="M45.1885 345.554L41.0115 338.811L43.1468 338.272L45.3409 342.126L45.713 343.066L45.5956 342.061L45.7449 337.615L47.8652 337.08L47.3083 345.017L48.3413 349.114L46.221 349.649L45.1881 345.553L45.1885 345.554Z" fill="black"/>
<path d="M54.9666 343.936L53.7448 339.091C53.1536 336.748 54.1031 335.339 56.1113 334.833C58.3103 334.278 59.6166 335.016 60.1999 337.328L60.554 338.73L58.37 339.281L58.0556 338.039C57.753 336.843 57.4375 336.465 56.5619 336.686C55.7332 336.895 55.6158 337.502 55.9124 338.681L57.0625 343.239C57.3609 344.418 57.7322 344.883 58.5927 344.666C59.4064 344.461 59.5318 343.886 59.2493 342.771L58.8792 341.305L61.0782 340.749L61.4839 342.358C62.076 344.769 61.1495 346.071 59.0612 346.598C56.9259 347.137 55.5737 346.343 54.9647 343.936L54.9666 343.936Z" fill="black"/>
<path d="M75.2517 339.343L74.8656 337.813L77.0009 337.274L77.3789 338.771C77.5621 339.505 77.9283 339.87 78.7569 339.661C79.5073 339.474 79.6444 338.945 79.4832 338.308L79.3357 337.717C79.2542 337.398 79.1098 337.163 78.8739 336.969C78.4309 336.624 77.7608 336.454 77.0438 336.296C76.6284 336.197 76.2091 336.082 75.812 335.912C74.9853 335.595 74.2985 335.023 74.0019 333.843L73.8825 333.365C73.4346 331.596 74.1374 330.284 76.1939 329.765C78.2504 329.245 79.4277 330.017 79.8493 331.69L80.1637 332.932L78.1391 333.444L77.8604 332.328C77.6692 331.578 77.3138 331.312 76.6127 331.489C75.9261 331.661 75.7698 332.176 75.9432 332.862L76.0228 333.181C76.0987 333.485 76.2407 333.703 76.463 333.851C76.8981 334.164 77.5475 334.323 78.2495 334.485C78.6649 334.584 79.071 334.718 79.4982 334.864C80.3249 335.182 81.0305 335.765 81.3331 336.961L81.5523 337.839C82.0138 339.655 81.25 341.001 79.1949 341.519C76.8196 342.118 75.7473 341.287 75.2559 339.344L75.2517 339.343Z" fill="black"/>
<path d="M87.1882 335.804L85.9665 330.959C85.3753 328.616 86.3248 327.207 88.333 326.701C90.532 326.146 91.8383 326.884 92.4215 329.196L92.7757 330.598L90.5917 331.149L90.2773 329.906C89.9747 328.711 89.6592 328.333 88.7836 328.554C87.9549 328.763 87.8371 329.368 88.1336 330.547L89.2837 335.105C89.5821 336.284 89.9534 336.749 90.8139 336.532C91.6276 336.327 91.753 335.752 91.4705 334.637L91.1004 333.171L93.2994 332.615L93.7051 334.224C94.2973 336.635 93.3707 337.937 91.2824 338.464C89.1471 339.003 87.7949 338.209 87.1859 335.802L87.1882 335.804Z" fill="black"/>
<path d="M100.515 335.949L97.6312 324.523L102.971 323.175L103.44 325.041L100.141 325.873L100.857 328.709L103.757 327.977L104.231 329.858L101.331 330.59L102.067 333.507L105.462 332.651L105.95 334.58L100.515 335.951L100.515 335.949Z" fill="black"/>
<path d="M111.861 333.086L108.978 321.659L110.812 321.197L115.066 326.973L115.79 328.163L115.287 326.646L113.727 320.463L115.593 319.993L118.476 331.42L116.691 331.87L112.362 326.064L111.618 324.794L112.175 326.467L113.727 332.618L111.862 333.088L111.861 333.086Z" fill="black"/>
<path d="M124.72 329.841L121.836 318.414L127.176 317.067L127.645 318.933L124.346 319.765L125.062 322.601L127.962 321.869L128.436 323.749L125.536 324.482L126.272 327.399L129.667 326.543L130.155 328.472L124.72 329.843L124.72 329.841Z" fill="black"/>
<path d="M135.056 324.25L134.67 322.721L136.806 322.181L137.184 323.679C137.367 324.413 137.733 324.778 138.562 324.569C139.312 324.381 139.449 323.853 139.288 323.216L139.14 322.625C139.059 322.306 138.914 322.071 138.679 321.877C138.236 321.531 137.565 321.362 136.849 321.204C136.433 321.105 136.014 320.99 135.617 320.82C134.79 320.503 134.103 319.931 133.807 318.751L133.687 318.273C133.239 316.503 133.942 315.192 135.999 314.672C138.055 314.153 139.232 314.925 139.654 316.598L139.968 317.84L137.944 318.352L137.665 317.236C137.474 316.486 137.119 316.22 136.417 316.397C135.731 316.569 135.575 317.084 135.748 317.77L135.827 318.089C135.903 318.393 136.045 318.611 136.268 318.758C136.703 319.072 137.352 319.231 138.054 319.393C138.47 319.492 138.876 319.626 139.303 319.772C140.13 320.09 140.836 320.675 141.138 321.869L141.357 322.747C141.818 324.563 141.055 325.909 139 326.426C136.624 327.026 135.552 326.195 135.061 324.251L135.056 324.25Z" fill="black"/>
<path opacity="0.2" d="M141.324 309.297C131.55 275.25 96.4394 254.87 61.841 263.601C27.2427 272.333 6.00675 306.93 13.5572 341.538L141.323 309.295L141.324 309.297Z" fill="#FF606E"/>
<path opacity="0.2" d="M133.834 311.185C125.106 281.271 94.1947 263.398 63.7299 271.085C33.2669 278.772 14.5368 309.174 21.0486 339.647L133.834 311.185Z" fill="#FF606E"/>
<path opacity="0.23" d="M126.375 313.068C118.691 287.272 91.9583 271.892 65.6125 278.541C39.2667 285.19 23.0324 311.413 28.509 337.764L126.375 313.068Z" fill="#FF606E"/>
<path opacity="0.39" d="M118.218 315.127C111.678 293.832 89.5118 281.178 67.6673 286.691C45.8227 292.204 32.3137 313.858 36.6618 335.707L118.215 315.126L118.218 315.127Z" fill="#FF606E"/>
<path opacity="0.76" d="M109.73 317.268C104.382 300.652 86.9711 290.83 69.8061 295.163C52.641 299.495 41.9741 316.402 45.1519 333.564L109.728 317.269L109.73 317.268Z" fill="#FF606E"/>
<path d="M101.349 319.383C97.1861 307.383 84.4622 300.355 71.9161 303.52C59.3704 306.687 51.5039 318.911 53.535 331.449L101.351 319.383L101.349 319.383Z" fill="#FFE462"/>
<path d="M36.0601 368.997L36.9314 369.11L36.7097 373.753L36.4696 373.813C35.7906 373.703 34.6515 373.85 33.0429 374.256L23.4218 376.685L23.1533 376.024C23.8343 375.687 24.2026 374.967 23.9609 374.007L20.8273 361.587C20.5884 360.638 19.9161 360.156 19.1568 360.18L19.0764 359.459L31.5807 356.302L33.4965 359.537L32.7967 360.007C32.746 359.955 32.6734 359.872 32.573 359.781C32.4727 359.691 32.2448 359.544 31.874 359.344C31.5031 359.144 31.1045 358.976 30.6773 358.854C29.815 358.625 28.2337 358.589 26.552 359.013C25.6145 359.249 24.6624 359.579 23.6958 360.001L25.2024 365.97L30.416 364.655C31.3291 364.425 31.8953 363.731 31.8599 362.935L32.6055 362.848L33.5181 366.566L32.8446 366.838C32.5071 366.157 31.6584 365.783 30.781 366.004L25.543 367.326L27.2257 373.993C28.6828 373.842 29.9687 373.621 31.0586 373.333C32.6315 372.936 33.9846 372.122 34.669 371.335C35.3436 370.565 35.8343 369.776 35.962 369.322L36.0568 368.991L36.0601 368.997Z" fill="black" stroke="black" stroke-miterlimit="10"/>
<path d="M48.1101 358.416C49.6114 359.457 50.6179 360.965 51.1247 362.971C51.6227 364.941 51.4788 366.703 50.7046 368.239C49.9337 369.789 48.664 370.786 46.911 371.227C45.218 371.654 43.6504 371.322 42.1917 370.246L42.0829 370.273L43.1567 374.524C43.3956 375.473 44.06 375.931 44.8211 375.906L44.9015 376.628L39.9519 377.876L39.6806 377.204C40.3616 376.867 40.7351 376.12 40.5022 375.195L37.4975 363.291C37.2586 362.342 36.5811 361.887 35.82 361.912L35.7395 361.191C36.7802 360.762 37.7324 359.922 38.6087 358.691L38.9089 358.616L39.5147 360.507L39.6104 360.483C40.3785 358.922 41.5881 357.941 43.2094 357.53C44.9624 357.088 46.5952 357.378 48.1097 358.415L48.1101 358.416ZM48.6835 367.983C49.0875 366.999 49.1417 365.899 48.8316 364.673C48.4137 363.016 47.6314 361.591 46.4781 360.412C45.3248 359.234 44.1047 358.801 42.8076 359.129C41.8232 359.377 41.1294 359.974 40.7212 360.933C40.3111 361.893 40.2714 363.003 40.59 364.262C40.85 365.295 41.2614 366.265 41.8366 367.179C42.4118 368.094 43.1202 368.824 43.9833 369.36C44.8465 369.895 45.7295 370.056 46.6314 369.828C47.5801 369.589 48.2659 368.968 48.6835 367.983Z" fill="black" stroke="black" stroke-miterlimit="10"/>
<path d="M62.6658 353.249C63.0891 353.564 63.3798 354.002 63.5259 354.579C63.8239 355.756 63.7253 357.748 63.236 360.568C62.9687 362.347 62.7193 363.79 62.4761 364.899C62.2362 366.021 61.8705 367.262 61.3914 368.648C60.9178 370.263 60.4091 371.49 59.8856 372.298C59.362 373.106 58.6988 373.619 57.917 373.816C57.388 373.948 56.8919 373.908 56.438 373.679C55.9841 373.45 55.6916 373.1 55.5698 372.62C55.3397 371.707 55.8337 370.932 56.6863 370.715C57.0597 370.622 57.4554 370.675 57.8648 370.877C58.2741 371.08 58.539 371.167 58.6704 371.135C58.9461 371.066 59.2008 370.809 59.4382 370.379C59.6756 369.949 59.9262 369.221 60.2065 368.204L60.4843 367.33L59.8465 367.489L53.7054 359.201C53.0327 358.311 52.1231 357.941 50.984 358.087L50.9035 357.366C51.3706 357.146 51.8645 356.817 52.3922 356.377C52.9203 355.938 53.3214 355.453 53.5813 354.914L53.9059 354.833L61.0989 364.452L61.2433 364.416L61.2494 364.44C61.5025 363.163 61.713 361.819 61.8625 360.439C62.0846 359.245 62.21 358.423 62.2331 357.957C62.2595 357.504 62.2099 357.106 62.1101 356.762C61.9373 355.823 60.1646 356.09 59.9187 354.81C59.7037 353.957 60.2483 353.233 61.161 353.001C61.7388 352.857 62.2419 352.932 62.6672 353.247L62.6658 353.249Z" fill="black" stroke="black" stroke-miterlimit="10"/>
<path d="M69.0038 363.52C67.3581 362.516 66.2818 361.039 65.7946 359.104C65.2755 357.05 65.5095 355.241 66.4797 353.668C67.4527 352.106 68.9053 351.075 70.8384 350.588C72.3889 350.197 73.7821 350.254 75.0195 350.748C76.2579 351.254 76.9874 351.965 77.2169 352.876C77.3102 353.249 77.2758 353.614 77.0938 353.955C76.9117 354.295 76.6233 354.521 76.25 354.614C74.8928 354.957 74.3496 353.612 73.5569 352.648C73.006 351.982 72.0368 351.589 70.6547 351.936C69.6816 352.181 68.9471 352.815 68.4361 353.825C67.928 354.847 67.8311 355.983 68.1454 357.234C68.6345 359.168 69.4689 360.554 70.6448 361.369C71.8094 362.186 73.2167 362.394 74.8379 361.984C75.691 361.769 76.3964 361.321 76.9743 360.627C77.5551 359.944 77.9365 359.221 78.1266 358.458L78.8291 358.51C78.8714 359.789 78.5316 360.973 77.8204 362.06C77.1012 363.162 75.9465 363.901 74.3735 364.298C72.439 364.787 70.6491 364.522 69.0015 363.519L69.0038 363.52Z" fill="black" stroke="black" stroke-miterlimit="10"/>
<path d="M97.6766 339.163L100.125 343.247L99.4438 343.79C99.3871 343.714 99.2985 343.623 99.1808 343.511C99.0636 343.4 98.802 343.223 98.3889 342.957C97.9758 342.692 97.552 342.478 97.0873 342.302C96.6226 342.125 96.0322 342.019 95.2937 341.974C94.5584 341.943 93.7982 342.019 93.0051 342.219L96.4127 355.721C96.6516 356.67 97.2063 357.143 98.08 357.114L98.1571 357.822L92.8122 359.171L92.5437 358.51C93.2247 358.173 93.6042 357.45 93.3625 356.49L89.9549 342.989L89.9061 343.001C88.3332 343.398 87.033 344.224 86.3646 345.019C85.6961 345.814 85.2326 346.607 85.111 347.086L85.0059 347.431L84.137 347.279L84.3431 342.527L84.5945 342.464C85.2468 342.618 86.2916 342.508 87.73 342.131L94.5165 340.419C95.9694 340.052 96.9421 339.653 97.4342 339.222L97.6743 339.162L97.6766 339.163Z" fill="black" stroke="black" stroke-miterlimit="10"/>
<path d="M111.702 351.851C112.269 351.159 112.637 350.44 112.816 349.68L113.507 349.734C113.6 350.962 113.236 352.153 112.413 353.294C111.59 354.434 110.392 355.209 108.819 355.606C106.898 356.092 105.12 355.836 103.502 354.839C101.871 353.846 100.804 352.352 100.298 350.346C99.7967 348.365 100.022 346.571 100.976 344.987C101.919 343.409 103.336 342.385 105.222 341.91C106.603 341.561 107.834 341.583 108.92 341.987C110.005 342.39 110.854 343.019 111.455 343.877C111.826 344.384 112.186 344.651 112.526 344.68L112.928 345.562L103.564 350.786C104.803 353.067 106.878 353.899 109.473 353.243C110.397 353.01 111.135 352.542 111.701 351.849L111.702 351.851ZM103.013 345.266C102.552 346.328 102.475 347.485 102.786 348.723C102.837 348.927 102.922 349.213 103.058 349.599L109.581 345.974C109.26 345.057 108.714 344.315 107.935 343.758C107.156 343.201 106.271 343.041 105.287 343.289C104.243 343.552 103.477 344.219 103.013 345.268L103.013 345.266Z" fill="black" stroke="black" stroke-miterlimit="10"/>
<path d="M129.536 349.406C129.15 350.154 128.468 350.647 127.508 350.889C126.08 351.25 125.021 350.751 124.332 349.39L124.236 349.414C124.019 350.274 123.567 350.963 122.898 351.502C122.217 352.045 121.468 352.413 120.65 352.62C119.413 352.933 118.313 352.876 117.348 352.444C116.37 352.014 115.745 351.252 115.468 350.159C115.08 348.622 115.589 347.241 116.943 346.082C117.627 345.501 118.34 344.988 119.109 344.539C119.867 344.104 120.794 343.628 121.882 343.123L121.312 341.669C120.807 340.326 119.738 339.638 118.574 339.933C117.997 340.077 117.556 340.357 117.263 340.763C116.973 341.182 116.895 341.636 117.055 342.118C117.231 342.558 117.226 342.944 117.019 343.289C116.813 343.635 116.521 343.85 116.126 343.949C115.308 344.155 114.672 343.754 114.449 342.877C114.246 342.072 114.487 341.257 115.167 340.407C115.835 339.561 116.91 338.958 118.387 338.585C119.649 338.266 120.835 338.364 121.933 338.865C123.018 339.372 123.828 340.303 124.336 341.657L126.679 347.8C127.123 349.004 127.674 349.517 128.344 349.335C128.608 349.269 128.863 349.114 129.1 348.889L129.536 349.406ZM123.093 349.449C123.514 348.742 123.652 348.018 123.5 347.263L122.213 344.035C119.047 345.511 117.692 347.182 118.171 349.028C118.351 349.748 118.739 350.265 119.332 350.587C119.911 350.913 120.583 350.986 121.315 350.802C122.072 350.611 122.66 350.155 123.092 349.445L123.093 349.449Z" fill="black" stroke="black" stroke-miterlimit="10"/>
<path d="M148.886 342.48C149.222 343.404 149.835 343.863 150.711 343.834L150.788 344.542L145.827 345.794L145.546 345.137C146.305 344.754 146.532 344.084 146.233 343.15L144.301 337.568C143.54 335.205 142.541 334.191 140.933 334.599C140.128 334.8 139.555 335.266 139.241 335.996C138.927 336.726 138.876 337.532 139.102 338.432L140.648 344.559C140.887 345.508 141.43 345.984 142.28 345.961L142.357 346.669L137.408 347.919L137.139 347.259C137.785 346.93 138.153 346.21 137.909 345.251L136.469 339.546C135.866 337.156 134.722 336.166 133.052 336.589C132.223 336.798 131.606 337.287 131.225 338.06C130.833 338.835 130.748 339.661 130.969 340.539L132.503 346.617C132.742 347.565 133.417 348.009 134.183 348.007L134.261 348.715L129.311 349.963L129.042 349.302C129.807 348.892 130.072 348.224 129.85 347.285L128.119 340.427C127.883 339.49 127.332 339.03 126.455 339.045L126.375 338.324C127.359 337.923 128.349 337.084 129.353 335.797L129.653 335.722L130.302 337.985L130.422 337.955C130.938 336.202 131.972 335.137 133.509 334.749C135.311 334.295 136.764 334.733 137.868 336.076L138.001 336.042C138.516 334.29 139.587 333.215 141.184 332.812C143.935 332.118 145.9 333.526 147.066 337.027L148.89 342.483L148.886 342.48Z" fill="black" stroke="black" stroke-miterlimit="10"/>
</g>
</g>
</svg>
