<svg width="260" height="498" viewBox="0 0 260 498" fill="none" xmlns="http://www.w3.org/2000/svg">
<mask id="mask0_1343_9076" style="mask-type:alpha" maskUnits="userSpaceOnUse" x="0" y="0" width="260" height="498">
<rect width="260" height="498" rx="23" fill="#C5C3C4"/>
</mask>
<g mask="url(#mask0_1343_9076)">
<mask id="mask1_1343_9076" style="mask-type:alpha" maskUnits="userSpaceOnUse" x="0" y="0" width="260" height="498">
<rect width="260" height="498" rx="23" fill="#C5C3C4"/>
</mask>
<g mask="url(#mask1_1343_9076)">
<path d="M145.411 -26.7734V502.5" stroke="black"/>
<path d="M101 -26.7734V502.5" stroke="black"/>
<path d="M193 -26.9999V566" stroke="black"/>
<path d="M240.5 -26.9999V566" stroke="black"/>
<path d="M994 257L101 257" stroke="black"/>
<path d="M994 304L101 304" stroke="black"/>
<path d="M994 352L101 352" stroke="black"/>
<path d="M994 19L101 18.9999" stroke="black"/>
<path d="M994 399L101 399" stroke="black"/>
<path d="M994 67L101 66.9999" stroke="black"/>
<path d="M994 447L101 447" stroke="black"/>
<path d="M994 114L101 114" stroke="black"/>
<path d="M994 495L101 495" stroke="black"/>
<path d="M994 162L101 162" stroke="black"/>
<path d="M994 209L101 209" stroke="black"/>
<path d="M58.4023 272.444L173.025 296.972C178.32 298.105 181.691 303.32 180.56 308.609L162.239 394.225L28.4443 365.594L46.7651 279.978C47.8981 274.684 53.1139 271.312 58.4023 272.444Z" fill="#FF7C80" stroke="black" stroke-miterlimit="10"/>
<path d="M161.13 304.286L66.2685 283.986C60.9743 282.854 55.7642 286.227 54.6314 291.521L42.3953 348.702C41.2624 353.996 44.6358 359.206 49.9299 360.339L144.792 380.638C150.086 381.771 155.296 378.398 156.429 373.104L168.665 315.923C169.798 310.629 166.424 305.419 161.13 304.286Z" fill="#FFB3B9" stroke="black" stroke-miterlimit="10"/>
<path d="M28.4429 365.601L8.83508 389.648L167.91 423.689L162.244 394.232L28.4429 365.601Z" fill="#FF7C80" stroke="black" stroke-miterlimit="10"/>
<path d="M168.056 423.72L8.83496 389.648L5.38801 405.756L164.609 439.828L168.056 423.72Z" fill="#FF7C80" stroke="black" stroke-miterlimit="10"/>
<path d="M56.2217 378.378L41.3232 375.19L40.587 378.631L55.4855 381.819L56.2217 378.378Z" fill="#BA3F49"/>
<path d="M54.5518 386.183L39.6533 382.995L38.9171 386.436L53.8156 389.624L54.5518 386.183Z" fill="#BA3F49"/>
<path d="M70.129 385.245L55.2305 382.057L54.4943 385.497L69.3927 388.686L70.129 385.245Z" fill="#BA3F49"/>
<path d="M85.3672 384.615L70.4688 381.427L69.7325 384.868L84.631 388.056L85.3672 384.615Z" fill="#BA3F49"/>
<path d="M83.6973 392.42L68.7988 389.232L68.0626 392.673L82.9611 395.861L83.6973 392.42Z" fill="#BA3F49"/>
<path d="M99.2706 391.481L84.3721 388.293L83.6359 391.733L98.5343 394.921L99.2706 391.481Z" fill="#BA3F49"/>
<path d="M113.942 390.73L99.0439 387.542L98.3077 390.983L113.206 394.171L113.942 390.73Z" fill="#BA3F49"/>
<path d="M112.273 398.535L97.374 395.347L96.6378 398.787L111.536 401.975L112.273 398.535Z" fill="#BA3F49"/>
<path d="M127.846 397.596L112.947 394.407L112.211 397.848L127.11 401.036L127.846 397.596Z" fill="#BA3F49"/>
<path d="M143.083 396.966L128.185 393.778L127.448 397.218L142.347 400.406L143.083 396.966Z" fill="#BA3F49"/>
<path d="M141.413 404.771L126.515 401.583L125.778 405.023L140.677 408.211L141.413 404.771Z" fill="#BA3F49"/>
<path d="M97.0009 303.843C87.3104 310.955 85.9207 327.757 76.6337 327.696C73.219 327.671 70.7085 325.411 70.8153 322.268C71.0092 316.995 76.3124 315.473 77.0263 317.692C75.8052 318.111 74.9232 319.053 74.9244 320.236C74.8966 321.673 76.0648 322.571 77.4471 322.588C81.0923 322.605 86.1095 312.23 88.825 308.66C86.5255 310.939 82.7285 316.147 79.4832 316.132C77.7605 316.132 76.8501 314.831 76.8518 313.249C76.8885 309.246 81.7713 305.707 82.3033 303.221C82.6506 301.598 81.4151 300.628 79.7966 300.676C76.3838 300.791 73.9298 303.406 73.5071 305.382C73.2235 306.707 73.7322 307.776 74.8932 308.024C73.4363 310.198 68.9689 308.765 69.2653 305.122C69.5829 301.262 73.7182 298.186 78.9476 298.435C82.8125 298.613 85.4584 300.508 85.4982 303.085C85.5555 306.263 81.2797 309.728 81.2849 311.426C81.2734 312.015 81.6394 312.265 82.1183 312.285C84.4896 312.283 90.0108 306.059 93.6714 302.291C93.8211 302.126 94.1541 302.026 94.5721 302.032C95.4513 302.023 96.7309 302.52 97.0104 303.857L97.0009 303.843Z" fill="#DD1D35"/>
<path d="M92.741 322.828C90.5224 322.353 89.3901 320.782 89.9221 318.296C90.8248 314.078 95.8355 310.09 99.5998 310.59C101.628 310.884 102.566 312.325 102.046 314.222C101.46 316.303 98.4408 317.462 96.1735 316.977C95.7967 316.896 95.4254 316.759 95.0959 316.606C94.5583 318.049 95.1283 319.099 96.6301 319.477C98.3816 319.878 100.057 319.562 101.08 318.618L101.707 319.4C98.2946 322.542 95.1251 323.332 92.7484 322.823L92.741 322.828ZM99.1774 313.634C97.9565 313.398 96.4194 314.372 95.6921 315.513C99.5803 316.771 101.255 313.964 99.1774 313.634Z" fill="#DD1D35"/>
<path d="M104.373 325.235C103.895 325.215 103.439 325.117 102.994 324.939C101.125 324.285 99.857 322.545 100.285 320.546C100.777 318.248 103.362 315.553 105.958 316.108C107.581 316.456 107.968 317.556 107.571 318.462C107.037 319.619 105.734 319.766 104.895 319.472C105.513 318.956 105.838 317.977 105.135 317.547C103.83 316.784 102.863 318.389 103.006 319.297C103.159 320.036 103.747 320.587 104.519 320.81C106.029 321.272 107.73 320.48 108.207 319.024C108.783 317.253 107.682 315.803 107.851 314.625C108.037 313.222 109.425 312.559 110.562 312.803C111.699 313.046 112.598 313.861 112.373 314.913C112.269 315.399 112.101 315.649 111.817 315.671C110.834 316.166 111.649 318.178 110.979 320.774C110.775 321.608 110.384 322.37 109.856 322.994C111.156 322.592 112.387 322.01 113.253 321.261L113.849 322.037C111.577 323.954 107.347 325.477 104.372 325.241L104.373 325.235Z" fill="#DD1D35"/>
<path d="M101.909 338.571C100.846 341.427 96.1231 342.082 92.8053 340.832C95.7151 342.414 97.32 345.103 97.266 347.584C97.1735 352.115 92.6821 354.746 88.8405 353.924C86.1355 353.345 84.5546 351.227 85.0411 348.953C85.4053 347.251 86.8697 345.696 87.9217 346.067C87.3876 347.256 88.3432 348.732 90.1789 349.125C92.0146 349.518 93.3871 348.54 93.7865 346.674C94.3015 344.267 92.5772 341.749 89.8118 340.681C85.8257 346.356 82.0116 352.297 76.7415 351.17C73.4956 350.475 71.5871 347.778 72.2518 344.672C73.628 338.241 80.9896 336.873 81.8598 340.708C79.7506 340.257 77.6205 341.358 77.1757 343.437C76.8518 344.951 77.6214 346.107 79.1593 346.436C82.7274 347.2 87.1038 337.056 93.0898 331.809C89.7936 331.497 85.7805 332.279 85.0627 334.979C84.7999 335.94 85.0276 336.866 85.6217 337.387C82.6852 337.891 81.1043 335.772 81.5271 333.797C82.2386 330.472 87.8018 328.922 93.9047 330.228C94.2025 330.292 94.5004 330.356 94.793 330.444C95.5826 329.933 97.1496 329.086 98.1222 329.294C98.961 329.473 99.5344 330.359 99.1835 331.612C98.953 331.62 98.5063 331.747 98.2458 331.895C101.053 333.57 102.827 336.123 101.9 338.582L101.909 338.571ZM92.9856 339.573C95.7149 340.157 98.5938 338.854 99.1037 336.471C99.4393 334.903 98.5645 333.584 96.796 332.729C94.7372 334.151 92.8735 336.384 91.1094 338.835C91.7078 339.217 92.3352 339.434 92.9856 339.573Z" fill="#DD1D35"/>
<path d="M110.416 359.952C108.725 361.91 106.316 362.863 104.535 362.482C103.994 362.366 103.481 362.117 103.113 361.727C101.458 360.076 102.206 356.193 104.611 353.541C102.536 355.303 100.198 356.189 98.7941 355.888C97.6574 355.645 97.2286 354.619 97.5642 353.051C98.4669 348.832 104.253 343.599 107.468 344.287C108.982 344.611 109.651 345.968 109.613 347.486L111.519 345.319C112.98 345.772 113.697 346.491 113.565 347.257C113.308 348.842 109.725 352.398 108.022 355.454C107.052 357.223 106.71 358.822 107.885 359.805C108.173 360.038 108.558 360.228 108.965 360.315C109.476 360.425 110.008 360.341 110.429 359.948L110.416 359.952ZM104.111 352.551C104.571 352.51 105.206 352.334 105.693 351.898L108.828 348.36C108.836 347.936 108.595 347.605 108.079 347.494C105.757 346.998 101.673 352.061 103.758 352.507C103.867 352.531 103.976 352.554 104.115 352.558L104.111 352.551Z" fill="#DD1D35"/>
<path d="M121.952 357.557C120.282 359.152 118.394 360.191 116.905 359.872C115.58 359.588 114.808 358.324 114.888 356.612C114.287 357.697 113.921 358.636 113.836 359.272C110.166 358.061 110.561 355.946 112.076 354.008L122.112 341.064C123.597 341.521 124.373 342.113 124.02 343.227C123.85 343.756 121.756 346.531 119.472 349.685C121.206 348.447 123.268 347.782 124.569 348.061C125.784 348.321 126.213 349.347 125.844 351.073C125.474 352.8 124.415 354.722 123.048 356.355C123.867 356.359 124.646 356.163 125.296 355.622L125.923 356.405C124.552 357.408 123.195 357.658 121.944 357.562L121.952 357.557ZM118.432 354.993C120.275 353.779 122.019 350.528 120.584 350.221C119.825 350.059 118.875 350.815 118.28 351.337C117.634 352.247 117.044 353.163 116.452 354.054L116.058 354.592C116.595 354.339 117.44 354.609 118.433 354.986L118.432 354.993Z" fill="#DD1D35"/>
<path d="M127.571 362.066C125.352 361.591 124.22 360.02 124.752 357.534C125.655 353.315 130.666 349.328 134.43 349.828C136.458 350.122 137.396 351.562 136.876 353.46C136.291 355.54 133.271 356.7 131.004 356.214C130.627 356.134 130.255 355.997 129.926 355.844C129.388 357.286 129.958 358.336 131.46 358.715C133.212 359.115 134.887 358.8 135.91 357.855L136.537 358.638C133.125 361.779 129.955 362.569 127.578 362.061L127.571 362.066ZM134.007 352.871C132.787 352.636 131.249 353.61 130.522 354.751C134.41 356.009 136.085 353.202 134.007 352.871Z" fill="#DD1D35"/>
<path d="M137.403 360.355C138.892 360.674 139.724 361.926 139.407 363.409C139.089 364.893 137.806 365.75 136.317 365.431C134.828 365.112 133.972 363.855 134.301 362.317C134.63 360.779 135.92 360.038 137.403 360.355ZM139.913 359.735L138.4 358.878C139.371 354.337 143.192 347.978 146.947 346.264C149.735 344.998 153.319 346.61 152.266 349.271C148.868 349.052 141.84 355.603 139.906 359.74L139.913 359.735Z" fill="#DD1D35"/>
</g>
</g>
</svg>
