<svg width="263" height="498" viewBox="0 0 263 498" fill="none" xmlns="http://www.w3.org/2000/svg">
<mask id="mask0_1343_9139" style="mask-type:alpha" maskUnits="userSpaceOnUse" x="0" y="0" width="263" height="498">
<rect width="263" height="498" rx="23" fill="#C5C3C4"/>
</mask>
<g mask="url(#mask0_1343_9139)">
<g clip-path="url(#clip0_1343_9139)">
<path opacity="0.15" d="M112.668 0H85.001V27.6667H112.668V0Z" stroke="black" stroke-width="0.31125"/>
<path d="M85.0014 2.3344C86.2906 2.3344 87.3357 1.28926 87.3357 2.43187e-05C87.3357 -1.28922 86.2906 -2.33435 85.0014 -2.33435C83.7121 -2.33435 82.667 -1.28922 82.667 2.43187e-05C82.667 1.28926 83.7121 2.3344 85.0014 2.3344Z" fill="black"/>
<path opacity="0.15" d="M140.335 0H112.668V27.6667H140.335V0Z" stroke="black" stroke-width="0.31125"/>
<path d="M112.667 2.3344C113.957 2.3344 115.002 1.28926 115.002 2.43187e-05C115.002 -1.28922 113.957 -2.33435 112.667 -2.33435C111.378 -2.33435 110.333 -1.28922 110.333 2.43187e-05C110.333 1.28926 111.378 2.3344 112.667 2.3344Z" fill="black"/>
<path opacity="0.15" d="M168.001 0H140.334V27.6667H168.001V0Z" stroke="black" stroke-width="0.31125"/>
<path d="M140.335 2.3344C141.625 2.3344 142.67 1.28926 142.67 2.43187e-05C142.67 -1.28922 141.625 -2.33435 140.335 -2.33435C139.046 -2.33435 138.001 -1.28922 138.001 2.43187e-05C138.001 1.28926 139.046 2.3344 140.335 2.3344Z" fill="black"/>
<path opacity="0.15" d="M195.669 0H168.002V27.6667H195.669V0Z" stroke="black" stroke-width="0.31125"/>
<path d="M168 2.3344C169.29 2.3344 170.335 1.28926 170.335 2.43187e-05C170.335 -1.28922 169.29 -2.33435 168 -2.33435C166.711 -2.33435 165.666 -1.28922 165.666 2.43187e-05C165.666 1.28926 166.711 2.3344 168 2.3344Z" fill="black"/>
<path opacity="0.15" d="M223.335 0H195.668V27.6667H223.335V0Z" stroke="black" stroke-width="0.31125"/>
<path d="M195.668 2.3344C196.958 2.3344 198.003 1.28926 198.003 2.43187e-05C198.003 -1.28922 196.958 -2.33435 195.668 -2.33435C194.379 -2.33435 193.334 -1.28922 193.334 2.43187e-05C193.334 1.28926 194.379 2.3344 195.668 2.3344Z" fill="black"/>
<path opacity="0.15" d="M251.002 0H223.335V27.6667H251.002V0Z" stroke="black" stroke-width="0.31125"/>
<path d="M223.334 2.3344C224.624 2.3344 225.669 1.28926 225.669 2.43187e-05C225.669 -1.28922 224.624 -2.33435 223.334 -2.33435C222.045 -2.33435 221 -1.28922 221 2.43187e-05C221 1.28926 222.045 2.3344 223.334 2.3344Z" fill="black"/>
<path opacity="0.15" d="M278.668 0H251.001V27.6667H278.668V0Z" stroke="black" stroke-width="0.31125"/>
<path d="M251.001 2.3344C252.291 2.3344 253.336 1.28926 253.336 2.43187e-05C253.336 -1.28922 252.291 -2.33435 251.001 -2.33435C249.712 -2.33435 248.667 -1.28922 248.667 2.43187e-05C248.667 1.28926 249.712 2.3344 251.001 2.3344Z" fill="black"/>
<path opacity="0.15" d="M112.668 27.6667H85.001V55.3334H112.668V27.6667Z" stroke="black" stroke-width="0.31125"/>
<path d="M85.0014 30.0011C86.2906 30.0011 87.3357 28.956 87.3357 27.6668C87.3357 26.3775 86.2906 25.3324 85.0014 25.3324C83.7121 25.3324 82.667 26.3775 82.667 27.6668C82.667 28.956 83.7121 30.0011 85.0014 30.0011Z" fill="black"/>
<path opacity="0.15" d="M140.335 27.6667H112.668V55.3334H140.335V27.6667Z" stroke="black" stroke-width="0.31125"/>
<path d="M112.667 30.0011C113.957 30.0011 115.002 28.956 115.002 27.6668C115.002 26.3775 113.957 25.3324 112.667 25.3324C111.378 25.3324 110.333 26.3775 110.333 27.6668C110.333 28.956 111.378 30.0011 112.667 30.0011Z" fill="black"/>
<path opacity="0.15" d="M168.001 27.6667H140.334V55.3334H168.001V27.6667Z" stroke="black" stroke-width="0.31125"/>
<path d="M140.335 30.0011C141.625 30.0011 142.67 28.956 142.67 27.6668C142.67 26.3775 141.625 25.3324 140.335 25.3324C139.046 25.3324 138.001 26.3775 138.001 27.6668C138.001 28.956 139.046 30.0011 140.335 30.0011Z" fill="black"/>
<path opacity="0.15" d="M195.669 27.6667H168.002V55.3334H195.669V27.6667Z" stroke="black" stroke-width="0.31125"/>
<path d="M168 30.0011C169.29 30.0011 170.335 28.956 170.335 27.6668C170.335 26.3775 169.29 25.3324 168 25.3324C166.711 25.3324 165.666 26.3775 165.666 27.6668C165.666 28.956 166.711 30.0011 168 30.0011Z" fill="black"/>
<path opacity="0.15" d="M223.335 27.6667H195.668V55.3334H223.335V27.6667Z" stroke="black" stroke-width="0.31125"/>
<path d="M195.668 30.0011C196.958 30.0011 198.003 28.956 198.003 27.6668C198.003 26.3775 196.958 25.3324 195.668 25.3324C194.379 25.3324 193.334 26.3775 193.334 27.6668C193.334 28.956 194.379 30.0011 195.668 30.0011Z" fill="black"/>
<path opacity="0.15" d="M251.002 27.6667H223.335V55.3334H251.002V27.6667Z" stroke="black" stroke-width="0.31125"/>
<path d="M223.334 30.0011C224.624 30.0011 225.669 28.956 225.669 27.6668C225.669 26.3775 224.624 25.3324 223.334 25.3324C222.045 25.3324 221 26.3775 221 27.6668C221 28.956 222.045 30.0011 223.334 30.0011Z" fill="black"/>
<path opacity="0.15" d="M278.668 27.6667H251.001V55.3334H278.668V27.6667Z" stroke="black" stroke-width="0.31125"/>
<path d="M251.001 30.0011C252.291 30.0011 253.336 28.956 253.336 27.6668C253.336 26.3775 252.291 25.3324 251.001 25.3324C249.712 25.3324 248.667 26.3775 248.667 27.6668C248.667 28.956 249.712 30.0011 251.001 30.0011Z" fill="black"/>
<path opacity="0.15" d="M112.668 55.3334H85.001V83H112.668V55.3334Z" stroke="black" stroke-width="0.31125"/>
<path d="M85.0014 57.6677C86.2906 57.6677 87.3357 56.6225 87.3357 55.3333C87.3357 54.044 86.2906 52.9989 85.0014 52.9989C83.7121 52.9989 82.667 54.044 82.667 55.3333C82.667 56.6225 83.7121 57.6677 85.0014 57.6677Z" fill="black"/>
<path opacity="0.15" d="M140.335 55.3334H112.668V83H140.335V55.3334Z" stroke="black" stroke-width="0.31125"/>
<path d="M112.667 57.6677C113.957 57.6677 115.002 56.6225 115.002 55.3333C115.002 54.044 113.957 52.9989 112.667 52.9989C111.378 52.9989 110.333 54.044 110.333 55.3333C110.333 56.6225 111.378 57.6677 112.667 57.6677Z" fill="black"/>
<path opacity="0.15" d="M168.001 55.3334H140.334V83H168.001V55.3334Z" stroke="black" stroke-width="0.31125"/>
<path d="M140.335 57.6677C141.625 57.6677 142.67 56.6225 142.67 55.3333C142.67 54.044 141.625 52.9989 140.335 52.9989C139.046 52.9989 138.001 54.044 138.001 55.3333C138.001 56.6225 139.046 57.6677 140.335 57.6677Z" fill="black"/>
<path opacity="0.15" d="M195.669 55.3334H168.002V83H195.669V55.3334Z" stroke="black" stroke-width="0.31125"/>
<path d="M168 57.6677C169.29 57.6677 170.335 56.6225 170.335 55.3333C170.335 54.044 169.29 52.9989 168 52.9989C166.711 52.9989 165.666 54.044 165.666 55.3333C165.666 56.6225 166.711 57.6677 168 57.6677Z" fill="black"/>
<path opacity="0.15" d="M223.335 55.3334H195.668V83H223.335V55.3334Z" stroke="black" stroke-width="0.31125"/>
<path d="M195.668 57.6677C196.958 57.6677 198.003 56.6225 198.003 55.3333C198.003 54.044 196.958 52.9989 195.668 52.9989C194.379 52.9989 193.334 54.044 193.334 55.3333C193.334 56.6225 194.379 57.6677 195.668 57.6677Z" fill="black"/>
<path opacity="0.15" d="M251.002 55.3334H223.335V83H251.002V55.3334Z" stroke="black" stroke-width="0.31125"/>
<path d="M223.334 57.6677C224.624 57.6677 225.669 56.6225 225.669 55.3333C225.669 54.044 224.624 52.9989 223.334 52.9989C222.045 52.9989 221 54.044 221 55.3333C221 56.6225 222.045 57.6677 223.334 57.6677Z" fill="black"/>
<path opacity="0.15" d="M278.668 55.3334H251.001V83H278.668V55.3334Z" stroke="black" stroke-width="0.31125"/>
<path d="M251.001 57.6677C252.291 57.6677 253.336 56.6225 253.336 55.3333C253.336 54.044 252.291 52.9989 251.001 52.9989C249.712 52.9989 248.667 54.044 248.667 55.3333C248.667 56.6225 249.712 57.6677 251.001 57.6677Z" fill="black"/>
<path opacity="0.15" d="M112.668 83.0001H85.001V110.667H112.668V83.0001Z" stroke="black" stroke-width="0.31125"/>
<path d="M85.0014 85.3343C86.2906 85.3343 87.3357 84.2891 87.3357 82.9999C87.3357 81.7107 86.2906 80.6655 85.0014 80.6655C83.7121 80.6655 82.667 81.7107 82.667 82.9999C82.667 84.2891 83.7121 85.3343 85.0014 85.3343Z" fill="black"/>
<path opacity="0.15" d="M140.335 83.0001H112.668V110.667H140.335V83.0001Z" stroke="black" stroke-width="0.31125"/>
<path d="M112.667 85.3343C113.957 85.3343 115.002 84.2891 115.002 82.9999C115.002 81.7107 113.957 80.6655 112.667 80.6655C111.378 80.6655 110.333 81.7107 110.333 82.9999C110.333 84.2891 111.378 85.3343 112.667 85.3343Z" fill="black"/>
<path opacity="0.15" d="M168.001 83.0001H140.334V110.667H168.001V83.0001Z" stroke="black" stroke-width="0.31125"/>
<path d="M140.335 85.3343C141.625 85.3343 142.67 84.2891 142.67 82.9999C142.67 81.7107 141.625 80.6655 140.335 80.6655C139.046 80.6655 138.001 81.7107 138.001 82.9999C138.001 84.2891 139.046 85.3343 140.335 85.3343Z" fill="black"/>
<path opacity="0.15" d="M195.669 83.0001H168.002V110.667H195.669V83.0001Z" stroke="black" stroke-width="0.31125"/>
<path d="M168 85.3343C169.29 85.3343 170.335 84.2891 170.335 82.9999C170.335 81.7107 169.29 80.6655 168 80.6655C166.711 80.6655 165.666 81.7107 165.666 82.9999C165.666 84.2891 166.711 85.3343 168 85.3343Z" fill="black"/>
<path opacity="0.15" d="M223.335 83.0001H195.668V110.667H223.335V83.0001Z" stroke="black" stroke-width="0.31125"/>
<path d="M195.668 85.3343C196.958 85.3343 198.003 84.2891 198.003 82.9999C198.003 81.7107 196.958 80.6655 195.668 80.6655C194.379 80.6655 193.334 81.7107 193.334 82.9999C193.334 84.2891 194.379 85.3343 195.668 85.3343Z" fill="black"/>
<path opacity="0.15" d="M251.002 83.0001H223.335V110.667H251.002V83.0001Z" stroke="black" stroke-width="0.31125"/>
<path d="M223.334 85.3343C224.624 85.3343 225.669 84.2891 225.669 82.9999C225.669 81.7107 224.624 80.6655 223.334 80.6655C222.045 80.6655 221 81.7107 221 82.9999C221 84.2891 222.045 85.3343 223.334 85.3343Z" fill="black"/>
<path opacity="0.15" d="M278.668 83.0001H251.001V110.667H278.668V83.0001Z" stroke="black" stroke-width="0.31125"/>
<path d="M251.001 85.3343C252.291 85.3343 253.336 84.2891 253.336 82.9999C253.336 81.7107 252.291 80.6655 251.001 80.6655C249.712 80.6655 248.667 81.7107 248.667 82.9999C248.667 84.2891 249.712 85.3343 251.001 85.3343Z" fill="black"/>
<path opacity="0.15" d="M112.668 110.667H85.001V138.333H112.668V110.667Z" stroke="black" stroke-width="0.31125"/>
<path d="M85.0014 113.001C86.2906 113.001 87.3357 111.956 87.3357 110.667C87.3357 109.377 86.2906 108.332 85.0014 108.332C83.7121 108.332 82.667 109.377 82.667 110.667C82.667 111.956 83.7121 113.001 85.0014 113.001Z" fill="black"/>
<path opacity="0.15" d="M140.335 110.667H112.668V138.333H140.335V110.667Z" stroke="black" stroke-width="0.31125"/>
<path d="M112.667 113.001C113.957 113.001 115.002 111.956 115.002 110.667C115.002 109.377 113.957 108.332 112.667 108.332C111.378 108.332 110.333 109.377 110.333 110.667C110.333 111.956 111.378 113.001 112.667 113.001Z" fill="black"/>
<path opacity="0.15" d="M168.001 110.667H140.334V138.333H168.001V110.667Z" stroke="black" stroke-width="0.31125"/>
<path d="M140.335 113.001C141.625 113.001 142.67 111.956 142.67 110.667C142.67 109.377 141.625 108.332 140.335 108.332C139.046 108.332 138.001 109.377 138.001 110.667C138.001 111.956 139.046 113.001 140.335 113.001Z" fill="black"/>
<path opacity="0.15" d="M195.669 110.667H168.002V138.333H195.669V110.667Z" stroke="black" stroke-width="0.31125"/>
<path d="M168 113.001C169.29 113.001 170.335 111.956 170.335 110.667C170.335 109.377 169.29 108.332 168 108.332C166.711 108.332 165.666 109.377 165.666 110.667C165.666 111.956 166.711 113.001 168 113.001Z" fill="black"/>
<path opacity="0.15" d="M223.335 110.667H195.668V138.333H223.335V110.667Z" stroke="black" stroke-width="0.31125"/>
<path d="M195.668 113.001C196.958 113.001 198.003 111.956 198.003 110.667C198.003 109.377 196.958 108.332 195.668 108.332C194.379 108.332 193.334 109.377 193.334 110.667C193.334 111.956 194.379 113.001 195.668 113.001Z" fill="black"/>
<path opacity="0.15" d="M251.002 110.667H223.335V138.333H251.002V110.667Z" stroke="black" stroke-width="0.31125"/>
<path d="M223.334 113.001C224.624 113.001 225.669 111.956 225.669 110.667C225.669 109.377 224.624 108.332 223.334 108.332C222.045 108.332 221 109.377 221 110.667C221 111.956 222.045 113.001 223.334 113.001Z" fill="black"/>
<path opacity="0.15" d="M278.668 110.667H251.001V138.333H278.668V110.667Z" stroke="black" stroke-width="0.31125"/>
<path d="M251.001 113.001C252.291 113.001 253.336 111.956 253.336 110.667C253.336 109.377 252.291 108.332 251.001 108.332C249.712 108.332 248.667 109.377 248.667 110.667C248.667 111.956 249.712 113.001 251.001 113.001Z" fill="black"/>
<path opacity="0.15" d="M112.668 138.333H85.001V166H112.668V138.333Z" stroke="black" stroke-width="0.31125"/>
<path d="M85.0014 140.668C86.2906 140.668 87.3357 139.623 87.3357 138.333C87.3357 137.044 86.2906 135.999 85.0014 135.999C83.7121 135.999 82.667 137.044 82.667 138.333C82.667 139.623 83.7121 140.668 85.0014 140.668Z" fill="black"/>
<path opacity="0.15" d="M140.335 138.333H112.668V166H140.335V138.333Z" stroke="black" stroke-width="0.31125"/>
<path d="M112.667 140.668C113.957 140.668 115.002 139.623 115.002 138.333C115.002 137.044 113.957 135.999 112.667 135.999C111.378 135.999 110.333 137.044 110.333 138.333C110.333 139.623 111.378 140.668 112.667 140.668Z" fill="black"/>
<path opacity="0.15" d="M168.001 138.333H140.334V166H168.001V138.333Z" stroke="black" stroke-width="0.31125"/>
<path d="M140.335 140.668C141.625 140.668 142.67 139.623 142.67 138.333C142.67 137.044 141.625 135.999 140.335 135.999C139.046 135.999 138.001 137.044 138.001 138.333C138.001 139.623 139.046 140.668 140.335 140.668Z" fill="black"/>
<path opacity="0.15" d="M195.669 138.333H168.002V166H195.669V138.333Z" stroke="black" stroke-width="0.31125"/>
<path d="M168 140.668C169.29 140.668 170.335 139.623 170.335 138.333C170.335 137.044 169.29 135.999 168 135.999C166.711 135.999 165.666 137.044 165.666 138.333C165.666 139.623 166.711 140.668 168 140.668Z" fill="black"/>
<path opacity="0.15" d="M223.335 138.333H195.668V166H223.335V138.333Z" stroke="black" stroke-width="0.31125"/>
<path d="M195.668 140.668C196.958 140.668 198.003 139.623 198.003 138.333C198.003 137.044 196.958 135.999 195.668 135.999C194.379 135.999 193.334 137.044 193.334 138.333C193.334 139.623 194.379 140.668 195.668 140.668Z" fill="black"/>
<path opacity="0.15" d="M251.002 138.333H223.335V166H251.002V138.333Z" stroke="black" stroke-width="0.31125"/>
<path d="M223.334 140.668C224.624 140.668 225.669 139.623 225.669 138.333C225.669 137.044 224.624 135.999 223.334 135.999C222.045 135.999 221 137.044 221 138.333C221 139.623 222.045 140.668 223.334 140.668Z" fill="black"/>
<path opacity="0.15" d="M278.668 138.333H251.001V166H278.668V138.333Z" stroke="black" stroke-width="0.31125"/>
<path d="M251.001 140.668C252.291 140.668 253.336 139.623 253.336 138.333C253.336 137.044 252.291 135.999 251.001 135.999C249.712 135.999 248.667 137.044 248.667 138.333C248.667 139.623 249.712 140.668 251.001 140.668Z" fill="black"/>
<path opacity="0.15" d="M112.668 166H85.001V193.667H112.668V166Z" stroke="black" stroke-width="0.31125"/>
<path d="M85.0014 168.335C86.2906 168.335 87.3357 167.289 87.3357 166C87.3357 164.711 86.2906 163.666 85.0014 163.666C83.7121 163.666 82.667 164.711 82.667 166C82.667 167.289 83.7121 168.335 85.0014 168.335Z" fill="black"/>
<path opacity="0.15" d="M140.335 166H112.668V193.667H140.335V166Z" stroke="black" stroke-width="0.31125"/>
<path d="M112.667 168.335C113.957 168.335 115.002 167.289 115.002 166C115.002 164.711 113.957 163.666 112.667 163.666C111.378 163.666 110.333 164.711 110.333 166C110.333 167.289 111.378 168.335 112.667 168.335Z" fill="black"/>
<path opacity="0.15" d="M168.001 166H140.334V193.667H168.001V166Z" stroke="black" stroke-width="0.31125"/>
<path d="M140.335 168.335C141.625 168.335 142.67 167.289 142.67 166C142.67 164.711 141.625 163.666 140.335 163.666C139.046 163.666 138.001 164.711 138.001 166C138.001 167.289 139.046 168.335 140.335 168.335Z" fill="black"/>
<path opacity="0.15" d="M195.669 166H168.002V193.667H195.669V166Z" stroke="black" stroke-width="0.31125"/>
<path d="M168 168.335C169.29 168.335 170.335 167.289 170.335 166C170.335 164.711 169.29 163.666 168 163.666C166.711 163.666 165.666 164.711 165.666 166C165.666 167.289 166.711 168.335 168 168.335Z" fill="black"/>
<path opacity="0.15" d="M223.335 166H195.668V193.667H223.335V166Z" stroke="black" stroke-width="0.31125"/>
<path d="M195.668 168.335C196.958 168.335 198.003 167.289 198.003 166C198.003 164.711 196.958 163.666 195.668 163.666C194.379 163.666 193.334 164.711 193.334 166C193.334 167.289 194.379 168.335 195.668 168.335Z" fill="black"/>
<path opacity="0.15" d="M251.002 166H223.335V193.667H251.002V166Z" stroke="black" stroke-width="0.31125"/>
<path d="M223.334 168.335C224.624 168.335 225.669 167.289 225.669 166C225.669 164.711 224.624 163.666 223.334 163.666C222.045 163.666 221 164.711 221 166C221 167.289 222.045 168.335 223.334 168.335Z" fill="black"/>
<path opacity="0.15" d="M278.668 166H251.001V193.667H278.668V166Z" stroke="black" stroke-width="0.31125"/>
<path d="M251.001 168.335C252.291 168.335 253.336 167.289 253.336 166C253.336 164.711 252.291 163.666 251.001 163.666C249.712 163.666 248.667 164.711 248.667 166C248.667 167.289 249.712 168.335 251.001 168.335Z" fill="black"/>
<path opacity="0.15" d="M112.668 193.667H85.001V221.333H112.668V193.667Z" stroke="black" stroke-width="0.31125"/>
<path d="M85.0014 196.001C86.2906 196.001 87.3357 194.956 87.3357 193.667C87.3357 192.377 86.2906 191.332 85.0014 191.332C83.7121 191.332 82.667 192.377 82.667 193.667C82.667 194.956 83.7121 196.001 85.0014 196.001Z" fill="black"/>
<path opacity="0.15" d="M140.335 193.667H112.668V221.333H140.335V193.667Z" stroke="black" stroke-width="0.31125"/>
<path d="M112.667 196.001C113.957 196.001 115.002 194.956 115.002 193.667C115.002 192.377 113.957 191.332 112.667 191.332C111.378 191.332 110.333 192.377 110.333 193.667C110.333 194.956 111.378 196.001 112.667 196.001Z" fill="black"/>
<path opacity="0.15" d="M168.001 193.667H140.334V221.333H168.001V193.667Z" stroke="black" stroke-width="0.31125"/>
<path d="M140.335 196.001C141.625 196.001 142.67 194.956 142.67 193.667C142.67 192.377 141.625 191.332 140.335 191.332C139.046 191.332 138.001 192.377 138.001 193.667C138.001 194.956 139.046 196.001 140.335 196.001Z" fill="black"/>
<path opacity="0.15" d="M195.669 193.667H168.002V221.333H195.669V193.667Z" stroke="black" stroke-width="0.31125"/>
<path d="M168 196.001C169.29 196.001 170.335 194.956 170.335 193.667C170.335 192.377 169.29 191.332 168 191.332C166.711 191.332 165.666 192.377 165.666 193.667C165.666 194.956 166.711 196.001 168 196.001Z" fill="black"/>
<path opacity="0.15" d="M223.335 193.667H195.668V221.333H223.335V193.667Z" stroke="black" stroke-width="0.31125"/>
<path d="M195.668 196.001C196.958 196.001 198.003 194.956 198.003 193.667C198.003 192.377 196.958 191.332 195.668 191.332C194.379 191.332 193.334 192.377 193.334 193.667C193.334 194.956 194.379 196.001 195.668 196.001Z" fill="black"/>
<path opacity="0.15" d="M251.002 193.667H223.335V221.333H251.002V193.667Z" stroke="black" stroke-width="0.31125"/>
<path d="M223.334 196.001C224.624 196.001 225.669 194.956 225.669 193.667C225.669 192.377 224.624 191.332 223.334 191.332C222.045 191.332 221 192.377 221 193.667C221 194.956 222.045 196.001 223.334 196.001Z" fill="black"/>
<path opacity="0.15" d="M278.668 193.667H251.001V221.333H278.668V193.667Z" stroke="black" stroke-width="0.31125"/>
<path d="M251.001 196.001C252.291 196.001 253.336 194.956 253.336 193.667C253.336 192.377 252.291 191.332 251.001 191.332C249.712 191.332 248.667 192.377 248.667 193.667C248.667 194.956 249.712 196.001 251.001 196.001Z" fill="black"/>
<path opacity="0.15" d="M112.668 221.333H85.001V249H112.668V221.333Z" stroke="black" stroke-width="0.31125"/>
<path d="M85.0014 223.668C86.2906 223.668 87.3357 222.623 87.3357 221.333C87.3357 220.044 86.2906 218.999 85.0014 218.999C83.7121 218.999 82.667 220.044 82.667 221.333C82.667 222.623 83.7121 223.668 85.0014 223.668Z" fill="black"/>
<path opacity="0.15" d="M140.335 221.333H112.668V249H140.335V221.333Z" stroke="black" stroke-width="0.31125"/>
<path d="M112.667 223.668C113.957 223.668 115.002 222.623 115.002 221.333C115.002 220.044 113.957 218.999 112.667 218.999C111.378 218.999 110.333 220.044 110.333 221.333C110.333 222.623 111.378 223.668 112.667 223.668Z" fill="black"/>
<path opacity="0.15" d="M168.001 221.333H140.334V249H168.001V221.333Z" stroke="black" stroke-width="0.31125"/>
<path d="M140.335 223.668C141.625 223.668 142.67 222.623 142.67 221.333C142.67 220.044 141.625 218.999 140.335 218.999C139.046 218.999 138.001 220.044 138.001 221.333C138.001 222.623 139.046 223.668 140.335 223.668Z" fill="black"/>
<path opacity="0.15" d="M195.669 221.333H168.002V249H195.669V221.333Z" stroke="black" stroke-width="0.31125"/>
<path d="M168 223.668C169.29 223.668 170.335 222.623 170.335 221.333C170.335 220.044 169.29 218.999 168 218.999C166.711 218.999 165.666 220.044 165.666 221.333C165.666 222.623 166.711 223.668 168 223.668Z" fill="black"/>
<path opacity="0.15" d="M223.335 221.333H195.668V249H223.335V221.333Z" stroke="black" stroke-width="0.31125"/>
<path d="M195.668 223.668C196.958 223.668 198.003 222.623 198.003 221.333C198.003 220.044 196.958 218.999 195.668 218.999C194.379 218.999 193.334 220.044 193.334 221.333C193.334 222.623 194.379 223.668 195.668 223.668Z" fill="black"/>
<path opacity="0.15" d="M251.002 221.333H223.335V249H251.002V221.333Z" stroke="black" stroke-width="0.31125"/>
<path d="M223.334 223.668C224.624 223.668 225.669 222.623 225.669 221.333C225.669 220.044 224.624 218.999 223.334 218.999C222.045 218.999 221 220.044 221 221.333C221 222.623 222.045 223.668 223.334 223.668Z" fill="black"/>
<path opacity="0.15" d="M278.668 221.333H251.001V249H278.668V221.333Z" stroke="black" stroke-width="0.31125"/>
<path d="M251.001 223.668C252.291 223.668 253.336 222.623 253.336 221.333C253.336 220.044 252.291 218.999 251.001 218.999C249.712 218.999 248.667 220.044 248.667 221.333C248.667 222.623 249.712 223.668 251.001 223.668Z" fill="black"/>
<path opacity="0.15" d="M112.668 249H85.001V276.667H112.668V249Z" stroke="black" stroke-width="0.31125"/>
<path d="M85.0014 251.334C86.2906 251.334 87.3357 250.289 87.3357 249C87.3357 247.711 86.2906 246.666 85.0014 246.666C83.7121 246.666 82.667 247.711 82.667 249C82.667 250.289 83.7121 251.334 85.0014 251.334Z" fill="black"/>
<path opacity="0.15" d="M140.335 249H112.668V276.667H140.335V249Z" stroke="black" stroke-width="0.31125"/>
<path d="M112.667 251.334C113.957 251.334 115.002 250.289 115.002 249C115.002 247.711 113.957 246.666 112.667 246.666C111.378 246.666 110.333 247.711 110.333 249C110.333 250.289 111.378 251.334 112.667 251.334Z" fill="black"/>
<path opacity="0.15" d="M168.001 249H140.334V276.667H168.001V249Z" stroke="black" stroke-width="0.31125"/>
<path d="M140.335 251.334C141.625 251.334 142.67 250.289 142.67 249C142.67 247.711 141.625 246.666 140.335 246.666C139.046 246.666 138.001 247.711 138.001 249C138.001 250.289 139.046 251.334 140.335 251.334Z" fill="black"/>
<path opacity="0.15" d="M195.669 249H168.002V276.667H195.669V249Z" stroke="black" stroke-width="0.31125"/>
<path d="M168 251.334C169.29 251.334 170.335 250.289 170.335 249C170.335 247.711 169.29 246.666 168 246.666C166.711 246.666 165.666 247.711 165.666 249C165.666 250.289 166.711 251.334 168 251.334Z" fill="black"/>
<path opacity="0.15" d="M223.335 249H195.668V276.667H223.335V249Z" stroke="black" stroke-width="0.31125"/>
<path d="M195.668 251.334C196.958 251.334 198.003 250.289 198.003 249C198.003 247.711 196.958 246.666 195.668 246.666C194.379 246.666 193.334 247.711 193.334 249C193.334 250.289 194.379 251.334 195.668 251.334Z" fill="black"/>
<path opacity="0.15" d="M251.002 249H223.335V276.667H251.002V249Z" stroke="black" stroke-width="0.31125"/>
<path d="M223.334 251.334C224.624 251.334 225.669 250.289 225.669 249C225.669 247.711 224.624 246.666 223.334 246.666C222.045 246.666 221 247.711 221 249C221 250.289 222.045 251.334 223.334 251.334Z" fill="black"/>
<path opacity="0.15" d="M278.668 249H251.001V276.667H278.668V249Z" stroke="black" stroke-width="0.31125"/>
<path d="M251.001 251.334C252.291 251.334 253.336 250.289 253.336 249C253.336 247.711 252.291 246.666 251.001 246.666C249.712 246.666 248.667 247.711 248.667 249C248.667 250.289 249.712 251.334 251.001 251.334Z" fill="black"/>
<path opacity="0.15" d="M112.668 276.667H85.001V304.333H112.668V276.667Z" stroke="black" stroke-width="0.31125"/>
<path d="M85.0014 279.001C86.2906 279.001 87.3357 277.956 87.3357 276.667C87.3357 275.377 86.2906 274.332 85.0014 274.332C83.7121 274.332 82.667 275.377 82.667 276.667C82.667 277.956 83.7121 279.001 85.0014 279.001Z" fill="black"/>
<path opacity="0.15" d="M140.335 276.667H112.668V304.333H140.335V276.667Z" stroke="black" stroke-width="0.31125"/>
<path d="M112.667 279.001C113.957 279.001 115.002 277.956 115.002 276.667C115.002 275.377 113.957 274.332 112.667 274.332C111.378 274.332 110.333 275.377 110.333 276.667C110.333 277.956 111.378 279.001 112.667 279.001Z" fill="black"/>
<path opacity="0.15" d="M168.001 276.667H140.334V304.333H168.001V276.667Z" stroke="black" stroke-width="0.31125"/>
<path d="M140.335 279.001C141.625 279.001 142.67 277.956 142.67 276.667C142.67 275.377 141.625 274.332 140.335 274.332C139.046 274.332 138.001 275.377 138.001 276.667C138.001 277.956 139.046 279.001 140.335 279.001Z" fill="black"/>
<path opacity="0.15" d="M195.669 276.667H168.002V304.333H195.669V276.667Z" stroke="black" stroke-width="0.31125"/>
<path d="M168 279.001C169.29 279.001 170.335 277.956 170.335 276.667C170.335 275.377 169.29 274.332 168 274.332C166.711 274.332 165.666 275.377 165.666 276.667C165.666 277.956 166.711 279.001 168 279.001Z" fill="black"/>
<path opacity="0.15" d="M223.335 276.667H195.668V304.333H223.335V276.667Z" stroke="black" stroke-width="0.31125"/>
<path d="M195.668 279.001C196.958 279.001 198.003 277.956 198.003 276.667C198.003 275.377 196.958 274.332 195.668 274.332C194.379 274.332 193.334 275.377 193.334 276.667C193.334 277.956 194.379 279.001 195.668 279.001Z" fill="black"/>
<path opacity="0.15" d="M251.002 276.667H223.335V304.333H251.002V276.667Z" stroke="black" stroke-width="0.31125"/>
<path d="M223.334 279.001C224.624 279.001 225.669 277.956 225.669 276.667C225.669 275.377 224.624 274.332 223.334 274.332C222.045 274.332 221 275.377 221 276.667C221 277.956 222.045 279.001 223.334 279.001Z" fill="black"/>
<path opacity="0.15" d="M278.668 276.667H251.001V304.333H278.668V276.667Z" stroke="black" stroke-width="0.31125"/>
<path d="M251.001 279.001C252.291 279.001 253.336 277.956 253.336 276.667C253.336 275.377 252.291 274.332 251.001 274.332C249.712 274.332 248.667 275.377 248.667 276.667C248.667 277.956 249.712 279.001 251.001 279.001Z" fill="black"/>
<path opacity="0.15" d="M112.668 304.333H85.001V332H112.668V304.333Z" stroke="black" stroke-width="0.31125"/>
<path d="M85.0014 306.668C86.2906 306.668 87.3357 305.623 87.3357 304.333C87.3357 303.044 86.2906 301.999 85.0014 301.999C83.7121 301.999 82.667 303.044 82.667 304.333C82.667 305.623 83.7121 306.668 85.0014 306.668Z" fill="black"/>
<path opacity="0.15" d="M140.335 304.333H112.668V332H140.335V304.333Z" stroke="black" stroke-width="0.31125"/>
<path d="M112.667 306.668C113.957 306.668 115.002 305.623 115.002 304.333C115.002 303.044 113.957 301.999 112.667 301.999C111.378 301.999 110.333 303.044 110.333 304.333C110.333 305.623 111.378 306.668 112.667 306.668Z" fill="black"/>
<path opacity="0.15" d="M168.001 304.333H140.334V332H168.001V304.333Z" stroke="black" stroke-width="0.31125"/>
<path d="M140.335 306.668C141.625 306.668 142.67 305.623 142.67 304.333C142.67 303.044 141.625 301.999 140.335 301.999C139.046 301.999 138.001 303.044 138.001 304.333C138.001 305.623 139.046 306.668 140.335 306.668Z" fill="black"/>
<path opacity="0.15" d="M195.669 304.333H168.002V332H195.669V304.333Z" stroke="black" stroke-width="0.31125"/>
<path d="M168 306.668C169.29 306.668 170.335 305.623 170.335 304.333C170.335 303.044 169.29 301.999 168 301.999C166.711 301.999 165.666 303.044 165.666 304.333C165.666 305.623 166.711 306.668 168 306.668Z" fill="black"/>
<path opacity="0.15" d="M223.335 304.333H195.668V332H223.335V304.333Z" stroke="black" stroke-width="0.31125"/>
<path d="M195.668 306.668C196.958 306.668 198.003 305.623 198.003 304.333C198.003 303.044 196.958 301.999 195.668 301.999C194.379 301.999 193.334 303.044 193.334 304.333C193.334 305.623 194.379 306.668 195.668 306.668Z" fill="black"/>
<path opacity="0.15" d="M251.002 304.333H223.335V332H251.002V304.333Z" stroke="black" stroke-width="0.31125"/>
<path d="M223.334 306.668C224.624 306.668 225.669 305.623 225.669 304.333C225.669 303.044 224.624 301.999 223.334 301.999C222.045 301.999 221 303.044 221 304.333C221 305.623 222.045 306.668 223.334 306.668Z" fill="black"/>
<path opacity="0.15" d="M278.668 304.333H251.001V332H278.668V304.333Z" stroke="black" stroke-width="0.31125"/>
<path d="M251.001 306.668C252.291 306.668 253.336 305.623 253.336 304.333C253.336 303.044 252.291 301.999 251.001 301.999C249.712 301.999 248.667 303.044 248.667 304.333C248.667 305.623 249.712 306.668 251.001 306.668Z" fill="black"/>
<path opacity="0.15" d="M112.668 332H85.001V359.667H112.668V332Z" stroke="black" stroke-width="0.31125"/>
<path d="M85.0014 334.334C86.2906 334.334 87.3357 333.289 87.3357 332C87.3357 330.711 86.2906 329.666 85.0014 329.666C83.7121 329.666 82.667 330.711 82.667 332C82.667 333.289 83.7121 334.334 85.0014 334.334Z" fill="black"/>
<path opacity="0.15" d="M140.335 332H112.668V359.667H140.335V332Z" stroke="black" stroke-width="0.31125"/>
<path d="M112.667 334.334C113.957 334.334 115.002 333.289 115.002 332C115.002 330.711 113.957 329.666 112.667 329.666C111.378 329.666 110.333 330.711 110.333 332C110.333 333.289 111.378 334.334 112.667 334.334Z" fill="black"/>
<path opacity="0.15" d="M168.001 332H140.334V359.667H168.001V332Z" stroke="black" stroke-width="0.31125"/>
<path d="M140.335 334.334C141.625 334.334 142.67 333.289 142.67 332C142.67 330.711 141.625 329.666 140.335 329.666C139.046 329.666 138.001 330.711 138.001 332C138.001 333.289 139.046 334.334 140.335 334.334Z" fill="black"/>
<path opacity="0.15" d="M195.669 332H168.002V359.667H195.669V332Z" stroke="black" stroke-width="0.31125"/>
<path d="M168 334.334C169.29 334.334 170.335 333.289 170.335 332C170.335 330.711 169.29 329.666 168 329.666C166.711 329.666 165.666 330.711 165.666 332C165.666 333.289 166.711 334.334 168 334.334Z" fill="black"/>
<path opacity="0.15" d="M223.335 332H195.668V359.667H223.335V332Z" stroke="black" stroke-width="0.31125"/>
<path d="M195.668 334.334C196.958 334.334 198.003 333.289 198.003 332C198.003 330.711 196.958 329.666 195.668 329.666C194.379 329.666 193.334 330.711 193.334 332C193.334 333.289 194.379 334.334 195.668 334.334Z" fill="black"/>
<path opacity="0.15" d="M251.002 332H223.335V359.667H251.002V332Z" stroke="black" stroke-width="0.31125"/>
<path d="M223.334 334.334C224.624 334.334 225.669 333.289 225.669 332C225.669 330.711 224.624 329.666 223.334 329.666C222.045 329.666 221 330.711 221 332C221 333.289 222.045 334.334 223.334 334.334Z" fill="black"/>
<path opacity="0.15" d="M278.668 332H251.001V359.667H278.668V332Z" stroke="black" stroke-width="0.31125"/>
<path d="M251.001 334.334C252.291 334.334 253.336 333.289 253.336 332C253.336 330.711 252.291 329.666 251.001 329.666C249.712 329.666 248.667 330.711 248.667 332C248.667 333.289 249.712 334.334 251.001 334.334Z" fill="black"/>
<path opacity="0.15" d="M112.668 359.667H85.001V387.333H112.668V359.667Z" stroke="black" stroke-width="0.31125"/>
<path d="M85.0014 362.001C86.2906 362.001 87.3357 360.956 87.3357 359.667C87.3357 358.377 86.2906 357.332 85.0014 357.332C83.7121 357.332 82.667 358.377 82.667 359.667C82.667 360.956 83.7121 362.001 85.0014 362.001Z" fill="black"/>
<path opacity="0.15" d="M140.335 359.667H112.668V387.333H140.335V359.667Z" stroke="black" stroke-width="0.31125"/>
<path d="M112.667 362.001C113.957 362.001 115.002 360.956 115.002 359.667C115.002 358.377 113.957 357.332 112.667 357.332C111.378 357.332 110.333 358.377 110.333 359.667C110.333 360.956 111.378 362.001 112.667 362.001Z" fill="black"/>
<path opacity="0.15" d="M168.001 359.667H140.334V387.333H168.001V359.667Z" stroke="black" stroke-width="0.31125"/>
<path d="M140.335 362.001C141.625 362.001 142.67 360.956 142.67 359.667C142.67 358.377 141.625 357.332 140.335 357.332C139.046 357.332 138.001 358.377 138.001 359.667C138.001 360.956 139.046 362.001 140.335 362.001Z" fill="black"/>
<path opacity="0.15" d="M195.669 359.667H168.002V387.333H195.669V359.667Z" stroke="black" stroke-width="0.31125"/>
<path d="M168 362.001C169.29 362.001 170.335 360.956 170.335 359.667C170.335 358.377 169.29 357.332 168 357.332C166.711 357.332 165.666 358.377 165.666 359.667C165.666 360.956 166.711 362.001 168 362.001Z" fill="black"/>
<path opacity="0.15" d="M223.335 359.667H195.668V387.333H223.335V359.667Z" stroke="black" stroke-width="0.31125"/>
<path d="M195.668 362.001C196.958 362.001 198.003 360.956 198.003 359.667C198.003 358.377 196.958 357.332 195.668 357.332C194.379 357.332 193.334 358.377 193.334 359.667C193.334 360.956 194.379 362.001 195.668 362.001Z" fill="black"/>
<path opacity="0.15" d="M251.002 359.667H223.335V387.333H251.002V359.667Z" stroke="black" stroke-width="0.31125"/>
<path d="M223.334 362.001C224.624 362.001 225.669 360.956 225.669 359.667C225.669 358.377 224.624 357.332 223.334 357.332C222.045 357.332 221 358.377 221 359.667C221 360.956 222.045 362.001 223.334 362.001Z" fill="black"/>
<path opacity="0.15" d="M278.668 359.667H251.001V387.333H278.668V359.667Z" stroke="black" stroke-width="0.31125"/>
<path d="M251.001 362.001C252.291 362.001 253.336 360.956 253.336 359.667C253.336 358.377 252.291 357.332 251.001 357.332C249.712 357.332 248.667 358.377 248.667 359.667C248.667 360.956 249.712 362.001 251.001 362.001Z" fill="black"/>
<path opacity="0.15" d="M112.668 387.333H85.001V415H112.668V387.333Z" stroke="black" stroke-width="0.31125"/>
<path d="M85.0014 389.668C86.2906 389.668 87.3357 388.623 87.3357 387.333C87.3357 386.044 86.2906 384.999 85.0014 384.999C83.7121 384.999 82.667 386.044 82.667 387.333C82.667 388.623 83.7121 389.668 85.0014 389.668Z" fill="black"/>
<path opacity="0.15" d="M140.335 387.333H112.668V415H140.335V387.333Z" stroke="black" stroke-width="0.31125"/>
<path d="M112.667 389.668C113.957 389.668 115.002 388.623 115.002 387.333C115.002 386.044 113.957 384.999 112.667 384.999C111.378 384.999 110.333 386.044 110.333 387.333C110.333 388.623 111.378 389.668 112.667 389.668Z" fill="black"/>
<path opacity="0.15" d="M168.001 387.333H140.334V415H168.001V387.333Z" stroke="black" stroke-width="0.31125"/>
<path d="M140.335 389.668C141.625 389.668 142.67 388.623 142.67 387.333C142.67 386.044 141.625 384.999 140.335 384.999C139.046 384.999 138.001 386.044 138.001 387.333C138.001 388.623 139.046 389.668 140.335 389.668Z" fill="black"/>
<path opacity="0.15" d="M195.669 387.333H168.002V415H195.669V387.333Z" stroke="black" stroke-width="0.31125"/>
<path d="M168 389.668C169.29 389.668 170.335 388.623 170.335 387.333C170.335 386.044 169.29 384.999 168 384.999C166.711 384.999 165.666 386.044 165.666 387.333C165.666 388.623 166.711 389.668 168 389.668Z" fill="black"/>
<path opacity="0.15" d="M223.335 387.333H195.668V415H223.335V387.333Z" stroke="black" stroke-width="0.31125"/>
<path d="M195.668 389.668C196.958 389.668 198.003 388.623 198.003 387.333C198.003 386.044 196.958 384.999 195.668 384.999C194.379 384.999 193.334 386.044 193.334 387.333C193.334 388.623 194.379 389.668 195.668 389.668Z" fill="black"/>
<path opacity="0.15" d="M251.002 387.333H223.335V415H251.002V387.333Z" stroke="black" stroke-width="0.31125"/>
<path d="M223.334 389.668C224.624 389.668 225.669 388.623 225.669 387.333C225.669 386.044 224.624 384.999 223.334 384.999C222.045 384.999 221 386.044 221 387.333C221 388.623 222.045 389.668 223.334 389.668Z" fill="black"/>
<path opacity="0.15" d="M278.668 387.333H251.001V415H278.668V387.333Z" stroke="black" stroke-width="0.31125"/>
<path d="M251.001 389.668C252.291 389.668 253.336 388.623 253.336 387.333C253.336 386.044 252.291 384.999 251.001 384.999C249.712 384.999 248.667 386.044 248.667 387.333C248.667 388.623 249.712 389.668 251.001 389.668Z" fill="black"/>
<path opacity="0.15" d="M112.668 415H85.001V442.667H112.668V415Z" stroke="black" stroke-width="0.31125"/>
<path d="M85.0014 417.335C86.2906 417.335 87.3357 416.289 87.3357 415C87.3357 413.711 86.2906 412.666 85.0014 412.666C83.7121 412.666 82.667 413.711 82.667 415C82.667 416.289 83.7121 417.335 85.0014 417.335Z" fill="black"/>
<path opacity="0.15" d="M140.335 415H112.668V442.667H140.335V415Z" stroke="black" stroke-width="0.31125"/>
<path d="M112.667 417.335C113.957 417.335 115.002 416.289 115.002 415C115.002 413.711 113.957 412.666 112.667 412.666C111.378 412.666 110.333 413.711 110.333 415C110.333 416.289 111.378 417.335 112.667 417.335Z" fill="black"/>
<path opacity="0.15" d="M168.001 415H140.334V442.667H168.001V415Z" stroke="black" stroke-width="0.31125"/>
<path d="M140.335 417.335C141.625 417.335 142.67 416.289 142.67 415C142.67 413.711 141.625 412.666 140.335 412.666C139.046 412.666 138.001 413.711 138.001 415C138.001 416.289 139.046 417.335 140.335 417.335Z" fill="black"/>
<path opacity="0.15" d="M195.669 415H168.002V442.667H195.669V415Z" stroke="black" stroke-width="0.31125"/>
<path d="M168 417.335C169.29 417.335 170.335 416.289 170.335 415C170.335 413.711 169.29 412.666 168 412.666C166.711 412.666 165.666 413.711 165.666 415C165.666 416.289 166.711 417.335 168 417.335Z" fill="black"/>
<path opacity="0.15" d="M223.335 415H195.668V442.667H223.335V415Z" stroke="black" stroke-width="0.31125"/>
<path d="M195.668 417.335C196.958 417.335 198.003 416.289 198.003 415C198.003 413.711 196.958 412.666 195.668 412.666C194.379 412.666 193.334 413.711 193.334 415C193.334 416.289 194.379 417.335 195.668 417.335Z" fill="black"/>
<path opacity="0.15" d="M251.002 415H223.335V442.667H251.002V415Z" stroke="black" stroke-width="0.31125"/>
<path d="M223.334 417.335C224.624 417.335 225.669 416.289 225.669 415C225.669 413.711 224.624 412.666 223.334 412.666C222.045 412.666 221 413.711 221 415C221 416.289 222.045 417.335 223.334 417.335Z" fill="black"/>
<path opacity="0.15" d="M278.668 415H251.001V442.667H278.668V415Z" stroke="black" stroke-width="0.31125"/>
<path d="M251.001 417.335C252.291 417.335 253.336 416.289 253.336 415C253.336 413.711 252.291 412.666 251.001 412.666C249.712 412.666 248.667 413.711 248.667 415C248.667 416.289 249.712 417.335 251.001 417.335Z" fill="black"/>
<path opacity="0.15" d="M112.668 442.667H85.001V470.333H112.668V442.667Z" stroke="black" stroke-width="0.31125"/>
<path d="M85.0014 445.001C86.2906 445.001 87.3357 443.956 87.3357 442.667C87.3357 441.377 86.2906 440.332 85.0014 440.332C83.7121 440.332 82.667 441.377 82.667 442.667C82.667 443.956 83.7121 445.001 85.0014 445.001Z" fill="black"/>
<path opacity="0.15" d="M140.335 442.667H112.668V470.333H140.335V442.667Z" stroke="black" stroke-width="0.31125"/>
<path d="M112.667 445.001C113.957 445.001 115.002 443.956 115.002 442.667C115.002 441.377 113.957 440.332 112.667 440.332C111.378 440.332 110.333 441.377 110.333 442.667C110.333 443.956 111.378 445.001 112.667 445.001Z" fill="black"/>
<path opacity="0.15" d="M168.001 442.667H140.334V470.333H168.001V442.667Z" stroke="black" stroke-width="0.31125"/>
<path d="M140.335 445.001C141.625 445.001 142.67 443.956 142.67 442.667C142.67 441.377 141.625 440.332 140.335 440.332C139.046 440.332 138.001 441.377 138.001 442.667C138.001 443.956 139.046 445.001 140.335 445.001Z" fill="black"/>
<path opacity="0.15" d="M195.669 442.667H168.002V470.333H195.669V442.667Z" stroke="black" stroke-width="0.31125"/>
<path d="M168 445.001C169.29 445.001 170.335 443.956 170.335 442.667C170.335 441.377 169.29 440.332 168 440.332C166.711 440.332 165.666 441.377 165.666 442.667C165.666 443.956 166.711 445.001 168 445.001Z" fill="black"/>
<path opacity="0.15" d="M223.335 442.667H195.668V470.333H223.335V442.667Z" stroke="black" stroke-width="0.31125"/>
<path d="M195.668 445.001C196.958 445.001 198.003 443.956 198.003 442.667C198.003 441.377 196.958 440.332 195.668 440.332C194.379 440.332 193.334 441.377 193.334 442.667C193.334 443.956 194.379 445.001 195.668 445.001Z" fill="black"/>
<path opacity="0.15" d="M251.002 442.667H223.335V470.333H251.002V442.667Z" stroke="black" stroke-width="0.31125"/>
<path d="M223.334 445.001C224.624 445.001 225.669 443.956 225.669 442.667C225.669 441.377 224.624 440.332 223.334 440.332C222.045 440.332 221 441.377 221 442.667C221 443.956 222.045 445.001 223.334 445.001Z" fill="black"/>
<path opacity="0.15" d="M278.668 442.667H251.001V470.333H278.668V442.667Z" stroke="black" stroke-width="0.31125"/>
<path d="M251.001 445.001C252.291 445.001 253.336 443.956 253.336 442.667C253.336 441.377 252.291 440.332 251.001 440.332C249.712 440.332 248.667 441.377 248.667 442.667C248.667 443.956 249.712 445.001 251.001 445.001Z" fill="black"/>
<path opacity="0.15" d="M112.668 470.333H85.001V498H112.668V470.333Z" stroke="black" stroke-width="0.31125"/>
<path d="M85.0014 472.668C86.2906 472.668 87.3357 471.622 87.3357 470.333C87.3357 469.044 86.2906 467.999 85.0014 467.999C83.7121 467.999 82.667 469.044 82.667 470.333C82.667 471.622 83.7121 472.668 85.0014 472.668Z" fill="black"/>
<path opacity="0.15" d="M140.335 470.333H112.668V498H140.335V470.333Z" stroke="black" stroke-width="0.31125"/>
<path d="M112.667 472.668C113.957 472.668 115.002 471.622 115.002 470.333C115.002 469.044 113.957 467.999 112.667 467.999C111.378 467.999 110.333 469.044 110.333 470.333C110.333 471.622 111.378 472.668 112.667 472.668Z" fill="black"/>
<path opacity="0.15" d="M168.001 470.333H140.334V498H168.001V470.333Z" stroke="black" stroke-width="0.31125"/>
<path d="M140.335 472.668C141.625 472.668 142.67 471.622 142.67 470.333C142.67 469.044 141.625 467.999 140.335 467.999C139.046 467.999 138.001 469.044 138.001 470.333C138.001 471.622 139.046 472.668 140.335 472.668Z" fill="black"/>
<path opacity="0.15" d="M195.669 470.333H168.002V498H195.669V470.333Z" stroke="black" stroke-width="0.31125"/>
<path d="M168 472.668C169.29 472.668 170.335 471.622 170.335 470.333C170.335 469.044 169.29 467.999 168 467.999C166.711 467.999 165.666 469.044 165.666 470.333C165.666 471.622 166.711 472.668 168 472.668Z" fill="black"/>
<path opacity="0.15" d="M223.335 470.333H195.668V498H223.335V470.333Z" stroke="black" stroke-width="0.31125"/>
<path d="M195.668 472.668C196.958 472.668 198.003 471.622 198.003 470.333C198.003 469.044 196.958 467.999 195.668 467.999C194.379 467.999 193.334 469.044 193.334 470.333C193.334 471.622 194.379 472.668 195.668 472.668Z" fill="black"/>
<path opacity="0.15" d="M251.002 470.333H223.335V498H251.002V470.333Z" stroke="black" stroke-width="0.31125"/>
<path d="M223.334 472.668C224.624 472.668 225.669 471.622 225.669 470.333C225.669 469.044 224.624 467.999 223.334 467.999C222.045 467.999 221 469.044 221 470.333C221 471.622 222.045 472.668 223.334 472.668Z" fill="black"/>
<path opacity="0.15" d="M278.668 470.333H251.001V498H278.668V470.333Z" stroke="black" stroke-width="0.31125"/>
<path d="M251.001 472.668C252.291 472.668 253.336 471.622 253.336 470.333C253.336 469.044 252.291 467.999 251.001 467.999C249.712 467.999 248.667 469.044 248.667 470.333C248.667 471.622 249.712 472.668 251.001 472.668Z" fill="black"/>
<path opacity="0.15" d="M112.668 498H85.001V525.667H112.668V498Z" stroke="black" stroke-width="0.31125"/>
<path d="M85.0014 500.334C86.2906 500.334 87.3357 499.289 87.3357 498C87.3357 496.711 86.2906 495.666 85.0014 495.666C83.7121 495.666 82.667 496.711 82.667 498C82.667 499.289 83.7121 500.334 85.0014 500.334Z" fill="black"/>
<path opacity="0.15" d="M140.335 498H112.668V525.667H140.335V498Z" stroke="black" stroke-width="0.31125"/>
<path d="M112.667 500.334C113.957 500.334 115.002 499.289 115.002 498C115.002 496.711 113.957 495.666 112.667 495.666C111.378 495.666 110.333 496.711 110.333 498C110.333 499.289 111.378 500.334 112.667 500.334Z" fill="black"/>
<path opacity="0.15" d="M168.001 498H140.334V525.667H168.001V498Z" stroke="black" stroke-width="0.31125"/>
<path d="M140.335 500.334C141.625 500.334 142.67 499.289 142.67 498C142.67 496.711 141.625 495.666 140.335 495.666C139.046 495.666 138.001 496.711 138.001 498C138.001 499.289 139.046 500.334 140.335 500.334Z" fill="black"/>
<path opacity="0.15" d="M195.669 498H168.002V525.667H195.669V498Z" stroke="black" stroke-width="0.31125"/>
<path d="M168 500.334C169.29 500.334 170.335 499.289 170.335 498C170.335 496.711 169.29 495.666 168 495.666C166.711 495.666 165.666 496.711 165.666 498C165.666 499.289 166.711 500.334 168 500.334Z" fill="black"/>
<path opacity="0.15" d="M223.335 498H195.668V525.667H223.335V498Z" stroke="black" stroke-width="0.31125"/>
<path d="M195.668 500.334C196.958 500.334 198.003 499.289 198.003 498C198.003 496.711 196.958 495.666 195.668 495.666C194.379 495.666 193.334 496.711 193.334 498C193.334 499.289 194.379 500.334 195.668 500.334Z" fill="black"/>
<path opacity="0.15" d="M251.002 498H223.335V525.667H251.002V498Z" stroke="black" stroke-width="0.31125"/>
<path d="M223.334 500.334C224.624 500.334 225.669 499.289 225.669 498C225.669 496.711 224.624 495.666 223.334 495.666C222.045 495.666 221 496.711 221 498C221 499.289 222.045 500.334 223.334 500.334Z" fill="black"/>
<path opacity="0.15" d="M278.668 498H251.001V525.667H278.668V498Z" stroke="black" stroke-width="0.31125"/>
<path d="M251.001 500.334C252.291 500.334 253.336 499.289 253.336 498C253.336 496.711 252.291 495.666 251.001 495.666C249.712 495.666 248.667 496.711 248.667 498C248.667 499.289 249.712 500.334 251.001 500.334Z" fill="black"/>
</g>
<path d="M69.3296 425.41C109.873 436.274 151.547 412.214 162.41 371.67C173.274 331.127 149.214 289.453 108.67 278.59C68.1267 267.726 26.4531 291.786 15.5895 332.33C4.72594 372.873 28.7862 414.547 69.3296 425.41Z" fill="#DED1BC" stroke="#021839" stroke-width="2.05197" stroke-miterlimit="10"/>
<path d="M138.952 365.385C136.454 374.711 131.559 382.751 125.102 389.03C122.249 391.808 119.088 394.249 115.695 396.287C114.093 397.254 112.445 398.13 110.748 398.913C105.43 401.381 99.6752 402.956 93.7291 403.503C89.6936 403.877 85.5578 403.773 81.4134 403.145C79.4819 402.862 77.5499 402.461 75.6174 401.943C61.3962 398.132 50.152 388.741 43.6089 376.77C41.7981 373.459 40.349 369.948 39.2916 366.303C38.3488 363.023 37.7263 359.638 37.4446 356.19C37.1595 352.794 37.2251 349.339 37.647 345.861C37.9327 343.447 38.3989 341.033 39.0468 338.615C46.4396 311.025 74.7942 294.655 102.384 302.047C121.372 307.135 135.041 322.147 139.313 340.016C140.86 346.474 141.174 353.308 140.072 360.177C139.791 361.919 139.416 363.656 138.952 365.385Z" fill="#FFCC00" stroke="#021839" stroke-width="2.05197" stroke-linecap="round" stroke-linejoin="round"/>
<path d="M140.072 360.177C137.608 357.956 134.584 356.259 131.155 355.34C124.075 353.443 116.871 355.273 111.644 359.639C111.664 359.602 111.666 359.555 111.677 359.516C111.138 359.881 110.558 360.161 109.968 360.343C108.97 360.66 107.931 360.711 106.915 360.438C105.334 360.015 104.082 358.883 103.3 357.361C103.209 357.385 103.124 357.404 103.034 357.423C102.177 357.629 101.289 357.63 100.422 357.397C98.4798 356.877 97.0393 355.296 96.3574 353.223L96.3601 353.213C96.3241 353.129 96.3008 353.038 96.2725 352.945C95.0852 353.471 93.8072 353.623 92.5634 353.289C92.3851 353.242 92.2143 353.185 92.0412 353.118C89.1739 352.025 88.2156 348.407 89.8964 345.841C92.0197 342.634 94.6633 339.863 97.6899 337.626C99.1214 336.565 100.633 335.621 102.213 334.817C109.143 331.252 117.372 330.153 125.494 332.33C130.399 333.644 134.746 336.014 138.343 339.14C138.677 339.42 139 339.719 139.315 340.011C139.392 340.339 139.471 340.679 139.544 341.018C140.884 347.176 141.121 353.666 140.068 360.171L140.072 360.177Z" fill="white" stroke="#021839" stroke-width="2.05197" stroke-linecap="round" stroke-linejoin="round"/>
<path d="M138.952 365.385C136.454 374.71 131.559 382.751 125.102 389.03C122.249 391.808 119.088 394.249 115.695 396.287C113.361 396.198 111.003 395.842 108.644 395.21C106.618 394.667 104.687 393.943 102.858 393.06C98.4761 390.94 94.7219 387.906 91.7694 384.257C89.891 381.932 88.3475 379.368 87.1691 376.63C89.594 376.876 92.0041 376.741 94.3109 376.239C98.0638 375.433 101.555 373.682 104.448 371.191C107.304 368.737 109.578 365.544 110.953 361.818C111.204 361.158 111.417 360.482 111.603 359.788C111.615 359.744 111.628 359.694 111.63 359.647C114.839 356.969 118.777 355.252 122.981 354.748C125.519 354.451 128.152 354.594 130.768 355.257C130.895 355.281 131.018 355.314 131.147 355.348C134.576 356.267 137.6 357.964 140.064 360.186C139.783 361.927 139.408 363.664 138.945 365.394L138.952 365.385Z" fill="#48648E" stroke="#021839" stroke-width="2.05197" stroke-linecap="round" stroke-linejoin="round"/>
<path d="M125.102 389.03C122.249 391.808 119.088 394.248 115.695 396.287C114.092 397.254 112.445 398.13 110.748 398.913C105.429 401.38 99.6751 402.956 93.7291 403.503C89.6935 403.877 85.5577 403.772 81.4133 403.145C79.4819 402.861 77.5499 402.461 75.6174 401.943C61.3961 398.132 50.152 388.741 43.6089 376.769C41.798 373.459 40.3489 369.948 39.2915 366.303C38.3487 363.023 37.7263 359.638 37.4445 356.19C37.1595 352.794 37.2251 349.338 37.6469 345.861C45.2077 343.867 53.1539 343.07 60.8579 344.544C69.9078 346.268 77.6683 352.15 83.2912 359.271C87.4559 364.54 90.18 370.963 94.3172 376.235C95.1199 377.263 95.9783 378.242 96.911 379.161C101.358 383.555 107.079 386.384 113.133 387.793C117.041 388.708 121.067 389.101 125.102 389.03Z" fill="#8ECDDE" stroke="#021839" stroke-width="2.05197" stroke-linecap="round" stroke-linejoin="round"/>
<path d="M138.952 365.385C136.454 374.711 131.559 382.751 125.102 389.03C122.249 391.808 119.088 394.249 115.695 396.287C114.093 397.254 112.445 398.13 110.748 398.913C105.43 401.381 99.6752 402.956 93.7291 403.503C89.6936 403.877 85.5578 403.773 81.4134 403.145C79.4819 402.862 77.5499 402.461 75.6174 401.943C61.3962 398.132 50.152 388.741 43.6089 376.77C41.7981 373.459 40.349 369.948 39.2916 366.303C38.3488 363.023 37.7263 359.638 37.4446 356.19C37.1595 352.794 37.2251 349.339 37.647 345.861C37.9327 343.447 38.3989 341.033 39.0468 338.615C46.4396 311.025 74.7942 294.655 102.384 302.047C121.372 307.135 135.041 322.147 139.313 340.016C140.86 346.474 141.174 353.308 140.072 360.177C139.791 361.919 139.416 363.656 138.952 365.385Z" stroke="#021839" stroke-width="2.05197" stroke-linecap="round" stroke-linejoin="round"/>
<path d="M37.3825 397.344L36.1368 396.001L43.0423 387.221L44.3404 388.62L40.415 393.417L38.9896 394.845L40.5237 393.715L45.963 390.368L46.8633 391.338L43.0675 396.456L41.704 397.973L43.3776 396.609L48.5277 393.132L49.8153 394.519L40.4078 400.604L39.1726 399.273L42.8886 394.25L44.0796 392.977L42.7211 394.069L37.3825 397.344Z" fill="#021839"/>
<path d="M43.9154 403.778L45.0911 402.315L46.099 403.124L50.6766 397.425L49.6687 396.615L50.8251 395.175L54.3168 397.98L53.1604 399.419L52.1765 398.629L47.5989 404.329L48.5828 405.119L47.4071 406.583L43.9154 403.778Z" fill="#021839"/>
<path d="M49.8724 408.361L55.8304 399.073L57.5403 400.17L52.6542 407.787L55.1413 409.382L54.0693 411.053L49.8724 408.361Z" fill="#021839"/>
<path d="M61.4995 402.611L64.0661 403.844C64.6487 404.123 65.1015 404.46 65.4594 404.888C66.1608 405.703 66.3093 406.816 65.6298 408.231L63.6913 412.268C63.3515 412.976 62.9602 413.47 62.4901 413.774C61.5709 414.408 60.441 414.344 59.2757 413.784L56.723 412.558L61.4995 402.611ZM62.5497 405.01L59.2721 411.836L59.9657 412.169C60.7288 412.536 61.3926 412.291 61.9122 411.209L63.7109 407.463C64.2372 406.367 63.9925 405.703 63.2295 405.337L62.5497 405.01Z" fill="#021839"/>
<path d="M70.3111 418.038L65.322 416.41L68.7446 405.92L73.6459 407.519L73.0874 409.231L70.0589 408.243L69.2092 410.847L71.872 411.716L71.3087 413.443L68.6459 412.574L67.7723 415.251L70.8887 416.268L70.3111 418.038Z" fill="#021839"/>
<path d="M75.9584 414.989L75.203 419.138L73.3104 418.793L75.2872 407.937L78.2094 408.469C80.2534 408.841 80.9579 409.783 80.6298 411.585L80.3927 412.887C80.1997 413.947 79.7041 414.435 78.8946 414.585C79.6351 414.986 79.7905 415.593 79.5947 416.668L79.1481 419.121C79.0902 419.439 79.1548 419.685 79.3062 419.885L77.247 419.51C77.1301 419.379 77.1191 419.096 77.1825 418.747L77.6099 416.4C77.7505 415.628 77.5936 415.287 76.776 415.138L75.9584 414.989ZM76.8765 409.947L76.2727 413.263L77.1963 413.431C77.9685 413.572 78.3347 413.279 78.4671 412.552L78.6876 411.341C78.8172 410.629 78.5723 410.256 77.785 410.113L76.8765 409.947Z" fill="#021839"/>
<path d="M84.1392 420.302L82.3405 420.218L82.8546 409.196L84.6225 409.278L86.8694 415.607L87.1957 416.871L87.1576 415.374L87.4358 409.41L89.2344 409.493L88.7204 420.516L86.9986 420.436L84.6923 414.058L84.3696 412.718L84.4159 414.368L84.1392 420.302Z" fill="#021839"/>
<path d="M97.3264 420.023L92.0935 420.42L91.2585 409.417L96.3993 409.027L96.5355 410.822L93.359 411.063L93.5663 413.795L96.3592 413.583L96.4966 415.394L93.7037 415.606L93.9168 418.414L97.1854 418.166L97.3264 420.023Z" fill="#021839"/>
<path d="M103.099 419.243C100.849 419.686 99.8856 418.856 99.5229 417.014L99.2374 415.565L101.261 415.166L101.54 416.586C101.677 417.28 101.999 417.64 102.784 417.486C103.494 417.346 103.649 416.861 103.53 416.257L103.42 415.698C103.361 415.396 103.238 415.169 103.027 414.975C102.63 414.63 102.011 414.438 101.348 414.255C100.965 414.142 100.579 414.014 100.214 413.835C99.4578 413.498 98.8438 412.929 98.6238 411.811L98.5346 411.358C98.2045 409.682 98.9264 408.489 100.874 408.106C102.822 407.722 103.885 408.501 104.197 410.086L104.429 411.264L102.512 411.642L102.304 410.585C102.164 409.875 101.845 409.608 101.18 409.739C100.531 409.867 100.358 410.341 100.485 410.99L100.545 411.292C100.601 411.579 100.721 411.79 100.923 411.939C101.315 412.254 101.915 412.434 102.563 412.62C102.946 412.733 103.32 412.879 103.712 413.037C104.468 413.374 105.101 413.955 105.324 415.088L105.487 415.918C105.826 417.64 105.047 418.86 103.099 419.243Z" fill="#021839"/>
<path d="M111.749 416.939C109.579 417.679 108.513 416.985 107.908 415.208L107.431 413.81L109.383 413.144L109.85 414.514C110.078 415.184 110.445 415.498 111.203 415.24C111.887 415.006 111.976 414.504 111.778 413.922L111.594 413.383C111.495 413.091 111.343 412.883 111.108 412.719C110.668 412.43 110.03 412.322 109.348 412.23C108.953 412.169 108.554 412.094 108.168 411.965C107.373 411.732 106.689 411.25 106.321 410.172L106.172 409.735C105.621 408.118 106.177 406.839 108.056 406.199C109.936 405.558 111.093 406.188 111.615 407.718L112.002 408.854L110.152 409.484L109.804 408.465C109.571 407.78 109.219 407.558 108.578 407.777C107.952 407.99 107.843 408.483 108.057 409.109L108.156 409.4C108.25 409.677 108.397 409.871 108.617 409.991C109.047 410.251 109.666 410.349 110.333 410.447C110.728 410.507 111.118 410.602 111.528 410.706C112.322 410.939 113.027 411.431 113.399 412.524L113.672 413.325C114.238 414.986 113.629 416.299 111.749 416.939Z" fill="#021839"/>
<path d="M41.5014 315.77L40.0707 317.299L29.5038 310.13L30.9946 308.537L36.7801 312.628L38.5227 314.139L37.1113 312.48L32.858 306.547L33.892 305.442L40.0327 309.359L41.8723 310.792L40.1825 308.993L35.8035 303.4L37.2823 301.82L44.9758 312.059L43.5572 313.574L37.5312 309.74L35.9837 308.485L37.3388 309.946L41.5014 315.77Z" fill="#021839"/>
<path d="M52.6213 303.725L50.4224 305.247L51.1941 306.98L49.3279 308.272L44.4511 296.307L46.3173 295.016L55.8524 303.757L53.9862 305.048L52.6213 303.725ZM49.6096 303.392L51.172 302.311L48.0997 299.324L46.983 297.957L47.8682 299.484L49.6096 303.392Z" fill="#021839"/>
<path d="M61.3102 300.975L53.5558 290.641L55.6709 289.682L60.1409 295.923L61.0155 297.555L60.3652 295.821L58.5871 288.361L60.6862 287.409L63.3932 300.031L61.3102 300.975Z" fill="#021839"/>
<path d="M76.5976 295.96L70.7635 297.356L67.8275 285.089L73.559 283.718L74.0381 285.719L70.4965 286.567L71.2254 289.612L74.3392 288.867L74.8224 290.886L71.7086 291.631L72.458 294.762L76.1021 293.89L76.5976 295.96Z" fill="#021839"/>
<path d="M93.1732 295.459C90.9124 295.263 89.6472 293.97 89.8769 291.323L90.3347 286.048C90.5583 283.471 92.0859 282.35 94.2942 282.542C96.5025 282.734 97.8141 284.101 97.5905 286.678L97.1327 291.953C96.9046 294.582 95.3815 295.65 93.1732 295.459ZM93.3557 293.356C94.2671 293.435 94.6869 292.871 94.7994 291.574L95.2329 286.579C95.347 285.264 95.0307 284.637 94.1193 284.557C93.1729 284.475 92.7867 285.06 92.6741 286.357L92.2406 291.352C92.1281 292.649 92.4093 293.273 93.3557 293.356Z" fill="#021839"/>
<path d="M105.787 292.45L104.412 297.308L102.279 296.705L105.714 284.568L111.113 286.096L110.539 288.127L107.272 287.202L106.362 290.419L109.375 291.271L108.8 293.303L105.787 292.45Z" fill="#021839"/>
<path d="M119.293 303.557L120.455 301.753L121.698 302.553L126.222 295.527L124.979 294.727L126.122 292.952L130.426 295.724L129.284 297.499L128.071 296.718L123.547 303.743L124.759 304.524L123.597 306.329L119.293 303.557Z" fill="#021839"/>
<path d="M136.596 300.479L138.961 302.715C139.498 303.223 139.873 303.747 140.114 304.338C140.594 305.469 140.368 306.732 139.135 308.036L135.618 311.756C135.002 312.408 134.404 312.811 133.786 312.978C132.564 313.348 131.357 312.884 130.283 311.869L127.931 309.645L136.596 300.479ZM136.903 303.457L130.957 309.747L131.597 310.351C132.3 311.016 133.108 310.981 134.05 309.984L137.313 306.532C138.268 305.522 138.233 304.714 137.53 304.049L136.903 303.457Z" fill="#021839"/>
<path d="M140.128 323.628L136.641 318.747L146.905 311.415L150.33 316.211L148.655 317.407L146.539 314.444L143.991 316.264L145.852 318.869L144.163 320.076L142.302 317.471L139.682 319.342L141.86 322.391L140.128 323.628Z" fill="#021839"/>
<path d="M146.523 331.887L145.414 329.453L143.572 329.906L142.631 327.841L155.269 325.158L156.21 327.223L145.92 335.061L144.979 332.996L146.523 331.887ZM147.384 328.982L148.172 330.711L151.655 328.215L153.198 327.358L151.538 327.959L147.384 328.982Z" fill="#021839"/>
<path d="M147.996 342.979C147.394 340.428 148.301 339.292 150.389 338.799L152.033 338.411L152.575 340.705L150.965 341.085C150.178 341.271 149.78 341.654 149.991 342.544C150.181 343.349 150.742 343.506 151.427 343.344L152.06 343.194C152.403 343.113 152.656 342.963 152.869 342.714C153.246 342.245 153.439 341.531 153.619 340.765C153.732 340.323 153.861 339.877 154.05 339.452C154.403 338.574 155.027 337.848 156.294 337.549L156.808 337.427C158.708 336.978 160.102 337.752 160.624 339.96C161.145 342.169 160.301 343.417 158.504 343.841L157.168 344.157L156.655 341.983L157.853 341.699C158.658 341.509 158.948 341.133 158.771 340.38C158.597 339.644 158.048 339.466 157.312 339.64L156.97 339.721C156.645 339.798 156.408 339.944 156.247 340.181C155.904 340.641 155.724 341.335 155.54 342.083C155.427 342.526 155.276 342.959 155.113 343.413C154.76 344.292 154.123 345.039 152.839 345.342L151.897 345.565C149.945 346.026 148.518 345.188 147.996 342.979Z" fill="#021839"/>
</g>
<defs>
<clipPath id="clip0_1343_9139">
<rect width="498" height="498" fill="white" transform="translate(85)"/>
</clipPath>
</defs>
</svg>
