<svg width="226" height="471" viewBox="0 0 226 471" fill="none" xmlns="http://www.w3.org/2000/svg">
<mask id="mask0_1343_10083" style="mask-type:alpha" maskUnits="userSpaceOnUse" x="0" y="0" width="226" height="471">
<rect width="226" height="471" rx="23" fill="#C5C3C4"/>
</mask>
<g mask="url(#mask0_1343_10083)">
<path d="M139.411 -45.8132V483.46" stroke="black"/>
<path d="M95 -45.8132V483.46" stroke="black"/>
<path d="M187 -46.0398V546.96" stroke="black"/>
<path d="M988 237.96L95 237.96" stroke="black"/>
<path d="M988 284.96L95 284.96" stroke="black"/>
<path d="M988 332.96L95 332.96" stroke="black"/>
<path d="M988 -0.0397949L95 -0.0398489" stroke="black"/>
<path d="M988 379.96L95 379.96" stroke="black"/>
<path d="M988 47.9602L95 47.9602" stroke="black"/>
<path d="M988 427.96L95 427.96" stroke="black"/>
<path d="M988 94.9602L95 94.9602" stroke="black"/>
<path d="M988 142.96L95 142.96" stroke="black"/>
<path d="M988 189.96L95 189.96" stroke="black"/>
<circle cx="86.5" cy="325.5" r="75.5607" fill="white" stroke="black" stroke-width="0.878613"/>
<path d="M126.9 322.525L126.126 323.487L127.252 323.247C128.395 323.57 129.314 324.485 129.577 325.724C129.956 327.508 128.832 329.254 127.045 329.634C125.935 329.87 124.835 329.516 124.07 328.794L123.132 327.909L123.334 329.183C124.352 335.591 120.153 341.76 113.705 343.131C110.245 343.866 106.846 343.067 104.151 341.235L103.755 340.966L103.521 341.384C102.562 343.092 100.887 344.389 98.8162 344.83C96.2231 345.381 93.6767 344.458 92.0503 342.63L91.6663 342.198L91.353 342.684C89.6355 345.345 86.9 347.362 83.5429 348.076C78.1671 349.219 72.8435 346.661 70.27 342.148L69.933 341.557L69.533 342.107C68.5241 343.495 67.0419 344.52 65.2333 344.905C61.7985 345.635 58.4147 343.739 57.18 340.595L56.9922 340.117L56.549 340.377C55.8708 340.774 55.1356 341.076 54.3551 341.242C50.6233 342.035 46.9547 339.661 46.1652 335.947C45.3758 332.233 47.7615 328.571 51.4933 327.778C51.8691 327.698 52.2593 327.656 52.6639 327.635L53.2503 327.604L53.0547 327.05C52.8909 326.586 52.7506 326.126 52.6473 325.64C51.3249 319.418 55.3247 313.282 61.5736 311.953C64.3682 311.359 67.1544 311.837 69.4849 313.096L70.0432 313.398L70.1291 312.769C71.1513 305.284 76.7603 298.886 84.5943 297.22C91.5737 295.737 98.4798 298.412 102.712 303.566L102.99 303.905L103.329 303.628C104.455 302.709 105.782 302.046 107.29 301.725C112.323 300.655 117.258 303.849 118.323 308.859C118.482 309.607 118.536 310.36 118.519 311.091L118.505 311.735L119.109 311.513C119.379 311.415 119.653 311.336 119.954 311.272C123.749 310.465 127.496 312.89 128.298 316.667C128.753 318.807 128.178 320.935 126.9 322.525Z" fill="#1EB24D" stroke="black" stroke-width="0.878613"/>
<path d="M73.1671 318.844L74.905 327.02L73.1442 327.394L71.4063 319.218L69.7957 319.56L69.4533 317.95L74.449 316.888L74.7914 318.498L73.1671 318.844ZM79.412 326.219C77.6512 326.593 76.3922 325.905 75.9541 323.844L75.0808 319.735C74.6543 317.729 75.5539 316.525 77.2737 316.159C78.9936 315.793 80.3052 316.527 80.7317 318.534L81.605 322.642C82.0401 324.69 81.1318 325.853 79.412 326.219ZM79.0638 324.581C79.7736 324.43 79.9616 323.905 79.7469 322.895L78.92 319.005C78.7024 317.981 78.3172 317.578 77.6074 317.729C76.8703 317.885 76.7125 318.418 76.9272 319.428L77.7541 323.318C77.9688 324.328 78.3268 324.737 79.0638 324.581ZM83.9582 316.55L85.6961 324.726L83.9353 325.1L82.1974 316.924L80.5868 317.267L80.2444 315.656L85.2401 314.594L85.5825 316.205L83.9582 316.55ZM90.1507 322.267L88.076 322.708L88.1105 324.213L86.3497 324.587L86.4398 314.339L88.2006 313.965L92.5057 323.279L90.7449 323.653L90.1507 322.267ZM88.0484 321.102L89.5226 320.788L88.1876 317.662L87.7883 316.321L87.9692 317.709L88.0484 321.102ZM92.8175 323.212L90.7372 313.426L92.539 313.043L94.2449 321.069L96.8656 320.511L97.2399 322.272L92.8175 323.212ZM97.7931 322.155L95.7129 312.368L97.5147 311.985L99.2206 320.011L101.841 319.454L102.216 321.215L97.7931 322.155ZM102.948 321.059L102.202 317.551L98.8747 311.696L100.704 311.307L102.441 314.647L102.727 315.457L102.659 314.601L102.929 310.834L104.744 310.448L104.018 317.165L104.763 320.673L102.948 321.059ZM78.0924 338.767C76.0587 339.199 75.1739 338.46 74.82 336.795L74.5415 335.485L76.3705 335.096L76.6432 336.379C76.7767 337.007 77.0734 337.329 77.7832 337.178C78.4247 337.042 78.559 336.599 78.4429 336.053L78.3356 335.548C78.2775 335.275 78.1629 335.072 77.9692 334.899C77.6042 334.591 77.0412 334.425 76.4372 334.269C76.0884 334.171 75.7368 334.061 75.4037 333.903C74.7132 333.608 74.1487 333.1 73.934 332.09L73.847 331.681C73.525 330.165 74.1632 329.074 75.924 328.7C77.6848 328.325 78.6592 329.017 78.9638 330.45L79.1902 331.515L77.4567 331.883L77.2536 330.928C77.1172 330.286 76.8242 330.049 76.2237 330.177C75.6367 330.301 75.4859 330.733 75.6107 331.32L75.6687 331.593C75.7238 331.852 75.8356 332.042 76.0206 332.174C76.3797 332.455 76.9262 332.61 77.5166 332.769C77.8654 332.866 78.2063 332.994 78.5637 333.132C79.2542 333.427 79.8352 333.946 80.0528 334.969L80.2124 335.72C80.5431 337.276 79.8532 338.393 78.0924 338.767ZM81.2737 337.934L79.1935 328.147L80.9952 327.764L82.7012 335.79L85.3219 335.233L85.6961 336.994L81.2737 337.934ZM89.6246 334.647L87.5499 335.088L87.5845 336.593L85.8237 336.967L85.9137 326.719L87.6745 326.345L91.9796 335.658L90.2188 336.033L89.6246 334.647ZM87.5223 333.482L88.9965 333.168L87.6616 330.042L87.2622 328.701L87.4432 330.089L87.5223 333.482ZM92.7636 335.492L92.018 331.984L88.6905 326.129L90.5196 325.74L92.2567 329.08L92.5428 329.889L92.4751 329.034L92.7444 325.267L94.5598 324.881L93.8333 331.598L94.579 335.106L92.7636 335.492ZM101.508 333.633L96.8538 334.622L94.7736 324.836L99.3462 323.864L99.6857 325.461L96.8602 326.061L97.3766 328.491L99.8608 327.963L100.203 329.574L97.719 330.102L98.2499 332.599L101.157 331.981L101.508 333.633ZM99.9892 323.727L102.514 323.19C103.088 323.069 103.599 323.06 104.093 323.169C105.048 323.365 105.771 324.082 106.067 325.474L106.911 329.446C107.059 330.142 107.052 330.714 106.883 331.192C106.574 332.157 105.728 332.736 104.581 332.98L102.069 333.514L99.9892 323.727ZM102.072 324.868L103.499 331.583L104.182 331.438C104.933 331.279 105.274 330.736 105.047 329.671L104.264 325.986C104.035 324.907 103.492 324.566 102.741 324.726L102.072 324.868Z" fill="black"/>
<path d="M36.6876 302.625L37.1999 301.6L32.9883 299.483L32.5739 300.312L31.5493 299.799C31.7753 299.114 31.587 298.631 30.9541 298.112L31.5041 297.027L37.8931 300.236L38.3828 299.257L39.7163 299.927L38.0212 303.303L36.6876 302.632V302.625Z" fill="black"/>
<path d="M37.7809 298.21L34.707 296.296C33.2001 295.362 32.9816 294.073 33.7803 292.777C34.5789 291.489 35.8371 291.112 37.3439 292.054L40.4179 293.968C41.9624 294.932 42.1583 296.198 41.3521 297.486C40.5309 298.805 39.3254 299.167 37.7809 298.202V298.21ZM39.4912 295.294L36.5378 293.463C35.7693 292.988 35.2796 292.981 34.948 293.508C34.6015 294.058 34.8727 294.495 35.6111 294.955L38.5645 296.786C39.3254 297.26 39.7925 297.275 40.1391 296.725C40.4706 296.19 40.2521 295.761 39.4987 295.286L39.4912 295.294Z" fill="black"/>
<path d="M40.9973 293.139L38.1493 290.909C36.7555 289.816 36.6726 288.513 37.6069 287.315C38.5411 286.117 39.8295 285.883 41.2233 286.975L44.0712 289.206C45.5027 290.328 45.5554 291.609 44.6212 292.807C43.6644 294.035 42.4288 294.261 40.9973 293.139ZM43.0089 290.426L40.274 288.286C39.5582 287.729 39.0761 287.669 38.6843 288.166C38.285 288.678 38.5035 289.138 39.1891 289.673L41.924 291.813C42.6246 292.363 43.0918 292.431 43.4911 291.918C43.8753 291.421 43.7096 290.976 43.0089 290.426Z" fill="black"/>
<path d="M42.0377 285.936L41.209 285.107C40.561 284.459 40.6213 283.698 41.224 283.095C41.8268 282.492 42.5953 282.432 43.2357 283.073L44.0644 283.901C44.6973 284.534 44.6747 285.273 44.0343 285.913C43.3863 286.561 42.6706 286.561 42.0377 285.936ZM43.2658 284.587L42.535 283.856C42.2939 283.615 42.0829 283.592 41.9021 283.773C41.7213 283.954 41.7514 284.165 41.9925 284.406L42.7233 285.137C42.9644 285.378 43.1754 285.401 43.3562 285.22C43.537 285.039 43.5069 284.828 43.2658 284.587ZM46.3548 289.379C46.1664 288.61 45.8199 287.518 45.4507 286.29L44.3658 282.749C44.0493 281.701 43.8233 280.903 43.7781 280.654L44.8932 279.531C44.9082 279.667 44.961 279.923 45.0665 280.3C45.2925 281.068 45.6089 282.146 45.9932 283.381L47.0781 286.908C47.4021 287.978 47.6205 288.754 47.6582 289.002L46.5206 290.148C46.5055 290.012 46.4527 289.756 46.3473 289.379H46.3548ZM48.2308 286.621L47.387 285.777C46.739 285.129 46.7767 284.353 47.387 283.743C47.9897 283.14 48.7733 283.103 49.4137 283.743L50.2575 284.587C50.8904 285.22 50.8678 285.958 50.2274 286.599C49.5794 287.247 48.8637 287.269 48.2233 286.629L48.2308 286.621ZM49.4664 285.265L48.713 284.519C48.4719 284.278 48.2609 284.255 48.0801 284.436C47.8993 284.617 47.9294 284.828 48.163 285.069L48.9164 285.815C49.15 286.041 49.3609 286.071 49.5418 285.89C49.7226 285.71 49.6924 285.499 49.4664 285.265Z" fill="black"/>
<path d="M52.1557 281.973L51.4776 281.031L52.7885 280.081L53.4515 281.001C53.7755 281.453 54.1221 281.603 54.6344 281.234C55.094 280.903 55.0488 280.503 54.7625 280.111L54.4988 279.75C54.3556 279.554 54.1974 279.433 53.9789 279.366C53.5796 279.253 53.0824 279.313 52.5474 279.403C52.2385 279.448 51.9221 279.486 51.6057 279.479C50.9577 279.486 50.3324 279.283 49.8125 278.559L49.6016 278.265C48.818 277.181 48.9386 276.096 50.2043 275.184C51.4625 274.272 52.4796 274.476 53.218 275.508L53.768 276.269L52.5248 277.165L52.0276 276.48C51.6961 276.02 51.3796 275.937 50.9502 276.246C50.5283 276.548 50.5584 276.947 50.8673 277.361L51.0105 277.557C51.1461 277.746 51.2968 277.851 51.4926 277.896C51.8769 277.994 52.3591 277.926 52.8789 277.844C53.1878 277.798 53.5043 277.783 53.8358 277.761C54.4837 277.761 55.1241 277.957 55.6515 278.695L56.0433 279.23C56.8494 280.345 56.6912 281.468 55.433 282.379C53.9789 283.434 53.0221 283.155 52.1557 281.965V281.973Z" fill="black"/>
<path d="M53.4814 273.082L54.8527 272.275L58.454 278.378L60.4506 277.203L61.2416 278.544L57.8814 280.533L53.489 273.089L53.4814 273.082Z" fill="black"/>
<path d="M62.6136 276.434L62.9375 277.693L61.5286 278.348L59.6074 269.706L61.0163 269.051L66.456 276.05L65.0471 276.706L64.2786 275.658L62.6211 276.434H62.6136ZM63.4574 274.536L61.7245 272.162L61.1293 271.107L61.5512 272.238L62.2821 275.078L63.4649 274.528L63.4574 274.536Z" fill="black"/>
<path d="M66.2814 272.855L62.7178 268.259L64.2321 267.702L66.1308 270.346L66.4773 271.002L66.3116 270.279L66.078 267.024L67.5848 266.474L67.7883 272.305L68.8581 275.214L67.3513 275.764L66.2814 272.855Z" fill="black"/>
<path d="M73.703 273.767L72.1962 274.159L70.3654 267.175L68.9866 267.536L68.625 266.157L72.8893 265.035L73.251 266.414L71.8647 266.775L73.6955 273.76L73.703 273.767Z" fill="black"/>
<path d="M75.3384 271.861L76.3329 271.688L75.3535 266.044L74.359 266.217L74.1104 264.793L77.5685 264.191L77.8172 265.615L76.8453 265.788L77.8247 271.431L78.7966 271.258L79.0528 272.705L75.5946 273.308L75.346 271.861H75.3384Z" fill="black"/>
<path d="M79.3763 270.505L79.2784 269.352L80.8907 269.216L80.9886 270.346C81.0338 270.896 81.2523 271.205 81.8776 271.153C82.4427 271.107 82.6085 270.738 82.5633 270.256L82.5256 269.811C82.503 269.57 82.4276 269.382 82.2845 269.216C82.0057 268.915 81.5386 268.711 81.0414 268.508C80.7551 268.387 80.4612 268.252 80.1975 268.086C79.64 267.762 79.2106 267.265 79.1352 266.376L79.1051 266.014C78.9921 264.68 79.6551 263.814 81.2071 263.678C82.7591 263.543 83.5201 264.243 83.6256 265.502L83.7085 266.436L82.1865 266.564L82.1112 265.72C82.066 265.155 81.84 264.921 81.3126 264.967C80.7927 265.012 80.6194 265.366 80.6646 265.878L80.6872 266.119C80.7099 266.346 80.7852 266.526 80.9283 266.654C81.2071 266.933 81.6592 267.122 82.1489 267.325C82.4352 267.446 82.7139 267.589 83.0078 267.747C83.5653 268.071 84.0098 268.583 84.0852 269.48L84.1379 270.143C84.2509 271.514 83.5427 272.396 81.9907 272.531C80.1975 272.682 79.5195 271.951 79.3989 270.49L79.3763 270.505Z" fill="black"/>
<path d="M86.4965 272.223L84.9746 272.2L85.1178 263.558L88.9602 263.618L88.9376 265.065L86.6095 265.027L86.5719 267.318L88.7191 267.355L88.6965 268.802L86.5492 268.764L86.4965 272.223Z" fill="black"/>
<path d="M89.5929 270.814L90.6025 270.904L91.1073 265.2L90.0977 265.11L90.2258 263.671L93.7217 263.98L93.5936 265.419L92.6066 265.336L92.1018 271.04L93.0888 271.13L92.9607 272.599L89.4648 272.291L89.5929 270.821V270.814Z" fill="black"/>
<path d="M93.7441 272.675L95.2208 264.161L99.1989 264.854L98.9578 266.24L96.5016 265.818L96.1325 267.935L98.2948 268.312L98.0537 269.714L95.8914 269.337L95.5147 271.507L98.0462 271.944L97.7975 273.383L93.7441 272.682V272.675Z" fill="black"/>
<path d="M102.936 265.788C103.426 265.924 103.818 266.12 104.157 266.398C104.812 266.933 105.076 267.77 104.752 268.953L103.818 272.336C103.652 272.931 103.418 273.368 103.102 273.662C102.484 274.28 101.603 274.385 100.623 274.114L98.4834 273.519L100.789 265.185L102.936 265.781V265.788ZM100.344 272.614L100.924 272.773C101.565 272.946 102.04 272.667 102.296 271.763L103.162 268.621C103.418 267.702 103.14 267.227 102.499 267.046L101.927 266.888L100.344 272.607V272.614Z" fill="black"/>
<path d="M108.88 275.462L109.912 275.967L111.984 271.733L111.148 271.326L111.653 270.294C112.338 270.512 112.82 270.316 113.333 269.683L114.425 270.218L111.283 276.638L112.27 277.12L111.615 278.461L108.225 276.804L108.88 275.462Z" fill="black"/>
<path d="M113.311 276.51L115.194 273.421C116.113 271.906 117.402 271.672 118.698 272.464C119.993 273.255 120.378 274.506 119.459 276.02L117.575 279.109C116.626 280.661 115.36 280.865 114.064 280.081C112.738 279.275 112.361 278.069 113.311 276.517V276.51ZM116.241 278.19L118.042 275.221C118.509 274.445 118.517 273.955 117.982 273.631C117.424 273.292 116.995 273.564 116.543 274.31L114.742 277.278C114.275 278.039 114.26 278.506 114.818 278.845C115.352 279.169 115.782 278.951 116.249 278.19H116.241Z" fill="black"/>
<path d="M118.411 279.674L120.611 276.804C121.688 275.395 122.992 275.304 124.197 276.224C125.403 277.143 125.651 278.431 124.574 279.84L122.374 282.711C121.266 284.157 119.986 284.218 118.78 283.299C117.545 282.349 117.304 281.121 118.411 279.674ZM121.138 281.664L123.248 278.906C123.798 278.19 123.851 277.7 123.353 277.316C122.834 276.917 122.374 277.143 121.847 277.836L119.737 280.594C119.195 281.302 119.127 281.769 119.647 282.161C120.144 282.545 120.596 282.372 121.138 281.664Z" fill="black"/>
<path d="M122.224 284.994C122.992 284.798 124.077 284.444 125.305 284.059L128.839 282.944C129.886 282.62 130.685 282.387 130.933 282.342L132.063 283.449C131.928 283.464 131.672 283.525 131.295 283.63C130.527 283.864 129.449 284.188 128.221 284.587L124.703 285.702C123.633 286.041 122.857 286.26 122.616 286.305L121.463 285.175C121.599 285.16 121.855 285.099 122.231 284.994H122.224ZM124.996 286.847L125.833 285.996C126.473 285.34 127.249 285.378 127.867 285.981C128.477 286.576 128.522 287.36 127.89 288.008L127.053 288.859C126.428 289.499 125.69 289.477 125.042 288.852C124.386 288.211 124.364 287.495 124.996 286.847ZM125.622 280.646L126.435 279.81C127.076 279.154 127.837 279.207 128.447 279.81C129.057 280.405 129.118 281.174 128.485 281.822L127.671 282.658C127.046 283.298 126.307 283.276 125.659 282.651C125.004 282.01 124.996 281.294 125.622 280.654V280.646ZM126.36 288.06L127.098 287.299C127.332 287.058 127.355 286.847 127.174 286.666C126.993 286.486 126.782 286.516 126.541 286.757L125.803 287.518C125.577 287.751 125.554 287.962 125.735 288.143C125.916 288.324 126.127 288.294 126.36 288.06ZM126.978 281.852L127.701 281.113C127.935 280.872 127.957 280.661 127.777 280.481C127.596 280.3 127.385 280.33 127.144 280.571L126.42 281.309C126.187 281.55 126.164 281.761 126.345 281.942C126.526 282.123 126.737 282.093 126.978 281.852Z" fill="black"/>
<path d="M129.689 290.728L130.624 290.042L131.581 291.345L130.669 292.016C130.224 292.348 130.074 292.694 130.45 293.199C130.789 293.659 131.181 293.606 131.573 293.32L131.935 293.056C132.13 292.913 132.251 292.747 132.311 292.536C132.424 292.137 132.349 291.639 132.259 291.104C132.213 290.795 132.176 290.479 132.176 290.163C132.161 289.515 132.357 288.889 133.08 288.362L133.374 288.151C134.451 287.36 135.536 287.473 136.455 288.723C137.374 289.974 137.178 290.991 136.161 291.737L135.408 292.295L134.496 291.059L135.174 290.562C135.626 290.223 135.709 289.914 135.4 289.484C135.091 289.07 134.7 289.1 134.285 289.409L134.089 289.552C133.909 289.688 133.796 289.846 133.758 290.034C133.667 290.419 133.735 290.901 133.826 291.421C133.871 291.73 133.893 292.046 133.916 292.37C133.931 293.018 133.728 293.659 133.004 294.194L132.47 294.585C131.362 295.399 130.239 295.256 129.313 294.005C128.25 292.559 128.514 291.602 129.697 290.728H129.689Z" fill="black"/>
<path d="M138.588 291.963L139.409 293.327L133.336 296.989L134.534 298.971L133.201 299.777L131.182 296.431L138.58 291.963H138.588Z" fill="black"/>
<path d="M135.324 301.125L134.066 301.457L133.396 300.055L142.022 298.051L142.693 299.453L135.746 304.961L135.076 303.559L136.115 302.775L135.324 301.125ZM137.23 301.954L139.581 300.199L140.628 299.588L139.498 300.025L136.665 300.779L137.23 301.954Z" fill="black"/>
<path d="M138.942 304.765L143.508 301.156L144.08 302.67L141.458 304.591L140.803 304.945L141.526 304.772L144.781 304.508L145.346 306.008L139.515 306.264L136.614 307.364L136.049 305.865L138.949 304.772L138.942 304.765Z" fill="black"/>
<path d="M138.098 312.179L137.691 310.679L144.661 308.781L144.284 307.409L145.655 307.033L146.815 311.29L145.444 311.667L145.067 310.28L138.098 312.179Z" fill="black"/>
<path d="M140.019 313.791L140.2 314.786L145.828 313.746L145.647 312.752L147.071 312.488L147.704 315.939L146.28 316.202L146.099 315.23L140.471 316.27L140.652 317.242L139.205 317.506L138.572 314.055L140.019 313.791Z" fill="black"/>
<path d="M141.42 317.83L142.572 317.717L142.723 319.322L141.593 319.427C141.043 319.48 140.734 319.706 140.794 320.324C140.847 320.889 141.216 321.047 141.691 321.002L142.135 320.957C142.377 320.934 142.565 320.859 142.731 320.708C143.032 320.422 143.228 319.962 143.424 319.457C143.544 319.171 143.672 318.877 143.838 318.606C144.162 318.041 144.652 317.611 145.541 317.521L145.903 317.483C147.236 317.355 148.11 318.011 148.253 319.563C148.404 321.107 147.711 321.876 146.453 321.996L145.518 322.087L145.375 320.565L146.219 320.482C146.784 320.429 147.018 320.203 146.965 319.676C146.92 319.156 146.558 318.99 146.046 319.035L145.805 319.058C145.579 319.081 145.405 319.156 145.27 319.299C144.991 319.578 144.81 320.03 144.614 320.527C144.494 320.813 144.35 321.1 144.2 321.394C143.876 321.959 143.379 322.403 142.474 322.486L141.811 322.546C140.44 322.675 139.551 321.974 139.408 320.422C139.235 318.636 139.958 317.95 141.427 317.807L141.42 317.83Z" fill="black"/>
<path d="M139.763 324.973L139.74 323.451L148.382 323.307L148.442 327.15L146.996 327.173L146.958 324.844L144.668 324.882L144.705 327.029L143.259 327.052L143.221 324.905L139.763 324.965V324.973Z" fill="black"/>
<path d="M141.209 328.047L141.134 329.056L146.837 329.501L146.913 328.491L148.352 328.604L148.08 332.1L146.641 331.987L146.717 331L141.013 330.556L140.938 331.543L139.469 331.43L139.74 327.934L141.209 328.047Z" fill="black"/>
<path d="M139.386 332.206L147.914 333.592L147.266 337.578L145.873 337.352L146.272 334.888L144.155 334.542L143.801 336.704L142.399 336.478L142.753 334.315L140.576 333.961L140.162 336.493L138.723 336.259L139.378 332.198L139.386 332.206Z" fill="black"/>
<path d="M146.363 341.353C146.235 341.843 146.039 342.242 145.76 342.574C145.233 343.229 144.404 343.508 143.214 343.191L139.823 342.287C139.228 342.129 138.791 341.903 138.49 341.579C137.864 340.961 137.751 340.087 138.015 339.108L138.588 336.968L146.935 339.19L146.363 341.345V341.353ZM139.514 338.829L139.356 339.409C139.183 340.049 139.469 340.524 140.381 340.765L143.522 341.602C144.442 341.85 144.916 341.564 145.09 340.923L145.24 340.351L139.507 338.821L139.514 338.829Z" fill="black"/>
<path d="M136.749 347.381L136.252 348.413L140.501 350.447L140.9 349.611L141.932 350.108C141.721 350.794 141.917 351.276 142.558 351.781L142.03 352.881L135.581 349.799L135.106 350.786L133.758 350.138L135.385 346.733L136.734 347.373L136.749 347.381Z" fill="black"/>
<path d="M135.747 351.826L138.851 353.672C140.373 354.576 140.621 355.865 139.845 357.168C139.069 358.471 137.826 358.871 136.304 357.959L133.2 356.113C131.633 355.186 131.422 353.921 132.198 352.61C132.989 351.276 134.187 350.892 135.754 351.818L135.747 351.826ZM134.097 354.772L137.08 356.55C137.856 357.01 138.346 357.01 138.67 356.475C139.001 355.917 138.723 355.488 137.977 355.043L134.993 353.265C134.225 352.805 133.758 352.798 133.426 353.355C133.11 353.89 133.328 354.32 134.097 354.78V354.772Z" fill="black"/>
<path d="M132.644 356.942L135.537 359.112C136.953 360.175 137.066 361.478 136.154 362.691C135.243 363.904 133.962 364.168 132.546 363.106L129.652 360.936C128.198 359.843 128.115 358.562 129.027 357.349C129.961 356.106 131.189 355.85 132.644 356.942ZM130.685 359.692L133.465 361.772C134.188 362.314 134.678 362.367 135.054 361.862C135.446 361.342 135.213 360.883 134.52 360.363L131.739 358.283C131.024 357.748 130.557 357.688 130.172 358.208C129.796 358.713 129.976 359.157 130.685 359.692Z" fill="black"/>
<path d="M125.523 363.618L126.382 364.446C127.045 365.079 127.015 365.855 126.412 366.481C125.817 367.099 125.033 367.151 124.385 366.526L123.526 365.697C122.886 365.079 122.893 364.341 123.519 363.685C124.152 363.022 124.867 362.992 125.523 363.618ZM124.317 364.996L125.086 365.735C125.327 365.968 125.545 365.991 125.719 365.81C125.892 365.629 125.862 365.411 125.621 365.185L124.852 364.446C124.619 364.22 124.4 364.198 124.227 364.386C124.054 364.567 124.084 364.778 124.317 365.004V364.996ZM127.354 360.822C127.557 361.583 127.919 362.668 128.31 363.896L129.456 367.423C129.795 368.462 130.028 369.261 130.081 369.51L128.989 370.647C128.966 370.512 128.913 370.256 128.8 369.886C128.559 369.125 128.228 368.048 127.813 366.82L126.668 363.316C126.321 362.246 126.095 361.478 126.043 361.229L127.158 360.061C127.18 360.197 127.233 360.453 127.346 360.822H127.354ZM131.731 364.183L132.575 364.996C133.238 365.629 133.193 366.39 132.597 367.008C132.002 367.626 131.241 367.694 130.586 367.068L129.742 366.255C129.094 365.637 129.109 364.899 129.734 364.243C130.367 363.58 131.083 363.565 131.731 364.183ZM130.533 365.554L131.279 366.27C131.52 366.503 131.739 366.526 131.912 366.345C132.085 366.164 132.055 365.953 131.814 365.72L131.068 365.004C130.827 364.77 130.608 364.748 130.435 364.929C130.262 365.109 130.292 365.32 130.533 365.554Z" fill="black"/>
<path d="M121.688 368.349L122.381 369.276L121.093 370.248L120.407 369.344C120.076 368.899 119.722 368.756 119.225 369.133C118.773 369.472 118.825 369.871 119.119 370.256L119.39 370.61C119.534 370.806 119.699 370.919 119.918 370.986C120.317 371.092 120.814 371.017 121.349 370.919C121.658 370.866 121.975 370.828 122.291 370.828C122.939 370.806 123.564 371.002 124.107 371.71L124.325 371.996C125.131 373.066 125.026 374.151 123.783 375.093C122.54 376.035 121.523 375.846 120.762 374.829L120.197 374.076L121.417 373.156L121.922 373.827C122.261 374.279 122.577 374.362 122.999 374.038C123.414 373.729 123.376 373.33 123.06 372.915L122.916 372.719C122.781 372.539 122.623 372.426 122.427 372.395C122.042 372.305 121.56 372.388 121.04 372.478C120.731 372.531 120.415 372.554 120.091 372.576C119.443 372.599 118.795 372.403 118.253 371.68L117.853 371.152C117.025 370.052 117.16 368.93 118.403 367.988C119.842 366.91 120.799 367.166 121.688 368.334V368.349Z" fill="black"/>
<path d="M120.544 377.255L119.188 378.092L115.466 372.064L113.499 373.277L112.686 371.951L116.008 369.902L120.551 377.255H120.544Z" fill="black"/>
<path d="M111.352 374.083L111.005 372.833L112.399 372.147L114.486 380.752L113.092 381.437L107.524 374.543L108.918 373.857L109.709 374.89L111.352 374.083ZM110.546 375.997L112.324 378.333L112.941 379.373L112.497 378.25L111.713 375.425L110.546 375.997Z" fill="black"/>
<path d="M107.757 377.73L111.411 382.258L109.904 382.846L107.961 380.239L107.607 379.591L107.787 380.314L108.081 383.562L106.589 384.142L106.273 378.31L105.15 375.424L106.642 374.844L107.765 377.73H107.757Z" fill="black"/>
<path d="M100.337 376.961L101.836 376.54L103.803 383.486L105.174 383.102L105.566 384.474L101.324 385.679L100.932 384.308L102.311 383.916L100.344 376.969L100.337 376.961Z" fill="black"/>
<path d="M98.7316 378.898L97.7371 379.094L98.8296 384.715L99.8241 384.519L100.103 385.935L96.6597 386.606L96.381 385.189L97.3529 385.001L96.2604 379.38L95.2885 379.569L95.0098 378.122L98.4529 377.451L98.7316 378.898Z" fill="black"/>
<path d="M94.7166 380.345L94.8372 381.497L93.2324 381.663L93.1118 380.533C93.0516 379.983 92.8256 379.674 92.2077 379.742C91.6427 379.802 91.492 380.171 91.5372 380.646L91.5824 381.091C91.605 381.332 91.6879 381.52 91.8386 381.686C92.1249 381.987 92.592 382.176 93.0968 382.364C93.3906 382.477 93.6769 382.605 93.9481 382.771C94.5132 383.087 94.9502 383.577 95.0481 384.466L95.0858 384.828C95.2214 386.161 94.581 387.035 93.029 387.201C91.4845 387.359 90.7085 386.681 90.5728 385.423L90.4749 384.489L91.9968 384.33L92.0872 385.167C92.1475 385.732 92.3735 385.958 92.9009 385.905C93.4132 385.852 93.5865 385.491 93.5338 384.978L93.5112 384.737C93.4886 384.511 93.4057 384.338 93.2625 384.202C92.9762 383.931 92.5242 383.743 92.0345 383.554C91.7406 383.441 91.4619 383.298 91.168 383.148C90.603 382.831 90.1509 382.334 90.053 381.437L89.9852 380.774C89.842 379.41 90.5352 378.514 92.0797 378.348C93.8653 378.16 94.5584 378.875 94.7091 380.337L94.7166 380.345Z" fill="black"/>
<path d="M87.5213 378.762L89.0432 378.74L89.1863 387.382L85.3439 387.442L85.3213 385.996L87.6493 385.958L87.6117 383.667L85.4644 383.705L85.4418 382.258L87.5891 382.221L87.5288 378.762H87.5213Z" fill="black"/>
<path d="M84.4995 380.232L83.4899 380.164L83.1057 385.875L84.1153 385.943L84.0173 387.39L80.5215 387.156L80.6194 385.709L81.6064 385.777L81.9907 380.066L81.0037 379.998L81.1016 378.529L84.5975 378.77L84.4995 380.239V380.232Z" fill="black"/>
<path d="M80.318 378.454L79.0146 387.005L75.0215 386.395L75.2324 385.001L77.7036 385.378L78.0276 383.253L75.8578 382.922L76.0687 381.513L78.2386 381.844L78.5701 379.659L76.0311 379.275L76.2496 377.836L80.318 378.454Z" fill="black"/>
<path d="M71.2467 385.521C70.757 385.393 70.3577 385.204 70.0187 384.933C69.3557 384.413 69.0694 383.584 69.3783 382.394L70.2447 378.996C70.3954 378.401 70.6214 377.956 70.9378 377.655C71.5481 377.029 72.4221 376.901 73.409 377.15L75.5563 377.7L73.4166 386.078L71.2543 385.528L71.2467 385.521ZM73.7029 378.642L73.1227 378.491C72.4823 378.325 72.0077 378.619 71.7741 379.531L70.968 382.688C70.7344 383.607 71.0207 384.082 71.6611 384.247L72.2337 384.391L73.7029 378.642Z" fill="black"/>
<path d="M65.1142 375.967L64.0745 375.485L62.0855 379.757L62.9293 380.149L62.4471 381.189C61.754 380.985 61.2793 381.189 60.7745 381.837L59.667 381.324L62.6882 374.844L61.6937 374.377L62.3266 373.021L65.7471 374.618L65.1142 375.975V375.967Z" fill="black"/>
<path d="M60.6772 375.018L58.8614 378.145C57.9724 379.674 56.6916 379.938 55.3731 379.177C54.0622 378.416 53.6478 377.173 54.5444 375.636L56.3601 372.509C57.2717 370.934 58.5375 370.708 59.8484 371.469C61.197 372.252 61.5888 373.443 60.6772 375.018ZM57.7162 373.398L55.9683 376.404C55.5163 377.188 55.5238 377.677 56.0663 377.994C56.6313 378.318 57.0608 378.039 57.4978 377.293L59.2457 374.287C59.6902 373.518 59.7053 373.044 59.1402 372.72C58.5977 372.403 58.1758 372.629 57.7238 373.405L57.7162 373.398Z" fill="black"/>
<path d="M55.5089 371.951L53.3692 374.867C52.322 376.299 51.0186 376.419 49.798 375.515C48.5775 374.618 48.2987 373.337 49.3535 371.906L51.4932 368.99C52.5706 367.521 53.8514 367.43 55.072 368.327C56.3226 369.246 56.5939 370.474 55.5089 371.944V371.951ZM52.7364 370.022L50.6795 372.818C50.1446 373.548 50.0994 374.038 50.6042 374.407C51.1316 374.792 51.5836 374.558 52.096 373.857L54.1528 371.062C54.6802 370.346 54.7405 369.879 54.2131 369.495C53.7083 369.126 53.2638 369.306 52.7364 370.022Z" fill="black"/>
<path d="M51.5761 366.692C50.8151 366.903 49.7378 367.28 48.5097 367.679L44.9988 368.862C43.959 369.208 43.168 369.457 42.9193 369.51L41.7666 368.425C41.9022 368.402 42.1584 368.342 42.5276 368.229C43.2885 367.98 44.3584 367.634 45.5864 367.212L49.0823 366.029C50.1446 365.675 50.9131 365.434 51.1617 365.381L52.337 366.488C52.2014 366.511 51.9453 366.571 51.5761 366.684V366.692ZM48.2611 371.1L47.4624 371.951C46.8371 372.622 46.0761 372.584 45.4508 371.996C44.8255 371.409 44.7501 370.648 45.3679 369.985L46.1666 369.133C46.7768 368.485 47.5227 368.485 48.1782 369.103C48.8487 369.728 48.8713 370.444 48.2535 371.1H48.2611ZM48.7658 364.891L47.9522 365.758C47.3268 366.428 46.5508 366.406 45.9179 365.81C45.2926 365.223 45.2323 364.439 45.8577 363.784L46.6713 362.917C47.2816 362.269 48.0275 362.269 48.683 362.887C49.3535 363.512 49.3912 364.228 48.7734 364.891H48.7658ZM46.8748 369.909L46.1666 370.663C45.933 370.911 45.9179 371.122 46.0988 371.296C46.2871 371.469 46.4981 371.439 46.7241 371.19L47.4323 370.437C47.6659 370.188 47.6809 369.977 47.5001 369.804C47.3118 369.63 47.1008 369.661 46.8748 369.909ZM47.372 363.693L46.6487 364.469C46.4152 364.718 46.4001 364.929 46.5809 365.102C46.7618 365.275 46.9802 365.245 47.2063 364.997L47.9296 364.221C48.1556 363.987 48.1706 363.768 47.9898 363.595C47.809 363.422 47.5905 363.452 47.372 363.693Z" fill="black"/>
<path d="M43.9954 361.109L43.0763 361.817L42.0893 360.536L42.9859 359.843C43.4229 359.504 43.566 359.15 43.1818 358.652C42.8352 358.2 42.4434 358.261 42.0592 358.555L41.7051 358.826C41.5167 358.969 41.3962 359.135 41.3359 359.353C41.2304 359.753 41.3133 360.25 41.4112 360.785C41.464 361.094 41.5092 361.41 41.5092 361.727C41.5393 362.375 41.351 363.007 40.6427 363.55L40.3564 363.768C39.2941 364.582 38.2092 364.492 37.2599 363.256C36.3106 362.02 36.4914 361.003 37.4935 360.235L38.2393 359.662L39.1736 360.875L38.503 361.388C38.051 361.734 37.9756 362.051 38.2996 362.473C38.6161 362.887 39.0078 362.842 39.4222 362.525L39.6106 362.382C39.7914 362.239 39.8969 362.081 39.9345 361.892C40.0174 361.508 39.9345 361.026 39.8441 360.506C39.7914 360.197 39.7612 359.888 39.7386 359.557C39.7085 358.909 39.8969 358.261 40.6201 357.711L41.1475 357.304C42.24 356.467 43.3626 356.588 44.3119 357.824C45.4043 359.248 45.1557 360.212 43.9954 361.109Z" fill="black"/>
<path d="M35.0906 360.069L34.2393 358.72L40.2365 354.938L39.0009 352.979L40.3193 352.15L42.4063 355.45L35.0982 360.069H35.0906Z" fill="black"/>
<path d="M38.1645 350.824L39.4151 350.462L40.1158 351.849L31.5269 354.026L30.8262 352.64L37.6672 346.996L38.3679 348.383L37.3432 349.181L38.1645 350.816V350.824ZM36.2432 350.04L33.9227 351.841L32.8905 352.466L34.0131 352.007L36.8309 351.193L36.2432 350.033V350.04Z" fill="black"/>
<path d="M34.4806 347.252L29.9903 350.952L29.3875 349.453L31.9718 347.478L32.6197 347.117L31.904 347.305L28.6567 347.637L28.0615 346.152L33.8854 345.776L36.7635 344.623L37.3587 346.107L34.4806 347.26V347.252Z" fill="black"/>
<path d="M35.173 339.831L35.6099 341.323L28.686 343.365L29.0853 344.728L27.7217 345.128L26.4785 340.893L27.8422 340.494L28.249 341.873L35.173 339.831Z" fill="black"/>
<path d="M33.2225 338.249L33.0191 337.254L27.4137 338.399L27.6171 339.394L26.2007 339.68L25.5 336.244L26.9164 335.958L27.1123 336.93L32.7177 335.785L32.5218 334.813L33.9609 334.519L34.6616 337.955L33.2225 338.249Z" fill="black"/>
<path d="M31.7462 334.255L30.5934 334.391L30.4051 332.786L31.5277 332.658C32.0777 332.598 32.379 332.364 32.3112 331.746C32.2434 331.181 31.8743 331.03 31.3996 331.083L30.9551 331.136C30.714 331.166 30.5332 331.249 30.3674 331.4C30.0736 331.686 29.8852 332.161 29.6969 332.665C29.5839 332.959 29.4633 333.253 29.2976 333.524C28.9887 334.097 28.5065 334.542 27.6174 334.639L27.2558 334.677C25.9223 334.828 25.0408 334.195 24.8599 332.643C24.6791 331.098 25.3572 330.315 26.6154 330.171L27.5496 330.066L27.7229 331.588L26.8866 331.686C26.3216 331.754 26.0955 331.987 26.1558 332.507C26.2161 333.02 26.5702 333.185 27.0901 333.125L27.3311 333.095C27.5572 333.072 27.7305 332.989 27.8585 332.839C28.1298 332.552 28.3106 332.093 28.4914 331.603C28.6044 331.309 28.74 331.03 28.8907 330.729C29.1996 330.156 29.6969 329.704 30.5934 329.599L31.2489 329.523C32.6126 329.365 33.5167 330.051 33.6975 331.595C33.9009 333.381 33.1927 334.082 31.7311 334.248L31.7462 334.255Z" fill="black"/>
<path d="M33.2521 327.052L33.2897 328.574L24.648 328.778L24.5576 324.935L26.0042 324.897L26.0569 327.225L28.3473 327.173L28.2946 325.025L29.7411 324.988L29.7939 327.135L33.2521 327.052Z" fill="black"/>
<path d="M31.7529 324.023L31.8132 323.014L26.0947 322.682L26.0345 323.692L24.5879 323.609L24.7913 320.105L26.2379 320.188L26.1776 321.175L31.896 321.507L31.9563 320.52L33.4255 320.603L33.2221 324.106L31.7529 324.023Z" fill="black"/>
<path d="M33.4934 319.834L24.9346 318.613L25.5072 314.613L26.901 314.808L26.5469 317.28L28.6715 317.581L28.9804 315.411L30.3893 315.615L30.0804 317.785L32.2653 318.094L32.627 315.554L34.0735 315.758L33.4934 319.827V319.834Z" fill="black"/>
<path d="M26.3357 310.853C26.4563 310.363 26.6446 309.956 26.9083 309.617C27.4206 308.946 28.2494 308.653 29.4398 308.946L32.8452 309.783C33.4404 309.926 33.8849 310.152 34.1938 310.461C34.8267 311.064 34.9623 311.938 34.7212 312.925L34.1938 315.08L25.8008 313.03L26.3282 310.868L26.3357 310.853ZM33.2295 313.234L33.3726 312.646C33.5308 312.006 33.237 311.531 32.3254 311.312L29.1686 310.536C28.2419 310.31 27.7747 310.604 27.6165 311.245L27.4734 311.817L33.2295 313.226V313.234Z" fill="black"/>
</g>
</svg>
