<svg width="228" height="153" viewBox="0 0 228 153" fill="none" xmlns="http://www.w3.org/2000/svg">
<path d="M214.228 101.214C210.859 114.711 196.842 124.466 176.339 129.08C155.899 133.68 129.326 133.077 101.487 126.128C73.6477 119.18 49.9087 107.224 34.0281 93.5591C18.098 79.8515 10.3092 64.6529 13.6781 51.156C17.0469 37.6591 31.0643 27.9034 51.5675 23.2896C72.007 18.6901 98.5797 19.2925 126.419 26.2412C154.258 33.19 177.997 45.1455 193.878 58.8106C209.808 72.5182 217.597 87.7168 214.228 101.214Z" fill="#4D17F5" stroke="black" stroke-width="2"/>
<path d="M79.9324 64.4571C75.8574 63.44 74.9465 60.9616 76.4257 57.6946L77.1382 56.112L80.8328 57.0342L80.1068 58.6711C79.4079 60.1993 79.7409 60.9462 81.0178 61.2649C82.2946 61.5836 83.0753 60.9993 83.7539 59.5526L85.1652 56.3263C85.6809 55.1852 85.3614 54.2686 84.1661 53.9702C83.1337 53.7126 82.4208 54.1407 81.7216 54.7453C81.7216 54.7453 81.3279 55.1665 81.3007 55.1597L78.4207 53.5174L83.6803 44.3544L93.0528 46.6937L93.0053 46.8839C92.6457 47.7465 92.2317 48.3646 91.8787 48.7383C91.1523 49.4516 90.1336 49.3705 87.9875 48.8348L85.2165 48.1432C84.5378 49.359 83.6013 50.9145 82.9837 52.0013C83.9342 51.315 84.9527 51.0498 86.3382 51.3956C89.1092 52.0873 90.0879 54.294 88.7376 57.2757L87.1159 60.8824C85.6163 64.1154 83.2467 65.2844 79.9324 64.4571ZM96.7835 68.6343C92.7085 67.6172 91.6958 65.2 93.2021 61.9397L94.1521 59.8681L97.7652 60.77L96.8153 62.957C96.1775 64.4717 96.5581 65.2593 97.8078 65.5712C99.1118 65.8967 99.7635 65.2513 100.225 64.2121L100.537 63.5397C100.802 62.942 100.876 62.4122 100.761 61.9505C100.536 60.9998 99.782 60.2056 98.9599 59.3366C98.5047 58.8478 98.0631 58.3047 97.6555 57.7412C96.8265 56.5531 96.5204 55.1203 97.4092 53.0623L97.7417 52.3084C99.0309 49.3402 101.441 48.4701 104.348 49.1956C107.988 50.1043 109.096 52.4875 107.827 55.3741L107.034 57.1673L103.556 56.2993L104.398 54.4315C104.981 53.1342 104.655 52.3601 103.46 52.0618C102.4 51.7973 101.667 52.3069 101.158 53.4208L100.893 54.0185C100.649 54.5348 100.561 55.0034 100.677 55.4651C100.894 56.3275 101.628 57.0878 102.532 58.0925C103.014 58.5881 103.428 59.1244 103.829 59.7151C104.665 60.876 104.978 62.2817 104.109 64.2582L103.743 65.1479C102.338 68.347 100.342 69.5226 96.7835 68.6343ZM115.611 55.7297L108.697 71.2904L105.192 70.4157L112.106 54.8549L108.874 54.048L110.244 50.9848L120.187 53.4666L118.817 56.5298L115.611 55.7297ZM122.423 74.7166L113.132 72.3976L121.417 53.7735L130.518 56.0451L129.154 59.0812L123.531 57.6776L121.481 62.303L126.426 63.5371L125.055 66.6004L120.111 65.3663L118.001 70.1208L123.814 71.5718L122.423 74.7166ZM129.714 70.0432L127.102 75.8844L123.652 75.0233L131.937 56.3993L137.017 57.6673C140.739 58.5962 141.575 61.0271 140.204 64.2058L138.8 67.2894C137.436 70.3255 135.256 71.4265 131.317 70.4433L129.714 70.0432ZM134.125 60.1199L131.024 67.109L132.382 67.448C133.904 67.8278 134.942 67.3656 135.594 65.7966L136.802 63.039C137.399 61.6874 137.005 60.8387 135.619 60.4928L134.125 60.1199ZM140.799 79.6206C136.724 78.6034 135.711 76.1862 137.217 72.926L138.167 70.8544L141.78 71.7562L140.83 73.9433C140.193 75.4579 140.573 76.2455 141.823 76.5574C143.127 76.8829 143.779 76.2375 144.24 75.1983L144.552 74.5259C144.817 73.9282 144.891 73.3985 144.776 72.9367C144.551 71.9861 143.797 71.1918 142.975 70.3229C142.52 69.8341 142.078 69.291 141.671 68.7275C140.842 67.5394 140.535 66.1066 141.424 64.0486L141.757 63.2946C143.046 60.3265 145.456 59.4563 148.363 60.1819C152.004 61.0905 153.111 63.4737 151.843 66.3604L151.049 68.1535L147.571 67.2856L148.413 65.4177C148.996 64.1204 148.67 63.3464 147.475 63.048C146.415 62.7836 145.682 63.2932 145.173 64.4071L144.908 65.0048C144.664 65.521 144.576 65.9896 144.692 66.4514C144.909 67.3137 145.643 68.0741 146.547 69.0788C147.029 69.5743 147.443 70.1107 147.844 70.7013C148.68 71.8623 148.993 73.2679 148.124 75.2444L147.758 76.1342C146.354 79.3333 144.357 80.5089 140.799 79.6206ZM102.221 94.7277C98.1456 93.7106 97.1328 91.2934 98.6392 88.0331L99.5891 85.9615L103.202 86.8634L102.252 89.0504C101.615 90.5651 101.995 91.3527 103.245 91.6646C104.549 91.9901 105.201 91.3447 105.662 90.3055L105.974 89.6331C106.239 89.0354 106.313 88.5056 106.198 88.0439C105.973 87.0932 105.219 86.299 104.397 85.43C103.942 84.9413 103.5 84.3981 103.093 83.8346C102.264 82.6465 101.957 81.2137 102.846 79.1557L103.179 78.4018C104.468 75.4337 106.878 74.5635 109.785 75.2891C113.426 76.1977 114.533 78.5809 113.265 81.4676L112.471 83.2607L108.993 82.3927L109.835 80.5249C110.418 79.2276 110.092 78.4535 108.897 78.1552C107.837 77.8907 107.104 78.4003 106.595 79.5143L106.33 80.112C106.086 80.6282 105.998 81.0968 106.114 81.5585C106.331 82.4209 107.065 83.1812 107.969 84.1859C108.451 84.6815 108.865 85.2178 109.266 85.8085C110.102 86.9695 110.415 88.3751 109.546 90.3516L109.18 91.2413C107.775 94.4404 105.779 95.616 102.221 94.7277ZM121.048 81.8231L114.134 97.3839L110.629 96.5091L117.544 80.9484L114.311 80.1414L115.681 77.0782L125.624 79.56L124.254 82.6232L121.048 81.8231ZM125.127 92.2204L121.965 99.3386L118.569 98.491L126.854 79.867L131.962 81.1418C135.575 82.0436 136.533 84.2164 135.047 87.5106L134.199 89.4056C133.452 91.124 132.387 91.9257 130.539 91.9264C131.918 92.8766 131.932 94.0922 131.152 95.831L129.415 99.6685C129.137 100.321 129.13 100.81 129.382 101.19L125.687 100.268C125.497 99.9892 125.612 99.4119 125.89 98.7599L127.587 94.9699C128.177 93.6454 128.007 92.9392 126.513 92.5663L125.127 92.2204ZM128.988 83.574L126.443 89.2591L127.883 89.6184C129.595 90.0456 130.348 89.57 130.966 88.1369L131.712 86.4185C132.377 85.026 131.949 84.3132 130.536 83.9605L128.988 83.574ZM139.919 103.82L130.628 101.501L138.913 82.8767L148.013 85.1483L146.649 88.1844L141.026 86.7808L138.977 91.4062L143.921 92.6403L142.551 95.7036L137.606 94.4695L135.496 99.2239L141.31 100.675L139.919 103.82ZM146.368 105.747C142.293 104.73 141.281 102.313 142.787 99.0525L143.737 96.9809L147.35 97.8827L146.4 100.07C145.762 101.584 146.143 102.372 147.393 102.684C148.697 103.009 149.348 102.364 149.81 101.325L150.122 100.652C150.386 100.055 150.461 99.525 150.345 99.0633C150.121 98.1126 149.367 97.3183 148.545 96.4494C148.09 95.9606 147.648 95.4175 147.24 94.854C146.411 93.6659 146.105 92.2331 146.994 90.1751L147.326 89.4212C148.616 86.453 151.026 85.5829 153.933 86.3084C157.573 87.217 158.681 89.6003 157.412 92.4869L156.618 94.28L153.141 93.4121L153.982 91.5443C154.566 90.247 154.24 89.4729 153.044 89.1745C151.985 88.9101 151.252 89.4197 150.743 90.5336L150.478 91.1313C150.234 91.6475 150.146 92.1161 150.261 92.5779C150.479 93.4403 151.213 94.2006 152.116 95.2053C152.599 95.7009 153.013 96.2372 153.414 96.8279C154.25 97.9888 154.563 99.3944 153.694 101.371L153.328 102.261C151.923 105.46 149.927 106.635 146.368 105.747ZM158.029 108.658C153.954 107.64 152.941 105.223 154.447 101.963L155.397 99.8913L159.01 100.793L158.06 102.98C157.423 104.495 157.803 105.282 159.053 105.594C160.357 105.92 161.009 105.275 161.47 104.235L161.782 103.563C162.047 102.965 162.121 102.435 162.006 101.974C161.781 101.023 161.027 100.229 160.205 99.3598C159.75 98.8711 159.308 98.328 158.901 97.7645C158.072 96.5763 157.766 95.1436 158.654 93.0855L158.987 92.3316C160.276 89.3635 162.687 88.4933 165.593 89.2189C169.234 90.1275 170.341 92.5107 169.073 95.3974L168.279 97.1905L164.801 96.3225L165.643 94.4547C166.226 93.1574 165.9 92.3834 164.705 92.085C163.645 91.8206 162.912 92.3302 162.403 93.4441L162.139 94.0418C161.894 94.558 161.806 95.0266 161.922 95.4883C162.139 96.3507 162.873 97.111 163.777 98.1158C164.259 98.6113 164.673 99.1477 165.074 99.7383C165.91 100.899 166.223 102.305 165.355 104.281L164.988 105.171C163.584 108.37 161.587 109.546 158.029 108.658Z" fill="white"/>
<path d="M45.373 80.221L46.5943 77.4091L58.2842 66.3014L52.6336 64.891L54.0381 61.6919L63.5192 64.0584L62.2436 66.9722L50.8117 77.9712L56.7612 79.4562L55.3431 82.7096L45.373 80.221ZM66.0427 85.3802L56.7517 83.0612L65.0365 64.4372L74.1373 66.7087L72.7735 69.7448L67.15 68.3412L65.1009 72.9666L70.0452 74.2007L68.6745 77.264L63.7302 76.0299L61.62 80.7844L67.4336 82.2355L66.0427 85.3802ZM73.8291 79.4163L70.6671 86.5345L67.2713 85.6869L75.5561 67.0629L80.6635 68.3377C84.2766 69.2395 85.2349 71.4123 83.749 74.7065L82.9008 76.6015C82.1544 78.3199 81.0885 79.1216 79.2414 79.1223C80.6203 80.0725 80.6344 81.2881 79.854 83.0269L78.117 86.8645C77.8388 87.5165 77.8322 88.0054 78.0836 88.3857L74.3889 87.4635C74.1987 87.1851 74.3139 86.6078 74.5921 85.9558L76.2884 82.1658C76.8788 80.8413 76.7087 80.1351 75.2146 79.7622L73.8291 79.4163ZM77.6899 70.7699L75.1454 76.455L76.5852 76.8144C78.2967 77.2415 79.0504 76.7659 79.6678 75.3328L80.4142 73.6144C81.0792 72.222 80.6511 71.5091 79.2384 71.1565L77.6899 70.7699ZM85.1502 90.4669C83.7375 90.1143 82.6915 89.5647 81.9918 88.784C80.6466 87.2361 80.6593 85.1037 81.7314 82.6586L84.9001 75.5133C86.8068 71.2274 89.4142 70.2621 92.647 71.069C93.8151 71.3606 94.7321 71.8492 95.459 72.5213C96.9196 73.8382 97.2327 75.9365 95.9775 78.7688L92.7612 85.9888C91.0174 89.8535 88.9263 91.4095 85.1502 90.4669ZM86.1269 87.2476C87.4037 87.5663 88.2864 87.0363 89.1752 84.9783L92.5679 77.3983C93.4024 75.4422 93.0353 74.4848 91.677 74.1457C90.3187 73.8067 89.504 74.4114 88.5608 76.4558L85.236 83.8796C84.2725 86.0056 84.8501 86.9289 86.1269 87.2476Z" fill="#EBD22F"/>
</svg>
