<svg width="52" height="53" viewBox="0 0 52 53" fill="none" xmlns="http://www.w3.org/2000/svg">
<mask id="mask0_1756_363" style="mask-type:alpha" maskUnits="userSpaceOnUse" x="11" y="13" width="37" height="37">
<path d="M23.2152 47.3245L12.6648 17.0526C12.1306 15.5199 13.6089 14.0511 15.1381 14.5949L45.2037 25.288C46.8588 25.8766 46.9345 28.1891 45.3214 28.8847L32.9927 34.2007C32.5348 34.3982 32.1709 34.7649 31.977 35.2243L26.8218 47.4399C26.1336 49.0706 23.7977 48.9959 23.2152 47.3245Z" fill="#EBD22F" stroke="black" stroke-width="2"/>
</mask>
<g mask="url(#mask0_1756_363)">
<path d="M23.2152 47.3245L12.6648 17.0526C12.1306 15.5199 13.6089 14.0511 15.1381 14.5949L45.2037 25.288C46.8588 25.8766 46.9345 28.1891 45.3214 28.8847L32.9927 34.2007C32.5348 34.3982 32.1709 34.7649 31.977 35.2243L26.8218 47.4399C26.1336 49.0706 23.7977 48.9959 23.2152 47.3245Z" fill="#EBD22F" stroke="black" stroke-width="2"/>
<path fill-rule="evenodd" clip-rule="evenodd" d="M22.7744 34.0024C23.262 34.1331 23.7633 33.8437 23.8939 33.3561C24.0246 32.8684 23.7352 32.3672 23.2476 32.2366C22.7599 32.1059 22.2587 32.3953 22.1281 32.8829C21.9974 33.3705 22.2868 33.8718 22.7744 34.0024ZM21.355 39.2997C21.8426 39.4304 22.3438 39.141 22.4745 38.6534C22.6052 38.1658 22.3158 37.6646 21.8282 37.5339C21.3405 37.4033 20.8393 37.6926 20.7087 38.1802C20.578 38.6679 20.8674 39.1691 21.355 39.2997ZM23.1842 36.0049C23.0535 36.4925 22.5523 36.7819 22.0647 36.6512C21.5771 36.5205 21.2877 36.0193 21.4183 35.5317C21.549 35.0441 22.0502 34.7547 22.5378 34.8854C23.0254 35.016 23.3148 35.5172 23.1842 36.0049ZM20.6453 41.9485C21.1329 42.0792 21.6341 41.7898 21.7648 41.3022C21.8954 40.8146 21.606 40.3134 21.1184 40.1827C20.6308 40.052 20.1296 40.3414 19.9989 40.829C19.8683 41.3167 20.1576 41.8179 20.6453 41.9485ZM21.0024 44.1473C20.8718 44.6349 20.3705 44.9243 19.8829 44.7936C19.3953 44.663 19.1059 44.1617 19.2366 43.6741C19.3672 43.1865 19.8685 42.8971 20.3561 43.0278C20.8437 43.1584 21.1331 43.6597 21.0024 44.1473ZM25.4232 34.7121C25.9108 34.8428 26.412 34.5534 26.5427 34.0658C26.6733 33.5782 26.384 33.077 25.8963 32.9463C25.4087 32.8157 24.9075 33.105 24.7768 33.5927C24.6462 34.0803 24.9356 34.5815 25.4232 34.7121ZM25.1233 39.3631C24.9926 39.8508 24.4914 40.1401 24.0038 40.0095C23.5161 39.8788 23.2268 39.3776 23.3574 38.89C23.4881 38.4024 23.9893 38.113 24.4769 38.2436C24.9645 38.3743 25.2539 38.8755 25.1233 39.3631ZM24.7134 37.3609C25.2011 37.4916 25.7023 37.2022 25.8329 36.7146C25.9636 36.227 25.6742 35.7258 25.1866 35.5951C24.699 35.4645 24.1978 35.7538 24.0671 36.2414C23.9364 36.7291 24.2258 37.2303 24.7134 37.3609ZM24.4135 42.0119C24.2829 42.4996 23.7816 42.7889 23.294 42.6583C22.8064 42.5276 22.517 42.0264 22.6477 41.5388C22.7783 41.0512 23.2796 40.7618 23.7672 40.8924C24.2548 41.0231 24.5442 41.5243 24.4135 42.0119ZM22.5317 45.5033C23.0193 45.634 23.5205 45.3446 23.6512 44.857C23.7818 44.3694 23.4925 43.8682 23.0048 43.7375C22.5172 43.6069 22.016 43.8962 21.8853 44.3839C21.7547 44.8715 22.0441 45.3727 22.5317 45.5033ZM29.1914 34.7755C29.0607 35.2632 28.5595 35.5525 28.0719 35.4219C27.5843 35.2912 27.2949 34.79 27.4256 34.3024C27.5562 33.8148 28.0574 33.5254 28.5451 33.656C29.0327 33.7867 29.3221 34.2879 29.1914 34.7755ZM26.6525 40.7192C27.1401 40.8499 27.6413 40.5605 27.772 40.0729C27.9026 39.5852 27.6133 39.084 27.1257 38.9534C26.638 38.8227 26.1368 39.1121 26.0062 39.5997C25.8755 40.0873 26.1649 40.5885 26.6525 40.7192ZM28.4817 37.4243C28.351 37.9119 27.8498 38.2013 27.3622 38.0707C26.8745 37.94 26.5852 37.4388 26.7158 36.9512C26.8465 36.4636 27.3477 36.1742 27.8353 36.3048C28.3229 36.4355 28.6123 36.9367 28.4817 37.4243ZM25.9428 43.368C26.4304 43.4987 26.9316 43.2093 27.0622 42.7217C27.1929 42.234 26.9035 41.7328 26.4159 41.6022C25.9283 41.4715 25.4271 41.7609 25.2964 42.2485C25.1658 42.7361 25.4551 43.2373 25.9428 43.368ZM26.2999 45.5667C26.1693 46.0544 25.668 46.3437 25.1804 46.2131C24.6928 46.0824 24.4034 45.5812 24.5341 45.0936C24.6647 44.606 25.166 44.3166 25.6536 44.4472C26.1412 44.5779 26.4306 45.0791 26.2999 45.5667ZM30.7206 36.1316C31.2083 36.2623 31.7095 35.9729 31.8401 35.4853C31.9708 34.9976 31.6814 34.4964 31.1938 34.3658C30.7062 34.2351 30.205 34.5245 30.0743 35.0121C29.9436 35.4997 30.233 36.0009 30.7206 36.1316ZM30.4207 40.7826C30.2901 41.2702 29.7889 41.5596 29.3012 41.4289C28.8136 41.2983 28.5242 40.7971 28.6549 40.3094C28.7855 39.8218 29.2868 39.5324 29.7744 39.6631C30.262 39.7938 30.5514 40.295 30.4207 40.7826ZM30.0109 38.7804C30.4985 38.9111 30.9997 38.6217 31.1304 38.1341C31.2611 37.6464 30.9717 37.1452 30.4841 37.0146C29.9964 36.8839 29.4952 37.1733 29.3646 37.6609C29.2339 38.1485 29.5233 38.6497 30.0109 38.7804ZM29.711 43.4314C29.5803 43.919 29.0791 44.2084 28.5915 44.0777C28.1039 43.9471 27.8145 43.4459 27.9451 42.9582C28.0758 42.4706 28.577 42.1812 29.0646 42.3119C29.5523 42.4425 29.8416 42.9438 29.711 43.4314ZM27.8292 46.9228C28.3168 47.0535 28.818 46.7641 28.9486 46.2765C29.0793 45.7888 28.7899 45.2876 28.3023 45.157C27.8147 45.0263 27.3135 45.3157 27.1828 45.8033C27.0522 46.2909 27.3415 46.7921 27.8292 46.9228Z" fill="url(#paint0_linear_1756_363)"/>
</g>
<defs>
<linearGradient id="paint0_linear_1756_363" x1="24" y1="33" x2="25.5" y2="46" gradientUnits="userSpaceOnUse">
<stop stop-opacity="0"/>
<stop offset="1"/>
</linearGradient>
</defs>
</svg>
